<svg width="234" height="92" viewBox="0 0 234 92" fill="none" xmlns="http://www.w3.org/2000/svg">
<rect x="0.5" y="4.88086" width="233" height="86.619" rx="43.3095" fill="#F6F6F6" stroke="#1E1E1E"/>
<path d="M45.9255 44.88C45.9255 42.576 46.2615 40.448 46.9335 38.496C47.6375 36.544 48.5815 34.864 49.7655 33.456C50.9815 32.016 52.3895 30.896 53.9895 30.096C55.5895 29.296 57.3175 28.896 59.1735 28.896C59.9735 28.896 60.7255 28.96 61.4295 29.088C62.1655 29.216 62.8215 29.376 63.3975 29.568C64.0055 29.728 64.5015 29.92 64.8855 30.144C65.3015 30.336 65.5895 30.512 65.7495 30.672C65.9095 30.864 66.0375 31.392 66.1335 32.256C66.2295 33.12 66.2775 34.288 66.2775 35.76C66.2775 36.176 66.1335 36.384 65.8455 36.384C65.5255 36.384 65.3175 36.128 65.2215 35.616C65.1255 35.104 64.8695 34.48 64.4535 33.744C63.1735 31.376 61.3015 30.192 58.8375 30.192C57.5575 30.192 56.3575 30.528 55.2375 31.2C54.1495 31.872 53.1895 32.832 52.3575 34.08C51.5255 35.328 50.8695 36.864 50.3895 38.688C49.9095 40.512 49.6695 42.576 49.6695 44.88C49.6695 47.024 49.9095 48.992 50.3895 50.784C50.8695 52.576 51.5255 54.128 52.3575 55.44C53.2215 56.72 54.2135 57.728 55.3335 58.464C56.4535 59.168 57.6535 59.52 58.9335 59.52C60.4695 59.52 61.7175 59.072 62.6775 58.176C63.6375 57.28 64.4375 55.936 65.0775 54.144C65.3335 53.44 65.4935 52.896 65.5575 52.512C65.6535 52.096 65.8295 51.888 66.0855 51.888C66.4055 51.888 66.5655 52.16 66.5655 52.704C66.5655 54.304 66.5335 55.552 66.4695 56.448C66.4375 57.312 66.3255 57.888 66.1335 58.176C65.9415 58.464 65.6215 58.768 65.1735 59.088C64.7255 59.408 64.1815 59.712 63.5415 60C62.9015 60.256 62.1815 60.464 61.3815 60.624C60.5815 60.816 59.7015 60.912 58.7415 60.912C56.9175 60.912 55.2215 60.512 53.6535 59.712C52.0855 58.912 50.7255 57.792 49.5735 56.352C48.4215 54.912 47.5255 53.216 46.8855 51.264C46.2455 49.312 45.9255 47.184 45.9255 44.88ZM79.281 38.016C80.785 38.016 82.129 38.288 83.313 38.832C84.529 39.376 85.537 40.144 86.337 41.136C87.169 42.128 87.793 43.328 88.209 44.736C88.657 46.144 88.881 47.696 88.881 49.392C88.881 51.12 88.657 52.704 88.209 54.144C87.761 55.552 87.105 56.768 86.241 57.792C85.409 58.784 84.385 59.552 83.169 60.096C81.953 60.64 80.577 60.912 79.041 60.912C77.665 60.912 76.417 60.624 75.297 60.048C74.177 59.504 73.217 58.736 72.417 57.744C71.617 56.72 70.993 55.504 70.545 54.096C70.097 52.688 69.873 51.136 69.873 49.44C69.873 47.712 70.097 46.144 70.545 44.736C71.025 43.328 71.681 42.128 72.513 41.136C73.377 40.144 74.385 39.376 75.537 38.832C76.689 38.288 77.937 38.016 79.281 38.016ZM79.377 38.88C77.361 38.88 75.761 39.76 74.577 41.52C73.425 43.248 72.849 45.792 72.849 49.152C72.849 50.848 73.009 52.368 73.329 53.712C73.649 55.024 74.097 56.16 74.673 57.12C75.249 58.048 75.921 58.768 76.689 59.28C77.489 59.76 78.353 60 79.281 60C81.329 60 82.929 59.152 84.081 57.456C85.233 55.728 85.809 53.216 85.809 49.92C85.809 46.4 85.217 43.68 84.033 41.76C82.881 39.84 81.329 38.88 79.377 38.88ZM96.1406 39.168V41.424C96.1406 41.776 96.2046 41.952 96.3326 41.952C96.4606 41.952 96.6366 41.728 96.8606 41.28C97.0846 40.8 97.5006 40.288 98.1086 39.744C98.7486 39.168 99.3726 38.736 99.9806 38.448C100.589 38.16 101.261 38.016 101.997 38.016C103.309 38.016 104.381 38.384 105.213 39.12C106.045 39.824 106.717 40.928 107.229 42.432H107.421C108.349 40.928 109.277 39.824 110.205 39.12C111.133 38.384 112.157 38.016 113.277 38.016C114.941 38.016 116.285 38.672 117.309 39.984C118.333 41.296 118.845 43.072 118.845 45.312C118.845 45.472 118.845 45.808 118.845 46.32C118.877 46.8 118.893 47.456 118.893 48.288V57.072C118.893 57.744 119.005 58.208 119.229 58.464C119.485 58.688 119.757 58.848 120.045 58.944C120.333 59.008 120.589 59.072 120.813 59.136C121.069 59.168 121.197 59.312 121.197 59.568C121.197 59.792 121.149 59.936 121.053 60C120.957 60.032 120.781 60.048 120.525 60.048C120.333 60.048 119.997 60.016 119.517 59.952C119.037 59.888 118.397 59.856 117.597 59.856C116.893 59.856 116.285 59.888 115.773 59.952C115.293 60.016 114.893 60.048 114.573 60.048C114.317 60.048 114.125 60.032 113.997 60C113.901 59.936 113.853 59.792 113.853 59.568C113.853 59.312 113.965 59.168 114.189 59.136C114.445 59.072 114.717 58.992 115.005 58.896C115.325 58.8 115.597 58.64 115.821 58.416C116.077 58.16 116.205 57.712 116.205 57.072V47.424C116.205 44.928 115.901 43.056 115.293 41.808C114.717 40.56 113.661 39.936 112.125 39.936C110.877 39.936 109.821 40.496 108.957 41.616C108.125 42.736 107.693 44.464 107.661 46.8L107.565 57.072C107.565 57.712 107.677 58.16 107.901 58.416C108.157 58.64 108.429 58.8 108.717 58.896C109.037 58.992 109.309 59.072 109.533 59.136C109.789 59.168 109.917 59.312 109.917 59.568C109.917 59.792 109.869 59.936 109.773 60C109.677 60.032 109.501 60.048 109.245 60.048C109.021 60.048 108.669 60.016 108.189 59.952C107.709 59.888 107.085 59.856 106.317 59.856C105.453 59.856 104.765 59.888 104.253 59.952C103.741 60.016 103.405 60.048 103.245 60.048C102.989 60.048 102.813 60.032 102.717 60C102.621 59.936 102.573 59.792 102.573 59.568C102.573 59.312 102.685 59.168 102.909 59.136C103.165 59.072 103.437 58.992 103.725 58.896C104.013 58.8 104.269 58.64 104.493 58.416C104.749 58.16 104.877 57.712 104.877 57.072V47.424C104.877 44.928 104.573 43.056 103.965 41.808C103.357 40.56 102.301 39.936 100.797 39.936C99.5486 39.936 98.4766 40.528 97.5806 41.712C96.7166 42.864 96.2846 44.56 96.2846 46.8V57.072C96.2846 57.744 96.4126 58.208 96.6686 58.464C96.9246 58.688 97.2126 58.848 97.5326 58.944C97.8526 59.008 98.1406 59.072 98.3966 59.136C98.6526 59.168 98.7806 59.312 98.7806 59.568C98.7806 59.792 98.7166 59.936 98.5886 60C98.4926 60.032 98.3166 60.048 98.0606 60.048C97.9326 60.048 97.6126 60.016 97.1006 59.952C96.5886 59.888 95.8686 59.856 94.9406 59.856C94.2686 59.856 93.6606 59.888 93.1166 59.952C92.6046 60.016 92.1726 60.048 91.8206 60.048C91.5646 60.048 91.3726 60.032 91.2446 60C91.1486 59.936 91.1006 59.792 91.1006 59.568C91.1006 59.312 91.2286 59.168 91.4846 59.136C91.7406 59.072 92.0286 58.992 92.3486 58.896C92.6686 58.8 92.9566 58.64 93.2126 58.416C93.4686 58.16 93.5966 57.712 93.5966 57.072V43.392C93.5966 42.816 93.4846 42.432 93.2606 42.24C93.0686 42.048 92.8446 41.936 92.5886 41.904C92.3646 41.872 92.1566 41.856 91.9646 41.856C91.7726 41.856 91.6766 41.744 91.6766 41.52C91.6766 41.232 91.8366 41.04 92.1566 40.944C92.5086 40.816 92.8606 40.624 93.2126 40.368C94.0446 39.792 94.6526 39.264 95.0366 38.784C95.4206 38.272 95.6926 38.016 95.8526 38.016C96.0126 38.016 96.0926 38.128 96.0926 38.352C96.1246 38.544 96.1406 38.816 96.1406 39.168ZM128.297 39.168V41.232C128.297 41.52 128.377 41.664 128.537 41.664C128.633 41.664 128.841 41.472 129.161 41.088C129.481 40.704 129.897 40.288 130.409 39.84C130.953 39.36 131.593 38.928 132.329 38.544C133.065 38.16 133.929 37.968 134.921 37.968C136.009 37.968 137.017 38.24 137.945 38.784C138.905 39.296 139.721 40.048 140.393 41.04C141.097 42 141.641 43.168 142.025 44.544C142.441 45.92 142.649 47.456 142.649 49.152C142.649 50.976 142.409 52.624 141.929 54.096C141.481 55.536 140.857 56.768 140.057 57.792C139.257 58.784 138.313 59.552 137.225 60.096C136.137 60.64 134.953 60.912 133.673 60.912C132.745 60.912 131.881 60.784 131.081 60.528C130.313 60.304 129.513 59.92 128.681 59.376H128.441V67.632C128.441 68.304 128.601 68.752 128.921 68.976C129.241 69.232 129.593 69.392 129.977 69.456C130.393 69.52 130.761 69.568 131.081 69.6C131.401 69.664 131.561 69.84 131.561 70.128C131.561 70.448 131.321 70.608 130.841 70.608C130.553 70.608 130.137 70.576 129.593 70.512C129.049 70.448 128.361 70.416 127.529 70.416C126.633 70.416 125.881 70.448 125.273 70.512C124.697 70.576 124.249 70.608 123.929 70.608C123.481 70.608 123.257 70.448 123.257 70.128C123.257 69.872 123.385 69.712 123.641 69.648C123.897 69.616 124.185 69.552 124.505 69.456C124.825 69.36 125.113 69.184 125.369 68.928C125.625 68.704 125.753 68.272 125.753 67.632V43.392C125.753 42.816 125.641 42.432 125.417 42.24C125.225 42.048 125.001 41.936 124.745 41.904C124.521 41.872 124.313 41.856 124.121 41.856C123.929 41.856 123.833 41.744 123.833 41.52C123.833 41.232 123.993 41.04 124.313 40.944C124.665 40.816 125.017 40.624 125.369 40.368C126.201 39.792 126.809 39.264 127.193 38.784C127.577 38.272 127.849 38.016 128.009 38.016C128.169 38.016 128.249 38.128 128.249 38.352C128.281 38.544 128.297 38.816 128.297 39.168ZM128.441 55.92C128.441 56.496 128.569 57.04 128.825 57.552C129.081 58.032 129.417 58.448 129.833 58.8C130.281 59.152 130.793 59.44 131.369 59.664C131.945 59.856 132.569 59.952 133.241 59.952C135.161 59.952 136.729 59.072 137.945 57.312C139.161 55.52 139.769 52.976 139.769 49.68C139.769 46.448 139.193 43.984 138.041 42.288C136.921 40.56 135.481 39.696 133.721 39.696C133.081 39.696 132.441 39.84 131.801 40.128C131.161 40.384 130.585 40.768 130.073 41.28C129.593 41.76 129.193 42.336 128.873 43.008C128.585 43.68 128.441 44.416 128.441 45.216V55.92ZM150.188 39.168V41.904C150.188 42.128 150.252 42.24 150.38 42.24C150.476 42.24 150.588 42.16 150.716 42L151.58 40.752C152.924 38.928 154.348 38.016 155.852 38.016C156.652 38.016 157.276 38.24 157.724 38.688C158.172 39.104 158.396 39.632 158.396 40.272C158.396 40.912 158.22 41.44 157.868 41.856C157.548 42.24 157.18 42.432 156.764 42.432C156.444 42.432 156.156 42.336 155.9 42.144C155.676 41.952 155.436 41.744 155.18 41.52C154.956 41.264 154.716 41.04 154.46 40.848C154.204 40.656 153.884 40.56 153.5 40.56C153.148 40.56 152.78 40.704 152.396 40.992C152.044 41.28 151.708 41.744 151.388 42.384C151.068 42.992 150.812 43.776 150.62 44.736C150.428 45.696 150.332 46.848 150.332 48.192V56.112C150.332 56.944 150.396 57.536 150.523 57.888C150.652 58.24 150.956 58.512 151.436 58.704C151.852 58.864 152.22 58.96 152.54 58.992C152.86 59.024 153.132 59.056 153.356 59.088C153.58 59.088 153.74 59.12 153.836 59.184C153.964 59.216 154.028 59.344 154.028 59.568C154.028 59.92 153.772 60.096 153.26 60.096C152.844 60.096 152.268 60.064 151.532 60C150.828 59.904 149.98 59.856 148.988 59.856C148.348 59.856 147.756 59.888 147.212 59.952C146.7 60.016 146.252 60.048 145.868 60.048C145.612 60.048 145.42 60.032 145.292 60C145.196 59.936 145.148 59.792 145.148 59.568C145.148 59.248 145.26 59.088 145.484 59.088C145.74 59.088 146.14 58.992 146.684 58.8C147.1 58.64 147.356 58.368 147.452 57.984C147.58 57.568 147.644 56.944 147.644 56.112V43.392C147.644 42.816 147.532 42.432 147.308 42.24C147.116 42.048 146.892 41.936 146.636 41.904C146.412 41.872 146.204 41.856 146.012 41.856C145.82 41.856 145.724 41.744 145.724 41.52C145.724 41.264 145.884 41.072 146.204 40.944C146.556 40.784 146.94 40.56 147.355 40.272C148.092 39.76 148.652 39.264 149.036 38.784C149.42 38.272 149.708 38.016 149.9 38.016C150.06 38.016 150.14 38.128 150.14 38.352C150.172 38.544 150.188 38.816 150.188 39.168ZM172.076 43.44V55.488C172.076 57.472 172.508 58.464 173.372 58.464C173.724 58.464 174.044 58.288 174.332 57.936C174.652 57.584 174.908 57.408 175.1 57.408C175.324 57.408 175.436 57.52 175.436 57.744C175.436 58 175.292 58.304 175.004 58.656C174.748 58.976 174.428 59.296 174.044 59.616C173.66 59.936 173.244 60.192 172.796 60.384C172.38 60.608 172.012 60.72 171.692 60.72C171.052 60.72 170.556 60.48 170.204 60C169.884 59.488 169.58 58.672 169.292 57.552H169.1C167.884 58.576 166.796 59.392 165.836 60C164.908 60.608 163.932 60.912 162.908 60.912C161.756 60.912 160.86 60.576 160.22 59.904C159.58 59.2 159.26 58.272 159.26 57.12C159.26 56.224 159.468 55.392 159.884 54.624C160.3 53.824 160.924 53.056 161.756 52.32C162.62 51.552 163.676 50.768 164.924 49.968C166.172 49.168 167.612 48.304 169.244 47.376V43.152C169.244 41.68 169.084 40.624 168.764 39.984C168.476 39.344 167.836 39.024 166.844 39.024C166.012 39.024 165.228 39.312 164.492 39.888C163.756 40.464 163.244 41.152 162.956 41.952C162.604 42.944 162.252 43.792 161.9 44.496C161.548 45.168 160.924 45.504 160.028 45.504C159.804 45.504 159.612 45.44 159.452 45.312C159.292 45.152 159.212 44.944 159.212 44.688C159.212 44.112 159.42 43.44 159.836 42.672C160.252 41.904 160.844 41.168 161.612 40.464C162.38 39.76 163.292 39.168 164.348 38.688C165.404 38.208 166.556 37.968 167.804 37.968C168.796 37.968 169.58 38.096 170.156 38.352C170.732 38.608 171.164 38.976 171.452 39.456C171.74 39.936 171.916 40.512 171.98 41.184C172.044 41.856 172.076 42.608 172.076 43.44ZM169.292 49.296C169.292 48.976 169.196 48.816 169.004 48.816C168.908 48.816 168.748 48.88 168.524 49.008L167.084 49.824C163.82 51.712 162.188 53.712 162.188 55.824C162.188 56.72 162.412 57.44 162.86 57.984C163.308 58.496 163.932 58.752 164.732 58.752C165.212 58.752 165.708 58.64 166.22 58.416C166.764 58.192 167.26 57.872 167.708 57.456C168.188 57.008 168.572 56.48 168.86 55.872C169.148 55.232 169.292 54.512 169.292 53.712V49.296ZM181.594 39.168V41.904C181.594 42.128 181.658 42.24 181.786 42.24C181.882 42.24 181.994 42.16 182.122 42L182.986 40.752C184.33 38.928 185.754 38.016 187.258 38.016C188.058 38.016 188.682 38.24 189.13 38.688C189.578 39.104 189.802 39.632 189.802 40.272C189.802 40.912 189.626 41.44 189.274 41.856C188.954 42.24 188.586 42.432 188.17 42.432C187.85 42.432 187.562 42.336 187.306 42.144C187.082 41.952 186.842 41.744 186.586 41.52C186.362 41.264 186.122 41.04 185.866 40.848C185.61 40.656 185.29 40.56 184.906 40.56C184.554 40.56 184.186 40.704 183.802 40.992C183.45 41.28 183.114 41.744 182.794 42.384C182.474 42.992 182.218 43.776 182.026 44.736C181.834 45.696 181.738 46.848 181.738 48.192V56.112C181.738 56.944 181.802 57.536 181.93 57.888C182.058 58.24 182.362 58.512 182.842 58.704C183.258 58.864 183.626 58.96 183.946 58.992C184.266 59.024 184.538 59.056 184.762 59.088C184.986 59.088 185.146 59.12 185.242 59.184C185.37 59.216 185.434 59.344 185.434 59.568C185.434 59.92 185.178 60.096 184.666 60.096C184.25 60.096 183.674 60.064 182.938 60C182.234 59.904 181.386 59.856 180.394 59.856C179.754 59.856 179.162 59.888 178.618 59.952C178.106 60.016 177.658 60.048 177.274 60.048C177.018 60.048 176.826 60.032 176.698 60C176.602 59.936 176.554 59.792 176.554 59.568C176.554 59.248 176.666 59.088 176.89 59.088C177.146 59.088 177.546 58.992 178.09 58.8C178.506 58.64 178.762 58.368 178.858 57.984C178.986 57.568 179.05 56.944 179.05 56.112V43.392C179.05 42.816 178.938 42.432 178.714 42.24C178.522 42.048 178.298 41.936 178.042 41.904C177.818 41.872 177.61 41.856 177.418 41.856C177.226 41.856 177.13 41.744 177.13 41.52C177.13 41.264 177.29 41.072 177.61 40.944C177.962 40.784 178.346 40.56 178.762 40.272C179.498 39.76 180.058 39.264 180.442 38.784C180.826 38.272 181.114 38.016 181.306 38.016C181.466 38.016 181.546 38.128 181.546 38.352C181.578 38.544 181.594 38.816 181.594 39.168Z" fill="#1E1E1E"/>
<path d="M44.4375 66.384H189.562V68.592H44.4375V66.384Z" fill="#1E1E1E"/>
</svg>
