<svg width="201" height="100" viewBox="0 0 201 100" fill="none" xmlns="http://www.w3.org/2000/svg">
<ellipse cx="100.605" cy="50.2896" rx="99.6052" ry="49.2896" fill="#F8FC5F" stroke="#707070" stroke-width="0.837019"/>
<path d="M40.7508 48.4496C40.7508 46.7216 41.0028 45.1256 41.5068 43.6616C42.0348 42.1976 42.7428 40.9376 43.6308 39.8816C44.5428 38.8016 45.5988 37.9616 46.7988 37.3616C47.9988 36.7616 49.2948 36.4616 50.6868 36.4616C51.2868 36.4616 51.8508 36.5096 52.3788 36.6056C52.9308 36.7016 53.4228 36.8216 53.8548 36.9656C54.3108 37.0856 54.6828 37.2296 54.9708 37.3976C55.2828 37.5416 55.4988 37.6736 55.6188 37.7936C55.7388 37.9376 55.8348 38.3336 55.9068 38.9816C55.9788 39.6296 56.0148 40.5056 56.0148 41.6096C56.0148 41.9216 55.9068 42.0776 55.6908 42.0776C55.4508 42.0776 55.2948 41.8856 55.2228 41.5016C55.1508 41.1176 54.9588 40.6496 54.6468 40.0976C53.6868 38.3216 52.2828 37.4336 50.4348 37.4336C49.4748 37.4336 48.5748 37.6856 47.7348 38.1896C46.9188 38.6936 46.1988 39.4136 45.5748 40.3496C44.9508 41.2856 44.4588 42.4376 44.0988 43.8056C43.7388 45.1736 43.5588 46.7216 43.5588 48.4496C43.5588 50.0576 43.7388 51.5336 44.0988 52.8776C44.4588 54.2216 44.9508 55.3856 45.5748 56.3696C46.2228 57.3296 46.9668 58.0856 47.8068 58.6376C48.6468 59.1656 49.5468 59.4296 50.5068 59.4296C51.6588 59.4296 52.5948 59.0936 53.3148 58.4216C54.0348 57.7496 54.6348 56.7416 55.1148 55.3976C55.3068 54.8696 55.4268 54.4616 55.4748 54.1736C55.5468 53.8616 55.6788 53.7056 55.8708 53.7056C56.1108 53.7056 56.2308 53.9096 56.2308 54.3176C56.2308 55.5176 56.2068 56.4536 56.1588 57.1256C56.1348 57.7736 56.0508 58.2056 55.9068 58.4216C55.7628 58.6376 55.5228 58.8656 55.1868 59.1056C54.8508 59.3456 54.4428 59.5736 53.9628 59.7896C53.4828 59.9816 52.9428 60.1376 52.3428 60.2576C51.7428 60.4016 51.0828 60.4736 50.3628 60.4736C48.9948 60.4736 47.7228 60.1736 46.5468 59.5736C45.3708 58.9736 44.3508 58.1336 43.4868 57.0536C42.6228 55.9736 41.9508 54.7016 41.4708 53.2376C40.9908 51.7736 40.7508 50.1776 40.7508 48.4496ZM65.7674 43.3016C66.8954 43.3016 67.9034 43.5056 68.7914 43.9136C69.7034 44.3216 70.4594 44.8976 71.0594 45.6416C71.6834 46.3856 72.1514 47.2856 72.4634 48.3416C72.7994 49.3976 72.9674 50.5616 72.9674 51.8336C72.9674 53.1296 72.7994 54.3176 72.4634 55.3976C72.1274 56.4536 71.6354 57.3656 70.9874 58.1336C70.3634 58.8776 69.5954 59.4536 68.6834 59.8616C67.7714 60.2696 66.7394 60.4736 65.5874 60.4736C64.5554 60.4736 63.6194 60.2576 62.7794 59.8256C61.9394 59.4176 61.2194 58.8416 60.6194 58.0976C60.0194 57.3296 59.5514 56.4176 59.2154 55.3616C58.8794 54.3056 58.7114 53.1416 58.7114 51.8696C58.7114 50.5736 58.8794 49.3976 59.2154 48.3416C59.5754 47.2856 60.0674 46.3856 60.6914 45.6416C61.3394 44.8976 62.0954 44.3216 62.9594 43.9136C63.8234 43.5056 64.7594 43.3016 65.7674 43.3016ZM65.8394 43.9496C64.3274 43.9496 63.1274 44.6096 62.2394 45.9296C61.3754 47.2256 60.9434 49.1336 60.9434 51.6536C60.9434 52.9256 61.0634 54.0656 61.3034 55.0736C61.5434 56.0576 61.8794 56.9096 62.3114 57.6296C62.7434 58.3256 63.2474 58.8656 63.8234 59.2496C64.4234 59.6096 65.0714 59.7896 65.7674 59.7896C67.3034 59.7896 68.5034 59.1536 69.3674 57.8816C70.2314 56.5856 70.6634 54.7016 70.6634 52.2296C70.6634 49.5896 70.2194 47.5496 69.3314 46.1096C68.4674 44.6696 67.3034 43.9496 65.8394 43.9496ZM78.4121 44.1656V45.8576C78.4121 46.1216 78.4601 46.2536 78.5561 46.2536C78.6521 46.2536 78.7961 46.0856 78.9881 45.7496C79.2041 45.3896 79.5401 45.0056 79.9961 44.5976C80.4761 44.1656 80.9561 43.8416 81.4361 43.6256C81.9401 43.4096 82.4801 43.3016 83.0561 43.3016C84.4001 43.3016 85.4801 43.7936 86.2961 44.7776C87.1121 45.7616 87.5201 47.0936 87.5201 48.7736V57.5936C87.5201 58.0976 87.6161 58.4456 87.8081 58.6376C88.0001 58.8056 88.2161 58.9256 88.4561 58.9976C88.6961 59.0456 88.9121 59.0936 89.1041 59.1416C89.2961 59.1656 89.3921 59.2736 89.3921 59.4656C89.3921 59.6336 89.3441 59.7416 89.2481 59.7896C89.1761 59.8136 89.0441 59.8256 88.8521 59.8256C88.6841 59.8256 88.4081 59.8016 88.0241 59.7536C87.6401 59.7056 87.1361 59.6816 86.5121 59.6816C86.0081 59.6816 85.5641 59.7056 85.1801 59.7536C84.8201 59.8016 84.5081 59.8256 84.2441 59.8256C84.0281 59.8256 83.8721 59.8136 83.7761 59.7896C83.6801 59.7656 83.6321 59.6576 83.6321 59.4656C83.6321 59.2736 83.7281 59.1656 83.9201 59.1416C84.1121 59.0936 84.3281 59.0336 84.5681 58.9616C84.8081 58.8896 85.0241 58.7696 85.2161 58.6016C85.4081 58.4096 85.5041 58.0736 85.5041 57.5936V50.3576C85.5041 48.4856 85.2641 47.0816 84.7841 46.1456C84.3041 45.2096 83.4401 44.7416 82.1921 44.7416C80.8961 44.7416 79.9601 45.2696 79.3841 46.3256C78.8081 47.3576 78.5201 48.9176 78.5201 51.0056V57.5936C78.5201 58.0976 78.6161 58.4456 78.8081 58.6376C79.0001 58.8056 79.2161 58.9256 79.4561 58.9976C79.6961 59.0456 79.9121 59.0936 80.1041 59.1416C80.2961 59.1656 80.3921 59.2736 80.3921 59.4656C80.3921 59.6336 80.3441 59.7416 80.2481 59.7896C80.1761 59.8136 80.0441 59.8256 79.8521 59.8256C79.6841 59.8256 79.4081 59.8016 79.0241 59.7536C78.6401 59.7056 78.1361 59.6816 77.5121 59.6816C77.0561 59.6816 76.6361 59.7056 76.2521 59.7536C75.8681 59.8016 75.5081 59.8256 75.1721 59.8256C74.9801 59.8256 74.8361 59.8136 74.7401 59.7896C74.6681 59.7416 74.6321 59.6336 74.6321 59.4656C74.6321 59.2736 74.7281 59.1656 74.9201 59.1416C75.1121 59.0936 75.3281 59.0336 75.5681 58.9616C75.8081 58.8896 76.0241 58.7696 76.2161 58.6016C76.4081 58.4096 76.5041 58.0736 76.5041 57.5936V47.1536C76.5041 46.7936 76.4201 46.5656 76.2521 46.4696C76.1081 46.3496 75.9401 46.2776 75.7481 46.2536C75.5801 46.2296 75.4241 46.2056 75.2801 46.1816C75.1361 46.1576 75.0641 46.0736 75.0641 45.9296C75.0641 45.7136 75.1841 45.5696 75.4241 45.4976C75.6881 45.4016 75.9521 45.2576 76.2161 45.0656C76.8401 44.6336 77.2961 44.2376 77.5841 43.8776C77.8721 43.4936 78.0761 43.3016 78.1961 43.3016C78.3161 43.3016 78.3761 43.3856 78.3761 43.5536C78.4001 43.6976 78.4121 43.9016 78.4121 44.1656ZM94.6551 41.5016V43.3376C94.6551 43.5776 94.6791 43.7456 94.7271 43.8416C94.7991 43.9136 94.9431 43.9496 95.1591 43.9496H97.8231C98.0391 43.9496 98.1711 43.9856 98.2191 44.0576C98.2671 44.1056 98.2911 44.2256 98.2911 44.4176V44.5616C98.2911 44.7776 98.2551 44.9336 98.1831 45.0296C98.1351 45.1256 98.0151 45.1736 97.8231 45.1736H95.1231C94.9071 45.1736 94.7631 45.2216 94.6911 45.3176C94.6431 45.3896 94.6191 45.5456 94.6191 45.7856V56.2976C94.6191 58.1216 95.1951 59.0336 96.3471 59.0336C96.6591 59.0336 96.9471 58.9616 97.2111 58.8176C97.4751 58.6736 97.7031 58.5296 97.8951 58.3856C98.1111 58.2176 98.2911 58.0616 98.4351 57.9176C98.5791 57.7736 98.6871 57.7016 98.7591 57.7016C98.8551 57.7016 98.9031 57.7976 98.9031 57.9896C98.9031 58.1096 98.8071 58.3136 98.6151 58.6016C98.4471 58.8656 98.1951 59.1416 97.8591 59.4296C97.5471 59.6936 97.1751 59.9336 96.7431 60.1496C96.3351 60.3656 95.9031 60.4736 95.4471 60.4736C94.5111 60.4736 93.7791 60.1016 93.2511 59.3576C92.7471 58.6136 92.4951 57.5216 92.4951 56.0816V54.3896L92.6031 45.7856C92.6031 45.5456 92.5671 45.3896 92.4951 45.3176C92.4471 45.2216 92.3151 45.1736 92.0991 45.1736H91.5591C91.1991 45.1736 91.0191 45.0656 91.0191 44.8496C91.0191 44.6576 91.1991 44.4296 91.5591 44.1656C91.9431 43.8776 92.3991 43.4216 92.9271 42.7976C93.4551 42.1736 93.8031 41.6336 93.9711 41.1776C94.1631 40.7216 94.3431 40.4936 94.5111 40.4936C94.6071 40.4936 94.6551 40.6376 94.6551 40.9256V41.5016ZM102.966 37.1096C103.302 37.1096 103.602 37.2896 103.866 37.6496C104.13 38.0096 104.262 38.4296 104.262 38.9096C104.262 39.3656 104.13 39.7736 103.866 40.1336C103.626 40.4696 103.326 40.6376 102.966 40.6376C102.63 40.6376 102.33 40.4696 102.066 40.1336C101.826 39.7976 101.706 39.3896 101.706 38.9096C101.706 38.4296 101.826 38.0096 102.066 37.6496C102.33 37.2896 102.63 37.1096 102.966 37.1096ZM104.082 44.1656V57.5936C104.082 58.0976 104.178 58.4456 104.37 58.6376C104.586 58.8056 104.814 58.9256 105.054 58.9976C105.318 59.0456 105.546 59.0936 105.738 59.1416C105.954 59.1656 106.062 59.2736 106.062 59.4656C106.062 59.6576 106.014 59.7656 105.918 59.7896C105.846 59.8136 105.714 59.8256 105.522 59.8256C105.378 59.8256 105.09 59.8016 104.658 59.7536C104.25 59.7056 103.698 59.6816 103.002 59.6816C102.45 59.6816 101.958 59.7056 101.526 59.7536C101.118 59.8016 100.782 59.8256 100.518 59.8256C100.326 59.8256 100.17 59.8136 100.05 59.7896C99.9541 59.7416 99.9061 59.6336 99.9061 59.4656C99.9061 59.2736 100.014 59.1656 100.23 59.1416C100.47 59.0936 100.722 59.0456 100.986 58.9976C101.25 58.9256 101.49 58.7936 101.706 58.6016C101.946 58.4096 102.066 58.0736 102.066 57.5936V47.6936C102.066 46.8056 101.694 46.3616 100.95 46.3616C100.758 46.3616 100.602 46.3496 100.482 46.3256C100.362 46.2776 100.302 46.1696 100.302 46.0016C100.302 45.7616 100.434 45.5936 100.698 45.4976C100.986 45.4016 101.286 45.2216 101.598 44.9576C102.27 44.5736 102.774 44.2256 103.11 43.9136C103.446 43.6016 103.686 43.4456 103.83 43.4456C103.95 43.4456 104.022 43.5056 104.046 43.6256C104.07 43.7216 104.082 43.9016 104.082 44.1656ZM111.107 44.1656V45.8576C111.107 46.1216 111.155 46.2536 111.251 46.2536C111.347 46.2536 111.491 46.0856 111.683 45.7496C111.899 45.3896 112.235 45.0056 112.691 44.5976C113.171 44.1656 113.651 43.8416 114.131 43.6256C114.635 43.4096 115.175 43.3016 115.751 43.3016C117.095 43.3016 118.175 43.7936 118.991 44.7776C119.807 45.7616 120.215 47.0936 120.215 48.7736V57.5936C120.215 58.0976 120.311 58.4456 120.503 58.6376C120.695 58.8056 120.911 58.9256 121.151 58.9976C121.391 59.0456 121.607 59.0936 121.799 59.1416C121.991 59.1656 122.087 59.2736 122.087 59.4656C122.087 59.6336 122.039 59.7416 121.943 59.7896C121.871 59.8136 121.739 59.8256 121.547 59.8256C121.379 59.8256 121.103 59.8016 120.719 59.7536C120.335 59.7056 119.831 59.6816 119.207 59.6816C118.703 59.6816 118.259 59.7056 117.875 59.7536C117.515 59.8016 117.203 59.8256 116.939 59.8256C116.723 59.8256 116.567 59.8136 116.471 59.7896C116.375 59.7656 116.327 59.6576 116.327 59.4656C116.327 59.2736 116.423 59.1656 116.615 59.1416C116.807 59.0936 117.023 59.0336 117.263 58.9616C117.503 58.8896 117.719 58.7696 117.911 58.6016C118.103 58.4096 118.199 58.0736 118.199 57.5936V50.3576C118.199 48.4856 117.959 47.0816 117.479 46.1456C116.999 45.2096 116.135 44.7416 114.887 44.7416C113.591 44.7416 112.655 45.2696 112.079 46.3256C111.503 47.3576 111.215 48.9176 111.215 51.0056V57.5936C111.215 58.0976 111.311 58.4456 111.503 58.6376C111.695 58.8056 111.911 58.9256 112.151 58.9976C112.391 59.0456 112.607 59.0936 112.799 59.1416C112.991 59.1656 113.087 59.2736 113.087 59.4656C113.087 59.6336 113.039 59.7416 112.943 59.7896C112.871 59.8136 112.739 59.8256 112.547 59.8256C112.379 59.8256 112.103 59.8016 111.719 59.7536C111.335 59.7056 110.831 59.6816 110.207 59.6816C109.751 59.6816 109.331 59.7056 108.947 59.7536C108.563 59.8016 108.203 59.8256 107.867 59.8256C107.675 59.8256 107.531 59.8136 107.435 59.7896C107.363 59.7416 107.327 59.6336 107.327 59.4656C107.327 59.2736 107.423 59.1656 107.615 59.1416C107.807 59.0936 108.023 59.0336 108.263 58.9616C108.503 58.8896 108.719 58.7696 108.911 58.6016C109.103 58.4096 109.199 58.0736 109.199 57.5936V47.1536C109.199 46.7936 109.115 46.5656 108.947 46.4696C108.803 46.3496 108.635 46.2776 108.443 46.2536C108.275 46.2296 108.119 46.2056 107.975 46.1816C107.831 46.1576 107.759 46.0736 107.759 45.9296C107.759 45.7136 107.879 45.5696 108.119 45.4976C108.383 45.4016 108.647 45.2576 108.911 45.0656C109.535 44.6336 109.991 44.2376 110.279 43.8776C110.567 43.4936 110.771 43.3016 110.891 43.3016C111.011 43.3016 111.071 43.3856 111.071 43.5536C111.095 43.6976 111.107 43.9016 111.107 44.1656ZM127.422 45.1016V53.3816C127.422 55.2536 127.662 56.6576 128.142 57.5936C128.622 58.5296 129.486 58.9976 130.734 58.9976C132.03 58.9976 132.966 58.4816 133.542 57.4496C134.118 56.3936 134.406 54.8216 134.406 52.7336V46.1816C134.406 45.7016 134.31 45.3656 134.118 45.1736C133.926 44.9816 133.71 44.8496 133.47 44.7776C133.23 44.7056 133.014 44.6576 132.822 44.6336C132.63 44.6096 132.534 44.5016 132.534 44.3096C132.534 44.1416 132.558 44.0456 132.606 44.0216C132.678 43.9736 132.774 43.9496 132.894 43.9496C132.99 43.9496 133.146 43.9616 133.362 43.9856C133.578 44.0096 133.866 44.0216 134.226 44.0216C134.634 44.0216 134.982 44.0096 135.27 43.9856C135.558 43.9616 135.762 43.9496 135.882 43.9496C136.146 43.9496 136.302 44.0216 136.35 44.1656C136.398 44.2856 136.422 44.5976 136.422 45.1016V56.9456C136.422 57.4496 136.494 57.7856 136.638 57.9536C136.782 58.1216 136.938 58.2176 137.106 58.2416C137.298 58.2656 137.466 58.2776 137.61 58.2776C137.778 58.2776 137.862 58.3616 137.862 58.5296C137.862 58.7216 137.73 58.8776 137.466 58.9976C137.202 59.0936 136.89 59.2376 136.53 59.4296C136.098 59.6696 135.75 59.8976 135.486 60.1136C135.222 60.3536 134.994 60.4736 134.802 60.4736C134.658 60.4736 134.562 60.3896 134.514 60.2216C134.49 60.0776 134.478 59.8736 134.478 59.6096V57.9176C134.478 57.6296 134.442 57.4856 134.37 57.4856C134.274 57.4856 134.13 57.6656 133.938 58.0256C133.746 58.3616 133.41 58.7336 132.93 59.1416C132.45 59.5736 131.958 59.8976 131.454 60.1136C130.974 60.3536 130.434 60.4736 129.834 60.4736C129.018 60.4736 128.274 60.2696 127.602 59.8616C126.954 59.4536 126.462 58.8896 126.126 58.1696C125.79 57.5216 125.586 56.8496 125.514 56.1536C125.442 55.4576 125.406 54.7256 125.406 53.9576V46.1816C125.406 45.7016 125.31 45.3656 125.118 45.1736C124.926 44.9816 124.71 44.8496 124.47 44.7776C124.23 44.7056 124.014 44.6576 123.822 44.6336C123.63 44.6096 123.534 44.5016 123.534 44.3096C123.534 44.1416 123.558 44.0456 123.606 44.0216C123.678 43.9736 123.774 43.9496 123.894 43.9496C123.942 43.9496 124.098 43.9616 124.362 43.9856C124.65 44.0096 125.046 44.0216 125.55 44.0216C125.814 44.0216 126.042 44.0096 126.234 43.9856C126.45 43.9616 126.654 43.9496 126.846 43.9496C127.11 43.9496 127.266 44.0096 127.314 44.1296C127.386 44.2496 127.422 44.5736 127.422 45.1016ZM149.461 47.3696V56.4056C149.461 57.8936 149.785 58.6376 150.433 58.6376C150.697 58.6376 150.937 58.5056 151.153 58.2416C151.393 57.9776 151.585 57.8456 151.729 57.8456C151.897 57.8456 151.981 57.9296 151.981 58.0976C151.981 58.2896 151.873 58.5176 151.657 58.7816C151.465 59.0216 151.225 59.2616 150.937 59.5016C150.649 59.7416 150.337 59.9336 150.001 60.0776C149.689 60.2456 149.413 60.3296 149.173 60.3296C148.693 60.3296 148.321 60.1496 148.057 59.7896C147.817 59.4056 147.589 58.7936 147.373 57.9536H147.229C146.317 58.7216 145.501 59.3336 144.781 59.7896C144.085 60.2456 143.353 60.4736 142.585 60.4736C141.721 60.4736 141.049 60.2216 140.569 59.7176C140.089 59.1896 139.849 58.4936 139.849 57.6296C139.849 56.9576 140.005 56.3336 140.317 55.7576C140.629 55.1576 141.097 54.5816 141.721 54.0296C142.369 53.4536 143.161 52.8656 144.097 52.2656C145.033 51.6656 146.113 51.0176 147.337 50.3216V47.1536C147.337 46.0496 147.217 45.2576 146.977 44.7776C146.761 44.2976 146.281 44.0576 145.537 44.0576C144.913 44.0576 144.325 44.2736 143.773 44.7056C143.221 45.1376 142.837 45.6536 142.621 46.2536C142.357 46.9976 142.093 47.6336 141.829 48.1616C141.565 48.6656 141.097 48.9176 140.425 48.9176C140.257 48.9176 140.113 48.8696 139.993 48.7736C139.873 48.6536 139.813 48.4976 139.813 48.3056C139.813 47.8736 139.969 47.3696 140.281 46.7936C140.593 46.2176 141.037 45.6656 141.613 45.1376C142.189 44.6096 142.873 44.1656 143.665 43.8056C144.457 43.4456 145.321 43.2656 146.257 43.2656C147.001 43.2656 147.589 43.3616 148.021 43.5536C148.453 43.7456 148.777 44.0216 148.993 44.3816C149.209 44.7416 149.341 45.1736 149.389 45.6776C149.437 46.1816 149.461 46.7456 149.461 47.3696ZM147.373 51.7616C147.373 51.5216 147.301 51.4016 147.157 51.4016C147.085 51.4016 146.965 51.4496 146.797 51.5456L145.717 52.1576C143.269 53.5736 142.045 55.0736 142.045 56.6576C142.045 57.3296 142.213 57.8696 142.549 58.2776C142.885 58.6616 143.353 58.8536 143.953 58.8536C144.313 58.8536 144.685 58.7696 145.069 58.6016C145.477 58.4336 145.849 58.1936 146.185 57.8816C146.545 57.5456 146.833 57.1496 147.049 56.6936C147.265 56.2136 147.373 55.6736 147.373 55.0736V51.7616ZM156.6 44.1656V46.2176C156.6 46.3856 156.648 46.4696 156.744 46.4696C156.816 46.4696 156.9 46.4096 156.996 46.2896L157.644 45.3536C158.652 43.9856 159.72 43.3016 160.848 43.3016C161.448 43.3016 161.916 43.4696 162.252 43.8056C162.588 44.1176 162.756 44.5136 162.756 44.9936C162.756 45.4736 162.624 45.8696 162.36 46.1816C162.12 46.4696 161.844 46.6136 161.532 46.6136C161.292 46.6136 161.076 46.5416 160.884 46.3976C160.716 46.2536 160.536 46.0976 160.344 45.9296C160.176 45.7376 159.996 45.5696 159.804 45.4256C159.612 45.2816 159.372 45.2096 159.084 45.2096C158.82 45.2096 158.544 45.3176 158.256 45.5336C157.992 45.7496 157.74 46.0976 157.5 46.5776C157.26 47.0336 157.068 47.6216 156.924 48.3416C156.78 49.0616 156.708 49.9256 156.708 50.9336V56.8736C156.708 57.4976 156.756 57.9416 156.852 58.2056C156.948 58.4696 157.176 58.6736 157.536 58.8176C157.848 58.9376 158.124 59.0096 158.364 59.0336C158.604 59.0576 158.808 59.0816 158.976 59.1056C159.144 59.1056 159.264 59.1296 159.336 59.1776C159.432 59.2016 159.48 59.2976 159.48 59.4656C159.48 59.7296 159.288 59.8616 158.904 59.8616C158.592 59.8616 158.16 59.8376 157.608 59.7896C157.08 59.7176 156.444 59.6816 155.7 59.6816C155.22 59.6816 154.776 59.7056 154.368 59.7536C153.984 59.8016 153.648 59.8256 153.36 59.8256C153.168 59.8256 153.024 59.8136 152.928 59.7896C152.856 59.7416 152.82 59.6336 152.82 59.4656C152.82 59.2256 152.904 59.1056 153.072 59.1056C153.264 59.1056 153.564 59.0336 153.972 58.8896C154.284 58.7696 154.476 58.5656 154.548 58.2776C154.644 57.9656 154.692 57.4976 154.692 56.8736V47.3336C154.692 46.9016 154.608 46.6136 154.44 46.4696C154.296 46.3256 154.128 46.2416 153.936 46.2176C153.768 46.1936 153.612 46.1816 153.468 46.1816C153.324 46.1816 153.252 46.0976 153.252 45.9296C153.252 45.7376 153.372 45.5936 153.612 45.4976C153.876 45.3776 154.164 45.2096 154.476 44.9936C155.028 44.6096 155.448 44.2376 155.736 43.8776C156.024 43.4936 156.24 43.3016 156.384 43.3016C156.504 43.3016 156.564 43.3856 156.564 43.5536C156.588 43.6976 156.6 43.9016 156.6 44.1656Z" fill="black"/>
</svg>
