<svg width="147" height="52" viewBox="0 0 147 52" fill="none" xmlns="http://www.w3.org/2000/svg">
<path d="M146.5 26C146.5 29.3836 144.563 32.6762 140.903 35.7368C137.246 38.7952 131.925 41.5718 125.306 43.9134C112.071 48.595 93.7551 51.5 73.5 51.5C53.2449 51.5 34.9289 48.595 21.6944 43.9134C15.0749 41.5718 9.75358 38.7952 6.09677 35.7368C2.43724 32.6762 0.5 29.3836 0.5 26C0.5 22.6164 2.43724 19.3238 6.09677 16.2632C9.75358 13.2048 15.0749 10.4282 21.6944 8.0866C34.9289 3.40501 53.2449 0.5 73.5 0.5C93.7551 0.5 112.071 3.40501 125.306 8.0866C131.925 10.4282 137.246 13.2048 140.903 16.2632C144.563 19.3238 146.5 22.6164 146.5 26Z" fill="#F8FC5F" stroke="#707070"/>
<path d="M28.2557 26.44C28.2557 25.288 28.4237 24.224 28.7597 23.248C29.1117 22.272 29.5837 21.432 30.1757 20.728C30.7837 20.008 31.4877 19.448 32.2877 19.048C33.0877 18.648 33.9517 18.448 34.8797 18.448C35.2797 18.448 35.6557 18.48 36.0077 18.544C36.3757 18.608 36.7037 18.688 36.9917 18.784C37.2957 18.864 37.5437 18.96 37.7357 19.072C37.9437 19.168 38.0877 19.256 38.1677 19.336C38.2477 19.432 38.3117 19.696 38.3597 20.128C38.4077 20.56 38.4317 21.144 38.4317 21.88C38.4317 22.088 38.3597 22.192 38.2157 22.192C38.0557 22.192 37.9517 22.064 37.9037 21.808C37.8557 21.552 37.7277 21.24 37.5197 20.872C36.8797 19.688 35.9437 19.096 34.7117 19.096C34.0717 19.096 33.4717 19.264 32.9117 19.6C32.3677 19.936 31.8877 20.416 31.4717 21.04C31.0557 21.664 30.7277 22.432 30.4877 23.344C30.2477 24.256 30.1277 25.288 30.1277 26.44C30.1277 27.512 30.2477 28.496 30.4877 29.392C30.7277 30.288 31.0557 31.064 31.4717 31.72C31.9037 32.36 32.3997 32.864 32.9597 33.232C33.5197 33.584 34.1197 33.76 34.7597 33.76C35.5277 33.76 36.1517 33.536 36.6317 33.088C37.1117 32.64 37.5117 31.968 37.8317 31.072C37.9597 30.72 38.0397 30.448 38.0717 30.256C38.1197 30.048 38.2077 29.944 38.3357 29.944C38.4957 29.944 38.5757 30.08 38.5757 30.352C38.5757 31.152 38.5597 31.776 38.5277 32.224C38.5117 32.656 38.4557 32.944 38.3597 33.088C38.2637 33.232 38.1037 33.384 37.8797 33.544C37.6557 33.704 37.3837 33.856 37.0637 34C36.7437 34.128 36.3837 34.232 35.9837 34.312C35.5837 34.408 35.1437 34.456 34.6637 34.456C33.7517 34.456 32.9037 34.256 32.1197 33.856C31.3357 33.456 30.6557 32.896 30.0797 32.176C29.5037 31.456 29.0557 30.608 28.7357 29.632C28.4157 28.656 28.2557 27.592 28.2557 26.44ZM42.6055 23.584V24.952C42.6055 25.064 42.6375 25.12 42.7015 25.12C42.7495 25.12 42.8055 25.08 42.8695 25L43.3015 24.376C43.9735 23.464 44.6855 23.008 45.4375 23.008C45.8375 23.008 46.1495 23.12 46.3735 23.344C46.5975 23.552 46.7095 23.816 46.7095 24.136C46.7095 24.456 46.6215 24.72 46.4455 24.928C46.2855 25.12 46.1015 25.216 45.8935 25.216C45.7335 25.216 45.5895 25.168 45.4615 25.072C45.3495 24.976 45.2295 24.872 45.1015 24.76C44.9895 24.632 44.8695 24.52 44.7415 24.424C44.6135 24.328 44.4535 24.28 44.2615 24.28C44.0855 24.28 43.9015 24.352 43.7095 24.496C43.5335 24.64 43.3655 24.872 43.2055 25.192C43.0455 25.496 42.9175 25.888 42.8215 26.368C42.7255 26.848 42.6775 27.424 42.6775 28.096V32.056C42.6775 32.472 42.7095 32.768 42.7735 32.944C42.8375 33.12 42.9895 33.256 43.2295 33.352C43.4375 33.432 43.6215 33.48 43.7815 33.496C43.9415 33.512 44.0775 33.528 44.1895 33.544C44.3015 33.544 44.3815 33.56 44.4295 33.592C44.4935 33.608 44.5255 33.672 44.5255 33.784C44.5255 33.96 44.3975 34.048 44.1415 34.048C43.9335 34.048 43.6455 34.032 43.2775 34C42.9255 33.952 42.5015 33.928 42.0055 33.928C41.6855 33.928 41.3895 33.944 41.1175 33.976C40.8615 34.008 40.6375 34.024 40.4455 34.024C40.3175 34.024 40.2215 34.016 40.1575 34C40.1095 33.968 40.0855 33.896 40.0855 33.784C40.0855 33.624 40.1415 33.544 40.2535 33.544C40.3815 33.544 40.5815 33.496 40.8535 33.4C41.0615 33.32 41.1895 33.184 41.2375 32.992C41.3015 32.784 41.3335 32.472 41.3335 32.056V25.696C41.3335 25.408 41.2775 25.216 41.1655 25.12C41.0695 25.024 40.9575 24.968 40.8295 24.952C40.7175 24.936 40.6135 24.928 40.5175 24.928C40.4215 24.928 40.3735 24.872 40.3735 24.76C40.3735 24.632 40.4535 24.536 40.6135 24.472C40.7895 24.392 40.9815 24.28 41.1895 24.136C41.5575 23.88 41.8375 23.632 42.0295 23.392C42.2215 23.136 42.3655 23.008 42.4615 23.008C42.5415 23.008 42.5815 23.064 42.5815 23.176C42.5975 23.272 42.6055 23.408 42.6055 23.584ZM49.0138 18.88C49.2378 18.88 49.4378 19 49.6138 19.24C49.7898 19.48 49.8778 19.76 49.8778 20.08C49.8778 20.384 49.7898 20.656 49.6138 20.896C49.4538 21.12 49.2538 21.232 49.0138 21.232C48.7898 21.232 48.5898 21.12 48.4138 20.896C48.2538 20.672 48.1738 20.4 48.1738 20.08C48.1738 19.76 48.2538 19.48 48.4138 19.24C48.5898 19 48.7898 18.88 49.0138 18.88ZM49.7578 23.584V32.536C49.7578 32.872 49.8218 33.104 49.9498 33.232C50.0938 33.344 50.2458 33.424 50.4058 33.472C50.5818 33.504 50.7338 33.536 50.8618 33.568C51.0058 33.584 51.0778 33.656 51.0778 33.784C51.0778 33.912 51.0458 33.984 50.9818 34C50.9338 34.016 50.8458 34.024 50.7178 34.024C50.6218 34.024 50.4298 34.008 50.1418 33.976C49.8698 33.944 49.5018 33.928 49.0378 33.928C48.6698 33.928 48.3418 33.944 48.0538 33.976C47.7818 34.008 47.5578 34.024 47.3818 34.024C47.2538 34.024 47.1498 34.016 47.0698 34C47.0058 33.968 46.9738 33.896 46.9738 33.784C46.9738 33.656 47.0458 33.584 47.1898 33.568C47.3498 33.536 47.5178 33.504 47.6938 33.472C47.8698 33.424 48.0298 33.336 48.1738 33.208C48.3338 33.08 48.4138 32.856 48.4138 32.536V25.936C48.4138 25.344 48.1658 25.048 47.6698 25.048C47.5418 25.048 47.4378 25.04 47.3578 25.024C47.2778 24.992 47.2378 24.92 47.2378 24.808C47.2378 24.648 47.3258 24.536 47.5018 24.472C47.6938 24.408 47.8938 24.288 48.1018 24.112C48.5498 23.856 48.8858 23.624 49.1098 23.416C49.3338 23.208 49.4938 23.104 49.5898 23.104C49.6698 23.104 49.7178 23.144 49.7338 23.224C49.7498 23.288 49.7578 23.408 49.7578 23.584ZM58.4014 25.72V31.744C58.4014 32.736 58.6174 33.232 59.0494 33.232C59.2254 33.232 59.3854 33.144 59.5294 32.968C59.6894 32.792 59.8174 32.704 59.9134 32.704C60.0254 32.704 60.0814 32.76 60.0814 32.872C60.0814 33 60.0094 33.152 59.8654 33.328C59.7374 33.488 59.5774 33.648 59.3854 33.808C59.1934 33.968 58.9854 34.096 58.7614 34.192C58.5534 34.304 58.3694 34.36 58.2094 34.36C57.8894 34.36 57.6414 34.24 57.4654 34C57.3054 33.744 57.1534 33.336 57.0094 32.776H56.9134C56.3054 33.288 55.7614 33.696 55.2814 34C54.8174 34.304 54.3294 34.456 53.8174 34.456C53.2414 34.456 52.7934 34.288 52.4734 33.952C52.1534 33.6 51.9934 33.136 51.9934 32.56C51.9934 32.112 52.0974 31.696 52.3054 31.312C52.5134 30.912 52.8254 30.528 53.2414 30.16C53.6734 29.776 54.2014 29.384 54.8254 28.984C55.4494 28.584 56.1694 28.152 56.9854 27.688V25.576C56.9854 24.84 56.9054 24.312 56.7454 23.992C56.6014 23.672 56.2814 23.512 55.7854 23.512C55.3694 23.512 54.9774 23.656 54.6094 23.944C54.2414 24.232 53.9854 24.576 53.8414 24.976C53.6654 25.472 53.4894 25.896 53.3134 26.248C53.1374 26.584 52.8254 26.752 52.3774 26.752C52.2654 26.752 52.1694 26.72 52.0894 26.656C52.0094 26.576 51.9694 26.472 51.9694 26.344C51.9694 26.056 52.0734 25.72 52.2814 25.336C52.4894 24.952 52.7854 24.584 53.1694 24.232C53.5534 23.88 54.0094 23.584 54.5374 23.344C55.0654 23.104 55.6414 22.984 56.2654 22.984C56.7614 22.984 57.1534 23.048 57.4414 23.176C57.7294 23.304 57.9454 23.488 58.0894 23.728C58.2334 23.968 58.3214 24.256 58.3534 24.592C58.3854 24.928 58.4014 25.304 58.4014 25.72ZM57.0094 28.648C57.0094 28.488 56.9614 28.408 56.8654 28.408C56.8174 28.408 56.7374 28.44 56.6254 28.504L55.9054 28.912C54.2734 29.856 53.4574 30.856 53.4574 31.912C53.4574 32.36 53.5694 32.72 53.7934 32.992C54.0174 33.248 54.3294 33.376 54.7294 33.376C54.9694 33.376 55.2174 33.32 55.4734 33.208C55.7454 33.096 55.9934 32.936 56.2174 32.728C56.4574 32.504 56.6494 32.24 56.7934 31.936C56.9374 31.616 57.0094 31.256 57.0094 30.856V28.648ZM63.1602 23.584V24.952C63.1602 25.064 63.1922 25.12 63.2562 25.12C63.3042 25.12 63.3602 25.08 63.4242 25L63.8562 24.376C64.5282 23.464 65.2402 23.008 65.9922 23.008C66.3922 23.008 66.7042 23.12 66.9282 23.344C67.1522 23.552 67.2642 23.816 67.2642 24.136C67.2642 24.456 67.1762 24.72 67.0002 24.928C66.8402 25.12 66.6562 25.216 66.4482 25.216C66.2882 25.216 66.1442 25.168 66.0162 25.072C65.9042 24.976 65.7842 24.872 65.6562 24.76C65.5442 24.632 65.4242 24.52 65.2962 24.424C65.1682 24.328 65.0082 24.28 64.8162 24.28C64.6402 24.28 64.4562 24.352 64.2642 24.496C64.0882 24.64 63.9202 24.872 63.7602 25.192C63.6002 25.496 63.4722 25.888 63.3762 26.368C63.2802 26.848 63.2322 27.424 63.2322 28.096V32.056C63.2322 32.472 63.2642 32.768 63.3282 32.944C63.3922 33.12 63.5442 33.256 63.7842 33.352C63.9922 33.432 64.1762 33.48 64.3362 33.496C64.4962 33.512 64.6322 33.528 64.7442 33.544C64.8562 33.544 64.9362 33.56 64.9842 33.592C65.0482 33.608 65.0802 33.672 65.0802 33.784C65.0802 33.96 64.9522 34.048 64.6962 34.048C64.4882 34.048 64.2002 34.032 63.8322 34C63.4802 33.952 63.0562 33.928 62.5602 33.928C62.2402 33.928 61.9442 33.944 61.6722 33.976C61.4162 34.008 61.1922 34.024 61.0002 34.024C60.8722 34.024 60.7762 34.016 60.7122 34C60.6642 33.968 60.6402 33.896 60.6402 33.784C60.6402 33.624 60.6962 33.544 60.8082 33.544C60.9362 33.544 61.1362 33.496 61.4082 33.4C61.6162 33.32 61.7442 33.184 61.7922 32.992C61.8562 32.784 61.8882 32.472 61.8882 32.056V25.696C61.8882 25.408 61.8322 25.216 61.7202 25.12C61.6242 25.024 61.5122 24.968 61.3842 24.952C61.2722 24.936 61.1682 24.928 61.0722 24.928C60.9762 24.928 60.9282 24.872 60.9282 24.76C60.9282 24.632 61.0082 24.536 61.1682 24.472C61.3442 24.392 61.5362 24.28 61.7442 24.136C62.1122 23.88 62.3922 23.632 62.5842 23.392C62.7762 23.136 62.9202 23.008 63.0162 23.008C63.0962 23.008 63.1362 23.064 63.1362 23.176C63.1522 23.272 63.1602 23.408 63.1602 23.584ZM72.7167 26.44C72.7167 25.288 72.8847 24.224 73.2207 23.248C73.5727 22.272 74.0447 21.432 74.6367 20.728C75.2447 20.008 75.9487 19.448 76.7487 19.048C77.5487 18.648 78.4127 18.448 79.3407 18.448C79.7407 18.448 80.1167 18.48 80.4687 18.544C80.8367 18.608 81.1647 18.688 81.4527 18.784C81.7567 18.864 82.0047 18.96 82.1967 19.072C82.4047 19.168 82.5487 19.256 82.6287 19.336C82.7087 19.432 82.7727 19.696 82.8207 20.128C82.8687 20.56 82.8927 21.144 82.8927 21.88C82.8927 22.088 82.8207 22.192 82.6767 22.192C82.5167 22.192 82.4127 22.064 82.3647 21.808C82.3167 21.552 82.1887 21.24 81.9807 20.872C81.3407 19.688 80.4047 19.096 79.1727 19.096C78.5327 19.096 77.9327 19.264 77.3727 19.6C76.8287 19.936 76.3487 20.416 75.9327 21.04C75.5167 21.664 75.1887 22.432 74.9487 23.344C74.7087 24.256 74.5887 25.288 74.5887 26.44C74.5887 27.512 74.7087 28.496 74.9487 29.392C75.1887 30.288 75.5167 31.064 75.9327 31.72C76.3647 32.36 76.8607 32.864 77.4207 33.232C77.9807 33.584 78.5807 33.76 79.2207 33.76C79.9887 33.76 80.6127 33.536 81.0927 33.088C81.5727 32.64 81.9727 31.968 82.2927 31.072C82.4207 30.72 82.5007 30.448 82.5327 30.256C82.5807 30.048 82.6687 29.944 82.7967 29.944C82.9567 29.944 83.0367 30.08 83.0367 30.352C83.0367 31.152 83.0207 31.776 82.9887 32.224C82.9727 32.656 82.9167 32.944 82.8207 33.088C82.7247 33.232 82.5647 33.384 82.3407 33.544C82.1167 33.704 81.8447 33.856 81.5247 34C81.2047 34.128 80.8447 34.232 80.4447 34.312C80.0447 34.408 79.6047 34.456 79.1247 34.456C78.2127 34.456 77.3647 34.256 76.5807 33.856C75.7967 33.456 75.1167 32.896 74.5407 32.176C73.9647 31.456 73.5167 30.608 73.1967 29.632C72.8767 28.656 72.7167 27.592 72.7167 26.44ZM89.3944 23.008C90.1464 23.008 90.8184 23.144 91.4104 23.416C92.0184 23.688 92.5224 24.072 92.9224 24.568C93.3384 25.064 93.6504 25.664 93.8584 26.368C94.0824 27.072 94.1944 27.848 94.1944 28.696C94.1944 29.56 94.0824 30.352 93.8584 31.072C93.6344 31.776 93.3064 32.384 92.8744 32.896C92.4584 33.392 91.9464 33.776 91.3384 34.048C90.7304 34.32 90.0424 34.456 89.2744 34.456C88.5864 34.456 87.9624 34.312 87.4024 34.024C86.8424 33.752 86.3624 33.368 85.9624 32.872C85.5624 32.36 85.2504 31.752 85.0264 31.048C84.8024 30.344 84.6904 29.568 84.6904 28.72C84.6904 27.856 84.8024 27.072 85.0264 26.368C85.2664 25.664 85.5944 25.064 86.0104 24.568C86.4424 24.072 86.9464 23.688 87.5224 23.416C88.0984 23.144 88.7224 23.008 89.3944 23.008ZM89.4424 23.44C88.4344 23.44 87.6344 23.88 87.0424 24.76C86.4664 25.624 86.1784 26.896 86.1784 28.576C86.1784 29.424 86.2584 30.184 86.4184 30.856C86.5784 31.512 86.8024 32.08 87.0904 32.56C87.3784 33.024 87.7144 33.384 88.0984 33.64C88.4984 33.88 88.9304 34 89.3944 34C90.4184 34 91.2184 33.576 91.7944 32.728C92.3704 31.864 92.6584 30.608 92.6584 28.96C92.6584 27.2 92.3624 25.84 91.7704 24.88C91.1944 23.92 90.4184 23.44 89.4424 23.44ZM97.8242 23.584V24.712C97.8242 24.888 97.8562 24.976 97.9202 24.976C97.9842 24.976 98.0802 24.864 98.2082 24.64C98.3522 24.4 98.5762 24.144 98.8802 23.872C99.2002 23.584 99.5202 23.368 99.8402 23.224C100.176 23.08 100.536 23.008 100.92 23.008C101.816 23.008 102.536 23.336 103.08 23.992C103.624 24.648 103.896 25.536 103.896 26.656V32.536C103.896 32.872 103.96 33.104 104.088 33.232C104.216 33.344 104.36 33.424 104.52 33.472C104.68 33.504 104.824 33.536 104.952 33.568C105.08 33.584 105.144 33.656 105.144 33.784C105.144 33.896 105.112 33.968 105.048 34C105 34.016 104.912 34.024 104.784 34.024C104.672 34.024 104.488 34.008 104.232 33.976C103.976 33.944 103.64 33.928 103.224 33.928C102.888 33.928 102.592 33.944 102.336 33.976C102.096 34.008 101.888 34.024 101.712 34.024C101.568 34.024 101.464 34.016 101.4 34C101.336 33.984 101.304 33.912 101.304 33.784C101.304 33.656 101.368 33.584 101.496 33.568C101.624 33.536 101.768 33.496 101.928 33.448C102.088 33.4 102.232 33.32 102.36 33.208C102.488 33.08 102.552 32.856 102.552 32.536V27.712C102.552 26.464 102.392 25.528 102.072 24.904C101.752 24.28 101.176 23.968 100.344 23.968C99.4802 23.968 98.8562 24.32 98.4722 25.024C98.0882 25.712 97.8962 26.752 97.8962 28.144V32.536C97.8962 32.872 97.9602 33.104 98.0882 33.232C98.2162 33.344 98.3602 33.424 98.5202 33.472C98.6802 33.504 98.8242 33.536 98.9522 33.568C99.0802 33.584 99.1442 33.656 99.1442 33.784C99.1442 33.896 99.1122 33.968 99.0482 34C99.0002 34.016 98.9122 34.024 98.7842 34.024C98.6722 34.024 98.4882 34.008 98.2322 33.976C97.9762 33.944 97.6402 33.928 97.2242 33.928C96.9202 33.928 96.6402 33.944 96.3842 33.976C96.1282 34.008 95.8882 34.024 95.6642 34.024C95.5362 34.024 95.4402 34.016 95.3762 34C95.3282 33.968 95.3042 33.896 95.3042 33.784C95.3042 33.656 95.3682 33.584 95.4962 33.568C95.6242 33.536 95.7682 33.496 95.9282 33.448C96.0882 33.4 96.2322 33.32 96.3602 33.208C96.4882 33.08 96.5522 32.856 96.5522 32.536V25.576C96.5522 25.336 96.4962 25.184 96.3842 25.12C96.2882 25.04 96.1762 24.992 96.0482 24.976C95.9362 24.96 95.8322 24.944 95.7362 24.928C95.6402 24.912 95.5922 24.856 95.5922 24.76C95.5922 24.616 95.6722 24.52 95.8322 24.472C96.0082 24.408 96.1842 24.312 96.3602 24.184C96.7762 23.896 97.0802 23.632 97.2722 23.392C97.4642 23.136 97.6002 23.008 97.6802 23.008C97.7602 23.008 97.8002 23.064 97.8002 23.176C97.8162 23.272 97.8242 23.408 97.8242 23.584ZM108.653 21.808V23.032C108.653 23.192 108.669 23.304 108.701 23.368C108.749 23.416 108.845 23.44 108.989 23.44H110.765C110.909 23.44 110.997 23.464 111.029 23.512C111.061 23.544 111.077 23.624 111.077 23.752V23.848C111.077 23.992 111.053 24.096 111.005 24.16C110.973 24.224 110.893 24.256 110.765 24.256H108.965C108.821 24.256 108.725 24.288 108.677 24.352C108.645 24.4 108.629 24.504 108.629 24.664V31.672C108.629 32.888 109.013 33.496 109.781 33.496C109.989 33.496 110.181 33.448 110.357 33.352C110.533 33.256 110.685 33.16 110.813 33.064C110.957 32.952 111.077 32.848 111.173 32.752C111.269 32.656 111.341 32.608 111.389 32.608C111.453 32.608 111.485 32.672 111.485 32.8C111.485 32.88 111.421 33.016 111.293 33.208C111.181 33.384 111.013 33.568 110.789 33.76C110.581 33.936 110.333 34.096 110.045 34.24C109.773 34.384 109.485 34.456 109.181 34.456C108.557 34.456 108.069 34.208 107.717 33.712C107.381 33.216 107.213 32.488 107.213 31.528V30.4L107.285 24.664C107.285 24.504 107.261 24.4 107.213 24.352C107.181 24.288 107.093 24.256 106.949 24.256H106.589C106.349 24.256 106.229 24.184 106.229 24.04C106.229 23.912 106.349 23.76 106.589 23.584C106.845 23.392 107.149 23.088 107.501 22.672C107.853 22.256 108.085 21.896 108.197 21.592C108.325 21.288 108.445 21.136 108.557 21.136C108.621 21.136 108.653 21.232 108.653 21.424V21.808ZM118.73 25.72V31.744C118.73 32.736 118.946 33.232 119.378 33.232C119.554 33.232 119.714 33.144 119.858 32.968C120.018 32.792 120.146 32.704 120.242 32.704C120.354 32.704 120.41 32.76 120.41 32.872C120.41 33 120.338 33.152 120.194 33.328C120.066 33.488 119.906 33.648 119.714 33.808C119.522 33.968 119.314 34.096 119.09 34.192C118.882 34.304 118.698 34.36 118.538 34.36C118.218 34.36 117.97 34.24 117.794 34C117.634 33.744 117.482 33.336 117.338 32.776H117.242C116.634 33.288 116.09 33.696 115.61 34C115.146 34.304 114.658 34.456 114.146 34.456C113.57 34.456 113.122 34.288 112.802 33.952C112.482 33.6 112.322 33.136 112.322 32.56C112.322 32.112 112.426 31.696 112.634 31.312C112.842 30.912 113.154 30.528 113.57 30.16C114.002 29.776 114.53 29.384 115.154 28.984C115.778 28.584 116.498 28.152 117.314 27.688V25.576C117.314 24.84 117.234 24.312 117.074 23.992C116.93 23.672 116.61 23.512 116.114 23.512C115.698 23.512 115.306 23.656 114.938 23.944C114.57 24.232 114.314 24.576 114.17 24.976C113.994 25.472 113.818 25.896 113.642 26.248C113.466 26.584 113.154 26.752 112.706 26.752C112.594 26.752 112.498 26.72 112.418 26.656C112.338 26.576 112.298 26.472 112.298 26.344C112.298 26.056 112.402 25.72 112.61 25.336C112.818 24.952 113.114 24.584 113.498 24.232C113.882 23.88 114.338 23.584 114.866 23.344C115.394 23.104 115.97 22.984 116.594 22.984C117.09 22.984 117.482 23.048 117.77 23.176C118.058 23.304 118.274 23.488 118.418 23.728C118.562 23.968 118.65 24.256 118.682 24.592C118.714 24.928 118.73 25.304 118.73 25.72ZM117.338 28.648C117.338 28.488 117.29 28.408 117.194 28.408C117.146 28.408 117.066 28.44 116.954 28.504L116.234 28.912C114.602 29.856 113.786 30.856 113.786 31.912C113.786 32.36 113.898 32.72 114.122 32.992C114.346 33.248 114.658 33.376 115.058 33.376C115.298 33.376 115.546 33.32 115.802 33.208C116.074 33.096 116.322 32.936 116.546 32.728C116.786 32.504 116.978 32.24 117.122 31.936C117.266 31.616 117.338 31.256 117.338 30.856V28.648Z" fill="#1E1E1E"/>
</svg>
