<svg width="44" height="44" viewBox="0 0 44 44" fill="none" xmlns="http://www.w3.org/2000/svg">
<circle cx="22" cy="22" r="21" fill="#F8FC5F" stroke="#707070"/>
<path d="M25.99 28.43V25.1C25.99 24.64 25.95 24.32 25.87 24.14C25.81 23.96 25.63 23.82 25.33 23.72C25.15 23.66 24.97 23.63 24.79 23.63C24.63 23.61 24.48 23.6 24.34 23.6C24.22 23.58 24.12 23.55 24.04 23.51C23.96 23.45 23.92 23.34 23.92 23.18C23.92 22.92 24.07 22.79 24.37 22.79C24.57 22.79 24.89 22.83 25.33 22.91C25.77 22.97 26.34 23 27.04 23C27.7 23 28.23 22.97 28.63 22.91C29.03 22.83 29.32 22.79 29.5 22.79C29.76 22.79 29.89 22.92 29.89 23.18C29.89 23.32 29.86 23.42 29.8 23.48C29.74 23.54 29.65 23.58 29.53 23.6C29.43 23.62 29.31 23.63 29.17 23.63C29.03 23.63 28.88 23.65 28.72 23.69C28.38 23.79 28.18 23.94 28.12 24.14C28.06 24.32 28.03 24.64 28.03 25.1V28.7C28.03 29 28.03 29.25 28.03 29.45C28.05 29.63 28.06 29.75 28.06 29.81C28.06 30.17 27.9 30.52 27.58 30.86C27.26 31.18 26.84 31.47 26.32 31.73C25.8 31.97 25.2 32.17 24.52 32.33C23.86 32.49 23.17 32.57 22.45 32.57C21.19 32.57 20.04 32.33 19 31.85C17.96 31.37 17.06 30.71 16.3 29.87C15.56 29.01 14.98 27.99 14.56 26.81C14.14 25.63 13.93 24.34 13.93 22.94C13.93 21.44 14.16 20.06 14.62 18.8C15.1 17.52 15.75 16.42 16.57 15.5C17.39 14.58 18.36 13.86 19.48 13.34C20.6 12.82 21.82 12.56 23.14 12.56C23.66 12.56 24.15 12.6 24.61 12.68C25.07 12.76 25.48 12.86 25.84 12.98C26.2 13.08 26.5 13.2 26.74 13.34C27 13.46 27.17 13.57 27.25 13.67C27.37 13.83 27.44 14.18 27.46 14.72C27.5 15.26 27.52 16.01 27.52 16.97C27.52 17.25 27.41 17.39 27.19 17.39C26.97 17.39 26.82 17.23 26.74 16.91C26.68 16.57 26.54 16.16 26.32 15.68C26 14.94 25.54 14.37 24.94 13.97C24.34 13.57 23.63 13.37 22.81 13.37C21.89 13.37 21.03 13.6 20.23 14.06C19.45 14.52 18.76 15.16 18.16 15.98C17.58 16.78 17.12 17.75 16.78 18.89C16.46 20.01 16.3 21.23 16.3 22.55C16.3 23.93 16.47 25.19 16.81 26.33C17.15 27.45 17.61 28.41 18.19 29.21C18.79 30.01 19.49 30.63 20.29 31.07C21.09 31.49 21.95 31.7 22.87 31.7C23.57 31.7 24.12 31.62 24.52 31.46C24.94 31.3 25.26 31.08 25.48 30.8C25.7 30.5 25.84 30.15 25.9 29.75C25.96 29.35 25.99 28.91 25.99 28.43Z" fill="black"/>
</svg>
