<svg width="357" height="35" viewBox="0 0 357 35" fill="none" xmlns="http://www.w3.org/2000/svg">
<path d="M11.324 4.133L16.8 21.634C17.096 22.5713 17.355 23.299 17.577 23.817C17.8237 24.335 18.1197 24.6927 18.465 24.89C18.613 24.964 18.7733 25.0133 18.946 25.038C19.1187 25.0627 19.279 25.0873 19.427 25.112C19.575 25.1367 19.6983 25.186 19.797 25.26C19.9203 25.3093 19.982 25.408 19.982 25.556C19.982 25.8767 19.7353 26.037 19.242 26.037C19.0447 26.037 18.6623 26 18.095 25.926C17.5277 25.852 16.7507 25.815 15.764 25.815C15.1967 25.815 14.6787 25.852 14.21 25.926C13.7413 25.9753 13.2973 26 12.878 26C12.6067 26 12.4093 25.9753 12.286 25.926C12.1627 25.8767 12.101 25.7533 12.101 25.556C12.101 25.186 12.4957 24.9763 13.285 24.927C13.7783 24.8777 14.1237 24.8283 14.321 24.779C14.543 24.705 14.654 24.4707 14.654 24.076C14.654 24.002 14.6293 23.817 14.58 23.521C14.5553 23.2003 14.4813 22.8303 14.358 22.411L12.915 17.786C12.841 17.49 12.6807 17.342 12.434 17.342H6.847C6.72367 17.342 6.61267 17.3913 6.514 17.49C6.41533 17.564 6.34133 17.6873 6.292 17.86L5.108 22.3C4.93533 22.9167 4.849 23.4223 4.849 23.817C4.849 24.187 4.93533 24.446 5.108 24.594C5.30533 24.7173 5.57667 24.8037 5.922 24.853C6.46467 24.927 6.85933 25.0133 7.106 25.112C7.37733 25.2107 7.513 25.3957 7.513 25.667C7.513 25.963 7.291 26.111 6.847 26.111C6.57567 26.111 6.19333 26.0617 5.7 25.963C5.23133 25.8643 4.664 25.815 3.998 25.815C3.50467 25.815 3.04833 25.8643 2.629 25.963C2.23433 26.037 1.87667 26.074 1.556 26.074C1.16133 26.074 0.964 25.9137 0.964 25.593C0.964 25.371 1.038 25.2353 1.186 25.186C1.30933 25.1367 1.482 25.0997 1.704 25.075C1.90133 25.0257 2.12333 24.9763 2.37 24.927C2.61667 24.853 2.851 24.6927 3.073 24.446C3.27033 24.1993 3.45533 23.8047 3.628 23.262C3.82533 22.6947 4.05967 21.967 4.331 21.079L9.77 2.912C9.86867 2.64067 9.94267 2.431 9.992 2.283C10.0413 2.11033 10.1647 2.024 10.362 2.024C10.6333 2.024 10.806 2.22133 10.88 2.616C10.9787 2.986 11.1267 3.49167 11.324 4.133ZM9.733 7.907C9.659 7.685 9.585 7.574 9.511 7.574C9.437 7.574 9.363 7.67267 9.289 7.87L7.032 15.603C6.98267 15.751 6.958 15.8497 6.958 15.899C6.958 16.0717 7.069 16.158 7.291 16.158H11.842C12.1133 16.158 12.249 16.0347 12.249 15.788C12.249 15.6647 12.2367 15.5783 12.212 15.529L9.733 7.907ZM23.6074 9.942V11.533C23.6074 11.755 23.6691 11.866 23.7924 11.866C23.8664 11.866 24.0268 11.718 24.2734 11.422C24.5201 11.126 24.8408 10.8053 25.2354 10.46C25.6548 10.09 26.1481 9.757 26.7154 9.461C27.2828 9.165 27.9488 9.017 28.7134 9.017C29.5521 9.017 30.3291 9.22667 31.0444 9.646C31.7844 10.0407 32.4134 10.6203 32.9314 11.385C33.4741 12.125 33.8934 13.0253 34.1894 14.086C34.5101 15.1467 34.6704 16.3307 34.6704 17.638C34.6704 19.044 34.4854 20.3143 34.1154 21.449C33.7701 22.559 33.2891 23.5087 32.6724 24.298C32.0558 25.0627 31.3281 25.6547 30.4894 26.074C29.6508 26.4933 28.7381 26.703 27.7514 26.703C27.0361 26.703 26.3701 26.6043 25.7534 26.407C25.1614 26.2343 24.5448 25.9383 23.9034 25.519H23.7184V31.883C23.7184 32.401 23.8418 32.7463 24.0884 32.919C24.3351 33.1163 24.6064 33.2397 24.9024 33.289C25.2231 33.3383 25.5068 33.3753 25.7534 33.4C26.0001 33.4493 26.1234 33.585 26.1234 33.807C26.1234 34.0537 25.9384 34.177 25.5684 34.177C25.3464 34.177 25.0258 34.1523 24.6064 34.103C24.1871 34.0537 23.6568 34.029 23.0154 34.029C22.3248 34.029 21.7451 34.0537 21.2764 34.103C20.8324 34.1523 20.4871 34.177 20.2404 34.177C19.8951 34.177 19.7224 34.0537 19.7224 33.807C19.7224 33.6097 19.8211 33.4863 20.0184 33.437C20.2158 33.4123 20.4378 33.363 20.6844 33.289C20.9311 33.215 21.1531 33.0793 21.3504 32.882C21.5478 32.7093 21.6464 32.3763 21.6464 31.883V13.198C21.6464 12.754 21.5601 12.458 21.3874 12.31C21.2394 12.162 21.0668 12.0757 20.8694 12.051C20.6968 12.0263 20.5364 12.014 20.3884 12.014C20.2404 12.014 20.1664 11.9277 20.1664 11.755C20.1664 11.533 20.2898 11.385 20.5364 11.311C20.8078 11.2123 21.0791 11.0643 21.3504 10.867C21.9918 10.423 22.4604 10.016 22.7564 9.646C23.0524 9.25133 23.2621 9.054 23.3854 9.054C23.5088 9.054 23.5704 9.14033 23.5704 9.313C23.5951 9.461 23.6074 9.67067 23.6074 9.942ZM23.7184 22.855C23.7184 23.299 23.8171 23.7183 24.0144 24.113C24.2118 24.483 24.4708 24.8037 24.7914 25.075C25.1368 25.3463 25.5314 25.5683 25.9754 25.741C26.4194 25.889 26.9004 25.963 27.4184 25.963C28.8984 25.963 30.1071 25.2847 31.0444 23.928C31.9818 22.5467 32.4504 20.5857 32.4504 18.045C32.4504 15.5537 32.0064 13.6543 31.1184 12.347C30.2551 11.015 29.1451 10.349 27.7884 10.349C27.2951 10.349 26.8018 10.46 26.3084 10.682C25.8151 10.8793 25.3711 11.1753 24.9764 11.57C24.6064 11.94 24.2981 12.384 24.0514 12.902C23.8294 13.42 23.7184 13.9873 23.7184 14.604V22.855ZM44.0704 9.054C45.2298 9.054 46.2658 9.26367 47.1784 9.683C48.1158 10.1023 48.8928 10.6943 49.5094 11.459C50.1508 12.2237 50.6318 13.1487 50.9524 14.234C51.2978 15.3193 51.4704 16.5157 51.4704 17.823C51.4704 19.155 51.2978 20.376 50.9524 21.486C50.6071 22.5713 50.1014 23.5087 49.4354 24.298C48.7941 25.0627 48.0048 25.6547 47.0674 26.074C46.1301 26.4933 45.0694 26.703 43.8854 26.703C42.8248 26.703 41.8628 26.481 40.9994 26.037C40.1361 25.6177 39.3961 25.0257 38.7794 24.261C38.1628 23.4717 37.6818 22.5343 37.3364 21.449C36.9911 20.3637 36.8184 19.1673 36.8184 17.86C36.8184 16.528 36.9911 15.3193 37.3364 14.234C37.7064 13.1487 38.2121 12.2237 38.8534 11.459C39.5194 10.6943 40.2964 10.1023 41.1844 9.683C42.0724 9.26367 43.0344 9.054 44.0704 9.054ZM44.1444 9.72C42.5904 9.72 41.3571 10.3983 40.4444 11.755C39.5564 13.087 39.1124 15.048 39.1124 17.638C39.1124 18.9453 39.2358 20.117 39.4824 21.153C39.7291 22.1643 40.0744 23.04 40.5184 23.78C40.9624 24.4953 41.4804 25.0503 42.0724 25.445C42.6891 25.815 43.3551 26 44.0704 26C45.6491 26 46.8824 25.3463 47.7704 24.039C48.6584 22.707 49.1024 20.7707 49.1024 18.23C49.1024 15.5167 48.6461 13.42 47.7334 11.94C46.8454 10.46 45.6491 9.72 44.1444 9.72ZM56.1784 2.69C56.5237 2.69 56.8321 2.875 57.1034 3.245C57.3747 3.615 57.5104 4.04667 57.5104 4.54C57.5104 5.00866 57.3747 5.428 57.1034 5.798C56.8567 6.14333 56.5484 6.316 56.1784 6.316C55.8331 6.316 55.5247 6.14333 55.2534 5.798C55.0067 5.45267 54.8834 5.03333 54.8834 4.54C54.8834 4.04667 55.0067 3.615 55.2534 3.245C55.5247 2.875 55.8331 2.69 56.1784 2.69ZM57.3254 9.942V23.743C57.3254 24.261 57.4241 24.6187 57.6214 24.816C57.8434 24.9887 58.0777 25.112 58.3244 25.186C58.5957 25.2353 58.8301 25.2847 59.0274 25.334C59.2494 25.3587 59.3604 25.4697 59.3604 25.667C59.3604 25.8643 59.3111 25.9753 59.2124 26C59.1384 26.0247 59.0027 26.037 58.8054 26.037C58.6574 26.037 58.3614 26.0123 57.9174 25.963C57.4981 25.9137 56.9307 25.889 56.2154 25.889C55.6481 25.889 55.1424 25.9137 54.6984 25.963C54.2791 26.0123 53.9337 26.037 53.6624 26.037C53.4651 26.037 53.3047 26.0247 53.1814 26C53.0827 25.9507 53.0334 25.8397 53.0334 25.667C53.0334 25.4697 53.1444 25.3587 53.3664 25.334C53.6131 25.2847 53.8721 25.2353 54.1434 25.186C54.4147 25.112 54.6614 24.9763 54.8834 24.779C55.1301 24.5817 55.2534 24.2363 55.2534 23.743V13.568C55.2534 12.6553 54.8711 12.199 54.1064 12.199C53.9091 12.199 53.7487 12.1867 53.6254 12.162C53.5021 12.1127 53.4404 12.0017 53.4404 11.829C53.4404 11.5823 53.5761 11.4097 53.8474 11.311C54.1434 11.2123 54.4517 11.0273 54.7724 10.756C55.4631 10.3613 55.9811 10.0037 56.3264 9.683C56.6717 9.36233 56.9184 9.202 57.0664 9.202C57.1897 9.202 57.2637 9.26367 57.2884 9.387C57.3131 9.48567 57.3254 9.67067 57.3254 9.942ZM66.9509 14.715C68.4802 14.715 69.6026 14.6287 70.3179 14.456C71.0332 14.2587 71.3909 13.8023 71.3909 13.087C71.3909 12.6923 71.3046 12.2977 71.1319 11.903C70.9592 11.5083 70.7126 11.1507 70.3919 10.83C70.0959 10.5093 69.7382 10.2503 69.3189 10.053C68.8996 9.85567 68.4556 9.757 67.9869 9.757C67.3949 9.757 66.8276 9.905 66.2849 10.201C65.7422 10.497 65.2612 10.867 64.8419 11.311C64.4472 11.755 64.1266 12.2483 63.8799 12.791C63.6332 13.3337 63.5099 13.864 63.5099 14.382C63.5099 14.456 63.5469 14.53 63.6209 14.604C63.6949 14.678 63.7936 14.715 63.9169 14.715H66.9509ZM72.6859 15.603H63.8799C63.5592 15.603 63.3619 15.714 63.2879 15.936C63.2139 16.1333 63.1769 16.5403 63.1769 17.157C63.1769 18.3903 63.3126 19.488 63.5839 20.45C63.8799 21.412 64.2746 22.226 64.7679 22.892C65.2859 23.558 65.8902 24.076 66.5809 24.446C67.2962 24.7913 68.0732 24.964 68.9119 24.964C69.6766 24.964 70.3179 24.8407 70.8359 24.594C71.3786 24.3473 71.8226 24.076 72.1679 23.78C72.5132 23.484 72.7846 23.2127 72.9819 22.966C73.1792 22.7193 73.3149 22.596 73.3889 22.596C73.5616 22.596 73.6479 22.6947 73.6479 22.892C73.6479 23.1633 73.5122 23.521 73.2409 23.965C72.9696 24.3843 72.5749 24.8037 72.0569 25.223C71.5636 25.6177 70.9469 25.963 70.2069 26.259C69.4916 26.555 68.6899 26.703 67.8019 26.703C66.7906 26.703 65.8532 26.4933 64.9899 26.074C64.1512 25.6547 63.4236 25.0627 62.8069 24.298C62.1902 23.5333 61.7092 22.6083 61.3639 21.523C61.0432 20.4377 60.8829 19.229 60.8829 17.897C60.8829 16.5403 61.0802 15.3193 61.4749 14.234C61.8696 13.124 62.3999 12.1867 63.0659 11.422C63.7319 10.6573 64.5089 10.0777 65.3969 9.683C66.2849 9.26367 67.2222 9.054 68.2089 9.054C69.0722 9.054 69.8492 9.21433 70.5399 9.535C71.2306 9.85567 71.8102 10.2873 72.2789 10.83C72.7722 11.348 73.1422 11.9647 73.3889 12.68C73.6602 13.3707 73.7959 14.086 73.7959 14.826C73.7959 15.0973 73.7096 15.2947 73.5369 15.418C73.3889 15.5413 73.1052 15.603 72.6859 15.603ZM92.9448 13.235V22.522C92.9448 24.0513 93.2778 24.816 93.9438 24.816C94.2152 24.816 94.4618 24.6803 94.6838 24.409C94.9305 24.1377 95.1278 24.002 95.2758 24.002C95.4485 24.002 95.5348 24.0883 95.5348 24.261C95.5348 24.4583 95.4238 24.6927 95.2018 24.964C95.0045 25.2107 94.7578 25.4573 94.4618 25.704C94.1658 25.9507 93.8452 26.148 93.4998 26.296C93.1792 26.4687 92.8955 26.555 92.6488 26.555C92.1555 26.555 91.7732 26.37 91.5018 26C91.2552 25.6053 91.0208 24.9763 90.7988 24.113H90.6508C89.7135 24.9023 88.8748 25.5313 88.1348 26C87.4195 26.4687 86.6672 26.703 85.8778 26.703C84.9898 26.703 84.2992 26.444 83.8058 25.926C83.3125 25.3833 83.0658 24.668 83.0658 23.78C83.0658 23.0893 83.2262 22.448 83.5468 21.856C83.8675 21.2393 84.3485 20.6473 84.9898 20.08C85.6558 19.488 86.4698 18.8837 87.4318 18.267C88.3938 17.6503 89.5038 16.9843 90.7618 16.269V13.013C90.7618 11.8783 90.6385 11.0643 90.3918 10.571C90.1698 10.0777 89.6765 9.831 88.9118 9.831C88.2705 9.831 87.6662 10.053 87.0988 10.497C86.5315 10.941 86.1368 11.4713 85.9148 12.088C85.6435 12.8527 85.3722 13.5063 85.1008 14.049C84.8295 14.567 84.3485 14.826 83.6578 14.826C83.4852 14.826 83.3372 14.7767 83.2138 14.678C83.0905 14.5547 83.0288 14.3943 83.0288 14.197C83.0288 13.753 83.1892 13.235 83.5098 12.643C83.8305 12.051 84.2868 11.4837 84.8788 10.941C85.4708 10.3983 86.1738 9.942 86.9878 9.572C87.8018 9.202 88.6898 9.017 89.6518 9.017C90.4165 9.017 91.0208 9.11567 91.4648 9.313C91.9088 9.51033 92.2418 9.794 92.4638 10.164C92.6858 10.534 92.8215 10.978 92.8708 11.496C92.9202 12.014 92.9448 12.5937 92.9448 13.235ZM90.7988 17.749C90.7988 17.5023 90.7248 17.379 90.5768 17.379C90.5028 17.379 90.3795 17.4283 90.2068 17.527L89.0968 18.156C86.5808 19.6113 85.3228 21.153 85.3228 22.781C85.3228 23.4717 85.4955 24.0267 85.8408 24.446C86.1862 24.8407 86.6672 25.038 87.2838 25.038C87.6538 25.038 88.0362 24.9517 88.4308 24.779C88.8502 24.6063 89.2325 24.3597 89.5778 24.039C89.9478 23.6937 90.2438 23.2867 90.4658 22.818C90.6878 22.3247 90.7988 21.7697 90.7988 21.153V17.749ZM111.388 9.054C112.646 9.054 113.632 9.25133 114.348 9.646C115.088 10.0407 115.458 10.5957 115.458 11.311C115.458 12.8403 115.273 13.605 114.903 13.605C114.656 13.605 114.483 13.4693 114.385 13.198C114.286 12.902 114.101 12.495 113.83 11.977C113.41 11.237 112.979 10.682 112.535 10.312C112.115 9.942 111.585 9.757 110.944 9.757C110.327 9.757 109.735 9.92967 109.168 10.275C108.625 10.5957 108.144 11.089 107.725 11.755C107.305 12.421 106.972 13.2473 106.726 14.234C106.479 15.2207 106.356 16.3553 106.356 17.638C106.356 20.154 106.837 22.0903 107.799 23.447C108.761 24.779 110.019 25.445 111.573 25.445C112.189 25.445 112.72 25.3463 113.164 25.149C113.632 24.9517 114.027 24.742 114.348 24.52C114.668 24.2733 114.915 24.0513 115.088 23.854C115.26 23.6567 115.384 23.558 115.458 23.558C115.63 23.558 115.717 23.632 115.717 23.78C115.717 23.9527 115.593 24.2117 115.347 24.557C115.125 24.8777 114.804 25.1983 114.385 25.519C113.965 25.8397 113.46 26.111 112.868 26.333C112.276 26.5797 111.61 26.703 110.87 26.703C109.908 26.703 109.007 26.4933 108.169 26.074C107.355 25.6547 106.639 25.0627 106.023 24.298C105.406 23.5087 104.925 22.5713 104.58 21.486C104.234 20.4007 104.062 19.192 104.062 17.86C104.062 16.528 104.259 15.3193 104.654 14.234C105.073 13.1487 105.616 12.2237 106.282 11.459C106.972 10.6943 107.762 10.1023 108.65 9.683C109.538 9.26367 110.45 9.054 111.388 9.054ZM124.719 9.054C125.878 9.054 126.914 9.26367 127.827 9.683C128.764 10.1023 129.541 10.6943 130.158 11.459C130.799 12.2237 131.28 13.1487 131.601 14.234C131.946 15.3193 132.119 16.5157 132.119 17.823C132.119 19.155 131.946 20.376 131.601 21.486C131.256 22.5713 130.75 23.5087 130.084 24.298C129.443 25.0627 128.653 25.6547 127.716 26.074C126.779 26.4933 125.718 26.703 124.534 26.703C123.473 26.703 122.511 26.481 121.648 26.037C120.785 25.6177 120.045 25.0257 119.428 24.261C118.811 23.4717 118.33 22.5343 117.985 21.449C117.64 20.3637 117.467 19.1673 117.467 17.86C117.467 16.528 117.64 15.3193 117.985 14.234C118.355 13.1487 118.861 12.2237 119.502 11.459C120.168 10.6943 120.945 10.1023 121.833 9.683C122.721 9.26367 123.683 9.054 124.719 9.054ZM124.793 9.72C123.239 9.72 122.006 10.3983 121.093 11.755C120.205 13.087 119.761 15.048 119.761 17.638C119.761 18.9453 119.884 20.117 120.131 21.153C120.378 22.1643 120.723 23.04 121.167 23.78C121.611 24.4953 122.129 25.0503 122.721 25.445C123.338 25.815 124.004 26 124.719 26C126.298 26 127.531 25.3463 128.419 24.039C129.307 22.707 129.751 20.7707 129.751 18.23C129.751 15.5167 129.295 13.42 128.382 11.94C127.494 10.46 126.298 9.72 124.793 9.72ZM137.715 9.942V11.681C137.715 11.9523 137.764 12.088 137.863 12.088C137.962 12.088 138.097 11.9153 138.27 11.57C138.443 11.2 138.763 10.8053 139.232 10.386C139.725 9.942 140.206 9.609 140.675 9.387C141.144 9.165 141.662 9.054 142.229 9.054C143.24 9.054 144.067 9.33767 144.708 9.905C145.349 10.4477 145.867 11.2987 146.262 12.458H146.41C147.125 11.2987 147.841 10.4477 148.556 9.905C149.271 9.33767 150.061 9.054 150.924 9.054C152.207 9.054 153.243 9.55967 154.032 10.571C154.821 11.5823 155.216 12.9513 155.216 14.678C155.216 14.8013 155.216 15.0603 155.216 15.455C155.241 15.825 155.253 16.3307 155.253 16.972V23.743C155.253 24.261 155.339 24.6187 155.512 24.816C155.709 24.9887 155.919 25.112 156.141 25.186C156.363 25.2353 156.56 25.2847 156.733 25.334C156.93 25.3587 157.029 25.4697 157.029 25.667C157.029 25.8397 156.992 25.9507 156.918 26C156.844 26.0247 156.708 26.037 156.511 26.037C156.363 26.037 156.104 26.0123 155.734 25.963C155.364 25.9137 154.871 25.889 154.254 25.889C153.711 25.889 153.243 25.9137 152.848 25.963C152.478 26.0123 152.17 26.037 151.923 26.037C151.726 26.037 151.578 26.0247 151.479 26C151.405 25.9507 151.368 25.8397 151.368 25.667C151.368 25.4697 151.454 25.3587 151.627 25.334C151.824 25.2847 152.034 25.223 152.256 25.149C152.503 25.075 152.712 24.9517 152.885 24.779C153.082 24.5817 153.181 24.2363 153.181 23.743V16.306C153.181 14.382 152.947 12.939 152.478 11.977C152.034 11.015 151.22 10.534 150.036 10.534C149.074 10.534 148.26 10.9657 147.594 11.829C146.953 12.6923 146.62 14.0243 146.595 15.825L146.521 23.743C146.521 24.2363 146.607 24.5817 146.78 24.779C146.977 24.9517 147.187 25.075 147.409 25.149C147.656 25.223 147.865 25.2847 148.038 25.334C148.235 25.3587 148.334 25.4697 148.334 25.667C148.334 25.8397 148.297 25.9507 148.223 26C148.149 26.0247 148.013 26.037 147.816 26.037C147.643 26.037 147.372 26.0123 147.002 25.963C146.632 25.9137 146.151 25.889 145.559 25.889C144.893 25.889 144.363 25.9137 143.968 25.963C143.573 26.0123 143.314 26.037 143.191 26.037C142.994 26.037 142.858 26.0247 142.784 26C142.71 25.9507 142.673 25.8397 142.673 25.667C142.673 25.4697 142.759 25.3587 142.932 25.334C143.129 25.2847 143.339 25.223 143.561 25.149C143.783 25.075 143.98 24.9517 144.153 24.779C144.35 24.5817 144.449 24.2363 144.449 23.743V16.306C144.449 14.382 144.215 12.939 143.746 11.977C143.277 11.015 142.463 10.534 141.304 10.534C140.342 10.534 139.516 10.9903 138.825 11.903C138.159 12.791 137.826 14.0983 137.826 15.825V23.743C137.826 24.261 137.925 24.6187 138.122 24.816C138.319 24.9887 138.541 25.112 138.788 25.186C139.035 25.2353 139.257 25.2847 139.454 25.334C139.651 25.3587 139.75 25.4697 139.75 25.667C139.75 25.8397 139.701 25.9507 139.602 26C139.528 26.0247 139.392 26.037 139.195 26.037C139.096 26.037 138.85 26.0123 138.455 25.963C138.06 25.9137 137.505 25.889 136.79 25.889C136.272 25.889 135.803 25.9137 135.384 25.963C134.989 26.0123 134.656 26.037 134.385 26.037C134.188 26.037 134.04 26.0247 133.941 26C133.867 25.9507 133.83 25.8397 133.83 25.667C133.83 25.4697 133.929 25.3587 134.126 25.334C134.323 25.2847 134.545 25.223 134.792 25.149C135.039 25.075 135.261 24.9517 135.458 24.779C135.655 24.5817 135.754 24.2363 135.754 23.743V13.198C135.754 12.754 135.668 12.458 135.495 12.31C135.347 12.162 135.174 12.0757 134.977 12.051C134.804 12.0263 134.644 12.014 134.496 12.014C134.348 12.014 134.274 11.9277 134.274 11.755C134.274 11.533 134.397 11.385 134.644 11.311C134.915 11.2123 135.187 11.0643 135.458 10.867C136.099 10.423 136.568 10.016 136.864 9.646C137.16 9.25133 137.37 9.054 137.493 9.054C137.616 9.054 137.678 9.14033 137.678 9.313C137.703 9.461 137.715 9.67067 137.715 9.942ZM162.613 10.904V19.414C162.613 21.338 162.86 22.781 163.353 23.743C163.846 24.705 164.734 25.186 166.017 25.186C167.349 25.186 168.311 24.6557 168.903 23.595C169.495 22.5097 169.791 20.894 169.791 18.748V12.014C169.791 11.5207 169.692 11.1753 169.495 10.978C169.298 10.7807 169.076 10.645 168.829 10.571C168.582 10.497 168.36 10.4477 168.163 10.423C167.966 10.3983 167.867 10.2873 167.867 10.09C167.867 9.91733 167.892 9.81867 167.941 9.794C168.015 9.74467 168.114 9.72 168.237 9.72C168.336 9.72 168.496 9.73233 168.718 9.757C168.94 9.78167 169.236 9.794 169.606 9.794C170.025 9.794 170.383 9.78167 170.679 9.757C170.975 9.73233 171.185 9.72 171.308 9.72C171.579 9.72 171.74 9.794 171.789 9.942C171.838 10.0653 171.863 10.386 171.863 10.904V23.077C171.863 23.595 171.937 23.9403 172.085 24.113C172.233 24.2857 172.393 24.3843 172.566 24.409C172.763 24.4337 172.936 24.446 173.084 24.446C173.257 24.446 173.343 24.5323 173.343 24.705C173.343 24.9023 173.207 25.0627 172.936 25.186C172.665 25.2847 172.344 25.4327 171.974 25.63C171.53 25.8767 171.172 26.111 170.901 26.333C170.63 26.5797 170.395 26.703 170.198 26.703C170.05 26.703 169.951 26.6167 169.902 26.444C169.877 26.296 169.865 26.0863 169.865 25.815V24.076C169.865 23.78 169.828 23.632 169.754 23.632C169.655 23.632 169.507 23.817 169.31 24.187C169.113 24.5323 168.767 24.9147 168.274 25.334C167.781 25.778 167.275 26.111 166.757 26.333C166.264 26.5797 165.709 26.703 165.092 26.703C164.253 26.703 163.489 26.4933 162.798 26.074C162.132 25.6547 161.626 25.075 161.281 24.335C160.936 23.669 160.726 22.9783 160.652 22.263C160.578 21.5477 160.541 20.7953 160.541 20.006V12.014C160.541 11.5207 160.442 11.1753 160.245 10.978C160.048 10.7807 159.826 10.645 159.579 10.571C159.332 10.497 159.11 10.4477 158.913 10.423C158.716 10.3983 158.617 10.2873 158.617 10.09C158.617 9.91733 158.642 9.81867 158.691 9.794C158.765 9.74467 158.864 9.72 158.987 9.72C159.036 9.72 159.197 9.73233 159.468 9.757C159.764 9.78167 160.171 9.794 160.689 9.794C160.96 9.794 161.195 9.78167 161.392 9.757C161.614 9.73233 161.824 9.72 162.021 9.72C162.292 9.72 162.453 9.78167 162.502 9.905C162.576 10.0283 162.613 10.3613 162.613 10.904ZM179.159 9.942V11.681C179.159 11.9523 179.209 12.088 179.307 12.088C179.406 12.088 179.554 11.9153 179.751 11.57C179.973 11.2 180.319 10.8053 180.787 10.386C181.281 9.942 181.774 9.609 182.267 9.387C182.785 9.165 183.34 9.054 183.932 9.054C185.314 9.054 186.424 9.55967 187.262 10.571C188.101 11.5823 188.52 12.9513 188.52 14.678V23.743C188.52 24.261 188.619 24.6187 188.816 24.816C189.014 24.9887 189.236 25.112 189.482 25.186C189.729 25.2353 189.951 25.2847 190.148 25.334C190.346 25.3587 190.444 25.4697 190.444 25.667C190.444 25.8397 190.395 25.9507 190.296 26C190.222 26.0247 190.087 26.037 189.889 26.037C189.717 26.037 189.433 26.0123 189.038 25.963C188.644 25.9137 188.126 25.889 187.484 25.889C186.966 25.889 186.51 25.9137 186.115 25.963C185.745 26.0123 185.425 26.037 185.153 26.037C184.931 26.037 184.771 26.0247 184.672 26C184.574 25.9753 184.524 25.8643 184.524 25.667C184.524 25.4697 184.623 25.3587 184.82 25.334C185.018 25.2847 185.24 25.223 185.486 25.149C185.733 25.075 185.955 24.9517 186.152 24.779C186.35 24.5817 186.448 24.2363 186.448 23.743V16.306C186.448 14.382 186.202 12.939 185.708 11.977C185.215 11.015 184.327 10.534 183.044 10.534C181.712 10.534 180.75 11.0767 180.158 12.162C179.566 13.2227 179.27 14.826 179.27 16.972V23.743C179.27 24.261 179.369 24.6187 179.566 24.816C179.764 24.9887 179.986 25.112 180.232 25.186C180.479 25.2353 180.701 25.2847 180.898 25.334C181.096 25.3587 181.194 25.4697 181.194 25.667C181.194 25.8397 181.145 25.9507 181.046 26C180.972 26.0247 180.837 26.037 180.639 26.037C180.467 26.037 180.183 26.0123 179.788 25.963C179.394 25.9137 178.876 25.889 178.234 25.889C177.766 25.889 177.334 25.9137 176.939 25.963C176.545 26.0123 176.175 26.037 175.829 26.037C175.632 26.037 175.484 26.0247 175.385 26C175.311 25.9507 175.274 25.8397 175.274 25.667C175.274 25.4697 175.373 25.3587 175.57 25.334C175.768 25.2847 175.99 25.223 176.236 25.149C176.483 25.075 176.705 24.9517 176.902 24.779C177.1 24.5817 177.198 24.2363 177.198 23.743V13.013C177.198 12.643 177.112 12.4087 176.939 12.31C176.791 12.1867 176.619 12.1127 176.421 12.088C176.249 12.0633 176.088 12.0387 175.94 12.014C175.792 11.9893 175.718 11.903 175.718 11.755C175.718 11.533 175.842 11.385 176.088 11.311C176.36 11.2123 176.631 11.0643 176.902 10.867C177.544 10.423 178.012 10.016 178.308 9.646C178.604 9.25133 178.814 9.054 178.937 9.054C179.061 9.054 179.122 9.14033 179.122 9.313C179.147 9.461 179.159 9.67067 179.159 9.942ZM194.928 2.69C195.274 2.69 195.582 2.875 195.853 3.245C196.125 3.615 196.26 4.04667 196.26 4.54C196.26 5.00866 196.125 5.428 195.853 5.798C195.607 6.14333 195.298 6.316 194.928 6.316C194.583 6.316 194.275 6.14333 194.003 5.798C193.757 5.45267 193.633 5.03333 193.633 4.54C193.633 4.04667 193.757 3.615 194.003 3.245C194.275 2.875 194.583 2.69 194.928 2.69ZM196.075 9.942V23.743C196.075 24.261 196.174 24.6187 196.371 24.816C196.593 24.9887 196.828 25.112 197.074 25.186C197.346 25.2353 197.58 25.2847 197.777 25.334C197.999 25.3587 198.11 25.4697 198.11 25.667C198.11 25.8643 198.061 25.9753 197.962 26C197.888 26.0247 197.753 26.037 197.555 26.037C197.407 26.037 197.111 26.0123 196.667 25.963C196.248 25.9137 195.681 25.889 194.965 25.889C194.398 25.889 193.892 25.9137 193.448 25.963C193.029 26.0123 192.684 26.037 192.412 26.037C192.215 26.037 192.055 26.0247 191.931 26C191.833 25.9507 191.783 25.8397 191.783 25.667C191.783 25.4697 191.894 25.3587 192.116 25.334C192.363 25.2847 192.622 25.2353 192.893 25.186C193.165 25.112 193.411 24.9763 193.633 24.779C193.88 24.5817 194.003 24.2363 194.003 23.743V13.568C194.003 12.6553 193.621 12.199 192.856 12.199C192.659 12.199 192.499 12.1867 192.375 12.162C192.252 12.1127 192.19 12.0017 192.19 11.829C192.19 11.5823 192.326 11.4097 192.597 11.311C192.893 11.2123 193.202 11.0273 193.522 10.756C194.213 10.3613 194.731 10.0037 195.076 9.683C195.422 9.36233 195.668 9.202 195.816 9.202C195.94 9.202 196.014 9.26367 196.038 9.387C196.063 9.48567 196.075 9.67067 196.075 9.942ZM212.657 1.21V22.522C212.657 23.262 212.682 23.8047 212.731 24.15C212.805 24.4953 212.99 24.668 213.286 24.668C213.385 24.668 213.496 24.631 213.619 24.557C213.742 24.4583 213.853 24.3597 213.952 24.261C214.075 24.1377 214.186 24.039 214.285 23.965C214.408 23.8663 214.519 23.817 214.618 23.817C214.692 23.817 214.729 23.9897 214.729 24.335C214.729 24.6063 214.68 24.7913 214.581 24.89C214.482 24.9887 214.273 25.0997 213.952 25.223C213.163 25.5683 212.558 25.8643 212.139 26.111C211.744 26.3823 211.473 26.518 211.325 26.518C211.078 26.518 210.918 26.1973 210.844 25.556L210.696 23.854H210.474C209.66 24.7913 208.846 25.5067 208.032 26C207.243 26.4687 206.416 26.703 205.553 26.703C204.739 26.703 203.962 26.5057 203.222 26.111C202.507 25.7163 201.878 25.149 201.335 24.409C200.817 23.6443 200.398 22.7317 200.077 21.671C199.781 20.5857 199.633 19.377 199.633 18.045C199.633 16.639 199.806 15.381 200.151 14.271C200.521 13.161 201.014 12.2237 201.631 11.459C202.248 10.6697 202.975 10.0777 203.814 9.683C204.677 9.26367 205.59 9.054 206.552 9.054C207.169 9.054 207.699 9.11567 208.143 9.239C208.587 9.33767 208.957 9.461 209.253 9.609C209.549 9.757 209.771 9.89267 209.919 10.016C210.092 10.1147 210.215 10.164 210.289 10.164C210.486 10.164 210.585 10.0283 210.585 9.757V4.133C210.585 3.023 210.203 2.468 209.438 2.468C209.413 2.468 209.376 2.48033 209.327 2.505C209.278 2.505 209.191 2.505 209.068 2.505C209.019 2.505 208.957 2.48033 208.883 2.431C208.809 2.357 208.772 2.27066 208.772 2.172C208.772 1.92533 208.92 1.77733 209.216 1.728C209.512 1.654 209.845 1.55533 210.215 1.432C210.856 1.21 211.35 0.987999 211.695 0.765998C212.04 0.519332 212.275 0.395999 212.398 0.395999C212.571 0.395999 212.657 0.667332 212.657 1.21ZM210.585 12.865C210.585 12.421 210.486 12.014 210.289 11.644C210.092 11.2493 209.82 10.9163 209.475 10.645C209.154 10.3737 208.772 10.164 208.328 10.016C207.884 9.84333 207.403 9.757 206.885 9.757C205.405 9.757 204.196 10.4477 203.259 11.829C202.322 13.1857 201.853 15.1343 201.853 17.675C201.853 20.1417 202.285 22.0533 203.148 23.41C204.036 24.742 205.158 25.408 206.515 25.408C207.033 25.408 207.526 25.297 207.995 25.075C208.488 24.853 208.92 24.557 209.29 24.187C209.685 23.7923 209.993 23.336 210.215 22.818C210.462 22.3 210.585 21.7327 210.585 21.116V12.865ZM226.058 13.235V22.522C226.058 24.0513 226.391 24.816 227.057 24.816C227.328 24.816 227.575 24.6803 227.797 24.409C228.044 24.1377 228.241 24.002 228.389 24.002C228.562 24.002 228.648 24.0883 228.648 24.261C228.648 24.4583 228.537 24.6927 228.315 24.964C228.118 25.2107 227.871 25.4573 227.575 25.704C227.279 25.9507 226.958 26.148 226.613 26.296C226.292 26.4687 226.009 26.555 225.762 26.555C225.269 26.555 224.886 26.37 224.615 26C224.368 25.6053 224.134 24.9763 223.912 24.113H223.764C222.827 24.9023 221.988 25.5313 221.248 26C220.533 26.4687 219.78 26.703 218.991 26.703C218.103 26.703 217.412 26.444 216.919 25.926C216.426 25.3833 216.179 24.668 216.179 23.78C216.179 23.0893 216.339 22.448 216.66 21.856C216.981 21.2393 217.462 20.6473 218.103 20.08C218.769 19.488 219.583 18.8837 220.545 18.267C221.507 17.6503 222.617 16.9843 223.875 16.269V13.013C223.875 11.8783 223.752 11.0643 223.505 10.571C223.283 10.0777 222.79 9.831 222.025 9.831C221.384 9.831 220.779 10.053 220.212 10.497C219.645 10.941 219.25 11.4713 219.028 12.088C218.757 12.8527 218.485 13.5063 218.214 14.049C217.943 14.567 217.462 14.826 216.771 14.826C216.598 14.826 216.45 14.7767 216.327 14.678C216.204 14.5547 216.142 14.3943 216.142 14.197C216.142 13.753 216.302 13.235 216.623 12.643C216.944 12.051 217.4 11.4837 217.992 10.941C218.584 10.3983 219.287 9.942 220.101 9.572C220.915 9.202 221.803 9.017 222.765 9.017C223.53 9.017 224.134 9.11567 224.578 9.313C225.022 9.51033 225.355 9.794 225.577 10.164C225.799 10.534 225.935 10.978 225.984 11.496C226.033 12.014 226.058 12.5937 226.058 13.235ZM223.912 17.749C223.912 17.5023 223.838 17.379 223.69 17.379C223.616 17.379 223.493 17.4283 223.32 17.527L222.21 18.156C219.694 19.6113 218.436 21.153 218.436 22.781C218.436 23.4717 218.609 24.0267 218.954 24.446C219.299 24.8407 219.78 25.038 220.397 25.038C220.767 25.038 221.149 24.9517 221.544 24.779C221.963 24.6063 222.346 24.3597 222.691 24.039C223.061 23.6937 223.357 23.2867 223.579 22.818C223.801 22.3247 223.912 21.7697 223.912 21.153V17.749ZM242.756 1.21V22.522C242.756 23.262 242.78 23.8047 242.83 24.15C242.904 24.4953 243.089 24.668 243.385 24.668C243.483 24.668 243.594 24.631 243.718 24.557C243.841 24.4583 243.952 24.3597 244.051 24.261C244.174 24.1377 244.285 24.039 244.384 23.965C244.507 23.8663 244.618 23.817 244.717 23.817C244.791 23.817 244.828 23.9897 244.828 24.335C244.828 24.6063 244.778 24.7913 244.68 24.89C244.581 24.9887 244.371 25.0997 244.051 25.223C243.261 25.5683 242.657 25.8643 242.238 26.111C241.843 26.3823 241.572 26.518 241.424 26.518C241.177 26.518 241.017 26.1973 240.943 25.556L240.795 23.854H240.573C239.759 24.7913 238.945 25.5067 238.131 26C237.341 26.4687 236.515 26.703 235.652 26.703C234.838 26.703 234.061 26.5057 233.321 26.111C232.605 25.7163 231.976 25.149 231.434 24.409C230.916 23.6443 230.496 22.7317 230.176 21.671C229.88 20.5857 229.732 19.377 229.732 18.045C229.732 16.639 229.904 15.381 230.25 14.271C230.62 13.161 231.113 12.2237 231.73 11.459C232.346 10.6697 233.074 10.0777 233.913 9.683C234.776 9.26367 235.689 9.054 236.651 9.054C237.267 9.054 237.798 9.11567 238.242 9.239C238.686 9.33767 239.056 9.461 239.352 9.609C239.648 9.757 239.87 9.89267 240.018 10.016C240.19 10.1147 240.314 10.164 240.388 10.164C240.585 10.164 240.684 10.0283 240.684 9.757V4.133C240.684 3.023 240.301 2.468 239.537 2.468C239.512 2.468 239.475 2.48033 239.426 2.505C239.376 2.505 239.29 2.505 239.167 2.505C239.117 2.505 239.056 2.48033 238.982 2.431C238.908 2.357 238.871 2.27066 238.871 2.172C238.871 1.92533 239.019 1.77733 239.315 1.728C239.611 1.654 239.944 1.55533 240.314 1.432C240.955 1.21 241.448 0.987999 241.794 0.765998C242.139 0.519332 242.373 0.395999 242.497 0.395999C242.669 0.395999 242.756 0.667332 242.756 1.21ZM240.684 12.865C240.684 12.421 240.585 12.014 240.388 11.644C240.19 11.2493 239.919 10.9163 239.574 10.645C239.253 10.3737 238.871 10.164 238.427 10.016C237.983 9.84333 237.502 9.757 236.984 9.757C235.504 9.757 234.295 10.4477 233.358 11.829C232.42 13.1857 231.952 15.1343 231.952 17.675C231.952 20.1417 232.383 22.0533 233.247 23.41C234.135 24.742 235.257 25.408 236.614 25.408C237.132 25.408 237.625 25.297 238.094 25.075C238.587 24.853 239.019 24.557 239.389 24.187C239.783 23.7923 240.092 23.336 240.314 22.818C240.56 22.3 240.684 21.7327 240.684 21.116V12.865ZM252.457 14.715C253.986 14.715 255.108 14.6287 255.824 14.456C256.539 14.2587 256.897 13.8023 256.897 13.087C256.897 12.6923 256.81 12.2977 256.638 11.903C256.465 11.5083 256.218 11.1507 255.898 10.83C255.602 10.5093 255.244 10.2503 254.825 10.053C254.405 9.85567 253.961 9.757 253.493 9.757C252.901 9.757 252.333 9.905 251.791 10.201C251.248 10.497 250.767 10.867 250.348 11.311C249.953 11.755 249.632 12.2483 249.386 12.791C249.139 13.3337 249.016 13.864 249.016 14.382C249.016 14.456 249.053 14.53 249.127 14.604C249.201 14.678 249.299 14.715 249.423 14.715H252.457ZM258.192 15.603H249.386C249.065 15.603 248.868 15.714 248.794 15.936C248.72 16.1333 248.683 16.5403 248.683 17.157C248.683 18.3903 248.818 19.488 249.09 20.45C249.386 21.412 249.78 22.226 250.274 22.892C250.792 23.558 251.396 24.076 252.087 24.446C252.802 24.7913 253.579 24.964 254.418 24.964C255.182 24.964 255.824 24.8407 256.342 24.594C256.884 24.3473 257.328 24.076 257.674 23.78C258.019 23.484 258.29 23.2127 258.488 22.966C258.685 22.7193 258.821 22.596 258.895 22.596C259.067 22.596 259.154 22.6947 259.154 22.892C259.154 23.1633 259.018 23.521 258.747 23.965C258.475 24.3843 258.081 24.8037 257.563 25.223C257.069 25.6177 256.453 25.963 255.713 26.259C254.997 26.555 254.196 26.703 253.308 26.703C252.296 26.703 251.359 26.4933 250.496 26.074C249.657 25.6547 248.929 25.0627 248.313 24.298C247.696 23.5333 247.215 22.6083 246.87 21.523C246.549 20.4377 246.389 19.229 246.389 17.897C246.389 16.5403 246.586 15.3193 246.981 14.234C247.375 13.124 247.906 12.1867 248.572 11.422C249.238 10.6573 250.015 10.0777 250.903 9.683C251.791 9.26367 252.728 9.054 253.715 9.054C254.578 9.054 255.355 9.21433 256.046 9.535C256.736 9.85567 257.316 10.2873 257.785 10.83C258.278 11.348 258.648 11.9647 258.895 12.68C259.166 13.3707 259.302 14.086 259.302 14.826C259.302 15.0973 259.215 15.2947 259.043 15.418C258.895 15.5413 258.611 15.603 258.192 15.603ZM276.009 9.054C277.267 9.054 278.253 9.25133 278.969 9.646C279.709 10.0407 280.079 10.5957 280.079 11.311C280.079 12.8403 279.894 13.605 279.524 13.605C279.277 13.605 279.104 13.4693 279.006 13.198C278.907 12.902 278.722 12.495 278.451 11.977C278.031 11.237 277.6 10.682 277.156 10.312C276.736 9.942 276.206 9.757 275.565 9.757C274.948 9.757 274.356 9.92967 273.789 10.275C273.246 10.5957 272.765 11.089 272.346 11.755C271.926 12.421 271.593 13.2473 271.347 14.234C271.1 15.2207 270.977 16.3553 270.977 17.638C270.977 20.154 271.458 22.0903 272.42 23.447C273.382 24.779 274.64 25.445 276.194 25.445C276.81 25.445 277.341 25.3463 277.785 25.149C278.253 24.9517 278.648 24.742 278.969 24.52C279.289 24.2733 279.536 24.0513 279.709 23.854C279.881 23.6567 280.005 23.558 280.079 23.558C280.251 23.558 280.338 23.632 280.338 23.78C280.338 23.9527 280.214 24.2117 279.968 24.557C279.746 24.8777 279.425 25.1983 279.006 25.519C278.586 25.8397 278.081 26.111 277.489 26.333C276.897 26.5797 276.231 26.703 275.491 26.703C274.529 26.703 273.628 26.4933 272.79 26.074C271.976 25.6547 271.26 25.0627 270.644 24.298C270.027 23.5087 269.546 22.5713 269.201 21.486C268.855 20.4007 268.683 19.192 268.683 17.86C268.683 16.528 268.88 15.3193 269.275 14.234C269.694 13.1487 270.237 12.2237 270.903 11.459C271.593 10.6943 272.383 10.1023 273.271 9.683C274.159 9.26367 275.071 9.054 276.009 9.054ZM285.751 9.942V12.051C285.751 12.2237 285.8 12.31 285.899 12.31C285.973 12.31 286.059 12.2483 286.158 12.125L286.824 11.163C287.86 9.757 288.958 9.054 290.117 9.054C290.734 9.054 291.215 9.22667 291.56 9.572C291.905 9.89267 292.078 10.2997 292.078 10.793C292.078 11.2863 291.942 11.6933 291.671 12.014C291.424 12.31 291.141 12.458 290.82 12.458C290.573 12.458 290.351 12.384 290.154 12.236C289.981 12.088 289.796 11.9277 289.599 11.755C289.426 11.5577 289.241 11.385 289.044 11.237C288.847 11.089 288.6 11.015 288.304 11.015C288.033 11.015 287.749 11.126 287.453 11.348C287.182 11.57 286.923 11.9277 286.676 12.421C286.429 12.8897 286.232 13.494 286.084 14.234C285.936 14.974 285.862 15.862 285.862 16.898V23.003C285.862 23.6443 285.911 24.1007 286.01 24.372C286.109 24.6433 286.343 24.853 286.713 25.001C287.034 25.1243 287.317 25.1983 287.564 25.223C287.811 25.2477 288.02 25.2723 288.193 25.297C288.366 25.297 288.489 25.3217 288.563 25.371C288.662 25.3957 288.711 25.4943 288.711 25.667C288.711 25.9383 288.514 26.074 288.119 26.074C287.798 26.074 287.354 26.0493 286.787 26C286.244 25.926 285.591 25.889 284.826 25.889C284.333 25.889 283.876 25.9137 283.457 25.963C283.062 26.0123 282.717 26.037 282.421 26.037C282.224 26.037 282.076 26.0247 281.977 26C281.903 25.9507 281.866 25.8397 281.866 25.667C281.866 25.4203 281.952 25.297 282.125 25.297C282.322 25.297 282.631 25.223 283.05 25.075C283.371 24.9517 283.568 24.742 283.642 24.446C283.741 24.1253 283.79 23.6443 283.79 23.003V13.198C283.79 12.754 283.704 12.458 283.531 12.31C283.383 12.162 283.21 12.0757 283.013 12.051C282.84 12.0263 282.68 12.014 282.532 12.014C282.384 12.014 282.31 11.9277 282.31 11.755C282.31 11.5577 282.433 11.4097 282.68 11.311C282.951 11.1877 283.247 11.015 283.568 10.793C284.135 10.3983 284.567 10.016 284.863 9.646C285.159 9.25133 285.381 9.054 285.529 9.054C285.652 9.054 285.714 9.14033 285.714 9.313C285.739 9.461 285.751 9.67067 285.751 9.942ZM295.631 2.69C295.976 2.69 296.284 2.875 296.556 3.245C296.827 3.615 296.963 4.04667 296.963 4.54C296.963 5.00866 296.827 5.428 296.556 5.798C296.309 6.14333 296.001 6.316 295.631 6.316C295.285 6.316 294.977 6.14333 294.706 5.798C294.459 5.45267 294.336 5.03333 294.336 4.54C294.336 4.04667 294.459 3.615 294.706 3.245C294.977 2.875 295.285 2.69 295.631 2.69ZM296.778 9.942V23.743C296.778 24.261 296.876 24.6187 297.074 24.816C297.296 24.9887 297.53 25.112 297.777 25.186C298.048 25.2353 298.282 25.2847 298.48 25.334C298.702 25.3587 298.813 25.4697 298.813 25.667C298.813 25.8643 298.763 25.9753 298.665 26C298.591 26.0247 298.455 26.037 298.258 26.037C298.11 26.037 297.814 26.0123 297.37 25.963C296.95 25.9137 296.383 25.889 295.668 25.889C295.1 25.889 294.595 25.9137 294.151 25.963C293.731 26.0123 293.386 26.037 293.115 26.037C292.917 26.037 292.757 26.0247 292.634 26C292.535 25.9507 292.486 25.8397 292.486 25.667C292.486 25.4697 292.597 25.3587 292.819 25.334C293.065 25.2847 293.324 25.2353 293.596 25.186C293.867 25.112 294.114 24.9763 294.336 24.779C294.582 24.5817 294.706 24.2363 294.706 23.743V13.568C294.706 12.6553 294.323 12.199 293.559 12.199C293.361 12.199 293.201 12.1867 293.078 12.162C292.954 12.1127 292.893 12.0017 292.893 11.829C292.893 11.5823 293.028 11.4097 293.3 11.311C293.596 11.2123 293.904 11.0273 294.225 10.756C294.915 10.3613 295.433 10.0037 295.779 9.683C296.124 9.36233 296.371 9.202 296.519 9.202C296.642 9.202 296.716 9.26367 296.741 9.387C296.765 9.48567 296.778 9.67067 296.778 9.942ZM310.103 13.235V22.522C310.103 24.0513 310.436 24.816 311.102 24.816C311.373 24.816 311.62 24.6803 311.842 24.409C312.089 24.1377 312.286 24.002 312.434 24.002C312.607 24.002 312.693 24.0883 312.693 24.261C312.693 24.4583 312.582 24.6927 312.36 24.964C312.163 25.2107 311.916 25.4573 311.62 25.704C311.324 25.9507 311.003 26.148 310.658 26.296C310.337 26.4687 310.054 26.555 309.807 26.555C309.314 26.555 308.931 26.37 308.66 26C308.413 25.6053 308.179 24.9763 307.957 24.113H307.809C306.872 24.9023 306.033 25.5313 305.293 26C304.578 26.4687 303.825 26.703 303.036 26.703C302.148 26.703 301.457 26.444 300.964 25.926C300.471 25.3833 300.224 24.668 300.224 23.78C300.224 23.0893 300.384 22.448 300.705 21.856C301.026 21.2393 301.507 20.6473 302.148 20.08C302.814 19.488 303.628 18.8837 304.59 18.267C305.552 17.6503 306.662 16.9843 307.92 16.269V13.013C307.92 11.8783 307.797 11.0643 307.55 10.571C307.328 10.0777 306.835 9.831 306.07 9.831C305.429 9.831 304.824 10.053 304.257 10.497C303.69 10.941 303.295 11.4713 303.073 12.088C302.802 12.8527 302.53 13.5063 302.259 14.049C301.988 14.567 301.507 14.826 300.816 14.826C300.643 14.826 300.495 14.7767 300.372 14.678C300.249 14.5547 300.187 14.3943 300.187 14.197C300.187 13.753 300.347 13.235 300.668 12.643C300.989 12.051 301.445 11.4837 302.037 10.941C302.629 10.3983 303.332 9.942 304.146 9.572C304.96 9.202 305.848 9.017 306.81 9.017C307.575 9.017 308.179 9.11567 308.623 9.313C309.067 9.51033 309.4 9.794 309.622 10.164C309.844 10.534 309.98 10.978 310.029 11.496C310.078 12.014 310.103 12.5937 310.103 13.235ZM307.957 17.749C307.957 17.5023 307.883 17.379 307.735 17.379C307.661 17.379 307.538 17.4283 307.365 17.527L306.255 18.156C303.739 19.6113 302.481 21.153 302.481 22.781C302.481 23.4717 302.654 24.0267 302.999 24.446C303.344 24.8407 303.825 25.038 304.442 25.038C304.812 25.038 305.194 24.9517 305.589 24.779C306.008 24.6063 306.391 24.3597 306.736 24.039C307.106 23.6937 307.402 23.2867 307.624 22.818C307.846 22.3247 307.957 21.7697 307.957 21.153V17.749ZM317.476 7.204V9.091C317.476 9.33767 317.501 9.51033 317.55 9.609C317.624 9.683 317.772 9.72 317.994 9.72H320.732C320.954 9.72 321.09 9.757 321.139 9.831C321.189 9.88033 321.213 10.0037 321.213 10.201V10.349C321.213 10.571 321.176 10.7313 321.102 10.83C321.053 10.9287 320.93 10.978 320.732 10.978H317.957C317.735 10.978 317.587 11.0273 317.513 11.126C317.464 11.2 317.439 11.3603 317.439 11.607V22.411C317.439 24.2857 318.031 25.223 319.215 25.223C319.536 25.223 319.832 25.149 320.103 25.001C320.375 24.853 320.609 24.705 320.806 24.557C321.028 24.3843 321.213 24.224 321.361 24.076C321.509 23.928 321.62 23.854 321.694 23.854C321.793 23.854 321.842 23.9527 321.842 24.15C321.842 24.2733 321.744 24.483 321.546 24.779C321.374 25.0503 321.115 25.334 320.769 25.63C320.449 25.9013 320.066 26.148 319.622 26.37C319.203 26.592 318.759 26.703 318.29 26.703C317.328 26.703 316.576 26.3207 316.033 25.556C315.515 24.7913 315.256 23.669 315.256 22.189V20.45L315.367 11.607C315.367 11.3603 315.33 11.2 315.256 11.126C315.207 11.0273 315.071 10.978 314.849 10.978H314.294C313.924 10.978 313.739 10.867 313.739 10.645C313.739 10.4477 313.924 10.2133 314.294 9.942C314.689 9.646 315.158 9.17733 315.7 8.536C316.243 7.89467 316.601 7.33967 316.773 6.871C316.971 6.40233 317.156 6.168 317.328 6.168C317.427 6.168 317.476 6.316 317.476 6.612V7.204ZM326.018 2.69C326.364 2.69 326.672 2.875 326.943 3.245C327.215 3.615 327.35 4.04667 327.35 4.54C327.35 5.00866 327.215 5.428 326.943 5.798C326.697 6.14333 326.388 6.316 326.018 6.316C325.673 6.316 325.365 6.14333 325.093 5.798C324.847 5.45267 324.723 5.03333 324.723 4.54C324.723 4.04667 324.847 3.615 325.093 3.245C325.365 2.875 325.673 2.69 326.018 2.69ZM327.165 9.942V23.743C327.165 24.261 327.264 24.6187 327.461 24.816C327.683 24.9887 327.918 25.112 328.164 25.186C328.436 25.2353 328.67 25.2847 328.867 25.334C329.089 25.3587 329.2 25.4697 329.2 25.667C329.2 25.8643 329.151 25.9753 329.052 26C328.978 26.0247 328.843 26.037 328.645 26.037C328.497 26.037 328.201 26.0123 327.757 25.963C327.338 25.9137 326.771 25.889 326.055 25.889C325.488 25.889 324.982 25.9137 324.538 25.963C324.119 26.0123 323.774 26.037 323.502 26.037C323.305 26.037 323.145 26.0247 323.021 26C322.923 25.9507 322.873 25.8397 322.873 25.667C322.873 25.4697 322.984 25.3587 323.206 25.334C323.453 25.2847 323.712 25.2353 323.983 25.186C324.255 25.112 324.501 24.9763 324.723 24.779C324.97 24.5817 325.093 24.2363 325.093 23.743V13.568C325.093 12.6553 324.711 12.199 323.946 12.199C323.749 12.199 323.589 12.1867 323.465 12.162C323.342 12.1127 323.28 12.0017 323.28 11.829C323.28 11.5823 323.416 11.4097 323.687 11.311C323.983 11.2123 324.292 11.0273 324.612 10.756C325.303 10.3613 325.821 10.0037 326.166 9.683C326.512 9.36233 326.758 9.202 326.906 9.202C327.03 9.202 327.104 9.26367 327.128 9.387C327.153 9.48567 327.165 9.67067 327.165 9.942ZM334.09 13.235L336.68 22.078C336.754 22.2507 336.828 22.337 336.902 22.337C336.976 22.337 337.05 22.226 337.124 22.004L340.121 13.42C340.244 13.0747 340.343 12.7417 340.417 12.421C340.491 12.1003 340.528 11.7673 340.528 11.422C340.528 11.1013 340.417 10.8917 340.195 10.793C339.997 10.6697 339.775 10.5957 339.529 10.571C339.307 10.5217 339.085 10.4723 338.863 10.423C338.665 10.3737 338.567 10.2503 338.567 10.053C338.567 9.905 338.591 9.81867 338.641 9.794C338.715 9.74467 338.813 9.72 338.937 9.72C339.011 9.72 339.233 9.74467 339.603 9.794C339.997 9.81867 340.589 9.831 341.379 9.831C342.045 9.831 342.538 9.81867 342.859 9.794C343.179 9.74467 343.364 9.72 343.414 9.72C343.562 9.72 343.66 9.73233 343.71 9.757C343.759 9.78167 343.784 9.88033 343.784 10.053C343.784 10.2997 343.697 10.4353 343.525 10.46C343.377 10.46 343.13 10.534 342.785 10.682C342.439 10.83 342.156 11.0767 341.934 11.422C341.712 11.7673 341.465 12.3347 341.194 13.124L336.643 25.63C336.569 25.852 336.495 26.0247 336.421 26.148C336.371 26.2713 336.285 26.333 336.162 26.333C336.014 26.333 335.915 26.2837 335.866 26.185C335.816 26.0863 335.767 25.9383 335.718 25.741L331.278 11.681C331.13 11.237 330.957 10.9533 330.76 10.83C330.562 10.682 330.365 10.5833 330.168 10.534C329.995 10.4847 329.847 10.4477 329.724 10.423C329.576 10.3983 329.502 10.275 329.502 10.053C329.502 9.905 329.514 9.81867 329.539 9.794C329.563 9.74467 329.637 9.72 329.761 9.72H329.909C330.032 9.72 330.303 9.74467 330.723 9.794C331.167 9.81867 331.734 9.831 332.425 9.831C333.214 9.831 333.818 9.81867 334.238 9.794C334.657 9.74467 334.916 9.72 335.015 9.72C335.138 9.72 335.237 9.74467 335.311 9.794C335.385 9.81867 335.422 9.905 335.422 10.053C335.422 10.2257 335.323 10.3367 335.126 10.386C334.953 10.4353 334.756 10.497 334.534 10.571C334.336 10.6203 334.139 10.6943 333.942 10.793C333.769 10.867 333.683 11.0273 333.683 11.274C333.683 11.5453 333.72 11.8413 333.794 12.162C333.868 12.458 333.966 12.8157 334.09 13.235ZM353.824 13.235V22.522C353.824 24.0513 354.157 24.816 354.823 24.816C355.094 24.816 355.341 24.6803 355.563 24.409C355.809 24.1377 356.007 24.002 356.155 24.002C356.327 24.002 356.414 24.0883 356.414 24.261C356.414 24.4583 356.303 24.6927 356.081 24.964C355.883 25.2107 355.637 25.4573 355.341 25.704C355.045 25.9507 354.724 26.148 354.379 26.296C354.058 26.4687 353.774 26.555 353.528 26.555C353.034 26.555 352.652 26.37 352.381 26C352.134 25.6053 351.9 24.9763 351.678 24.113H351.53C350.592 24.9023 349.754 25.5313 349.014 26C348.298 26.4687 347.546 26.703 346.757 26.703C345.869 26.703 345.178 26.444 344.685 25.926C344.191 25.3833 343.945 24.668 343.945 23.78C343.945 23.0893 344.105 22.448 344.426 21.856C344.746 21.2393 345.227 20.6473 345.869 20.08C346.535 19.488 347.349 18.8837 348.311 18.267C349.273 17.6503 350.383 16.9843 351.641 16.269V13.013C351.641 11.8783 351.517 11.0643 351.271 10.571C351.049 10.0777 350.555 9.831 349.791 9.831C349.149 9.831 348.545 10.053 347.978 10.497C347.41 10.941 347.016 11.4713 346.794 12.088C346.522 12.8527 346.251 13.5063 345.98 14.049C345.708 14.567 345.227 14.826 344.537 14.826C344.364 14.826 344.216 14.7767 344.093 14.678C343.969 14.5547 343.908 14.3943 343.908 14.197C343.908 13.753 344.068 13.235 344.389 12.643C344.709 12.051 345.166 11.4837 345.758 10.941C346.35 10.3983 347.053 9.942 347.867 9.572C348.681 9.202 349.569 9.017 350.531 9.017C351.295 9.017 351.9 9.11567 352.344 9.313C352.788 9.51033 353.121 9.794 353.343 10.164C353.565 10.534 353.7 10.978 353.75 11.496C353.799 12.014 353.824 12.5937 353.824 13.235ZM351.678 17.749C351.678 17.5023 351.604 17.379 351.456 17.379C351.382 17.379 351.258 17.4283 351.086 17.527L349.976 18.156C347.46 19.6113 346.202 21.153 346.202 22.781C346.202 23.4717 346.374 24.0267 346.72 24.446C347.065 24.8407 347.546 25.038 348.163 25.038C348.533 25.038 348.915 24.9517 349.31 24.779C349.729 24.6063 350.111 24.3597 350.457 24.039C350.827 23.6937 351.123 23.2867 351.345 22.818C351.567 22.3247 351.678 21.7697 351.678 21.153V17.749Z" fill="black"/>
</svg>
