<svg width="1435" height="671" viewBox="0 0 1435 671" fill="none" xmlns="http://www.w3.org/2000/svg">
<path d="M57.9 71.55V124.26C57.9 132.94 59.79 137.28 63.57 137.28C65.11 137.28 66.51 136.51 67.77 134.97C69.17 133.43 70.29 132.66 71.13 132.66C72.11 132.66 72.6 133.15 72.6 134.13C72.6 135.25 71.97 136.58 70.71 138.12C69.59 139.52 68.19 140.92 66.51 142.32C64.83 143.72 63.01 144.84 61.05 145.68C59.23 146.66 57.62 147.15 56.22 147.15C53.42 147.15 51.25 146.1 49.71 144C48.31 141.76 46.98 138.19 45.72 133.29H44.88C39.56 137.77 34.8 141.34 30.6 144C26.54 146.66 22.27 147.99 17.79 147.99C12.75 147.99 8.83 146.52 6.03 143.58C3.23 140.5 1.83 136.44 1.83 131.4C1.83 127.48 2.74 123.84 4.56 120.48C6.38 116.98 9.11 113.62 12.75 110.4C16.53 107.04 21.15 103.61 26.61 100.11C32.07 96.61 38.37 92.83 45.51 88.77V70.29C45.51 63.85 44.81 59.23 43.41 56.43C42.15 53.63 39.35 52.23 35.01 52.23C31.37 52.23 27.94 53.49 24.72 56.01C21.5 58.53 19.26 61.54 18 65.04C16.46 69.38 14.92 73.09 13.38 76.17C11.84 79.11 9.11 80.58 5.19 80.58C4.21 80.58 3.37 80.3 2.67 79.74C1.97 79.04 1.62 78.13 1.62 77.01C1.62 74.49 2.53 71.55 4.35 68.19C6.17 64.83 8.76 61.61 12.12 58.53C15.48 55.45 19.47 52.86 24.09 50.76C28.71 48.66 33.75 47.61 39.21 47.61C43.55 47.61 46.98 48.17 49.5 49.29C52.02 50.41 53.91 52.02 55.17 54.12C56.43 56.22 57.2 58.74 57.48 61.68C57.76 64.62 57.9 67.91 57.9 71.55ZM45.72 97.17C45.72 95.77 45.3 95.07 44.46 95.07C44.04 95.07 43.34 95.35 42.36 95.91L36.06 99.48C21.78 107.74 14.64 116.49 14.64 125.73C14.64 129.65 15.62 132.8 17.58 135.18C19.54 137.42 22.27 138.54 25.77 138.54C27.87 138.54 30.04 138.05 32.28 137.07C34.66 136.09 36.83 134.69 38.79 132.87C40.89 130.91 42.57 128.6 43.83 125.94C45.09 123.14 45.72 119.99 45.72 116.49V97.17ZM140.909 69.45C140.909 64.41 138.949 60.21 135.029 56.85C131.109 53.49 126.069 51.81 119.909 51.81C111.509 51.81 104.649 55.73 99.3291 63.57C94.0091 71.27 91.3491 82.33 91.3491 96.75C91.3491 110.75 93.7991 121.53 98.6991 129.09C103.739 136.65 110.109 140.43 117.809 140.43C120.749 140.43 123.549 139.87 126.209 138.75C129.009 137.49 131.459 135.81 133.559 133.71C135.799 131.47 137.549 128.88 138.809 125.94C140.209 123 140.909 119.78 140.909 116.28V69.45ZM153.299 71.34V176.13C153.299 178.93 153.859 180.96 154.979 182.22C156.099 183.48 157.359 184.39 158.759 184.95C160.159 185.51 161.419 185.93 162.539 186.21C163.659 186.63 164.219 187.33 164.219 188.31C164.219 189.29 163.939 189.85 163.379 189.99C162.819 190.27 161.979 190.41 160.859 190.41C159.739 190.41 158.059 190.2 155.819 189.78C153.719 189.36 150.919 189.15 147.419 189.15C143.499 189.15 140.209 189.36 137.549 189.78C134.889 190.34 132.859 190.62 131.459 190.62C128.939 190.62 127.679 189.85 127.679 188.31C127.679 187.47 127.819 186.91 128.099 186.63C128.519 186.35 129.079 186.14 129.779 186C130.479 186 131.319 185.93 132.299 185.79C133.419 185.65 134.749 185.3 136.289 184.74C138.389 184.04 139.789 182.64 140.489 180.54C141.189 178.58 141.539 175.71 141.539 171.93V131.4H140.279C131.459 142.46 122.149 147.99 112.349 147.99C107.729 147.99 103.389 146.8 99.3291 144.42C95.2691 142.18 91.6991 138.96 88.6191 134.76C85.5391 130.56 83.0891 125.45 81.2691 119.43C79.5891 113.41 78.7491 106.62 78.7491 99.06C78.7491 90.94 79.7291 83.73 81.6891 77.43C83.7891 70.99 86.5891 65.6 90.0891 61.26C93.5891 56.78 97.7191 53.42 102.479 51.18C107.379 48.8 112.559 47.61 118.019 47.61C121.519 47.61 124.739 47.96 127.679 48.66C130.759 49.36 133.489 50.2 135.869 51.18C138.249 52.02 140.349 52.79 142.169 53.49C143.989 54.19 145.459 54.54 146.579 54.54C147.839 54.54 148.749 54.12 149.309 53.28C150.009 52.44 150.569 51.53 150.989 50.55C151.409 49.57 151.829 48.66 152.249 47.82C152.669 46.98 153.299 46.56 154.139 46.56C155.119 46.56 155.609 47.26 155.609 48.66C155.609 49.22 155.189 51.25 154.349 54.75C153.649 58.11 153.299 63.64 153.299 71.34ZM191.019 58.32V106.62C191.019 117.54 192.419 125.73 195.219 131.19C198.019 136.65 203.059 139.38 210.339 139.38C217.899 139.38 223.359 136.37 226.719 130.35C230.079 124.19 231.759 115.02 231.759 102.84V64.62C231.759 61.82 231.199 59.86 230.079 58.74C228.959 57.62 227.699 56.85 226.299 56.43C224.899 56.01 223.639 55.73 222.519 55.59C221.399 55.45 220.839 54.82 220.839 53.7C220.839 52.72 220.979 52.16 221.259 52.02C221.679 51.74 222.239 51.6 222.939 51.6C223.499 51.6 224.409 51.67 225.669 51.81C226.929 51.95 228.609 52.02 230.709 52.02C233.089 52.02 235.119 51.95 236.799 51.81C238.479 51.67 239.669 51.6 240.369 51.6C241.909 51.6 242.819 52.02 243.099 52.86C243.379 53.56 243.519 55.38 243.519 58.32V127.41C243.519 130.35 243.939 132.31 244.779 133.29C245.619 134.27 246.529 134.83 247.509 134.97C248.629 135.11 249.609 135.18 250.449 135.18C251.429 135.18 251.919 135.67 251.919 136.65C251.919 137.77 251.149 138.68 249.609 139.38C248.069 139.94 246.249 140.78 244.149 141.9C241.629 143.3 239.599 144.63 238.059 145.89C236.519 147.29 235.189 147.99 234.069 147.99C233.229 147.99 232.669 147.5 232.389 146.52C232.249 145.68 232.179 144.49 232.179 142.95V133.08C232.179 131.4 231.969 130.56 231.549 130.56C230.989 130.56 230.149 131.61 229.029 133.71C227.909 135.67 225.949 137.84 223.149 140.22C220.349 142.74 217.479 144.63 214.539 145.89C211.739 147.29 208.589 147.99 205.089 147.99C200.329 147.99 195.989 146.8 192.069 144.42C188.289 142.04 185.419 138.75 183.459 134.55C181.499 130.77 180.309 126.85 179.889 122.79C179.469 118.73 179.259 114.46 179.259 109.98V64.62C179.259 61.82 178.699 59.86 177.579 58.74C176.459 57.62 175.199 56.85 173.799 56.43C172.399 56.01 171.139 55.73 170.019 55.59C168.899 55.45 168.339 54.82 168.339 53.7C168.339 52.72 168.479 52.16 168.759 52.02C169.179 51.74 169.739 51.6 170.439 51.6C170.719 51.6 171.629 51.67 173.169 51.81C174.849 51.95 177.159 52.02 180.099 52.02C181.639 52.02 182.969 51.95 184.089 51.81C185.349 51.67 186.539 51.6 187.659 51.6C189.199 51.6 190.109 51.95 190.389 52.65C190.809 53.35 191.019 55.24 191.019 58.32ZM279.89 11.7C281.85 11.7 283.6 12.75 285.14 14.85C286.68 16.95 287.45 19.4 287.45 22.2C287.45 24.86 286.68 27.24 285.14 29.34C283.74 31.3 281.99 32.28 279.89 32.28C277.93 32.28 276.18 31.3 274.64 29.34C273.24 27.38 272.54 25 272.54 22.2C272.54 19.4 273.24 16.95 274.64 14.85C276.18 12.75 277.93 11.7 279.89 11.7ZM286.4 52.86V131.19C286.4 134.13 286.96 136.16 288.08 137.28C289.34 138.26 290.67 138.96 292.07 139.38C293.61 139.66 294.94 139.94 296.06 140.22C297.32 140.36 297.95 140.99 297.95 142.11C297.95 143.23 297.67 143.86 297.11 144C296.69 144.14 295.92 144.21 294.8 144.21C293.96 144.21 292.28 144.07 289.76 143.79C287.38 143.51 284.16 143.37 280.1 143.37C276.88 143.37 274.01 143.51 271.49 143.79C269.11 144.07 267.15 144.21 265.61 144.21C264.49 144.21 263.58 144.14 262.88 144C262.32 143.72 262.04 143.09 262.04 142.11C262.04 140.99 262.67 140.36 263.93 140.22C265.33 139.94 266.8 139.66 268.34 139.38C269.88 138.96 271.28 138.19 272.54 137.07C273.94 135.95 274.64 133.99 274.64 131.19V73.44C274.64 68.26 272.47 65.67 268.13 65.67C267.01 65.67 266.1 65.6 265.4 65.46C264.7 65.18 264.35 64.55 264.35 63.57C264.35 62.17 265.12 61.19 266.66 60.63C268.34 60.07 270.09 59.02 271.91 57.48C275.83 55.24 278.77 53.21 280.73 51.39C282.69 49.57 284.09 48.66 284.93 48.66C285.63 48.66 286.05 49.01 286.19 49.71C286.33 50.27 286.4 51.32 286.4 52.86ZM367.947 71.55L382.647 121.74C383.067 122.72 383.487 123.21 383.907 123.21C384.327 123.21 384.747 122.58 385.167 121.32L402.177 72.6C402.877 70.64 403.437 68.75 403.857 66.93C404.277 65.11 404.487 63.22 404.487 61.26C404.487 59.44 403.857 58.25 402.597 57.69C401.477 56.99 400.217 56.57 398.817 56.43C397.557 56.15 396.297 55.87 395.037 55.59C393.917 55.31 393.357 54.61 393.357 53.49C393.357 52.65 393.497 52.16 393.777 52.02C394.197 51.74 394.757 51.6 395.457 51.6C395.877 51.6 397.137 51.74 399.237 52.02C401.477 52.16 404.837 52.23 409.317 52.23C413.097 52.23 415.897 52.16 417.717 52.02C419.537 51.74 420.587 51.6 420.867 51.6C421.707 51.6 422.267 51.67 422.547 51.81C422.827 51.95 422.967 52.51 422.967 53.49C422.967 54.89 422.477 55.66 421.497 55.8C420.657 55.8 419.257 56.22 417.297 57.06C415.337 57.9 413.727 59.3 412.467 61.26C411.207 63.22 409.807 66.44 408.267 70.92L382.437 141.9C382.017 143.16 381.597 144.14 381.177 144.84C380.897 145.54 380.407 145.89 379.707 145.89C378.867 145.89 378.307 145.61 378.027 145.05C377.747 144.49 377.467 143.65 377.187 142.53L351.987 62.73C351.147 60.21 350.167 58.6 349.047 57.9C347.927 57.06 346.807 56.5 345.687 56.22C344.707 55.94 343.867 55.73 343.167 55.59C342.327 55.45 341.907 54.75 341.907 53.49C341.907 52.65 341.977 52.16 342.117 52.02C342.257 51.74 342.677 51.6 343.377 51.6H344.217C344.917 51.6 346.457 51.74 348.837 52.02C351.357 52.16 354.577 52.23 358.497 52.23C362.977 52.23 366.407 52.16 368.787 52.02C371.167 51.74 372.637 51.6 373.197 51.6C373.897 51.6 374.457 51.74 374.877 52.02C375.297 52.16 375.507 52.65 375.507 53.49C375.507 54.47 374.947 55.1 373.827 55.38C372.847 55.66 371.727 56.01 370.467 56.43C369.347 56.71 368.227 57.13 367.107 57.69C366.127 58.11 365.637 59.02 365.637 60.42C365.637 61.96 365.847 63.64 366.267 65.46C366.687 67.14 367.247 69.17 367.947 71.55ZM465.671 47.82C472.251 47.82 478.131 49.01 483.311 51.39C488.631 53.77 493.041 57.13 496.541 61.47C500.181 65.81 502.911 71.06 504.731 77.22C506.691 83.38 507.671 90.17 507.671 97.59C507.671 105.15 506.691 112.08 504.731 118.38C502.771 124.54 499.901 129.86 496.121 134.34C492.481 138.68 488.001 142.04 482.681 144.42C477.361 146.8 471.341 147.99 464.621 147.99C458.601 147.99 453.141 146.73 448.241 144.21C443.341 141.83 439.141 138.47 435.641 134.13C432.141 129.65 429.411 124.33 427.451 118.17C425.491 112.01 424.511 105.22 424.511 97.8C424.511 90.24 425.491 83.38 427.451 77.22C429.551 71.06 432.421 65.81 436.061 61.47C439.841 57.13 444.251 53.77 449.291 51.39C454.331 49.01 459.791 47.82 465.671 47.82ZM466.091 51.6C457.271 51.6 450.271 55.45 445.091 63.15C440.051 70.71 437.531 81.84 437.531 96.54C437.531 103.96 438.231 110.61 439.631 116.49C441.031 122.23 442.991 127.2 445.511 131.4C448.031 135.46 450.971 138.61 454.331 140.85C457.831 142.95 461.611 144 465.671 144C474.631 144 481.631 140.29 486.671 132.87C491.711 125.31 494.231 114.32 494.231 99.9C494.231 84.5 491.641 72.6 486.461 64.2C481.421 55.8 474.631 51.6 466.091 51.6ZM560.222 47.82C567.362 47.82 572.962 48.94 577.022 51.18C581.222 53.42 583.322 56.57 583.322 60.63C583.322 69.31 582.272 73.65 580.172 73.65C578.772 73.65 577.792 72.88 577.232 71.34C576.672 69.66 575.622 67.35 574.082 64.41C571.702 60.21 569.252 57.06 566.732 54.96C564.352 52.86 561.342 51.81 557.702 51.81C554.202 51.81 550.842 52.79 547.622 54.75C544.542 56.57 541.812 59.37 539.432 63.15C537.052 66.93 535.162 71.62 533.762 77.22C532.362 82.82 531.662 89.26 531.662 96.54C531.662 110.82 534.392 121.81 539.852 129.51C545.312 137.07 552.452 140.85 561.272 140.85C564.772 140.85 567.782 140.29 570.302 139.17C572.962 138.05 575.202 136.86 577.022 135.6C578.842 134.2 580.242 132.94 581.222 131.82C582.202 130.7 582.902 130.14 583.322 130.14C584.302 130.14 584.792 130.56 584.792 131.4C584.792 132.38 584.092 133.85 582.692 135.81C581.432 137.63 579.612 139.45 577.232 141.27C574.852 143.09 571.982 144.63 568.622 145.89C565.262 147.29 561.482 147.99 557.282 147.99C551.822 147.99 546.712 146.8 541.952 144.42C537.332 142.04 533.272 138.68 529.772 134.34C526.272 129.86 523.542 124.54 521.582 118.38C519.622 112.22 518.642 105.36 518.642 97.8C518.642 90.24 519.762 83.38 522.002 77.22C524.382 71.06 527.462 65.81 531.242 61.47C535.162 57.13 539.642 53.77 544.682 51.39C549.722 49.01 554.902 47.82 560.222 47.82ZM629.166 79.95C637.846 79.95 644.216 79.46 648.276 78.48C652.336 77.36 654.366 74.77 654.366 70.71C654.366 68.47 653.876 66.23 652.896 63.99C651.916 61.75 650.516 59.72 648.696 57.9C647.016 56.08 644.986 54.61 642.606 53.49C640.226 52.37 637.706 51.81 635.046 51.81C631.686 51.81 628.466 52.65 625.386 54.33C622.306 56.01 619.576 58.11 617.196 60.63C614.956 63.15 613.136 65.95 611.736 69.03C610.336 72.11 609.636 75.12 609.636 78.06C609.636 78.48 609.846 78.9 610.266 79.32C610.686 79.74 611.246 79.95 611.946 79.95H629.166ZM661.716 84.99H611.736C609.916 84.99 608.796 85.62 608.376 86.88C607.956 88 607.746 90.31 607.746 93.81C607.746 100.81 608.516 107.04 610.056 112.5C611.736 117.96 613.976 122.58 616.776 126.36C619.716 130.14 623.146 133.08 627.066 135.18C631.126 137.14 635.536 138.12 640.296 138.12C644.636 138.12 648.276 137.42 651.216 136.02C654.296 134.62 656.816 133.08 658.776 131.4C660.736 129.72 662.276 128.18 663.396 126.78C664.516 125.38 665.286 124.68 665.706 124.68C666.686 124.68 667.176 125.24 667.176 126.36C667.176 127.9 666.406 129.93 664.866 132.45C663.326 134.83 661.086 137.21 658.146 139.59C655.346 141.83 651.846 143.79 647.646 145.47C643.586 147.15 639.036 147.99 633.996 147.99C628.256 147.99 622.936 146.8 618.036 144.42C613.276 142.04 609.146 138.68 605.646 134.34C602.146 130 599.416 124.75 597.456 118.59C595.636 112.43 594.726 105.57 594.726 98.01C594.726 90.31 595.846 83.38 598.086 77.22C600.326 70.92 603.336 65.6 607.116 61.26C610.896 56.92 615.306 53.63 620.346 51.39C625.386 49.01 630.706 47.82 636.306 47.82C641.206 47.82 645.616 48.73 649.536 50.55C653.456 52.37 656.746 54.82 659.406 57.9C662.206 60.84 664.306 64.34 665.706 68.4C667.246 72.32 668.016 76.38 668.016 80.58C668.016 82.12 667.526 83.24 666.546 83.94C665.706 84.64 664.096 84.99 661.716 84.99ZM627.696 0.569994H635.676L653.946 36.48H649.956L631.686 12.54L613.416 36.48H609.426L627.696 0.569994ZM755.699 79.95C764.379 79.95 770.749 79.46 774.809 78.48C778.869 77.36 780.899 74.77 780.899 70.71C780.899 68.47 780.409 66.23 779.429 63.99C778.449 61.75 777.049 59.72 775.229 57.9C773.549 56.08 771.519 54.61 769.139 53.49C766.759 52.37 764.239 51.81 761.579 51.81C758.219 51.81 754.999 52.65 751.919 54.33C748.839 56.01 746.109 58.11 743.729 60.63C741.489 63.15 739.669 65.95 738.269 69.03C736.869 72.11 736.169 75.12 736.169 78.06C736.169 78.48 736.379 78.9 736.799 79.32C737.219 79.74 737.779 79.95 738.479 79.95H755.699ZM788.249 84.99H738.269C736.449 84.99 735.329 85.62 734.909 86.88C734.489 88 734.279 90.31 734.279 93.81C734.279 100.81 735.049 107.04 736.589 112.5C738.269 117.96 740.509 122.58 743.309 126.36C746.249 130.14 749.679 133.08 753.599 135.18C757.659 137.14 762.069 138.12 766.829 138.12C771.169 138.12 774.809 137.42 777.749 136.02C780.829 134.62 783.349 133.08 785.309 131.4C787.269 129.72 788.809 128.18 789.929 126.78C791.049 125.38 791.819 124.68 792.239 124.68C793.219 124.68 793.709 125.24 793.709 126.36C793.709 127.9 792.939 129.93 791.399 132.45C789.859 134.83 787.619 137.21 784.679 139.59C781.879 141.83 778.379 143.79 774.179 145.47C770.119 147.15 765.569 147.99 760.529 147.99C754.789 147.99 749.469 146.8 744.569 144.42C739.809 142.04 735.679 138.68 732.179 134.34C728.679 130 725.949 124.75 723.989 118.59C722.169 112.43 721.259 105.57 721.259 98.01C721.259 90.31 722.379 83.38 724.619 77.22C726.859 70.92 729.869 65.6 733.649 61.26C737.429 56.92 741.839 53.63 746.879 51.39C751.919 49.01 757.239 47.82 762.839 47.82C767.739 47.82 772.149 48.73 776.069 50.55C779.989 52.37 783.279 54.82 785.939 57.9C788.739 60.84 790.839 64.34 792.239 68.4C793.779 72.32 794.549 76.38 794.549 80.58C794.549 82.12 794.059 83.24 793.079 83.94C792.239 84.64 790.629 84.99 788.249 84.99ZM826.336 52.86V62.73C826.336 64.27 826.616 65.04 827.176 65.04C827.736 65.04 828.576 64.06 829.696 62.1C830.956 60 832.916 57.76 835.576 55.38C838.376 52.86 841.176 50.97 843.976 49.71C846.916 48.45 850.066 47.82 853.426 47.82C861.266 47.82 867.566 50.69 872.326 56.43C877.086 62.17 879.466 69.94 879.466 79.74V131.19C879.466 134.13 880.026 136.16 881.146 137.28C882.266 138.26 883.526 138.96 884.926 139.38C886.326 139.66 887.586 139.94 888.706 140.22C889.826 140.36 890.386 140.99 890.386 142.11C890.386 143.09 890.106 143.72 889.546 144C889.126 144.14 888.356 144.21 887.236 144.21C886.256 144.21 884.646 144.07 882.406 143.79C880.166 143.51 877.226 143.37 873.586 143.37C870.646 143.37 868.056 143.51 865.816 143.79C863.716 144.07 861.896 144.21 860.356 144.21C859.096 144.21 858.186 144.14 857.626 144C857.066 143.86 856.786 143.23 856.786 142.11C856.786 140.99 857.346 140.36 858.466 140.22C859.586 139.94 860.846 139.59 862.246 139.17C863.646 138.75 864.906 138.05 866.026 137.07C867.146 135.95 867.706 133.99 867.706 131.19V88.98C867.706 78.06 866.306 69.87 863.506 64.41C860.706 58.95 855.666 56.22 848.386 56.22C840.826 56.22 835.366 59.3 832.006 65.46C828.646 71.48 826.966 80.58 826.966 92.76V131.19C826.966 134.13 827.526 136.16 828.646 137.28C829.766 138.26 831.026 138.96 832.426 139.38C833.826 139.66 835.086 139.94 836.206 140.22C837.326 140.36 837.886 140.99 837.886 142.11C837.886 143.09 837.606 143.72 837.046 144C836.626 144.14 835.856 144.21 834.736 144.21C833.756 144.21 832.146 144.07 829.906 143.79C827.666 143.51 824.726 143.37 821.086 143.37C818.426 143.37 815.976 143.51 813.736 143.79C811.496 144.07 809.396 144.21 807.436 144.21C806.316 144.21 805.476 144.14 804.916 144C804.496 143.72 804.286 143.09 804.286 142.11C804.286 140.99 804.846 140.36 805.966 140.22C807.086 139.94 808.346 139.59 809.746 139.17C811.146 138.75 812.406 138.05 813.526 137.07C814.646 135.95 815.206 133.99 815.206 131.19V70.29C815.206 68.19 814.716 66.86 813.736 66.3C812.896 65.6 811.916 65.18 810.796 65.04C809.816 64.9 808.906 64.76 808.066 64.62C807.226 64.48 806.806 63.99 806.806 63.15C806.806 61.89 807.506 61.05 808.906 60.63C810.446 60.07 811.986 59.23 813.526 58.11C817.166 55.59 819.826 53.28 821.506 51.18C823.186 48.94 824.376 47.82 825.076 47.82C825.776 47.82 826.126 48.31 826.126 49.29C826.266 50.13 826.336 51.32 826.336 52.86ZM941.667 47.82C948.807 47.82 954.407 48.94 958.467 51.18C962.667 53.42 964.767 56.57 964.767 60.63C964.767 69.31 963.717 73.65 961.617 73.65C960.217 73.65 959.237 72.88 958.677 71.34C958.117 69.66 957.067 67.35 955.527 64.41C953.147 60.21 950.697 57.06 948.177 54.96C945.797 52.86 942.787 51.81 939.147 51.81C935.647 51.81 932.287 52.79 929.067 54.75C925.987 56.57 923.257 59.37 920.877 63.15C918.497 66.93 916.607 71.62 915.207 77.22C913.807 82.82 913.107 89.26 913.107 96.54C913.107 110.82 915.837 121.81 921.297 129.51C926.757 137.07 933.897 140.85 942.717 140.85C946.217 140.85 949.227 140.29 951.747 139.17C954.407 138.05 956.647 136.86 958.467 135.6C960.287 134.2 961.687 132.94 962.667 131.82C963.647 130.7 964.347 130.14 964.767 130.14C965.747 130.14 966.237 130.56 966.237 131.4C966.237 132.38 965.537 133.85 964.137 135.81C962.877 137.63 961.057 139.45 958.677 141.27C956.297 143.09 953.427 144.63 950.067 145.89C946.707 147.29 942.927 147.99 938.727 147.99C933.267 147.99 928.157 146.8 923.397 144.42C918.777 142.04 914.717 138.68 911.217 134.34C907.717 129.86 904.987 124.54 903.027 118.38C901.067 112.22 900.087 105.36 900.087 97.8C900.087 90.24 901.207 83.38 903.447 77.22C905.827 71.06 908.907 65.81 912.687 61.47C916.607 57.13 921.087 53.77 926.127 51.39C931.167 49.01 936.347 47.82 941.667 47.82ZM1017.33 47.82C1023.91 47.82 1029.79 49.01 1034.97 51.39C1040.29 53.77 1044.7 57.13 1048.2 61.47C1051.84 65.81 1054.57 71.06 1056.39 77.22C1058.35 83.38 1059.33 90.17 1059.33 97.59C1059.33 105.15 1058.35 112.08 1056.39 118.38C1054.43 124.54 1051.56 129.86 1047.78 134.34C1044.14 138.68 1039.66 142.04 1034.34 144.42C1029.02 146.8 1023 147.99 1016.28 147.99C1010.26 147.99 1004.8 146.73 999.901 144.21C995.001 141.83 990.801 138.47 987.301 134.13C983.801 129.65 981.071 124.33 979.111 118.17C977.151 112.01 976.171 105.22 976.171 97.8C976.171 90.24 977.151 83.38 979.111 77.22C981.211 71.06 984.081 65.81 987.721 61.47C991.501 57.13 995.911 53.77 1000.95 51.39C1005.99 49.01 1011.45 47.82 1017.33 47.82ZM1017.75 51.6C1008.93 51.6 1001.93 55.45 996.751 63.15C991.711 70.71 989.191 81.84 989.191 96.54C989.191 103.96 989.891 110.61 991.291 116.49C992.691 122.23 994.651 127.2 997.171 131.4C999.691 135.46 1002.63 138.61 1005.99 140.85C1009.49 142.95 1013.27 144 1017.33 144C1026.29 144 1033.29 140.29 1038.33 132.87C1043.37 125.31 1045.89 114.32 1045.89 99.9C1045.89 84.5 1043.3 72.6 1038.12 64.2C1033.08 55.8 1026.29 51.6 1017.75 51.6ZM1091.09 52.86V62.73C1091.09 64.27 1091.37 65.04 1091.93 65.04C1092.49 65.04 1093.33 64.06 1094.45 62.1C1095.71 60 1097.67 57.76 1100.33 55.38C1103.13 52.86 1105.93 50.97 1108.73 49.71C1111.67 48.45 1114.82 47.82 1118.18 47.82C1126.02 47.82 1132.32 50.69 1137.08 56.43C1141.84 62.17 1144.22 69.94 1144.22 79.74V131.19C1144.22 134.13 1144.78 136.16 1145.9 137.28C1147.02 138.26 1148.28 138.96 1149.68 139.38C1151.08 139.66 1152.34 139.94 1153.46 140.22C1154.58 140.36 1155.14 140.99 1155.14 142.11C1155.14 143.09 1154.86 143.72 1154.3 144C1153.88 144.14 1153.11 144.21 1151.99 144.21C1151.01 144.21 1149.4 144.07 1147.16 143.79C1144.92 143.51 1141.98 143.37 1138.34 143.37C1135.4 143.37 1132.81 143.51 1130.57 143.79C1128.47 144.07 1126.65 144.21 1125.11 144.21C1123.85 144.21 1122.94 144.14 1122.38 144C1121.82 143.86 1121.54 143.23 1121.54 142.11C1121.54 140.99 1122.1 140.36 1123.22 140.22C1124.34 139.94 1125.6 139.59 1127 139.17C1128.4 138.75 1129.66 138.05 1130.78 137.07C1131.9 135.95 1132.46 133.99 1132.46 131.19V88.98C1132.46 78.06 1131.06 69.87 1128.26 64.41C1125.46 58.95 1120.42 56.22 1113.14 56.22C1105.58 56.22 1100.12 59.3 1096.76 65.46C1093.4 71.48 1091.72 80.58 1091.72 92.76V131.19C1091.72 134.13 1092.28 136.16 1093.4 137.28C1094.52 138.26 1095.78 138.96 1097.18 139.38C1098.58 139.66 1099.84 139.94 1100.96 140.22C1102.08 140.36 1102.64 140.99 1102.64 142.11C1102.64 143.09 1102.36 143.72 1101.8 144C1101.38 144.14 1100.61 144.21 1099.49 144.21C1098.51 144.21 1096.9 144.07 1094.66 143.79C1092.42 143.51 1089.48 143.37 1085.84 143.37C1083.18 143.37 1080.73 143.51 1078.49 143.79C1076.25 144.07 1074.15 144.21 1072.19 144.21C1071.07 144.21 1070.23 144.14 1069.67 144C1069.25 143.72 1069.04 143.09 1069.04 142.11C1069.04 140.99 1069.6 140.36 1070.72 140.22C1071.84 139.94 1073.1 139.59 1074.5 139.17C1075.9 138.75 1077.16 138.05 1078.28 137.07C1079.4 135.95 1079.96 133.99 1079.96 131.19V70.29C1079.96 68.19 1079.47 66.86 1078.49 66.3C1077.65 65.6 1076.67 65.18 1075.55 65.04C1074.57 64.9 1073.66 64.76 1072.82 64.62C1071.98 64.48 1071.56 63.99 1071.56 63.15C1071.56 61.89 1072.26 61.05 1073.66 60.63C1075.2 60.07 1076.74 59.23 1078.28 58.11C1081.92 55.59 1084.58 53.28 1086.26 51.18C1087.94 48.94 1089.13 47.82 1089.83 47.82C1090.53 47.82 1090.88 48.31 1090.88 49.29C1091.02 50.13 1091.09 51.32 1091.09 52.86ZM1185.84 37.32V48.03C1185.84 49.43 1185.98 50.41 1186.26 50.97C1186.68 51.39 1187.52 51.6 1188.78 51.6H1204.32C1205.58 51.6 1206.35 51.81 1206.63 52.23C1206.91 52.51 1207.05 53.21 1207.05 54.33V55.17C1207.05 56.43 1206.84 57.34 1206.42 57.9C1206.14 58.46 1205.44 58.74 1204.32 58.74H1188.57C1187.31 58.74 1186.47 59.02 1186.05 59.58C1185.77 60 1185.63 60.91 1185.63 62.31V123.63C1185.63 134.27 1188.99 139.59 1195.71 139.59C1197.53 139.59 1199.21 139.17 1200.75 138.33C1202.29 137.49 1203.62 136.65 1204.74 135.81C1206 134.83 1207.05 133.92 1207.89 133.08C1208.73 132.24 1209.36 131.82 1209.78 131.82C1210.34 131.82 1210.62 132.38 1210.62 133.5C1210.62 134.2 1210.06 135.39 1208.94 137.07C1207.96 138.61 1206.49 140.22 1204.53 141.9C1202.71 143.44 1200.54 144.84 1198.02 146.1C1195.64 147.36 1193.12 147.99 1190.46 147.99C1185 147.99 1180.73 145.82 1177.65 141.48C1174.71 137.14 1173.24 130.77 1173.24 122.37V112.5L1173.87 62.31C1173.87 60.91 1173.66 60 1173.24 59.58C1172.96 59.02 1172.19 58.74 1170.93 58.74H1167.78C1165.68 58.74 1164.63 58.11 1164.63 56.85C1164.63 55.73 1165.68 54.4 1167.78 52.86C1170.02 51.18 1172.68 48.52 1175.76 44.88C1178.84 41.24 1180.87 38.09 1181.85 35.43C1182.97 32.77 1184.02 31.44 1185 31.44C1185.56 31.44 1185.84 32.28 1185.84 33.96V37.32ZM1239.36 52.86V64.83C1239.36 65.81 1239.64 66.3 1240.2 66.3C1240.62 66.3 1241.11 65.95 1241.67 65.25L1245.45 59.79C1251.33 51.81 1257.56 47.82 1264.14 47.82C1267.64 47.82 1270.37 48.8 1272.33 50.76C1274.29 52.58 1275.27 54.89 1275.27 57.69C1275.27 60.49 1274.5 62.8 1272.96 64.62C1271.56 66.3 1269.95 67.14 1268.13 67.14C1266.73 67.14 1265.47 66.72 1264.35 65.88C1263.37 65.04 1262.32 64.13 1261.2 63.15C1260.22 62.03 1259.17 61.05 1258.05 60.21C1256.93 59.37 1255.53 58.95 1253.85 58.95C1252.31 58.95 1250.7 59.58 1249.02 60.84C1247.48 62.1 1246.01 64.13 1244.61 66.93C1243.21 69.59 1242.09 73.02 1241.25 77.22C1240.41 81.42 1239.99 86.46 1239.99 92.34V126.99C1239.99 130.63 1240.27 133.22 1240.83 134.76C1241.39 136.3 1242.72 137.49 1244.82 138.33C1246.64 139.03 1248.25 139.45 1249.65 139.59C1251.05 139.73 1252.24 139.87 1253.22 140.01C1254.2 140.01 1254.9 140.15 1255.32 140.43C1255.88 140.57 1256.16 141.13 1256.16 142.11C1256.16 143.65 1255.04 144.42 1252.8 144.42C1250.98 144.42 1248.46 144.28 1245.24 144C1242.16 143.58 1238.45 143.37 1234.11 143.37C1231.31 143.37 1228.72 143.51 1226.34 143.79C1224.1 144.07 1222.14 144.21 1220.46 144.21C1219.34 144.21 1218.5 144.14 1217.94 144C1217.52 143.72 1217.31 143.09 1217.31 142.11C1217.31 140.71 1217.8 140.01 1218.78 140.01C1219.9 140.01 1221.65 139.59 1224.03 138.75C1225.85 138.05 1226.97 136.86 1227.39 135.18C1227.95 133.36 1228.23 130.63 1228.23 126.99V71.34C1228.23 68.82 1227.74 67.14 1226.76 66.3C1225.92 65.46 1224.94 64.97 1223.82 64.83C1222.84 64.69 1221.93 64.62 1221.09 64.62C1220.25 64.62 1219.83 64.13 1219.83 63.15C1219.83 62.03 1220.53 61.19 1221.93 60.63C1223.47 59.93 1225.15 58.95 1226.97 57.69C1230.19 55.45 1232.64 53.28 1234.32 51.18C1236 48.94 1237.26 47.82 1238.1 47.82C1238.8 47.82 1239.15 48.31 1239.15 49.29C1239.29 50.13 1239.36 51.32 1239.36 52.86ZM1335.13 71.55V124.26C1335.13 132.94 1337.02 137.28 1340.8 137.28C1342.34 137.28 1343.74 136.51 1345 134.97C1346.4 133.43 1347.52 132.66 1348.36 132.66C1349.34 132.66 1349.83 133.15 1349.83 134.13C1349.83 135.25 1349.2 136.58 1347.94 138.12C1346.82 139.52 1345.42 140.92 1343.74 142.32C1342.06 143.72 1340.24 144.84 1338.28 145.68C1336.46 146.66 1334.85 147.15 1333.45 147.15C1330.65 147.15 1328.48 146.1 1326.94 144C1325.54 141.76 1324.21 138.19 1322.95 133.29H1322.11C1316.79 137.77 1312.03 141.34 1307.83 144C1303.77 146.66 1299.5 147.99 1295.02 147.99C1289.98 147.99 1286.06 146.52 1283.26 143.58C1280.46 140.5 1279.06 136.44 1279.06 131.4C1279.06 127.48 1279.97 123.84 1281.79 120.48C1283.61 116.98 1286.34 113.62 1289.98 110.4C1293.76 107.04 1298.38 103.61 1303.84 100.11C1309.3 96.61 1315.6 92.83 1322.74 88.77V70.29C1322.74 63.85 1322.04 59.23 1320.64 56.43C1319.38 53.63 1316.58 52.23 1312.24 52.23C1308.6 52.23 1305.17 53.49 1301.95 56.01C1298.73 58.53 1296.49 61.54 1295.23 65.04C1293.69 69.38 1292.15 73.09 1290.61 76.17C1289.07 79.11 1286.34 80.58 1282.42 80.58C1281.44 80.58 1280.6 80.3 1279.9 79.74C1279.2 79.04 1278.85 78.13 1278.85 77.01C1278.85 74.49 1279.76 71.55 1281.58 68.19C1283.4 64.83 1285.99 61.61 1289.35 58.53C1292.71 55.45 1296.7 52.86 1301.32 50.76C1305.94 48.66 1310.98 47.61 1316.44 47.61C1320.78 47.61 1324.21 48.17 1326.73 49.29C1329.25 50.41 1331.14 52.02 1332.4 54.12C1333.66 56.22 1334.43 58.74 1334.71 61.68C1334.99 64.62 1335.13 67.91 1335.13 71.55ZM1322.95 97.17C1322.95 95.77 1322.53 95.07 1321.69 95.07C1321.27 95.07 1320.57 95.35 1319.59 95.91L1313.29 99.48C1299.01 107.74 1291.87 116.49 1291.87 125.73C1291.87 129.65 1292.85 132.8 1294.81 135.18C1296.77 137.42 1299.5 138.54 1303 138.54C1305.1 138.54 1307.27 138.05 1309.51 137.07C1311.89 136.09 1314.06 134.69 1316.02 132.87C1318.12 130.91 1319.8 128.6 1321.06 125.94C1322.32 123.14 1322.95 119.99 1322.95 116.49V97.17ZM44.04 287.82C51.18 287.82 56.78 288.94 60.84 291.18C65.04 293.42 67.14 296.57 67.14 300.63C67.14 309.31 66.09 313.65 63.99 313.65C62.59 313.65 61.61 312.88 61.05 311.34C60.49 309.66 59.44 307.35 57.9 304.41C55.52 300.21 53.07 297.06 50.55 294.96C48.17 292.86 45.16 291.81 41.52 291.81C38.02 291.81 34.66 292.79 31.44 294.75C28.36 296.57 25.63 299.37 23.25 303.15C20.87 306.93 18.98 311.62 17.58 317.22C16.18 322.82 15.48 329.26 15.48 336.54C15.48 350.82 18.21 361.81 23.67 369.51C29.13 377.07 36.27 380.85 45.09 380.85C48.59 380.85 51.6 380.29 54.12 379.17C56.78 378.05 59.02 376.86 60.84 375.6C62.66 374.2 64.06 372.94 65.04 371.82C66.02 370.7 66.72 370.14 67.14 370.14C68.12 370.14 68.61 370.56 68.61 371.4C68.61 372.38 67.91 373.85 66.51 375.81C65.25 377.63 63.43 379.45 61.05 381.27C58.67 383.09 55.8 384.63 52.44 385.89C49.08 387.29 45.3 387.99 41.1 387.99C35.64 387.99 30.53 386.8 25.77 384.42C21.15 382.04 17.09 378.68 13.59 374.34C10.09 369.86 7.36 364.54 5.4 358.38C3.44 352.22 2.46 345.36 2.46 337.8C2.46 330.24 3.58 323.38 5.82 317.22C8.2 311.06 11.28 305.81 15.06 301.47C18.98 297.13 23.46 293.77 28.5 291.39C33.54 289.01 38.72 287.82 44.04 287.82ZM133.984 311.55V364.26C133.984 372.94 135.874 377.28 139.654 377.28C141.194 377.28 142.594 376.51 143.854 374.97C145.254 373.43 146.374 372.66 147.214 372.66C148.194 372.66 148.684 373.15 148.684 374.13C148.684 375.25 148.054 376.58 146.794 378.12C145.674 379.52 144.274 380.92 142.594 382.32C140.914 383.72 139.094 384.84 137.134 385.68C135.314 386.66 133.704 387.15 132.304 387.15C129.504 387.15 127.334 386.1 125.794 384C124.394 381.76 123.064 378.19 121.804 373.29H120.964C115.644 377.77 110.884 381.34 106.684 384C102.624 386.66 98.354 387.99 93.874 387.99C88.834 387.99 84.914 386.52 82.114 383.58C79.314 380.5 77.914 376.44 77.914 371.4C77.914 367.48 78.824 363.84 80.644 360.48C82.464 356.98 85.194 353.62 88.834 350.4C92.614 347.04 97.234 343.61 102.694 340.11C108.154 336.61 114.454 332.83 121.594 328.77V310.29C121.594 303.85 120.894 299.23 119.494 296.43C118.234 293.63 115.434 292.23 111.094 292.23C107.454 292.23 104.024 293.49 100.804 296.01C97.584 298.53 95.344 301.54 94.084 305.04C92.544 309.38 91.004 313.09 89.464 316.17C87.924 319.11 85.194 320.58 81.274 320.58C80.294 320.58 79.454 320.3 78.754 319.74C78.054 319.04 77.704 318.13 77.704 317.01C77.704 314.49 78.614 311.55 80.434 308.19C82.254 304.83 84.844 301.61 88.204 298.53C91.564 295.45 95.554 292.86 100.174 290.76C104.794 288.66 109.834 287.61 115.294 287.61C119.634 287.61 123.064 288.17 125.584 289.29C128.104 290.41 129.994 292.02 131.254 294.12C132.514 296.22 133.284 298.74 133.564 301.68C133.844 304.62 133.984 307.91 133.984 311.55ZM121.804 337.17C121.804 335.77 121.384 335.07 120.544 335.07C120.124 335.07 119.424 335.35 118.444 335.91L112.144 339.48C97.864 347.74 90.724 356.49 90.724 365.73C90.724 369.65 91.704 372.8 93.664 375.18C95.624 377.42 98.354 378.54 101.854 378.54C103.954 378.54 106.124 378.05 108.364 377.07C110.744 376.09 112.914 374.69 114.874 372.87C116.974 370.91 118.654 368.6 119.914 365.94C121.174 363.14 121.804 359.99 121.804 356.49V337.17ZM175.623 292.86V302.73C175.623 304.27 175.903 305.04 176.463 305.04C177.023 305.04 177.793 304.06 178.773 302.1C179.753 300 181.573 297.76 184.233 295.38C187.033 292.86 189.763 290.97 192.423 289.71C195.083 288.45 198.023 287.82 201.243 287.82C206.983 287.82 211.673 289.43 215.313 292.65C218.953 295.73 221.893 300.56 224.133 307.14H224.973C229.033 300.56 233.093 295.73 237.153 292.65C241.213 289.43 245.693 287.82 250.593 287.82C257.873 287.82 263.753 290.69 268.233 296.43C272.713 302.17 274.953 309.94 274.953 319.74C274.953 320.44 274.953 321.91 274.953 324.15C275.093 326.25 275.163 329.12 275.163 332.76V371.19C275.163 374.13 275.653 376.16 276.633 377.28C277.753 378.26 278.943 378.96 280.203 379.38C281.463 379.66 282.583 379.94 283.563 380.22C284.683 380.36 285.243 380.99 285.243 382.11C285.243 383.09 285.033 383.72 284.613 384C284.193 384.14 283.423 384.21 282.303 384.21C281.463 384.21 279.993 384.07 277.893 383.79C275.793 383.51 272.993 383.37 269.493 383.37C266.413 383.37 263.753 383.51 261.513 383.79C259.413 384.07 257.663 384.21 256.263 384.21C255.143 384.21 254.303 384.14 253.743 384C253.323 383.72 253.113 383.09 253.113 382.11C253.113 380.99 253.603 380.36 254.583 380.22C255.703 379.94 256.893 379.59 258.153 379.17C259.553 378.75 260.743 378.05 261.723 377.07C262.843 375.95 263.403 373.99 263.403 371.19V328.98C263.403 318.06 262.073 309.87 259.413 304.41C256.893 298.95 252.273 296.22 245.553 296.22C240.093 296.22 235.473 298.67 231.693 303.57C228.053 308.47 226.163 316.03 226.023 326.25L225.603 371.19C225.603 373.99 226.093 375.95 227.073 377.07C228.193 378.05 229.383 378.75 230.643 379.17C232.043 379.59 233.233 379.94 234.213 380.22C235.333 380.36 235.893 380.99 235.893 382.11C235.893 383.09 235.683 383.72 235.263 384C234.843 384.14 234.073 384.21 232.953 384.21C231.973 384.21 230.433 384.07 228.333 383.79C226.233 383.51 223.503 383.37 220.143 383.37C216.363 383.37 213.353 383.51 211.113 383.79C208.873 384.07 207.403 384.21 206.703 384.21C205.583 384.21 204.813 384.14 204.393 384C203.973 383.72 203.763 383.09 203.763 382.11C203.763 380.99 204.253 380.36 205.233 380.22C206.353 379.94 207.543 379.59 208.803 379.17C210.063 378.75 211.183 378.05 212.163 377.07C213.283 375.95 213.843 373.99 213.843 371.19V328.98C213.843 318.06 212.513 309.87 209.853 304.41C207.193 298.95 202.573 296.22 195.993 296.22C190.533 296.22 185.843 298.81 181.923 303.99C178.143 309.03 176.253 316.45 176.253 326.25V371.19C176.253 374.13 176.813 376.16 177.933 377.28C179.053 378.26 180.313 378.96 181.713 379.38C183.113 379.66 184.373 379.94 185.493 380.22C186.613 380.36 187.173 380.99 187.173 382.11C187.173 383.09 186.893 383.72 186.333 384C185.913 384.14 185.143 384.21 184.023 384.21C183.463 384.21 182.063 384.07 179.823 383.79C177.583 383.51 174.433 383.37 170.373 383.37C167.433 383.37 164.773 383.51 162.393 383.79C160.153 384.07 158.263 384.21 156.723 384.21C155.603 384.21 154.763 384.14 154.203 384C153.783 383.72 153.573 383.09 153.573 382.11C153.573 380.99 154.133 380.36 155.253 380.22C156.373 379.94 157.633 379.59 159.033 379.17C160.433 378.75 161.693 378.05 162.813 377.07C163.933 375.95 164.493 373.99 164.493 371.19V311.34C164.493 308.82 164.003 307.14 163.023 306.3C162.183 305.46 161.203 304.97 160.083 304.83C159.103 304.69 158.193 304.62 157.353 304.62C156.513 304.62 156.093 304.13 156.093 303.15C156.093 301.89 156.793 301.05 158.193 300.63C159.733 300.07 161.273 299.23 162.813 298.11C166.453 295.59 169.113 293.28 170.793 291.18C172.473 288.94 173.663 287.82 174.363 287.82C175.063 287.82 175.413 288.31 175.413 289.29C175.553 290.13 175.623 291.32 175.623 292.86ZM311.267 251.7C313.227 251.7 314.977 252.75 316.517 254.85C318.057 256.95 318.827 259.4 318.827 262.2C318.827 264.86 318.057 267.24 316.517 269.34C315.117 271.3 313.367 272.28 311.267 272.28C309.307 272.28 307.557 271.3 306.017 269.34C304.617 267.38 303.917 265 303.917 262.2C303.917 259.4 304.617 256.95 306.017 254.85C307.557 252.75 309.307 251.7 311.267 251.7ZM317.777 292.86V371.19C317.777 374.13 318.337 376.16 319.457 377.28C320.717 378.26 322.047 378.96 323.447 379.38C324.987 379.66 326.317 379.94 327.437 380.22C328.697 380.36 329.327 380.99 329.327 382.11C329.327 383.23 329.047 383.86 328.487 384C328.067 384.14 327.297 384.21 326.177 384.21C325.337 384.21 323.657 384.07 321.137 383.79C318.757 383.51 315.537 383.37 311.477 383.37C308.257 383.37 305.387 383.51 302.867 383.79C300.487 384.07 298.527 384.21 296.987 384.21C295.867 384.21 294.957 384.14 294.257 384C293.697 383.72 293.417 383.09 293.417 382.11C293.417 380.99 294.047 380.36 295.307 380.22C296.707 379.94 298.177 379.66 299.717 379.38C301.257 378.96 302.657 378.19 303.917 377.07C305.317 375.95 306.017 373.99 306.017 371.19V313.44C306.017 308.26 303.847 305.67 299.507 305.67C298.387 305.67 297.477 305.6 296.777 305.46C296.077 305.18 295.727 304.55 295.727 303.57C295.727 302.17 296.497 301.19 298.037 300.63C299.717 300.07 301.467 299.02 303.287 297.48C307.207 295.24 310.147 293.21 312.107 291.39C314.067 289.57 315.467 288.66 316.307 288.66C317.007 288.66 317.427 289.01 317.567 289.71C317.707 290.27 317.777 291.32 317.777 292.86ZM369.258 287.82C373.598 287.82 376.958 288.1 379.338 288.66C381.858 289.08 383.678 289.78 384.798 290.76C386.058 291.6 386.828 292.65 387.108 293.91C387.388 295.03 387.528 296.29 387.528 297.69V306.3C387.528 309.1 386.898 310.5 385.638 310.5C384.378 310.5 383.678 309.66 383.538 307.98C383.398 306.16 382.418 303.71 380.598 300.63C378.778 297.55 376.538 295.24 373.878 293.7C371.218 292.16 368.418 291.39 365.478 291.39C361.418 291.39 357.988 292.86 355.188 295.8C352.388 298.6 350.988 302.31 350.988 306.93C350.988 311.83 352.388 315.68 355.188 318.48C357.988 321.14 362.188 323.87 367.788 326.67C371.428 328.49 374.718 330.24 377.658 331.92C380.598 333.6 383.118 335.49 385.218 337.59C387.318 339.69 388.928 342.21 390.048 345.15C391.308 347.95 391.938 351.52 391.938 355.86C391.938 365.8 389.208 373.64 383.748 379.38C378.288 385.12 370.588 387.99 360.648 387.99C357.848 387.99 355.048 387.71 352.248 387.15C349.588 386.59 347.138 385.75 344.898 384.63C342.798 383.65 341.048 382.53 339.648 381.27C338.248 379.87 337.548 378.33 337.548 376.65C337.548 375.53 337.618 373.5 337.758 370.56C337.898 367.48 337.968 363.49 337.968 358.59C337.968 356.21 338.738 355.02 340.278 355.02C341.538 355.02 342.308 356.14 342.588 358.38C343.008 360.48 343.848 363.98 345.108 368.88C346.508 373.92 348.398 377.77 350.778 380.43C353.298 382.95 357.148 384.21 362.328 384.21C368.208 384.21 372.898 382.32 376.398 378.54C380.038 374.62 381.858 369.51 381.858 363.21C381.858 357.61 380.318 353.27 377.238 350.19C374.158 346.97 369.468 343.89 363.168 340.95C355.468 337.31 349.728 333.6 345.948 329.82C342.308 326.04 340.488 321.07 340.488 314.91C340.488 306.93 343.008 300.42 348.048 295.38C353.088 290.34 360.158 287.82 369.258 287.82ZM439.673 319.95C448.353 319.95 454.723 319.46 458.783 318.48C462.843 317.36 464.873 314.77 464.873 310.71C464.873 308.47 464.383 306.23 463.403 303.99C462.423 301.75 461.023 299.72 459.203 297.9C457.523 296.08 455.493 294.61 453.113 293.49C450.733 292.37 448.213 291.81 445.553 291.81C442.193 291.81 438.973 292.65 435.893 294.33C432.813 296.01 430.083 298.11 427.703 300.63C425.463 303.15 423.643 305.95 422.243 309.03C420.843 312.11 420.143 315.12 420.143 318.06C420.143 318.48 420.353 318.9 420.773 319.32C421.193 319.74 421.753 319.95 422.453 319.95H439.673ZM472.223 324.99H422.243C420.423 324.99 419.303 325.62 418.883 326.88C418.463 328 418.253 330.31 418.253 333.81C418.253 340.81 419.023 347.04 420.563 352.5C422.243 357.96 424.483 362.58 427.283 366.36C430.223 370.14 433.653 373.08 437.573 375.18C441.633 377.14 446.043 378.12 450.803 378.12C455.143 378.12 458.783 377.42 461.723 376.02C464.803 374.62 467.323 373.08 469.283 371.4C471.243 369.72 472.783 368.18 473.903 366.78C475.023 365.38 475.793 364.68 476.213 364.68C477.193 364.68 477.683 365.24 477.683 366.36C477.683 367.9 476.913 369.93 475.373 372.45C473.833 374.83 471.593 377.21 468.653 379.59C465.853 381.83 462.353 383.79 458.153 385.47C454.093 387.15 449.543 387.99 444.503 387.99C438.763 387.99 433.443 386.8 428.543 384.42C423.783 382.04 419.653 378.68 416.153 374.34C412.653 370 409.923 364.75 407.963 358.59C406.143 352.43 405.233 345.57 405.233 338.01C405.233 330.31 406.353 323.38 408.593 317.22C410.833 310.92 413.843 305.6 417.623 301.26C421.403 296.92 425.813 293.63 430.853 291.39C435.893 289.01 441.213 287.82 446.813 287.82C451.713 287.82 456.123 288.73 460.043 290.55C463.963 292.37 467.253 294.82 469.913 297.9C472.713 300.84 474.813 304.34 476.213 308.4C477.753 312.32 478.523 316.38 478.523 320.58C478.523 322.12 478.033 323.24 477.053 323.94C476.213 324.64 474.603 324.99 472.223 324.99ZM510.521 277.32V288.03C510.521 289.43 510.661 290.41 510.941 290.97C511.361 291.39 512.201 291.6 513.461 291.6H529.001C530.261 291.6 531.031 291.81 531.311 292.23C531.591 292.51 531.731 293.21 531.731 294.33V295.17C531.731 296.43 531.521 297.34 531.101 297.9C530.821 298.46 530.121 298.74 529.001 298.74H513.251C511.991 298.74 511.151 299.02 510.731 299.58C510.451 300 510.311 300.91 510.311 302.31V363.63C510.311 374.27 513.671 379.59 520.391 379.59C522.211 379.59 523.891 379.17 525.431 378.33C526.971 377.49 528.301 376.65 529.421 375.81C530.681 374.83 531.731 373.92 532.571 373.08C533.411 372.24 534.041 371.82 534.461 371.82C535.021 371.82 535.301 372.38 535.301 373.5C535.301 374.2 534.741 375.39 533.621 377.07C532.641 378.61 531.171 380.22 529.211 381.9C527.391 383.44 525.221 384.84 522.701 386.1C520.321 387.36 517.801 387.99 515.141 387.99C509.681 387.99 505.411 385.82 502.331 381.48C499.391 377.14 497.921 370.77 497.921 362.37V352.5L498.551 302.31C498.551 300.91 498.341 300 497.921 299.58C497.641 299.02 496.871 298.74 495.611 298.74H492.461C490.361 298.74 489.311 298.11 489.311 296.85C489.311 295.73 490.361 294.4 492.461 292.86C494.701 291.18 497.361 288.52 500.441 284.88C503.521 281.24 505.551 278.09 506.531 275.43C507.651 272.77 508.701 271.44 509.681 271.44C510.241 271.44 510.521 272.28 510.521 273.96V277.32ZM598.691 311.55V364.26C598.691 372.94 600.581 377.28 604.361 377.28C605.901 377.28 607.301 376.51 608.561 374.97C609.961 373.43 611.081 372.66 611.921 372.66C612.901 372.66 613.391 373.15 613.391 374.13C613.391 375.25 612.761 376.58 611.501 378.12C610.381 379.52 608.981 380.92 607.301 382.32C605.621 383.72 603.801 384.84 601.841 385.68C600.021 386.66 598.411 387.15 597.011 387.15C594.211 387.15 592.041 386.1 590.501 384C589.101 381.76 587.771 378.19 586.511 373.29H585.671C580.351 377.77 575.591 381.34 571.391 384C567.331 386.66 563.061 387.99 558.581 387.99C553.541 387.99 549.621 386.52 546.821 383.58C544.021 380.5 542.621 376.44 542.621 371.4C542.621 367.48 543.531 363.84 545.351 360.48C547.171 356.98 549.901 353.62 553.541 350.4C557.321 347.04 561.941 343.61 567.401 340.11C572.861 336.61 579.161 332.83 586.301 328.77V310.29C586.301 303.85 585.601 299.23 584.201 296.43C582.941 293.63 580.141 292.23 575.801 292.23C572.161 292.23 568.731 293.49 565.511 296.01C562.291 298.53 560.051 301.54 558.791 305.04C557.251 309.38 555.711 313.09 554.171 316.17C552.631 319.11 549.901 320.58 545.981 320.58C545.001 320.58 544.161 320.3 543.461 319.74C542.761 319.04 542.411 318.13 542.411 317.01C542.411 314.49 543.321 311.55 545.141 308.19C546.961 304.83 549.551 301.61 552.911 298.53C556.271 295.45 560.261 292.86 564.881 290.76C569.501 288.66 574.541 287.61 580.001 287.61C584.341 287.61 587.771 288.17 590.291 289.29C592.811 290.41 594.701 292.02 595.961 294.12C597.221 296.22 597.991 298.74 598.271 301.68C598.551 304.62 598.691 307.91 598.691 311.55ZM586.511 337.17C586.511 335.77 586.091 335.07 585.251 335.07C584.831 335.07 584.131 335.35 583.151 335.91L576.851 339.48C562.571 347.74 555.431 356.49 555.431 365.73C555.431 369.65 556.411 372.8 558.371 375.18C560.331 377.42 563.061 378.54 566.561 378.54C568.661 378.54 570.831 378.05 573.071 377.07C575.451 376.09 577.621 374.69 579.581 372.87C581.681 370.91 583.361 368.6 584.621 365.94C585.881 363.14 586.511 359.99 586.511 356.49V337.17ZM650.83 287.82C655.17 287.82 658.53 288.1 660.91 288.66C663.43 289.08 665.25 289.78 666.37 290.76C667.63 291.6 668.4 292.65 668.68 293.91C668.96 295.03 669.1 296.29 669.1 297.69V306.3C669.1 309.1 668.47 310.5 667.21 310.5C665.95 310.5 665.25 309.66 665.11 307.98C664.97 306.16 663.99 303.71 662.17 300.63C660.35 297.55 658.11 295.24 655.45 293.7C652.79 292.16 649.99 291.39 647.05 291.39C642.99 291.39 639.56 292.86 636.76 295.8C633.96 298.6 632.56 302.31 632.56 306.93C632.56 311.83 633.96 315.68 636.76 318.48C639.56 321.14 643.76 323.87 649.36 326.67C653 328.49 656.29 330.24 659.23 331.92C662.17 333.6 664.69 335.49 666.79 337.59C668.89 339.69 670.5 342.21 671.62 345.15C672.88 347.95 673.51 351.52 673.51 355.86C673.51 365.8 670.78 373.64 665.32 379.38C659.86 385.12 652.16 387.99 642.22 387.99C639.42 387.99 636.62 387.71 633.82 387.15C631.16 386.59 628.71 385.75 626.47 384.63C624.37 383.65 622.62 382.53 621.22 381.27C619.82 379.87 619.12 378.33 619.12 376.65C619.12 375.53 619.19 373.5 619.33 370.56C619.47 367.48 619.54 363.49 619.54 358.59C619.54 356.21 620.31 355.02 621.85 355.02C623.11 355.02 623.88 356.14 624.16 358.38C624.58 360.48 625.42 363.98 626.68 368.88C628.08 373.92 629.97 377.77 632.35 380.43C634.87 382.95 638.72 384.21 643.9 384.21C649.78 384.21 654.47 382.32 657.97 378.54C661.61 374.62 663.43 369.51 663.43 363.21C663.43 357.61 661.89 353.27 658.81 350.19C655.73 346.97 651.04 343.89 644.74 340.95C637.04 337.31 631.3 333.6 627.52 329.82C623.88 326.04 622.06 321.07 622.06 314.91C622.06 306.93 624.58 300.42 629.62 295.38C634.66 290.34 641.73 287.82 650.83 287.82ZM802.972 243.3V364.26C802.972 368.46 803.112 371.54 803.392 373.5C803.812 375.46 804.862 376.44 806.542 376.44C807.102 376.44 807.732 376.23 808.432 375.81C809.132 375.25 809.762 374.69 810.322 374.13C811.022 373.43 811.652 372.87 812.212 372.45C812.912 371.89 813.542 371.61 814.102 371.61C814.522 371.61 814.732 372.59 814.732 374.55C814.732 376.09 814.452 377.14 813.892 377.7C813.332 378.26 812.142 378.89 810.322 379.59C805.842 381.55 802.412 383.23 800.032 384.63C797.792 386.17 796.252 386.94 795.412 386.94C794.012 386.94 793.102 385.12 792.682 381.48L791.842 371.82H790.582C785.962 377.14 781.342 381.2 776.722 384C772.242 386.66 767.552 387.99 762.652 387.99C758.032 387.99 753.622 386.87 749.422 384.63C745.362 382.39 741.792 379.17 738.712 374.97C735.772 370.63 733.392 365.45 731.572 359.43C729.892 353.27 729.052 346.41 729.052 338.85C729.052 330.87 730.032 323.73 731.992 317.43C734.092 311.13 736.892 305.81 740.392 301.47C743.892 296.99 748.022 293.63 752.782 291.39C757.682 289.01 762.862 287.82 768.322 287.82C771.822 287.82 774.832 288.17 777.352 288.87C779.872 289.43 781.972 290.13 783.652 290.97C785.332 291.81 786.592 292.58 787.432 293.28C788.412 293.84 789.112 294.12 789.532 294.12C790.652 294.12 791.212 293.35 791.212 291.81V259.89C791.212 253.59 789.042 250.44 784.702 250.44C784.562 250.44 784.352 250.51 784.072 250.65C783.792 250.65 783.302 250.65 782.602 250.65C782.322 250.65 781.972 250.51 781.552 250.23C781.132 249.81 780.922 249.32 780.922 248.76C780.922 247.36 781.762 246.52 783.442 246.24C785.122 245.82 787.012 245.26 789.112 244.56C792.752 243.3 795.552 242.04 797.512 240.78C799.472 239.38 800.802 238.68 801.502 238.68C802.482 238.68 802.972 240.22 802.972 243.3ZM791.212 309.45C791.212 306.93 790.652 304.62 789.532 302.52C788.412 300.28 786.872 298.39 784.912 296.85C783.092 295.31 780.922 294.12 778.402 293.28C775.882 292.3 773.152 291.81 770.212 291.81C761.812 291.81 754.952 295.73 749.632 303.57C744.312 311.27 741.652 322.33 741.652 336.75C741.652 350.75 744.102 361.6 749.002 369.3C754.042 376.86 760.412 380.64 768.112 380.64C771.052 380.64 773.852 380.01 776.512 378.75C779.312 377.49 781.762 375.81 783.862 373.71C786.102 371.47 787.852 368.88 789.112 365.94C790.512 363 791.212 359.78 791.212 356.28V309.45ZM858.033 319.95C866.713 319.95 873.083 319.46 877.143 318.48C881.203 317.36 883.233 314.77 883.233 310.71C883.233 308.47 882.743 306.23 881.763 303.99C880.783 301.75 879.383 299.72 877.563 297.9C875.883 296.08 873.853 294.61 871.473 293.49C869.093 292.37 866.573 291.81 863.913 291.81C860.553 291.81 857.333 292.65 854.253 294.33C851.173 296.01 848.443 298.11 846.063 300.63C843.823 303.15 842.003 305.95 840.603 309.03C839.203 312.11 838.503 315.12 838.503 318.06C838.503 318.48 838.713 318.9 839.133 319.32C839.553 319.74 840.113 319.95 840.813 319.95H858.033ZM890.583 324.99H840.603C838.783 324.99 837.663 325.62 837.243 326.88C836.823 328 836.613 330.31 836.613 333.81C836.613 340.81 837.383 347.04 838.923 352.5C840.603 357.96 842.843 362.58 845.643 366.36C848.583 370.14 852.013 373.08 855.933 375.18C859.993 377.14 864.403 378.12 869.163 378.12C873.503 378.12 877.143 377.42 880.083 376.02C883.163 374.62 885.683 373.08 887.643 371.4C889.603 369.72 891.143 368.18 892.263 366.78C893.383 365.38 894.153 364.68 894.573 364.68C895.553 364.68 896.043 365.24 896.043 366.36C896.043 367.9 895.273 369.93 893.733 372.45C892.193 374.83 889.953 377.21 887.013 379.59C884.213 381.83 880.713 383.79 876.513 385.47C872.453 387.15 867.903 387.99 862.863 387.99C857.123 387.99 851.803 386.8 846.903 384.42C842.143 382.04 838.013 378.68 834.513 374.34C831.013 370 828.283 364.75 826.323 358.59C824.503 352.43 823.593 345.57 823.593 338.01C823.593 330.31 824.713 323.38 826.953 317.22C829.193 310.92 832.203 305.6 835.983 301.26C839.763 296.92 844.173 293.63 849.213 291.39C854.253 289.01 859.573 287.82 865.173 287.82C870.073 287.82 874.483 288.73 878.403 290.55C882.323 292.37 885.613 294.82 888.273 297.9C891.073 300.84 893.173 304.34 894.573 308.4C896.113 312.32 896.883 316.38 896.883 320.58C896.883 322.12 896.393 323.24 895.413 323.94C894.573 324.64 892.963 324.99 890.583 324.99ZM1005.57 311.55V364.26C1005.57 372.94 1007.46 377.28 1011.24 377.28C1012.78 377.28 1014.18 376.51 1015.44 374.97C1016.84 373.43 1017.96 372.66 1018.8 372.66C1019.78 372.66 1020.27 373.15 1020.27 374.13C1020.27 375.25 1019.64 376.58 1018.38 378.12C1017.26 379.52 1015.86 380.92 1014.18 382.32C1012.5 383.72 1010.68 384.84 1008.72 385.68C1006.9 386.66 1005.29 387.15 1003.89 387.15C1001.09 387.15 998.916 386.1 997.376 384C995.976 381.76 994.646 378.19 993.386 373.29H992.546C987.226 377.77 982.466 381.34 978.266 384C974.206 386.66 969.936 387.99 965.456 387.99C960.416 387.99 956.496 386.52 953.696 383.58C950.896 380.5 949.496 376.44 949.496 371.4C949.496 367.48 950.406 363.84 952.226 360.48C954.046 356.98 956.776 353.62 960.416 350.4C964.196 347.04 968.816 343.61 974.276 340.11C979.736 336.61 986.036 332.83 993.176 328.77V310.29C993.176 303.85 992.476 299.23 991.076 296.43C989.816 293.63 987.016 292.23 982.676 292.23C979.036 292.23 975.606 293.49 972.386 296.01C969.166 298.53 966.926 301.54 965.666 305.04C964.126 309.38 962.586 313.09 961.046 316.17C959.506 319.11 956.776 320.58 952.856 320.58C951.876 320.58 951.036 320.3 950.336 319.74C949.636 319.04 949.286 318.13 949.286 317.01C949.286 314.49 950.196 311.55 952.016 308.19C953.836 304.83 956.426 301.61 959.786 298.53C963.146 295.45 967.136 292.86 971.756 290.76C976.376 288.66 981.416 287.61 986.876 287.61C991.216 287.61 994.646 288.17 997.166 289.29C999.686 290.41 1001.58 292.02 1002.84 294.12C1004.1 296.22 1004.87 298.74 1005.15 301.68C1005.43 304.62 1005.57 307.91 1005.57 311.55ZM993.386 337.17C993.386 335.77 992.966 335.07 992.126 335.07C991.706 335.07 991.006 335.35 990.026 335.91L983.726 339.48C969.446 347.74 962.306 356.49 962.306 365.73C962.306 369.65 963.286 372.8 965.246 375.18C967.206 377.42 969.936 378.54 973.436 378.54C975.536 378.54 977.706 378.05 979.946 377.07C982.326 376.09 984.496 374.69 986.456 372.87C988.556 370.91 990.236 368.6 991.496 365.94C992.756 363.14 993.386 359.99 993.386 356.49V337.17ZM1047.21 292.86V304.83C1047.21 305.81 1047.49 306.3 1048.05 306.3C1048.47 306.3 1048.96 305.95 1049.52 305.25L1053.3 299.79C1059.18 291.81 1065.41 287.82 1071.99 287.82C1075.49 287.82 1078.22 288.8 1080.18 290.76C1082.14 292.58 1083.12 294.89 1083.12 297.69C1083.12 300.49 1082.35 302.8 1080.81 304.62C1079.41 306.3 1077.8 307.14 1075.98 307.14C1074.58 307.14 1073.32 306.72 1072.2 305.88C1071.22 305.04 1070.17 304.13 1069.05 303.15C1068.07 302.03 1067.02 301.05 1065.9 300.21C1064.78 299.37 1063.38 298.95 1061.7 298.95C1060.16 298.95 1058.55 299.58 1056.87 300.84C1055.33 302.1 1053.86 304.13 1052.46 306.93C1051.06 309.59 1049.94 313.02 1049.1 317.22C1048.26 321.42 1047.84 326.46 1047.84 332.34V366.99C1047.84 370.63 1048.12 373.22 1048.68 374.76C1049.24 376.3 1050.57 377.49 1052.67 378.33C1054.49 379.03 1056.1 379.45 1057.5 379.59C1058.9 379.73 1060.09 379.87 1061.07 380.01C1062.05 380.01 1062.75 380.15 1063.17 380.43C1063.73 380.57 1064.01 381.13 1064.01 382.11C1064.01 383.65 1062.89 384.42 1060.65 384.42C1058.83 384.42 1056.31 384.28 1053.09 384C1050.01 383.58 1046.3 383.37 1041.96 383.37C1039.16 383.37 1036.57 383.51 1034.19 383.79C1031.95 384.07 1029.99 384.21 1028.31 384.21C1027.19 384.21 1026.35 384.14 1025.79 384C1025.37 383.72 1025.16 383.09 1025.16 382.11C1025.16 380.71 1025.65 380.01 1026.63 380.01C1027.75 380.01 1029.5 379.59 1031.88 378.75C1033.7 378.05 1034.82 376.86 1035.24 375.18C1035.8 373.36 1036.08 370.63 1036.08 366.99V311.34C1036.08 308.82 1035.59 307.14 1034.61 306.3C1033.77 305.46 1032.79 304.97 1031.67 304.83C1030.69 304.69 1029.78 304.62 1028.94 304.62C1028.1 304.62 1027.68 304.13 1027.68 303.15C1027.68 302.03 1028.38 301.19 1029.78 300.63C1031.32 299.93 1033 298.95 1034.82 297.69C1038.04 295.45 1040.49 293.28 1042.17 291.18C1043.85 288.94 1045.11 287.82 1045.95 287.82C1046.65 287.82 1047 288.31 1047 289.29C1047.14 290.13 1047.21 291.32 1047.21 292.86ZM1108.53 277.32V288.03C1108.53 289.43 1108.67 290.41 1108.95 290.97C1109.37 291.39 1110.21 291.6 1111.47 291.6H1127.01C1128.27 291.6 1129.04 291.81 1129.32 292.23C1129.6 292.51 1129.74 293.21 1129.74 294.33V295.17C1129.74 296.43 1129.53 297.34 1129.11 297.9C1128.83 298.46 1128.13 298.74 1127.01 298.74H1111.26C1110 298.74 1109.16 299.02 1108.74 299.58C1108.46 300 1108.32 300.91 1108.32 302.31V363.63C1108.32 374.27 1111.68 379.59 1118.4 379.59C1120.22 379.59 1121.9 379.17 1123.44 378.33C1124.98 377.49 1126.31 376.65 1127.43 375.81C1128.69 374.83 1129.74 373.92 1130.58 373.08C1131.42 372.24 1132.05 371.82 1132.47 371.82C1133.03 371.82 1133.31 372.38 1133.31 373.5C1133.31 374.2 1132.75 375.39 1131.63 377.07C1130.65 378.61 1129.18 380.22 1127.22 381.9C1125.4 383.44 1123.23 384.84 1120.71 386.1C1118.33 387.36 1115.81 387.99 1113.15 387.99C1107.69 387.99 1103.42 385.82 1100.34 381.48C1097.4 377.14 1095.93 370.77 1095.93 362.37V352.5L1096.56 302.31C1096.56 300.91 1096.35 300 1095.93 299.58C1095.65 299.02 1094.88 298.74 1093.62 298.74H1090.47C1088.37 298.74 1087.32 298.11 1087.32 296.85C1087.32 295.73 1088.37 294.4 1090.47 292.86C1092.71 291.18 1095.37 288.52 1098.45 284.88C1101.53 281.24 1103.56 278.09 1104.54 275.43C1105.66 272.77 1106.71 271.44 1107.69 271.44C1108.25 271.44 1108.53 272.28 1108.53 273.96V277.32ZM1157.01 251.7C1158.97 251.7 1160.72 252.75 1162.26 254.85C1163.8 256.95 1164.57 259.4 1164.57 262.2C1164.57 264.86 1163.8 267.24 1162.26 269.34C1160.86 271.3 1159.11 272.28 1157.01 272.28C1155.05 272.28 1153.3 271.3 1151.76 269.34C1150.36 267.38 1149.66 265 1149.66 262.2C1149.66 259.4 1150.36 256.95 1151.76 254.85C1153.3 252.75 1155.05 251.7 1157.01 251.7ZM1163.52 292.86V371.19C1163.52 374.13 1164.08 376.16 1165.2 377.28C1166.46 378.26 1167.79 378.96 1169.19 379.38C1170.73 379.66 1172.06 379.94 1173.18 380.22C1174.44 380.36 1175.07 380.99 1175.07 382.11C1175.07 383.23 1174.79 383.86 1174.23 384C1173.81 384.14 1173.04 384.21 1171.92 384.21C1171.08 384.21 1169.4 384.07 1166.88 383.79C1164.5 383.51 1161.28 383.37 1157.22 383.37C1154 383.37 1151.13 383.51 1148.61 383.79C1146.23 384.07 1144.27 384.21 1142.73 384.21C1141.61 384.21 1140.7 384.14 1140 384C1139.44 383.72 1139.16 383.09 1139.16 382.11C1139.16 380.99 1139.79 380.36 1141.05 380.22C1142.45 379.94 1143.92 379.66 1145.46 379.38C1147 378.96 1148.4 378.19 1149.66 377.07C1151.06 375.95 1151.76 373.99 1151.76 371.19V313.44C1151.76 308.26 1149.59 305.67 1145.25 305.67C1144.13 305.67 1143.22 305.6 1142.52 305.46C1141.82 305.18 1141.47 304.55 1141.47 303.57C1141.47 302.17 1142.24 301.19 1143.78 300.63C1145.46 300.07 1147.21 299.02 1149.03 297.48C1152.95 295.24 1155.89 293.21 1157.85 291.39C1159.81 289.57 1161.21 288.66 1162.05 288.66C1162.75 288.66 1163.17 289.01 1163.31 289.71C1163.45 290.27 1163.52 291.32 1163.52 292.86ZM1215 287.82C1219.34 287.82 1222.7 288.1 1225.08 288.66C1227.6 289.08 1229.42 289.78 1230.54 290.76C1231.8 291.6 1232.57 292.65 1232.85 293.91C1233.13 295.03 1233.27 296.29 1233.27 297.69V306.3C1233.27 309.1 1232.64 310.5 1231.38 310.5C1230.12 310.5 1229.42 309.66 1229.28 307.98C1229.14 306.16 1228.16 303.71 1226.34 300.63C1224.52 297.55 1222.28 295.24 1219.62 293.7C1216.96 292.16 1214.16 291.39 1211.22 291.39C1207.16 291.39 1203.73 292.86 1200.93 295.8C1198.13 298.6 1196.73 302.31 1196.73 306.93C1196.73 311.83 1198.13 315.68 1200.93 318.48C1203.73 321.14 1207.93 323.87 1213.53 326.67C1217.17 328.49 1220.46 330.24 1223.4 331.92C1226.34 333.6 1228.86 335.49 1230.96 337.59C1233.06 339.69 1234.67 342.21 1235.79 345.15C1237.05 347.95 1237.68 351.52 1237.68 355.86C1237.68 365.8 1234.95 373.64 1229.49 379.38C1224.03 385.12 1216.33 387.99 1206.39 387.99C1203.59 387.99 1200.79 387.71 1197.99 387.15C1195.33 386.59 1192.88 385.75 1190.64 384.63C1188.54 383.65 1186.79 382.53 1185.39 381.27C1183.99 379.87 1183.29 378.33 1183.29 376.65C1183.29 375.53 1183.36 373.5 1183.5 370.56C1183.64 367.48 1183.71 363.49 1183.71 358.59C1183.71 356.21 1184.48 355.02 1186.02 355.02C1187.28 355.02 1188.05 356.14 1188.33 358.38C1188.75 360.48 1189.59 363.98 1190.85 368.88C1192.25 373.92 1194.14 377.77 1196.52 380.43C1199.04 382.95 1202.89 384.21 1208.07 384.21C1213.95 384.21 1218.64 382.32 1222.14 378.54C1225.78 374.62 1227.6 369.51 1227.6 363.21C1227.6 357.61 1226.06 353.27 1222.98 350.19C1219.9 346.97 1215.21 343.89 1208.91 340.95C1201.21 337.31 1195.47 333.6 1191.69 329.82C1188.05 326.04 1186.23 321.07 1186.23 314.91C1186.23 306.93 1188.75 300.42 1193.79 295.38C1198.83 290.34 1205.9 287.82 1215 287.82ZM1271.98 277.32V288.03C1271.98 289.43 1272.12 290.41 1272.4 290.97C1272.82 291.39 1273.66 291.6 1274.92 291.6H1290.46C1291.72 291.6 1292.49 291.81 1292.77 292.23C1293.05 292.51 1293.19 293.21 1293.19 294.33V295.17C1293.19 296.43 1292.98 297.34 1292.56 297.9C1292.28 298.46 1291.58 298.74 1290.46 298.74H1274.71C1273.45 298.74 1272.61 299.02 1272.19 299.58C1271.91 300 1271.77 300.91 1271.77 302.31V363.63C1271.77 374.27 1275.13 379.59 1281.85 379.59C1283.67 379.59 1285.35 379.17 1286.89 378.33C1288.43 377.49 1289.76 376.65 1290.88 375.81C1292.14 374.83 1293.19 373.92 1294.03 373.08C1294.87 372.24 1295.5 371.82 1295.92 371.82C1296.48 371.82 1296.76 372.38 1296.76 373.5C1296.76 374.2 1296.2 375.39 1295.08 377.07C1294.1 378.61 1292.63 380.22 1290.67 381.9C1288.85 383.44 1286.68 384.84 1284.16 386.1C1281.78 387.36 1279.26 387.99 1276.6 387.99C1271.14 387.99 1266.87 385.82 1263.79 381.48C1260.85 377.14 1259.38 370.77 1259.38 362.37V352.5L1260.01 302.31C1260.01 300.91 1259.8 300 1259.38 299.58C1259.1 299.02 1258.33 298.74 1257.07 298.74H1253.92C1251.82 298.74 1250.77 298.11 1250.77 296.85C1250.77 295.73 1251.82 294.4 1253.92 292.86C1256.16 291.18 1258.82 288.52 1261.9 284.88C1264.98 281.24 1267.01 278.09 1267.99 275.43C1269.11 272.77 1270.16 271.44 1271.14 271.44C1271.7 271.44 1271.98 272.28 1271.98 273.96V277.32ZM1360.15 311.55V364.26C1360.15 372.94 1362.04 377.28 1365.82 377.28C1367.36 377.28 1368.76 376.51 1370.02 374.97C1371.42 373.43 1372.54 372.66 1373.38 372.66C1374.36 372.66 1374.85 373.15 1374.85 374.13C1374.85 375.25 1374.22 376.58 1372.96 378.12C1371.84 379.52 1370.44 380.92 1368.76 382.32C1367.08 383.72 1365.26 384.84 1363.3 385.68C1361.48 386.66 1359.87 387.15 1358.47 387.15C1355.67 387.15 1353.5 386.1 1351.96 384C1350.56 381.76 1349.23 378.19 1347.97 373.29H1347.13C1341.81 377.77 1337.05 381.34 1332.85 384C1328.79 386.66 1324.52 387.99 1320.04 387.99C1315 387.99 1311.08 386.52 1308.28 383.58C1305.48 380.5 1304.08 376.44 1304.08 371.4C1304.08 367.48 1304.99 363.84 1306.81 360.48C1308.63 356.98 1311.36 353.62 1315 350.4C1318.78 347.04 1323.4 343.61 1328.86 340.11C1334.32 336.61 1340.62 332.83 1347.76 328.77V310.29C1347.76 303.85 1347.06 299.23 1345.66 296.43C1344.4 293.63 1341.6 292.23 1337.26 292.23C1333.62 292.23 1330.19 293.49 1326.97 296.01C1323.75 298.53 1321.51 301.54 1320.25 305.04C1318.71 309.38 1317.17 313.09 1315.63 316.17C1314.09 319.11 1311.36 320.58 1307.44 320.58C1306.46 320.58 1305.62 320.3 1304.92 319.74C1304.22 319.04 1303.87 318.13 1303.87 317.01C1303.87 314.49 1304.78 311.55 1306.6 308.19C1308.42 304.83 1311.01 301.61 1314.37 298.53C1317.73 295.45 1321.72 292.86 1326.34 290.76C1330.96 288.66 1336 287.61 1341.46 287.61C1345.8 287.61 1349.23 288.17 1351.75 289.29C1354.27 290.41 1356.16 292.02 1357.42 294.12C1358.68 296.22 1359.45 298.74 1359.73 301.68C1360.01 304.62 1360.15 307.91 1360.15 311.55ZM1347.97 337.17C1347.97 335.77 1347.55 335.07 1346.71 335.07C1346.29 335.07 1345.59 335.35 1344.61 335.91L1338.31 339.48C1324.03 347.74 1316.89 356.49 1316.89 365.73C1316.89 369.65 1317.87 372.8 1319.83 375.18C1321.79 377.42 1324.52 378.54 1328.02 378.54C1330.12 378.54 1332.29 378.05 1334.53 377.07C1336.91 376.09 1339.08 374.69 1341.04 372.87C1343.14 370.91 1344.82 368.6 1346.08 365.94C1347.34 363.14 1347.97 359.99 1347.97 356.49V337.17ZM1412.29 287.82C1416.63 287.82 1419.99 288.1 1422.37 288.66C1424.89 289.08 1426.71 289.78 1427.83 290.76C1429.09 291.6 1429.86 292.65 1430.14 293.91C1430.42 295.03 1430.56 296.29 1430.56 297.69V306.3C1430.56 309.1 1429.93 310.5 1428.67 310.5C1427.41 310.5 1426.71 309.66 1426.57 307.98C1426.43 306.16 1425.45 303.71 1423.63 300.63C1421.81 297.55 1419.57 295.24 1416.91 293.7C1414.25 292.16 1411.45 291.39 1408.51 291.39C1404.45 291.39 1401.02 292.86 1398.22 295.8C1395.42 298.6 1394.02 302.31 1394.02 306.93C1394.02 311.83 1395.42 315.68 1398.22 318.48C1401.02 321.14 1405.22 323.87 1410.82 326.67C1414.46 328.49 1417.75 330.24 1420.69 331.92C1423.63 333.6 1426.15 335.49 1428.25 337.59C1430.35 339.69 1431.96 342.21 1433.08 345.15C1434.34 347.95 1434.97 351.52 1434.97 355.86C1434.97 365.8 1432.24 373.64 1426.78 379.38C1421.32 385.12 1413.62 387.99 1403.68 387.99C1400.88 387.99 1398.08 387.71 1395.28 387.15C1392.62 386.59 1390.17 385.75 1387.93 384.63C1385.83 383.65 1384.08 382.53 1382.68 381.27C1381.28 379.87 1380.58 378.33 1380.58 376.65C1380.58 375.53 1380.65 373.5 1380.79 370.56C1380.93 367.48 1381 363.49 1381 358.59C1381 356.21 1381.77 355.02 1383.31 355.02C1384.57 355.02 1385.34 356.14 1385.62 358.38C1386.04 360.48 1386.88 363.98 1388.14 368.88C1389.54 373.92 1391.43 377.77 1393.81 380.43C1396.33 382.95 1400.18 384.21 1405.36 384.21C1411.24 384.21 1415.93 382.32 1419.43 378.54C1423.07 374.62 1424.89 369.51 1424.89 363.21C1424.89 357.61 1423.35 353.27 1420.27 350.19C1417.19 346.97 1412.5 343.89 1406.2 340.95C1398.5 337.31 1392.76 333.6 1388.98 329.82C1385.34 326.04 1383.52 321.07 1383.52 314.91C1383.52 306.93 1386.04 300.42 1391.08 295.38C1396.12 290.34 1403.19 287.82 1412.29 287.82ZM18.21 491.7C20.17 491.7 21.92 492.75 23.46 494.85C25 496.95 25.77 499.4 25.77 502.2C25.77 504.86 25 507.24 23.46 509.34C22.06 511.3 20.31 512.28 18.21 512.28C16.25 512.28 14.5 511.3 12.96 509.34C11.56 507.38 10.86 505 10.86 502.2C10.86 499.4 11.56 496.95 12.96 494.85C14.5 492.75 16.25 491.7 18.21 491.7ZM24.72 532.86V611.19C24.72 614.13 25.28 616.16 26.4 617.28C27.66 618.26 28.99 618.96 30.39 619.38C31.93 619.66 33.26 619.94 34.38 620.22C35.64 620.36 36.27 620.99 36.27 622.11C36.27 623.23 35.99 623.86 35.43 624C35.01 624.14 34.24 624.21 33.12 624.21C32.28 624.21 30.6 624.07 28.08 623.79C25.7 623.51 22.48 623.37 18.42 623.37C15.2 623.37 12.33 623.51 9.81 623.79C7.43 624.07 5.47 624.21 3.93 624.21C2.81 624.21 1.9 624.14 1.2 624C0.64 623.72 0.36 623.09 0.36 622.11C0.36 620.99 0.99 620.36 2.25 620.22C3.65 619.94 5.12 619.66 6.66 619.38C8.2 618.96 9.6 618.19 10.86 617.07C12.26 615.95 12.96 613.99 12.96 611.19V553.44C12.96 548.26 10.79 545.67 6.45 545.67C5.33 545.67 4.42 545.6 3.72 545.46C3.02 545.18 2.67 544.55 2.67 543.57C2.67 542.17 3.44 541.19 4.98 540.63C6.66 540.07 8.41 539.02 10.23 537.48C14.15 535.24 17.09 533.21 19.05 531.39C21.01 529.57 22.41 528.66 23.25 528.66C23.95 528.66 24.37 529.01 24.51 529.71C24.65 530.27 24.72 531.32 24.72 532.86ZM65.7012 532.86V542.73C65.7012 544.27 65.9812 545.04 66.5412 545.04C67.1012 545.04 67.9412 544.06 69.0612 542.1C70.3212 540 72.2812 537.76 74.9412 535.38C77.7412 532.86 80.5412 530.97 83.3412 529.71C86.2812 528.45 89.4312 527.82 92.7912 527.82C100.631 527.82 106.931 530.69 111.691 536.43C116.451 542.17 118.831 549.94 118.831 559.74V611.19C118.831 614.13 119.391 616.16 120.511 617.28C121.631 618.26 122.891 618.96 124.291 619.38C125.691 619.66 126.951 619.94 128.071 620.22C129.191 620.36 129.751 620.99 129.751 622.11C129.751 623.09 129.471 623.72 128.911 624C128.491 624.14 127.721 624.21 126.601 624.21C125.621 624.21 124.011 624.07 121.771 623.79C119.531 623.51 116.591 623.37 112.951 623.37C110.011 623.37 107.421 623.51 105.181 623.79C103.081 624.07 101.261 624.21 99.7212 624.21C98.4612 624.21 97.5512 624.14 96.9912 624C96.4312 623.86 96.1512 623.23 96.1512 622.11C96.1512 620.99 96.7112 620.36 97.8312 620.22C98.9512 619.94 100.211 619.59 101.611 619.17C103.011 618.75 104.271 618.05 105.391 617.07C106.511 615.95 107.071 613.99 107.071 611.19V568.98C107.071 558.06 105.671 549.87 102.871 544.41C100.071 538.95 95.0312 536.22 87.7512 536.22C80.1912 536.22 74.7312 539.3 71.3712 545.46C68.0112 551.48 66.3312 560.58 66.3312 572.76V611.19C66.3312 614.13 66.8912 616.16 68.0112 617.28C69.1312 618.26 70.3912 618.96 71.7912 619.38C73.1912 619.66 74.4512 619.94 75.5712 620.22C76.6912 620.36 77.2512 620.99 77.2512 622.11C77.2512 623.09 76.9712 623.72 76.4112 624C75.9912 624.14 75.2212 624.21 74.1012 624.21C73.1212 624.21 71.5112 624.07 69.2712 623.79C67.0312 623.51 64.0912 623.37 60.4512 623.37C57.7912 623.37 55.3412 623.51 53.1012 623.79C50.8612 624.07 48.7612 624.21 46.8012 624.21C45.6812 624.21 44.8412 624.14 44.2812 624C43.8612 623.72 43.6512 623.09 43.6512 622.11C43.6512 620.99 44.2112 620.36 45.3312 620.22C46.4512 619.94 47.7112 619.59 49.1112 619.17C50.5112 618.75 51.7712 618.05 52.8912 617.07C54.0112 615.95 54.5712 613.99 54.5712 611.19V550.29C54.5712 548.19 54.0812 546.86 53.1012 546.3C52.2612 545.6 51.2812 545.18 50.1612 545.04C49.1812 544.9 48.2712 544.76 47.4312 544.62C46.5912 544.48 46.1712 543.99 46.1712 543.15C46.1712 541.89 46.8712 541.05 48.2712 540.63C49.8112 540.07 51.3512 539.23 52.8912 538.11C56.5312 535.59 59.1912 533.28 60.8712 531.18C62.5512 528.94 63.7412 527.82 64.4412 527.82C65.1412 527.82 65.4912 528.31 65.4912 529.29C65.6312 530.13 65.7012 531.32 65.7012 532.86ZM213.372 483.3V604.26C213.372 608.46 213.512 611.54 213.792 613.5C214.212 615.46 215.262 616.44 216.942 616.44C217.502 616.44 218.132 616.23 218.832 615.81C219.532 615.25 220.162 614.69 220.722 614.13C221.422 613.43 222.052 612.87 222.612 612.45C223.312 611.89 223.942 611.61 224.502 611.61C224.922 611.61 225.132 612.59 225.132 614.55C225.132 616.09 224.852 617.14 224.292 617.7C223.732 618.26 222.542 618.89 220.722 619.59C216.242 621.55 212.812 623.23 210.432 624.63C208.192 626.17 206.652 626.94 205.812 626.94C204.412 626.94 203.502 625.12 203.082 621.48L202.242 611.82H200.982C196.362 617.14 191.742 621.2 187.122 624C182.642 626.66 177.952 627.99 173.052 627.99C168.432 627.99 164.022 626.87 159.822 624.63C155.762 622.39 152.192 619.17 149.112 614.97C146.172 610.63 143.792 605.45 141.972 599.43C140.292 593.27 139.452 586.41 139.452 578.85C139.452 570.87 140.432 563.73 142.392 557.43C144.492 551.13 147.292 545.81 150.792 541.47C154.292 536.99 158.422 533.63 163.182 531.39C168.082 529.01 173.262 527.82 178.722 527.82C182.222 527.82 185.232 528.17 187.752 528.87C190.272 529.43 192.372 530.13 194.052 530.97C195.732 531.81 196.992 532.58 197.832 533.28C198.812 533.84 199.512 534.12 199.932 534.12C201.052 534.12 201.612 533.35 201.612 531.81V499.89C201.612 493.59 199.442 490.44 195.102 490.44C194.962 490.44 194.752 490.51 194.472 490.65C194.192 490.65 193.702 490.65 193.002 490.65C192.722 490.65 192.372 490.51 191.952 490.23C191.532 489.81 191.322 489.32 191.322 488.76C191.322 487.36 192.162 486.52 193.842 486.24C195.522 485.82 197.412 485.26 199.512 484.56C203.152 483.3 205.952 482.04 207.912 480.78C209.872 479.38 211.202 478.68 211.902 478.68C212.882 478.68 213.372 480.22 213.372 483.3ZM201.612 549.45C201.612 546.93 201.052 544.62 199.932 542.52C198.812 540.28 197.272 538.39 195.312 536.85C193.492 535.31 191.322 534.12 188.802 533.28C186.282 532.3 183.552 531.81 180.612 531.81C172.212 531.81 165.352 535.73 160.032 543.57C154.712 551.27 152.052 562.33 152.052 576.75C152.052 590.75 154.502 601.6 159.402 609.3C164.442 616.86 170.812 620.64 178.512 620.64C181.452 620.64 184.252 620.01 186.912 618.75C189.712 617.49 192.162 615.81 194.262 613.71C196.502 611.47 198.252 608.88 199.512 605.94C200.912 603 201.612 599.78 201.612 596.28V549.45ZM268.433 559.95C277.113 559.95 283.483 559.46 287.543 558.48C291.603 557.36 293.633 554.77 293.633 550.71C293.633 548.47 293.143 546.23 292.163 543.99C291.183 541.75 289.783 539.72 287.963 537.9C286.283 536.08 284.253 534.61 281.873 533.49C279.493 532.37 276.973 531.81 274.313 531.81C270.953 531.81 267.733 532.65 264.653 534.33C261.573 536.01 258.843 538.11 256.463 540.63C254.223 543.15 252.403 545.95 251.003 549.03C249.603 552.11 248.903 555.12 248.903 558.06C248.903 558.48 249.113 558.9 249.533 559.32C249.953 559.74 250.513 559.95 251.213 559.95H268.433ZM300.983 564.99H251.003C249.183 564.99 248.063 565.62 247.643 566.88C247.223 568 247.013 570.31 247.013 573.81C247.013 580.81 247.783 587.04 249.323 592.5C251.003 597.96 253.243 602.58 256.043 606.36C258.983 610.14 262.413 613.08 266.333 615.18C270.393 617.14 274.803 618.12 279.563 618.12C283.903 618.12 287.543 617.42 290.483 616.02C293.563 614.62 296.083 613.08 298.043 611.4C300.003 609.72 301.543 608.18 302.663 606.78C303.783 605.38 304.553 604.68 304.973 604.68C305.953 604.68 306.443 605.24 306.443 606.36C306.443 607.9 305.673 609.93 304.133 612.45C302.593 614.83 300.353 617.21 297.413 619.59C294.613 621.83 291.113 623.79 286.913 625.47C282.853 627.15 278.303 627.99 273.263 627.99C267.523 627.99 262.203 626.8 257.303 624.42C252.543 622.04 248.413 618.68 244.913 614.34C241.413 610 238.683 604.75 236.723 598.59C234.903 592.43 233.993 585.57 233.993 578.01C233.993 570.31 235.113 563.38 237.353 557.22C239.593 550.92 242.603 545.6 246.383 541.26C250.163 536.92 254.573 533.63 259.613 531.39C264.653 529.01 269.973 527.82 275.573 527.82C280.473 527.82 284.883 528.73 288.803 530.55C292.723 532.37 296.013 534.82 298.673 537.9C301.473 540.84 303.573 544.34 304.973 548.4C306.513 552.32 307.283 556.38 307.283 560.58C307.283 562.12 306.793 563.24 305.813 563.94C304.973 564.64 303.363 564.99 300.983 564.99ZM339.07 532.86V541.89C339.07 543.15 339.42 543.78 340.12 543.78C340.54 543.78 341.45 542.94 342.85 541.26C344.25 539.58 346.07 537.76 348.31 535.8C350.69 533.7 353.49 531.81 356.71 530.13C359.93 528.45 363.71 527.61 368.05 527.61C372.81 527.61 377.22 528.8 381.28 531.18C385.48 533.42 389.05 536.71 391.99 541.05C395.07 545.25 397.45 550.36 399.13 556.38C400.95 562.4 401.86 569.12 401.86 576.54C401.86 584.52 400.81 591.73 398.71 598.17C396.75 604.47 394.02 609.86 390.52 614.34C387.02 618.68 382.89 622.04 378.13 624.42C373.37 626.8 368.19 627.99 362.59 627.99C358.53 627.99 354.75 627.43 351.25 626.31C347.89 625.33 344.39 623.65 340.75 621.27H339.7V657.39C339.7 660.33 340.4 662.29 341.8 663.27C343.2 664.39 344.74 665.09 346.42 665.37C348.24 665.65 349.85 665.86 351.25 666C352.65 666.28 353.35 667.05 353.35 668.31C353.35 669.71 352.3 670.41 350.2 670.41C348.94 670.41 347.12 670.27 344.74 669.99C342.36 669.71 339.35 669.57 335.71 669.57C331.79 669.57 328.5 669.71 325.84 669.99C323.32 670.27 321.36 670.41 319.96 670.41C318 670.41 317.02 669.71 317.02 668.31C317.02 667.19 317.58 666.49 318.7 666.21C319.82 666.07 321.08 665.79 322.48 665.37C323.88 664.95 325.14 664.18 326.26 663.06C327.38 662.08 327.94 660.19 327.94 657.39V551.34C327.94 548.82 327.45 547.14 326.47 546.3C325.63 545.46 324.65 544.97 323.53 544.83C322.55 544.69 321.64 544.62 320.8 544.62C319.96 544.62 319.54 544.13 319.54 543.15C319.54 541.89 320.24 541.05 321.64 540.63C323.18 540.07 324.72 539.23 326.26 538.11C329.9 535.59 332.56 533.28 334.24 531.18C335.92 528.94 337.11 527.82 337.81 527.82C338.51 527.82 338.86 528.31 338.86 529.29C339 530.13 339.07 531.32 339.07 532.86ZM339.7 606.15C339.7 608.67 340.26 611.05 341.38 613.29C342.5 615.39 343.97 617.21 345.79 618.75C347.75 620.29 349.99 621.55 352.51 622.53C355.03 623.37 357.76 623.79 360.7 623.79C369.1 623.79 375.96 619.94 381.28 612.24C386.6 604.4 389.26 593.27 389.26 578.85C389.26 564.71 386.74 553.93 381.7 546.51C376.8 538.95 370.5 535.17 362.8 535.17C360 535.17 357.2 535.8 354.4 537.06C351.6 538.18 349.08 539.86 346.84 542.1C344.74 544.2 342.99 546.72 341.59 549.66C340.33 552.6 339.7 555.82 339.7 559.32V606.15ZM448.492 559.95C457.172 559.95 463.542 559.46 467.602 558.48C471.662 557.36 473.692 554.77 473.692 550.71C473.692 548.47 473.202 546.23 472.222 543.99C471.242 541.75 469.842 539.72 468.022 537.9C466.342 536.08 464.312 534.61 461.932 533.49C459.552 532.37 457.032 531.81 454.372 531.81C451.012 531.81 447.792 532.65 444.712 534.33C441.632 536.01 438.902 538.11 436.522 540.63C434.282 543.15 432.462 545.95 431.062 549.03C429.662 552.11 428.962 555.12 428.962 558.06C428.962 558.48 429.172 558.9 429.592 559.32C430.012 559.74 430.572 559.95 431.272 559.95H448.492ZM481.042 564.99H431.062C429.242 564.99 428.122 565.62 427.702 566.88C427.282 568 427.072 570.31 427.072 573.81C427.072 580.81 427.842 587.04 429.382 592.5C431.062 597.96 433.302 602.58 436.102 606.36C439.042 610.14 442.472 613.08 446.392 615.18C450.452 617.14 454.862 618.12 459.622 618.12C463.962 618.12 467.602 617.42 470.542 616.02C473.622 614.62 476.142 613.08 478.102 611.4C480.062 609.72 481.602 608.18 482.722 606.78C483.842 605.38 484.612 604.68 485.032 604.68C486.012 604.68 486.502 605.24 486.502 606.36C486.502 607.9 485.732 609.93 484.192 612.45C482.652 614.83 480.412 617.21 477.472 619.59C474.672 621.83 471.172 623.79 466.972 625.47C462.912 627.15 458.362 627.99 453.322 627.99C447.582 627.99 442.262 626.8 437.362 624.42C432.602 622.04 428.472 618.68 424.972 614.34C421.472 610 418.742 604.75 416.782 598.59C414.962 592.43 414.052 585.57 414.052 578.01C414.052 570.31 415.172 563.38 417.412 557.22C419.652 550.92 422.662 545.6 426.442 541.26C430.222 536.92 434.632 533.63 439.672 531.39C444.712 529.01 450.032 527.82 455.632 527.82C460.532 527.82 464.942 528.73 468.862 530.55C472.782 532.37 476.072 534.82 478.732 537.9C481.532 540.84 483.632 544.34 485.032 548.4C486.572 552.32 487.342 556.38 487.342 560.58C487.342 562.12 486.852 563.24 485.872 563.94C485.032 564.64 483.422 564.99 481.042 564.99ZM519.129 532.86V542.73C519.129 544.27 519.409 545.04 519.969 545.04C520.529 545.04 521.369 544.06 522.489 542.1C523.749 540 525.709 537.76 528.369 535.38C531.169 532.86 533.969 530.97 536.769 529.71C539.709 528.45 542.859 527.82 546.219 527.82C554.059 527.82 560.359 530.69 565.119 536.43C569.879 542.17 572.259 549.94 572.259 559.74V611.19C572.259 614.13 572.819 616.16 573.939 617.28C575.059 618.26 576.319 618.96 577.719 619.38C579.119 619.66 580.379 619.94 581.499 620.22C582.619 620.36 583.179 620.99 583.179 622.11C583.179 623.09 582.899 623.72 582.339 624C581.919 624.14 581.149 624.21 580.029 624.21C579.049 624.21 577.439 624.07 575.199 623.79C572.959 623.51 570.019 623.37 566.379 623.37C563.439 623.37 560.849 623.51 558.609 623.79C556.509 624.07 554.689 624.21 553.149 624.21C551.889 624.21 550.979 624.14 550.419 624C549.859 623.86 549.579 623.23 549.579 622.11C549.579 620.99 550.139 620.36 551.259 620.22C552.379 619.94 553.639 619.59 555.039 619.17C556.439 618.75 557.699 618.05 558.819 617.07C559.939 615.95 560.499 613.99 560.499 611.19V568.98C560.499 558.06 559.099 549.87 556.299 544.41C553.499 538.95 548.459 536.22 541.179 536.22C533.619 536.22 528.159 539.3 524.799 545.46C521.439 551.48 519.759 560.58 519.759 572.76V611.19C519.759 614.13 520.319 616.16 521.439 617.28C522.559 618.26 523.819 618.96 525.219 619.38C526.619 619.66 527.879 619.94 528.999 620.22C530.119 620.36 530.679 620.99 530.679 622.11C530.679 623.09 530.399 623.72 529.839 624C529.419 624.14 528.649 624.21 527.529 624.21C526.549 624.21 524.939 624.07 522.699 623.79C520.459 623.51 517.519 623.37 513.879 623.37C511.219 623.37 508.769 623.51 506.529 623.79C504.289 624.07 502.189 624.21 500.229 624.21C499.109 624.21 498.269 624.14 497.709 624C497.289 623.72 497.079 623.09 497.079 622.11C497.079 620.99 497.639 620.36 498.759 620.22C499.879 619.94 501.139 619.59 502.539 619.17C503.939 618.75 505.199 618.05 506.319 617.07C507.439 615.95 507.999 613.99 507.999 611.19V550.29C507.999 548.19 507.509 546.86 506.529 546.3C505.689 545.6 504.709 545.18 503.589 545.04C502.609 544.9 501.699 544.76 500.859 544.62C500.019 544.48 499.599 543.99 499.599 543.15C499.599 541.89 500.299 541.05 501.699 540.63C503.239 540.07 504.779 539.23 506.319 538.11C509.959 535.59 512.619 533.28 514.299 531.18C515.979 528.94 517.169 527.82 517.869 527.82C518.569 527.82 518.919 528.31 518.919 529.29C519.059 530.13 519.129 531.32 519.129 532.86ZM666.8 483.3V604.26C666.8 608.46 666.94 611.54 667.22 613.5C667.64 615.46 668.69 616.44 670.37 616.44C670.93 616.44 671.56 616.23 672.26 615.81C672.96 615.25 673.59 614.69 674.15 614.13C674.85 613.43 675.48 612.87 676.04 612.45C676.74 611.89 677.37 611.61 677.93 611.61C678.35 611.61 678.56 612.59 678.56 614.55C678.56 616.09 678.28 617.14 677.72 617.7C677.16 618.26 675.97 618.89 674.15 619.59C669.67 621.55 666.24 623.23 663.86 624.63C661.62 626.17 660.08 626.94 659.24 626.94C657.84 626.94 656.93 625.12 656.51 621.48L655.67 611.82H654.41C649.79 617.14 645.17 621.2 640.55 624C636.07 626.66 631.38 627.99 626.48 627.99C621.86 627.99 617.45 626.87 613.25 624.63C609.19 622.39 605.62 619.17 602.54 614.97C599.6 610.63 597.22 605.45 595.4 599.43C593.72 593.27 592.88 586.41 592.88 578.85C592.88 570.87 593.86 563.73 595.82 557.43C597.92 551.13 600.72 545.81 604.22 541.47C607.72 536.99 611.85 533.63 616.61 531.39C621.51 529.01 626.69 527.82 632.15 527.82C635.65 527.82 638.66 528.17 641.18 528.87C643.7 529.43 645.8 530.13 647.48 530.97C649.16 531.81 650.42 532.58 651.26 533.28C652.24 533.84 652.94 534.12 653.36 534.12C654.48 534.12 655.04 533.35 655.04 531.81V499.89C655.04 493.59 652.87 490.44 648.53 490.44C648.39 490.44 648.18 490.51 647.9 490.65C647.62 490.65 647.13 490.65 646.43 490.65C646.15 490.65 645.8 490.51 645.38 490.23C644.96 489.81 644.75 489.32 644.75 488.76C644.75 487.36 645.59 486.52 647.27 486.24C648.95 485.82 650.84 485.26 652.94 484.56C656.58 483.3 659.38 482.04 661.34 480.78C663.3 479.38 664.63 478.68 665.33 478.68C666.31 478.68 666.8 480.22 666.8 483.3ZM655.04 549.45C655.04 546.93 654.48 544.62 653.36 542.52C652.24 540.28 650.7 538.39 648.74 536.85C646.92 535.31 644.75 534.12 642.23 533.28C639.71 532.3 636.98 531.81 634.04 531.81C625.64 531.81 618.78 535.73 613.46 543.57C608.14 551.27 605.48 562.33 605.48 576.75C605.48 590.75 607.93 601.6 612.83 609.3C617.87 616.86 624.24 620.64 631.94 620.64C634.88 620.64 637.68 620.01 640.34 618.75C643.14 617.49 645.59 615.81 647.69 613.71C649.93 611.47 651.68 608.88 652.94 605.94C654.34 603 655.04 599.78 655.04 596.28V549.45ZM721.861 559.95C730.541 559.95 736.911 559.46 740.971 558.48C745.031 557.36 747.061 554.77 747.061 550.71C747.061 548.47 746.571 546.23 745.591 543.99C744.611 541.75 743.211 539.72 741.391 537.9C739.711 536.08 737.681 534.61 735.301 533.49C732.921 532.37 730.401 531.81 727.741 531.81C724.381 531.81 721.161 532.65 718.081 534.33C715.001 536.01 712.271 538.11 709.891 540.63C707.651 543.15 705.831 545.95 704.431 549.03C703.031 552.11 702.331 555.12 702.331 558.06C702.331 558.48 702.541 558.9 702.961 559.32C703.381 559.74 703.941 559.95 704.641 559.95H721.861ZM754.411 564.99H704.431C702.611 564.99 701.491 565.62 701.071 566.88C700.651 568 700.441 570.31 700.441 573.81C700.441 580.81 701.211 587.04 702.751 592.5C704.431 597.96 706.671 602.58 709.471 606.36C712.411 610.14 715.841 613.08 719.761 615.18C723.821 617.14 728.231 618.12 732.991 618.12C737.331 618.12 740.971 617.42 743.911 616.02C746.991 614.62 749.511 613.08 751.471 611.4C753.431 609.72 754.971 608.18 756.091 606.78C757.211 605.38 757.981 604.68 758.401 604.68C759.381 604.68 759.871 605.24 759.871 606.36C759.871 607.9 759.101 609.93 757.561 612.45C756.021 614.83 753.781 617.21 750.841 619.59C748.041 621.83 744.541 623.79 740.341 625.47C736.281 627.15 731.731 627.99 726.691 627.99C720.951 627.99 715.631 626.8 710.731 624.42C705.971 622.04 701.841 618.68 698.341 614.34C694.841 610 692.111 604.75 690.151 598.59C688.331 592.43 687.421 585.57 687.421 578.01C687.421 570.31 688.541 563.38 690.781 557.22C693.021 550.92 696.031 545.6 699.811 541.26C703.591 536.92 708.001 533.63 713.041 531.39C718.081 529.01 723.401 527.82 729.001 527.82C733.901 527.82 738.311 528.73 742.231 530.55C746.151 532.37 749.441 534.82 752.101 537.9C754.901 540.84 757.001 544.34 758.401 548.4C759.941 552.32 760.711 556.38 760.711 560.58C760.711 562.12 760.221 563.24 759.241 563.94C758.401 564.64 756.791 564.99 754.411 564.99ZM792.498 532.86V542.73C792.498 544.27 792.778 545.04 793.338 545.04C793.898 545.04 794.738 544.06 795.858 542.1C797.118 540 799.078 537.76 801.738 535.38C804.538 532.86 807.338 530.97 810.138 529.71C813.078 528.45 816.228 527.82 819.588 527.82C827.428 527.82 833.728 530.69 838.488 536.43C843.248 542.17 845.628 549.94 845.628 559.74V611.19C845.628 614.13 846.188 616.16 847.308 617.28C848.428 618.26 849.688 618.96 851.088 619.38C852.488 619.66 853.748 619.94 854.868 620.22C855.988 620.36 856.548 620.99 856.548 622.11C856.548 623.09 856.268 623.72 855.708 624C855.288 624.14 854.518 624.21 853.398 624.21C852.418 624.21 850.808 624.07 848.568 623.79C846.328 623.51 843.388 623.37 839.748 623.37C836.808 623.37 834.218 623.51 831.978 623.79C829.878 624.07 828.058 624.21 826.518 624.21C825.258 624.21 824.348 624.14 823.788 624C823.228 623.86 822.948 623.23 822.948 622.11C822.948 620.99 823.508 620.36 824.628 620.22C825.748 619.94 827.008 619.59 828.408 619.17C829.808 618.75 831.068 618.05 832.188 617.07C833.308 615.95 833.868 613.99 833.868 611.19V568.98C833.868 558.06 832.468 549.87 829.668 544.41C826.868 538.95 821.828 536.22 814.548 536.22C806.988 536.22 801.528 539.3 798.168 545.46C794.808 551.48 793.128 560.58 793.128 572.76V611.19C793.128 614.13 793.688 616.16 794.808 617.28C795.928 618.26 797.188 618.96 798.588 619.38C799.988 619.66 801.248 619.94 802.368 620.22C803.488 620.36 804.048 620.99 804.048 622.11C804.048 623.09 803.768 623.72 803.208 624C802.788 624.14 802.018 624.21 800.898 624.21C799.918 624.21 798.308 624.07 796.068 623.79C793.828 623.51 790.888 623.37 787.248 623.37C784.588 623.37 782.138 623.51 779.898 623.79C777.658 624.07 775.558 624.21 773.598 624.21C772.478 624.21 771.638 624.14 771.078 624C770.658 623.72 770.448 623.09 770.448 622.11C770.448 620.99 771.008 620.36 772.128 620.22C773.248 619.94 774.508 619.59 775.908 619.17C777.308 618.75 778.568 618.05 779.688 617.07C780.808 615.95 781.368 613.99 781.368 611.19V550.29C781.368 548.19 780.878 546.86 779.898 546.3C779.058 545.6 778.078 545.18 776.958 545.04C775.978 544.9 775.068 544.76 774.228 544.62C773.388 544.48 772.968 543.99 772.968 543.15C772.968 541.89 773.668 541.05 775.068 540.63C776.608 540.07 778.148 539.23 779.688 538.11C783.328 535.59 785.988 533.28 787.668 531.18C789.348 528.94 790.538 527.82 791.238 527.82C791.938 527.82 792.288 528.31 792.288 529.29C792.428 530.13 792.498 531.32 792.498 532.86ZM887.249 517.32V528.03C887.249 529.43 887.389 530.41 887.669 530.97C888.089 531.39 888.929 531.6 890.189 531.6H905.729C906.989 531.6 907.759 531.81 908.039 532.23C908.319 532.51 908.459 533.21 908.459 534.33V535.17C908.459 536.43 908.249 537.34 907.829 537.9C907.549 538.46 906.849 538.74 905.729 538.74H889.979C888.719 538.74 887.879 539.02 887.459 539.58C887.179 540 887.039 540.91 887.039 542.31V603.63C887.039 614.27 890.399 619.59 897.119 619.59C898.939 619.59 900.619 619.17 902.159 618.33C903.699 617.49 905.029 616.65 906.149 615.81C907.409 614.83 908.459 613.92 909.299 613.08C910.139 612.24 910.769 611.82 911.189 611.82C911.749 611.82 912.029 612.38 912.029 613.5C912.029 614.2 911.469 615.39 910.349 617.07C909.369 618.61 907.899 620.22 905.939 621.9C904.119 623.44 901.949 624.84 899.429 626.1C897.049 627.36 894.529 627.99 891.869 627.99C886.409 627.99 882.139 625.82 879.059 621.48C876.119 617.14 874.649 610.77 874.649 602.37V592.5L875.279 542.31C875.279 540.91 875.069 540 874.649 539.58C874.369 539.02 873.599 538.74 872.339 538.74H869.189C867.089 538.74 866.039 538.11 866.039 536.85C866.039 535.73 867.089 534.4 869.189 532.86C871.429 531.18 874.089 528.52 877.169 524.88C880.249 521.24 882.279 518.09 883.259 515.43C884.379 512.77 885.429 511.44 886.409 511.44C886.969 511.44 887.249 512.28 887.249 513.96V517.32ZM954.42 559.95C963.1 559.95 969.47 559.46 973.53 558.48C977.59 557.36 979.62 554.77 979.62 550.71C979.62 548.47 979.13 546.23 978.15 543.99C977.17 541.75 975.77 539.72 973.95 537.9C972.27 536.08 970.24 534.61 967.86 533.49C965.48 532.37 962.96 531.81 960.3 531.81C956.94 531.81 953.72 532.65 950.64 534.33C947.56 536.01 944.83 538.11 942.45 540.63C940.21 543.15 938.39 545.95 936.99 549.03C935.59 552.11 934.89 555.12 934.89 558.06C934.89 558.48 935.1 558.9 935.52 559.32C935.94 559.74 936.5 559.95 937.2 559.95H954.42ZM986.97 564.99H936.99C935.17 564.99 934.05 565.62 933.63 566.88C933.21 568 933 570.31 933 573.81C933 580.81 933.77 587.04 935.31 592.5C936.99 597.96 939.23 602.58 942.03 606.36C944.97 610.14 948.4 613.08 952.32 615.18C956.38 617.14 960.79 618.12 965.55 618.12C969.89 618.12 973.53 617.42 976.47 616.02C979.55 614.62 982.07 613.08 984.03 611.4C985.99 609.72 987.53 608.18 988.65 606.78C989.77 605.38 990.54 604.68 990.96 604.68C991.94 604.68 992.43 605.24 992.43 606.36C992.43 607.9 991.66 609.93 990.12 612.45C988.58 614.83 986.34 617.21 983.4 619.59C980.6 621.83 977.1 623.79 972.9 625.47C968.84 627.15 964.29 627.99 959.25 627.99C953.51 627.99 948.19 626.8 943.29 624.42C938.53 622.04 934.4 618.68 930.9 614.34C927.4 610 924.67 604.75 922.71 598.59C920.89 592.43 919.98 585.57 919.98 578.01C919.98 570.31 921.1 563.38 923.34 557.22C925.58 550.92 928.59 545.6 932.37 541.26C936.15 536.92 940.56 533.63 945.6 531.39C950.64 529.01 955.96 527.82 961.56 527.82C966.46 527.82 970.87 528.73 974.79 530.55C978.71 532.37 982 534.82 984.66 537.9C987.46 540.84 989.56 544.34 990.96 548.4C992.5 552.32 993.27 556.38 993.27 560.58C993.27 562.12 992.78 563.24 991.8 563.94C990.96 564.64 989.35 564.99 986.97 564.99ZM1035.56 527.82C1039.9 527.82 1043.26 528.1 1045.64 528.66C1048.16 529.08 1049.98 529.78 1051.1 530.76C1052.36 531.6 1053.13 532.65 1053.41 533.91C1053.69 535.03 1053.83 536.29 1053.83 537.69V546.3C1053.83 549.1 1053.2 550.5 1051.94 550.5C1050.68 550.5 1049.98 549.66 1049.84 547.98C1049.7 546.16 1048.72 543.71 1046.9 540.63C1045.08 537.55 1042.84 535.24 1040.18 533.7C1037.52 532.16 1034.72 531.39 1031.78 531.39C1027.72 531.39 1024.29 532.86 1021.49 535.8C1018.69 538.6 1017.29 542.31 1017.29 546.93C1017.29 551.83 1018.69 555.68 1021.49 558.48C1024.29 561.14 1028.49 563.87 1034.09 566.67C1037.73 568.49 1041.02 570.24 1043.96 571.92C1046.9 573.6 1049.42 575.49 1051.52 577.59C1053.62 579.69 1055.23 582.21 1056.35 585.15C1057.61 587.95 1058.24 591.52 1058.24 595.86C1058.24 605.8 1055.51 613.64 1050.05 619.38C1044.59 625.12 1036.89 627.99 1026.95 627.99C1024.15 627.99 1021.35 627.71 1018.55 627.15C1015.89 626.59 1013.44 625.75 1011.2 624.63C1009.1 623.65 1007.35 622.53 1005.95 621.27C1004.55 619.87 1003.85 618.33 1003.85 616.65C1003.85 615.53 1003.92 613.5 1004.06 610.56C1004.2 607.48 1004.27 603.49 1004.27 598.59C1004.27 596.21 1005.04 595.02 1006.58 595.02C1007.84 595.02 1008.61 596.14 1008.89 598.38C1009.31 600.48 1010.15 603.98 1011.41 608.88C1012.81 613.92 1014.7 617.77 1017.08 620.43C1019.6 622.95 1023.45 624.21 1028.63 624.21C1034.51 624.21 1039.2 622.32 1042.7 618.54C1046.34 614.62 1048.16 609.51 1048.16 603.21C1048.16 597.61 1046.62 593.27 1043.54 590.19C1040.46 586.97 1035.77 583.89 1029.47 580.95C1021.77 577.31 1016.03 573.6 1012.25 569.82C1008.61 566.04 1006.79 561.07 1006.79 554.91C1006.79 546.93 1009.31 540.42 1014.35 535.38C1019.39 530.34 1026.46 527.82 1035.56 527.82ZM1087.07 604.89C1089.31 604.89 1091.06 605.87 1092.32 607.83C1093.72 609.79 1094.42 612.38 1094.42 615.6C1094.42 619.1 1093.72 621.76 1092.32 623.58C1090.92 625.4 1089.17 626.31 1087.07 626.31C1084.97 626.31 1083.22 625.4 1081.82 623.58C1080.42 621.76 1079.72 619.1 1079.72 615.6C1079.72 612.38 1080.42 609.79 1081.82 607.83C1083.22 605.87 1084.97 604.89 1087.07 604.89Z" fill="black"/>
</svg>
