<svg width="1689" height="875" viewBox="0 0 1689 875" fill="none" xmlns="http://www.w3.org/2000/svg">
<path d="M73.11 159.71C73.11 166.51 74.3 170.76 76.68 172.46C79.4 173.82 84.67 174.5 92.49 174.5C120.03 174.5 140.77 169.06 154.71 158.18C168.99 147.3 176.13 131.66 176.13 111.26C176.13 89.84 170.18 73.35 158.28 61.79C146.38 49.89 129.04 43.94 106.26 43.94C91.98 43.94 82.8 45.81 78.72 49.55C74.98 53.29 73.11 59.92 73.11 69.44V159.71ZM156.75 175.01C180.21 180.79 198.23 191.5 210.81 207.14C223.73 222.78 230.19 241.82 230.19 264.26C230.19 277.86 227.98 290.44 223.56 302C219.48 313.22 213.53 323.08 205.71 331.58C198.23 339.74 188.88 346.2 177.66 350.96C166.78 355.38 154.71 357.59 141.45 357.59C124.11 357.59 108.13 356.23 93.51 353.51C79.23 351.13 65.97 349.94 53.73 349.94C44.21 349.94 36.39 350.45 30.27 351.47C24.15 352.49 19.22 353 15.48 353C9.02 353 5.79 350.28 5.79 344.84C5.79 339.74 9.87 337.19 18.03 337.19C25.85 337.19 31.12 335.32 33.84 331.58C36.56 327.5 37.92 322.06 37.92 315.26C37.92 314.58 37.92 313.39 37.92 311.69C38.26 309.99 38.43 307.78 38.43 305.06V71.48C38.43 64 37.24 58.9 34.86 56.18C32.48 53.12 28.74 51.59 23.64 51.59C20.24 51.59 17.18 52.1 14.46 53.12C12.08 53.8 9.53 54.14 6.81 54.14C2.73 54.14 0.690001 51.76 0.690001 47C0.690001 36.46 31.8 31.19 94.02 31.19C134.14 31.19 164.06 37.31 183.78 49.55C203.84 61.79 213.87 81.85 213.87 109.73C213.87 143.05 194.83 164.81 156.75 175.01ZM80.25 186.74C77.19 186.74 75.15 187.42 74.13 188.78C73.45 189.8 73.11 192.01 73.11 195.41V303.02C73.11 316.96 76.34 327.16 82.8 333.62C89.6 339.74 101.67 342.8 119.01 342.8C141.45 342.8 159.13 336 172.05 322.4C185.31 308.46 191.94 289.25 191.94 264.77C191.94 240.29 185.48 221.25 172.56 207.65C159.98 193.71 141.11 186.74 115.95 186.74H80.25ZM318.018 197.45C339.098 197.45 354.568 196.26 364.428 193.88C374.288 191.16 379.218 184.87 379.218 175.01C379.218 169.57 378.028 164.13 375.648 158.69C373.268 153.25 369.868 148.32 365.448 143.9C361.368 139.48 356.438 135.91 350.658 133.19C344.878 130.47 338.758 129.11 332.298 129.11C324.138 129.11 316.318 131.15 308.838 135.23C301.358 139.31 294.728 144.41 288.948 150.53C283.508 156.65 279.088 163.45 275.688 170.93C272.288 178.41 270.588 185.72 270.588 192.86C270.588 193.88 271.098 194.9 272.118 195.92C273.138 196.94 274.498 197.45 276.198 197.45H318.018ZM397.068 209.69H275.688C271.268 209.69 268.548 211.22 267.528 214.28C266.508 217 265.998 222.61 265.998 231.11C265.998 248.11 267.868 263.24 271.608 276.5C275.688 289.76 281.128 300.98 287.928 310.16C295.068 319.34 303.398 326.48 312.918 331.58C322.778 336.34 333.488 338.72 345.048 338.72C355.588 338.72 364.428 337.02 371.568 333.62C379.048 330.22 385.168 326.48 389.928 322.4C394.688 318.32 398.428 314.58 401.148 311.18C403.868 307.78 405.738 306.08 406.758 306.08C409.138 306.08 410.328 307.44 410.328 310.16C410.328 313.9 408.458 318.83 404.718 324.95C400.978 330.73 395.538 336.51 388.398 342.29C381.598 347.73 373.098 352.49 362.898 356.57C353.038 360.65 341.988 362.69 329.748 362.69C315.808 362.69 302.888 359.8 290.988 354.02C279.428 348.24 269.398 340.08 260.898 329.54C252.398 319 245.768 306.25 241.008 291.29C236.588 276.33 234.378 259.67 234.378 241.31C234.378 222.61 237.098 205.78 242.538 190.82C247.978 175.52 255.288 162.6 264.468 152.06C273.648 141.52 284.358 133.53 296.598 128.09C308.838 122.31 321.758 119.42 335.358 119.42C347.258 119.42 357.968 121.63 367.488 126.05C377.008 130.47 384.998 136.42 391.458 143.9C398.258 151.04 403.358 159.54 406.758 169.4C410.498 178.92 412.368 188.78 412.368 198.98C412.368 202.72 411.178 205.44 408.798 207.14C406.758 208.84 402.848 209.69 397.068 209.69ZM469.165 131.66V155.63C469.165 159.37 469.845 161.24 471.205 161.24C472.565 161.24 474.435 158.86 476.815 154.1C479.195 149 483.615 143.56 490.075 137.78C496.875 131.66 503.505 127.07 509.965 124.01C516.425 120.95 523.565 119.42 531.385 119.42C545.325 119.42 556.715 123.33 565.555 131.15C574.395 138.63 581.535 150.36 586.975 166.34H589.015C598.875 150.36 608.735 138.63 618.595 131.15C628.455 123.33 639.335 119.42 651.235 119.42C668.915 119.42 683.195 126.39 694.075 140.33C704.955 154.27 710.395 173.14 710.395 196.94C710.395 198.64 710.395 202.21 710.395 207.65C710.735 212.75 710.905 219.72 710.905 228.56V321.89C710.905 329.03 712.095 333.96 714.475 336.68C717.195 339.06 720.085 340.76 723.145 341.78C726.205 342.46 728.925 343.14 731.305 343.82C734.025 344.16 735.385 345.69 735.385 348.41C735.385 350.79 734.875 352.32 733.855 353C732.835 353.34 730.965 353.51 728.245 353.51C726.205 353.51 722.635 353.17 717.535 352.49C712.435 351.81 705.635 351.47 697.135 351.47C689.655 351.47 683.195 351.81 677.755 352.49C672.655 353.17 668.405 353.51 665.005 353.51C662.285 353.51 660.245 353.34 658.885 353C657.865 352.32 657.355 350.79 657.355 348.41C657.355 345.69 658.545 344.16 660.925 343.82C663.645 343.14 666.535 342.29 669.595 341.27C672.995 340.25 675.885 338.55 678.265 336.17C680.985 333.45 682.345 328.69 682.345 321.89V219.38C682.345 192.86 679.115 172.97 672.655 159.71C666.535 146.45 655.315 139.82 638.995 139.82C625.735 139.82 614.515 145.77 605.335 157.67C596.495 169.57 591.905 187.93 591.565 212.75L590.545 321.89C590.545 328.69 591.735 333.45 594.115 336.17C596.835 338.55 599.725 340.25 602.785 341.27C606.185 342.29 609.075 343.14 611.455 343.82C614.175 344.16 615.535 345.69 615.535 348.41C615.535 350.79 615.025 352.32 614.005 353C612.985 353.34 611.115 353.51 608.395 353.51C606.015 353.51 602.275 353.17 597.175 352.49C592.075 351.81 585.445 351.47 577.285 351.47C568.105 351.47 560.795 351.81 555.355 352.49C549.915 353.17 546.345 353.51 544.645 353.51C541.925 353.51 540.055 353.34 539.035 353C538.015 352.32 537.505 350.79 537.505 348.41C537.505 345.69 538.695 344.16 541.075 343.82C543.795 343.14 546.685 342.29 549.745 341.27C552.805 340.25 555.525 338.55 557.905 336.17C560.625 333.45 561.985 328.69 561.985 321.89V219.38C561.985 192.86 558.755 172.97 552.295 159.71C545.835 146.45 534.615 139.82 518.635 139.82C505.375 139.82 493.985 146.11 484.465 158.69C475.285 170.93 470.695 188.95 470.695 212.75V321.89C470.695 329.03 472.055 333.96 474.775 336.68C477.495 339.06 480.555 340.76 483.955 341.78C487.355 342.46 490.415 343.14 493.135 343.82C495.855 344.16 497.215 345.69 497.215 348.41C497.215 350.79 496.535 352.32 495.175 353C494.155 353.34 492.285 353.51 489.565 353.51C488.205 353.51 484.805 353.17 479.365 352.49C473.925 351.81 466.275 351.47 456.415 351.47C449.275 351.47 442.815 351.81 437.035 352.49C431.595 353.17 427.005 353.51 423.265 353.51C420.545 353.51 418.505 353.34 417.145 353C416.125 352.32 415.615 350.79 415.615 348.41C415.615 345.69 416.975 344.16 419.695 343.82C422.415 343.14 425.475 342.29 428.875 341.27C432.275 340.25 435.335 338.55 438.055 336.17C440.775 333.45 442.135 328.69 442.135 321.89V176.54C442.135 170.42 440.945 166.34 438.565 164.3C436.525 162.26 434.145 161.07 431.425 160.73C429.045 160.39 426.835 160.22 424.795 160.22C422.755 160.22 421.735 159.03 421.735 156.65C421.735 153.59 423.435 151.55 426.835 150.53C430.575 149.17 434.315 147.13 438.055 144.41C446.895 138.29 453.355 132.68 457.435 127.58C461.515 122.14 464.405 119.42 466.105 119.42C467.805 119.42 468.655 120.61 468.655 122.99C468.995 125.03 469.165 127.92 469.165 131.66ZM868.543 177.05L904.243 298.94C905.263 301.32 906.283 302.51 907.303 302.51C908.323 302.51 909.343 300.98 910.363 297.92L951.673 179.6C953.373 174.84 954.733 170.25 955.753 165.83C956.773 161.41 957.283 156.82 957.283 152.06C957.283 147.64 955.753 144.75 952.693 143.39C949.973 141.69 946.913 140.67 943.513 140.33C940.453 139.65 937.393 138.97 934.333 138.29C931.613 137.61 930.253 135.91 930.253 133.19C930.253 131.15 930.593 129.96 931.273 129.62C932.293 128.94 933.653 128.6 935.353 128.6C936.373 128.6 939.433 128.94 944.533 129.62C949.973 129.96 958.133 130.13 969.013 130.13C978.193 130.13 984.993 129.96 989.413 129.62C993.833 128.94 996.383 128.6 997.063 128.6C999.103 128.6 1000.46 128.77 1001.14 129.11C1001.82 129.45 1002.16 130.81 1002.16 133.19C1002.16 136.59 1000.97 138.46 998.593 138.8C996.553 138.8 993.153 139.82 988.393 141.86C983.633 143.9 979.723 147.3 976.663 152.06C973.603 156.82 970.203 164.64 966.463 175.52L903.733 347.9C902.713 350.96 901.693 353.34 900.673 355.04C899.993 356.74 898.803 357.59 897.103 357.59C895.063 357.59 893.703 356.91 893.023 355.55C892.343 354.19 891.663 352.15 890.983 349.43L829.783 155.63C827.743 149.51 825.363 145.6 822.643 143.9C819.923 141.86 817.203 140.5 814.483 139.82C812.103 139.14 810.063 138.63 808.363 138.29C806.323 137.95 805.303 136.25 805.303 133.19C805.303 131.15 805.473 129.96 805.813 129.62C806.153 128.94 807.173 128.6 808.873 128.6H810.913C812.613 128.6 816.353 128.94 822.133 129.62C828.253 129.96 836.073 130.13 845.593 130.13C856.473 130.13 864.803 129.96 870.583 129.62C876.363 128.94 879.933 128.6 881.293 128.6C882.993 128.6 884.353 128.94 885.373 129.62C886.393 129.96 886.903 131.15 886.903 133.19C886.903 135.57 885.543 137.1 882.823 137.78C880.443 138.46 877.723 139.31 874.663 140.33C871.943 141.01 869.223 142.03 866.503 143.39C864.123 144.41 862.933 146.62 862.933 150.02C862.933 153.76 863.443 157.84 864.463 162.26C865.483 166.34 866.843 171.27 868.543 177.05ZM1023.76 31.7C1028.52 31.7 1032.77 34.25 1036.51 39.35C1040.25 44.45 1042.12 50.4 1042.12 57.2C1042.12 63.66 1040.25 69.44 1036.51 74.54C1033.11 79.3 1028.86 81.68 1023.76 81.68C1019 81.68 1014.75 79.3 1011.01 74.54C1007.61 69.78 1005.91 64 1005.91 57.2C1005.91 50.4 1007.61 44.45 1011.01 39.35C1014.75 34.25 1019 31.7 1023.76 31.7ZM1039.57 131.66V321.89C1039.57 329.03 1040.93 333.96 1043.65 336.68C1046.71 339.06 1049.94 340.76 1053.34 341.78C1057.08 342.46 1060.31 343.14 1063.03 343.82C1066.09 344.16 1067.62 345.69 1067.62 348.41C1067.62 351.13 1066.94 352.66 1065.58 353C1064.56 353.34 1062.69 353.51 1059.97 353.51C1057.93 353.51 1053.85 353.17 1047.73 352.49C1041.95 351.81 1034.13 351.47 1024.27 351.47C1016.45 351.47 1009.48 351.81 1003.36 352.49C997.582 353.17 992.822 353.51 989.082 353.51C986.362 353.51 984.152 353.34 982.452 353C981.092 352.32 980.412 350.79 980.412 348.41C980.412 345.69 981.942 344.16 985.002 343.82C988.402 343.14 991.972 342.46 995.712 341.78C999.452 340.76 1002.85 338.89 1005.91 336.17C1009.31 333.45 1011.01 328.69 1011.01 321.89V181.64C1011.01 169.06 1005.74 162.77 995.202 162.77C992.482 162.77 990.272 162.6 988.572 162.26C986.872 161.58 986.022 160.05 986.022 157.67C986.022 154.27 987.892 151.89 991.632 150.53C995.712 149.17 999.962 146.62 1004.38 142.88C1013.9 137.44 1021.04 132.51 1025.8 128.09C1030.56 123.67 1033.96 121.46 1036 121.46C1037.7 121.46 1038.72 122.31 1039.06 124.01C1039.4 125.37 1039.57 127.92 1039.57 131.66ZM1118.7 131.66V155.63C1118.7 159.37 1119.38 161.24 1120.74 161.24C1122.1 161.24 1124.14 158.86 1126.86 154.1C1129.92 149 1134.68 143.56 1141.14 137.78C1147.94 131.66 1154.74 127.07 1161.54 124.01C1168.68 120.95 1176.33 119.42 1184.49 119.42C1203.53 119.42 1218.83 126.39 1230.39 140.33C1241.95 154.27 1247.73 173.14 1247.73 196.94V321.89C1247.73 329.03 1249.09 333.96 1251.81 336.68C1254.53 339.06 1257.59 340.76 1260.99 341.78C1264.39 342.46 1267.45 343.14 1270.17 343.82C1272.89 344.16 1274.25 345.69 1274.25 348.41C1274.25 350.79 1273.57 352.32 1272.21 353C1271.19 353.34 1269.32 353.51 1266.6 353.51C1264.22 353.51 1260.31 353.17 1254.87 352.49C1249.43 351.81 1242.29 351.47 1233.45 351.47C1226.31 351.47 1220.02 351.81 1214.58 352.49C1209.48 353.17 1205.06 353.51 1201.32 353.51C1198.26 353.51 1196.05 353.34 1194.69 353C1193.33 352.66 1192.65 351.13 1192.65 348.41C1192.65 345.69 1194.01 344.16 1196.73 343.82C1199.45 343.14 1202.51 342.29 1205.91 341.27C1209.31 340.25 1212.37 338.55 1215.09 336.17C1217.81 333.45 1219.17 328.69 1219.17 321.89V219.38C1219.17 192.86 1215.77 172.97 1208.97 159.71C1202.17 146.45 1189.93 139.82 1172.25 139.82C1153.89 139.82 1140.63 147.3 1132.47 162.26C1124.31 176.88 1120.23 198.98 1120.23 228.56V321.89C1120.23 329.03 1121.59 333.96 1124.31 336.68C1127.03 339.06 1130.09 340.76 1133.49 341.78C1136.89 342.46 1139.95 343.14 1142.67 343.82C1145.39 344.16 1146.75 345.69 1146.75 348.41C1146.75 350.79 1146.07 352.32 1144.71 353C1143.69 353.34 1141.82 353.51 1139.1 353.51C1136.72 353.51 1132.81 353.17 1127.37 352.49C1121.93 351.81 1114.79 351.47 1105.95 351.47C1099.49 351.47 1093.54 351.81 1088.1 352.49C1082.66 353.17 1077.56 353.51 1072.8 353.51C1070.08 353.51 1068.04 353.34 1066.68 353C1065.66 352.32 1065.15 350.79 1065.15 348.41C1065.15 345.69 1066.51 344.16 1069.23 343.82C1071.95 343.14 1075.01 342.29 1078.41 341.27C1081.81 340.25 1084.87 338.55 1087.59 336.17C1090.31 333.45 1091.67 328.69 1091.67 321.89V173.99C1091.67 168.89 1090.48 165.66 1088.1 164.3C1086.06 162.6 1083.68 161.58 1080.96 161.24C1078.58 160.9 1076.37 160.56 1074.33 160.22C1072.29 159.88 1071.27 158.69 1071.27 156.65C1071.27 153.59 1072.97 151.55 1076.37 150.53C1080.11 149.17 1083.85 147.13 1087.59 144.41C1096.43 138.29 1102.89 132.68 1106.97 127.58C1111.05 122.14 1113.94 119.42 1115.64 119.42C1117.34 119.42 1118.19 120.61 1118.19 122.99C1118.53 125.03 1118.7 127.92 1118.7 131.66ZM1456.93 11.3V305.06C1456.93 315.26 1457.27 322.74 1457.95 327.5C1458.97 332.26 1461.52 334.64 1465.6 334.64C1466.96 334.64 1468.49 334.13 1470.19 333.11C1471.89 331.75 1473.42 330.39 1474.78 329.03C1476.48 327.33 1478.01 325.97 1479.37 324.95C1481.07 323.59 1482.6 322.91 1483.96 322.91C1484.98 322.91 1485.49 325.29 1485.49 330.05C1485.49 333.79 1484.81 336.34 1483.45 337.7C1482.09 339.06 1479.2 340.59 1474.78 342.29C1463.9 347.05 1455.57 351.13 1449.79 354.53C1444.35 358.27 1440.61 360.14 1438.57 360.14C1435.17 360.14 1432.96 355.72 1431.94 346.88L1429.9 323.42H1426.84C1415.62 336.34 1404.4 346.2 1393.18 353C1382.3 359.46 1370.91 362.69 1359.01 362.69C1347.79 362.69 1337.08 359.97 1326.88 354.53C1317.02 349.09 1308.35 341.27 1300.87 331.07C1293.73 320.53 1287.95 307.95 1283.53 293.33C1279.45 278.37 1277.41 261.71 1277.41 243.35C1277.41 223.97 1279.79 206.63 1284.55 191.33C1289.65 176.03 1296.45 163.11 1304.95 152.57C1313.45 141.69 1323.48 133.53 1335.04 128.09C1346.94 122.31 1359.52 119.42 1372.78 119.42C1381.28 119.42 1388.59 120.27 1394.71 121.97C1400.83 123.33 1405.93 125.03 1410.01 127.07C1414.09 129.11 1417.15 130.98 1419.19 132.68C1421.57 134.04 1423.27 134.72 1424.29 134.72C1427.01 134.72 1428.37 132.85 1428.37 129.11V51.59C1428.37 36.29 1423.1 28.64 1412.56 28.64C1412.22 28.64 1411.71 28.81 1411.03 29.15C1410.35 29.15 1409.16 29.15 1407.46 29.15C1406.78 29.15 1405.93 28.81 1404.91 28.13C1403.89 27.11 1403.38 25.92 1403.38 24.56C1403.38 21.16 1405.42 19.12 1409.5 18.44C1413.58 17.42 1418.17 16.06 1423.27 14.36C1432.11 11.3 1438.91 8.23998 1443.67 5.17998C1448.43 1.77998 1451.66 0.0799839 1453.36 0.0799839C1455.74 0.0799839 1456.93 3.81999 1456.93 11.3ZM1428.37 171.95C1428.37 165.83 1427.01 160.22 1424.29 155.12C1421.57 149.68 1417.83 145.09 1413.07 141.35C1408.65 137.61 1403.38 134.72 1397.26 132.68C1391.14 130.3 1384.51 129.11 1377.37 129.11C1356.97 129.11 1340.31 138.63 1327.39 157.67C1314.47 176.37 1308.01 203.23 1308.01 238.25C1308.01 272.25 1313.96 298.6 1325.86 317.3C1338.1 335.66 1353.57 344.84 1372.27 344.84C1379.41 344.84 1386.21 343.31 1392.67 340.25C1399.47 337.19 1405.42 333.11 1410.52 328.01C1415.96 322.57 1420.21 316.28 1423.27 309.14C1426.67 302 1428.37 294.18 1428.37 285.68V171.95ZM1586.57 119.42C1602.55 119.42 1616.83 122.31 1629.41 128.09C1642.33 133.87 1653.04 142.03 1661.54 152.57C1670.38 163.11 1677.01 175.86 1681.43 190.82C1686.19 205.78 1688.57 222.27 1688.57 240.29C1688.57 258.65 1686.19 275.48 1681.43 290.78C1676.67 305.74 1669.7 318.66 1660.52 329.54C1651.68 340.08 1640.8 348.24 1627.88 354.02C1614.96 359.8 1600.34 362.69 1584.02 362.69C1569.4 362.69 1556.14 359.63 1544.24 353.51C1532.34 347.73 1522.14 339.57 1513.64 329.03C1505.14 318.15 1498.51 305.23 1493.75 290.27C1488.99 275.31 1486.61 258.82 1486.61 240.8C1486.61 222.44 1488.99 205.78 1493.75 190.82C1498.85 175.86 1505.82 163.11 1514.66 152.57C1523.84 142.03 1534.55 133.87 1546.79 128.09C1559.03 122.31 1572.29 119.42 1586.57 119.42ZM1587.59 128.6C1566.17 128.6 1549.17 137.95 1536.59 156.65C1524.35 175.01 1518.23 202.04 1518.23 237.74C1518.23 255.76 1519.93 271.91 1523.33 286.19C1526.73 300.13 1531.49 312.2 1537.61 322.4C1543.73 332.26 1550.87 339.91 1559.03 345.35C1567.53 350.45 1576.71 353 1586.57 353C1608.33 353 1625.33 343.99 1637.57 325.97C1649.81 307.61 1655.93 280.92 1655.93 245.9C1655.93 208.5 1649.64 179.6 1637.06 159.2C1624.82 138.8 1608.33 128.6 1587.59 128.6ZM138.9 689.05V817.06C138.9 838.14 143.49 848.68 152.67 848.68C156.41 848.68 159.81 846.81 162.87 843.07C166.27 839.33 168.99 837.46 171.03 837.46C173.41 837.46 174.6 838.65 174.6 841.03C174.6 843.75 173.07 846.98 170.01 850.72C167.29 854.12 163.89 857.52 159.81 860.92C155.73 864.32 151.31 867.04 146.55 869.08C142.13 871.46 138.22 872.65 134.82 872.65C128.02 872.65 122.75 870.1 119.01 865C115.61 859.56 112.38 850.89 109.32 838.99H107.28C94.36 849.87 82.8 858.54 72.6 865C62.74 871.46 52.37 874.69 41.49 874.69C29.25 874.69 19.73 871.12 12.93 863.98C6.13 856.5 2.73 846.64 2.73 834.4C2.73 824.88 4.94 816.04 9.36 807.88C13.78 799.38 20.41 791.22 29.25 783.4C38.43 775.24 49.65 766.91 62.91 758.41C76.17 749.91 91.47 740.73 108.81 730.87V685.99C108.81 670.35 107.11 659.13 103.71 652.33C100.65 645.53 93.85 642.13 83.31 642.13C74.47 642.13 66.14 645.19 58.32 651.31C50.5 657.43 45.06 664.74 42 673.24C38.26 683.78 34.52 692.79 30.78 700.27C27.04 707.41 20.41 710.98 10.89 710.98C8.51 710.98 6.47 710.3 4.77 708.94C3.07 707.24 2.22 705.03 2.22 702.31C2.22 696.19 4.43 689.05 8.85 680.89C13.27 672.73 19.56 664.91 27.72 657.43C35.88 649.95 45.57 643.66 56.79 638.56C68.01 633.46 80.25 630.91 93.51 630.91C104.05 630.91 112.38 632.27 118.5 634.99C124.62 637.71 129.21 641.62 132.27 646.72C135.33 651.82 137.2 657.94 137.88 665.08C138.56 672.22 138.9 680.21 138.9 689.05ZM109.32 751.27C109.32 747.87 108.3 746.17 106.26 746.17C105.24 746.17 103.54 746.85 101.16 748.21L85.86 756.88C51.18 776.94 33.84 798.19 33.84 820.63C33.84 830.15 36.22 837.8 40.98 843.58C45.74 849.02 52.37 851.74 60.87 851.74C65.97 851.74 71.24 850.55 76.68 848.17C82.46 845.79 87.73 842.39 92.49 837.97C97.59 833.21 101.67 827.6 104.73 821.14C107.79 814.34 109.32 806.69 109.32 798.19V751.27ZM269.093 631.42C285.073 631.42 299.353 634.31 311.933 640.09C324.853 645.87 335.563 654.03 344.063 664.57C352.903 675.11 359.533 687.86 363.953 702.82C368.713 717.78 371.093 734.27 371.093 752.29C371.093 770.65 368.713 787.48 363.953 802.78C359.193 817.74 352.223 830.66 343.043 841.54C334.203 852.08 323.323 860.24 310.403 866.02C297.483 871.8 282.863 874.69 266.543 874.69C251.923 874.69 238.663 871.63 226.763 865.51C214.863 859.73 204.663 851.57 196.163 841.03C187.663 830.15 181.033 817.23 176.273 802.27C171.513 787.31 169.133 770.82 169.133 752.8C169.133 734.44 171.513 717.78 176.273 702.82C181.373 687.86 188.343 675.11 197.183 664.57C206.363 654.03 217.073 645.87 229.313 640.09C241.553 634.31 254.813 631.42 269.093 631.42ZM270.113 640.6C248.693 640.6 231.693 649.95 219.113 668.65C206.873 687.01 200.753 714.04 200.753 749.74C200.753 767.76 202.453 783.91 205.853 798.19C209.253 812.13 214.013 824.2 220.133 834.4C226.253 844.26 233.393 851.91 241.553 857.35C250.053 862.45 259.233 865 269.093 865C290.853 865 307.853 855.99 320.093 837.97C332.333 819.61 338.453 792.92 338.453 757.9C338.453 720.5 332.163 691.6 319.583 671.2C307.343 650.8 290.853 640.6 270.113 640.6ZM528.385 673.24V674.26C528.385 677.66 528.555 681.23 528.895 684.97C529.235 688.37 530.425 691.6 532.465 694.66C534.505 697.72 537.735 700.27 542.155 702.31C546.575 704.01 552.865 704.86 561.025 704.86C568.505 704.86 575.475 703.16 581.935 699.76C588.735 696.36 594.515 691.6 599.275 685.48C604.375 679.02 608.285 671.54 611.005 663.04C614.065 654.2 615.595 644.68 615.595 634.48C615.595 623.26 614.065 612.89 611.005 603.37C607.945 593.85 603.695 585.69 598.255 578.89C593.155 572.09 587.035 566.82 579.895 563.08C573.095 559.34 565.785 557.47 557.965 557.47C544.705 557.47 536.375 559.51 532.975 563.59C529.915 567.67 528.385 574.13 528.385 582.97V673.24ZM528.385 718.63V817.06C528.385 827.26 528.895 834.4 529.915 838.48C530.935 842.56 534.505 845.62 540.625 847.66C543.345 848.68 545.895 849.36 548.275 849.7C550.995 849.7 553.205 849.87 554.905 850.21C556.945 850.55 558.475 851.23 559.495 852.25C560.855 853.27 561.535 855.14 561.535 857.86C561.535 862.62 558.135 865 551.335 865C548.615 865 543.855 864.66 537.055 863.98C530.595 862.96 521.925 862.45 511.045 862.45C500.165 862.45 491.325 862.96 484.525 863.98C478.065 864.66 473.475 865 470.755 865C464.295 865 461.065 862.28 461.065 856.84C461.065 852.08 463.275 849.7 467.695 849.7C474.155 849.7 479.085 849.02 482.485 847.66C486.225 846.3 488.775 844.26 490.135 841.54C491.835 838.82 492.855 835.42 493.195 831.34C493.535 827.26 493.705 822.5 493.705 817.06V583.48C493.705 575.66 493.195 570.22 492.175 567.16C491.495 564.1 488.775 561.72 484.015 560.02C481.295 559 478.745 558.49 476.365 558.49C473.985 558.49 471.775 558.32 469.735 557.98C468.035 557.64 466.505 557.13 465.145 556.45C464.125 555.43 463.615 553.56 463.615 550.84C463.615 546.08 466.675 543.7 472.795 543.7C476.875 543.7 480.445 544.04 483.505 544.72C486.905 545.06 489.795 545.23 492.175 545.23H499.315C512.235 545.23 524.135 545.06 535.015 544.72C546.235 544.04 556.605 543.7 566.125 543.7C592.985 543.7 613.555 551.86 627.835 568.18C642.455 584.16 649.765 606.6 649.765 635.5C649.765 648.08 647.725 659.81 643.645 670.69C639.905 681.23 634.805 690.41 628.345 698.23C621.885 706.05 614.405 712.17 605.905 716.59C597.745 721.01 589.245 723.22 580.405 723.22C574.625 723.22 569.185 722.54 564.085 721.18C558.985 719.48 554.225 717.78 549.805 716.08C545.725 714.38 542.155 712.85 539.095 711.49C536.035 709.79 533.655 708.94 531.955 708.94C529.575 708.94 528.385 712.17 528.385 718.63ZM704.817 523.3V833.89C704.817 841.03 706.177 845.96 708.897 848.68C711.617 851.06 714.677 852.76 718.077 853.78C721.477 854.46 724.537 855.14 727.257 855.82C729.977 856.16 731.337 857.69 731.337 860.41C731.337 862.79 730.657 864.32 729.297 865C728.277 865.34 726.407 865.51 723.687 865.51C720.967 865.51 716.887 865.17 711.447 864.49C706.007 863.81 699.037 863.47 690.537 863.47C683.057 863.47 676.257 863.81 670.137 864.49C664.357 865.17 659.427 865.51 655.347 865.51C652.287 865.51 650.077 865.34 648.717 865C647.357 864.32 646.677 862.79 646.677 860.41C646.677 857.69 648.207 856.16 651.267 855.82C654.327 855.14 657.727 854.29 661.467 853.27C665.207 852.25 668.607 850.55 671.667 848.17C674.727 845.45 676.257 840.69 676.257 833.89V563.59C676.257 548.29 670.987 540.64 660.447 540.64C660.107 540.64 659.427 540.81 658.407 541.15C657.727 541.15 656.537 541.15 654.837 541.15C652.457 541.15 651.267 539.62 651.267 536.56C651.267 532.82 653.307 530.61 657.387 529.93C661.467 529.25 666.227 528.06 671.667 526.36C680.507 523.3 687.137 520.24 691.557 517.18C696.317 513.78 699.547 512.08 701.247 512.08C703.627 512.08 704.817 515.82 704.817 523.3ZM868.14 689.05V817.06C868.14 838.14 872.73 848.68 881.91 848.68C885.65 848.68 889.05 846.81 892.11 843.07C895.51 839.33 898.23 837.46 900.27 837.46C902.65 837.46 903.84 838.65 903.84 841.03C903.84 843.75 902.31 846.98 899.25 850.72C896.53 854.12 893.13 857.52 889.05 860.92C884.97 864.32 880.55 867.04 875.79 869.08C871.37 871.46 867.46 872.65 864.06 872.65C857.26 872.65 851.99 870.1 848.25 865C844.85 859.56 841.62 850.89 838.56 838.99H836.52C823.6 849.87 812.04 858.54 801.84 865C791.98 871.46 781.61 874.69 770.73 874.69C758.49 874.69 748.97 871.12 742.17 863.98C735.37 856.5 731.97 846.64 731.97 834.4C731.97 824.88 734.18 816.04 738.6 807.88C743.02 799.38 749.65 791.22 758.49 783.4C767.67 775.24 778.89 766.91 792.15 758.41C805.41 749.91 820.71 740.73 838.05 730.87V685.99C838.05 670.35 836.35 659.13 832.95 652.33C829.89 645.53 823.09 642.13 812.55 642.13C803.71 642.13 795.38 645.19 787.56 651.31C779.74 657.43 774.3 664.74 771.24 673.24C767.5 683.78 763.76 692.79 760.02 700.27C756.28 707.41 749.65 710.98 740.13 710.98C737.75 710.98 735.71 710.3 734.01 708.94C732.31 707.24 731.46 705.03 731.46 702.31C731.46 696.19 733.67 689.05 738.09 680.89C742.51 672.73 748.8 664.91 756.96 657.43C765.12 649.95 774.81 643.66 786.03 638.56C797.25 633.46 809.49 630.91 822.75 630.91C833.29 630.91 841.62 632.27 847.74 634.99C853.86 637.71 858.45 641.62 861.51 646.72C864.57 651.82 866.44 657.94 867.12 665.08C867.8 672.22 868.14 680.21 868.14 689.05ZM838.56 751.27C838.56 747.87 837.54 746.17 835.5 746.17C834.48 746.17 832.78 746.85 830.4 748.21L815.1 756.88C780.42 776.94 763.08 798.19 763.08 820.63C763.08 830.15 765.46 837.8 770.22 843.58C774.98 849.02 781.61 851.74 790.11 851.74C795.21 851.74 800.48 850.55 805.92 848.17C811.7 845.79 816.97 842.39 821.73 837.97C826.83 833.21 830.91 827.6 833.97 821.14C837.03 814.34 838.56 806.69 838.56 798.19V751.27ZM1042.19 657.94L929.484 848.17C928.464 849.87 927.954 850.89 927.954 851.23C927.954 853.27 929.654 854.29 933.054 854.29H978.954C993.574 854.29 1004.96 853.1 1013.12 850.72C1021.28 848.34 1027.57 843.24 1031.99 835.42C1034.71 830.66 1036.58 826.41 1037.6 822.67C1038.96 818.59 1039.81 815.19 1040.15 812.47C1040.83 809.41 1041.51 807.2 1042.19 805.84C1042.87 804.14 1044.06 803.29 1045.76 803.29C1048.48 803.29 1049.84 805.16 1049.84 808.9C1049.84 811.62 1049.5 816.55 1048.82 823.69C1048.48 830.49 1048.31 839.5 1048.31 850.72C1048.31 852.42 1048.31 853.95 1048.31 855.31C1048.65 856.33 1048.82 857.52 1048.82 858.88C1048.82 861.6 1048.14 863.64 1046.78 865C1045.76 866.02 1043.38 866.53 1039.64 866.53C1035.9 866.53 1031.65 866.19 1026.89 865.51C1022.47 865.17 1017.37 865 1011.59 865H922.854C916.054 865 910.274 865.17 905.514 865.51C901.094 865.85 897.864 866.02 895.824 866.02C891.064 866.02 888.684 864.66 888.684 861.94C888.684 860.24 889.194 858.37 890.214 856.33C891.574 854.29 893.274 851.57 895.314 848.17L1008.53 658.96C1009.21 657.6 1009.55 656.58 1009.55 655.9C1009.55 654.2 1009.04 653.35 1008.02 653.35C1007.34 653.01 1005.81 652.84 1003.43 652.84L972.834 651.82H963.654C953.794 651.82 945.294 652.5 938.154 653.86C931.354 654.88 925.234 657.6 919.794 662.02C916.734 664.4 914.184 667.12 912.144 670.18C910.444 672.9 908.914 675.45 907.554 677.83C906.194 680.21 904.834 682.25 903.474 683.95C902.114 685.65 900.584 686.5 898.884 686.5C896.164 686.5 894.804 684.97 894.804 681.91C894.804 678.85 895.824 674.09 897.864 667.63C900.244 661.17 902.964 652.84 906.024 642.64C908.064 635.16 909.424 629.55 910.104 625.81C910.784 621.73 912.654 619.69 915.714 619.69C919.114 619.69 920.474 621.56 919.794 625.3C919.454 628.7 919.964 631.93 921.324 634.99C922.684 638.39 928.124 640.43 937.644 641.11C947.164 641.79 961.274 642.13 979.974 642.13C997.994 642.13 1011.93 641.79 1021.79 641.11C1031.65 640.43 1037.77 640.09 1040.15 640.09C1041.85 640.09 1043.38 640.6 1044.74 641.62C1046.44 642.3 1047.29 643.49 1047.29 645.19C1047.29 648.25 1045.59 652.5 1042.19 657.94ZM1187.93 689.05V817.06C1187.93 838.14 1192.52 848.68 1201.7 848.68C1205.44 848.68 1208.84 846.81 1211.9 843.07C1215.3 839.33 1218.02 837.46 1220.06 837.46C1222.44 837.46 1223.63 838.65 1223.63 841.03C1223.63 843.75 1222.1 846.98 1219.04 850.72C1216.32 854.12 1212.92 857.52 1208.84 860.92C1204.76 864.32 1200.34 867.04 1195.58 869.08C1191.16 871.46 1187.25 872.65 1183.85 872.65C1177.05 872.65 1171.78 870.1 1168.04 865C1164.64 859.56 1161.41 850.89 1158.35 838.99H1156.31C1143.39 849.87 1131.83 858.54 1121.63 865C1111.77 871.46 1101.4 874.69 1090.52 874.69C1078.28 874.69 1068.76 871.12 1061.96 863.98C1055.16 856.5 1051.76 846.64 1051.76 834.4C1051.76 824.88 1053.97 816.04 1058.39 807.88C1062.81 799.38 1069.44 791.22 1078.28 783.4C1087.46 775.24 1098.68 766.91 1111.94 758.41C1125.2 749.91 1140.5 740.73 1157.84 730.87V685.99C1157.84 670.35 1156.14 659.13 1152.74 652.33C1149.68 645.53 1142.88 642.13 1132.34 642.13C1123.5 642.13 1115.17 645.19 1107.35 651.31C1099.53 657.43 1094.09 664.74 1091.03 673.24C1087.29 683.78 1083.55 692.79 1079.81 700.27C1076.07 707.41 1069.44 710.98 1059.92 710.98C1057.54 710.98 1055.5 710.3 1053.8 708.94C1052.1 707.24 1051.25 705.03 1051.25 702.31C1051.25 696.19 1053.46 689.05 1057.88 680.89C1062.3 672.73 1068.59 664.91 1076.75 657.43C1084.91 649.95 1094.6 643.66 1105.82 638.56C1117.04 633.46 1129.28 630.91 1142.54 630.91C1153.08 630.91 1161.41 632.27 1167.53 634.99C1173.65 637.71 1178.24 641.62 1181.3 646.72C1184.36 651.82 1186.23 657.94 1186.91 665.08C1187.59 672.22 1187.93 680.21 1187.93 689.05ZM1158.35 751.27C1158.35 747.87 1157.33 746.17 1155.29 746.17C1154.27 746.17 1152.57 746.85 1150.19 748.21L1134.89 756.88C1100.21 776.94 1082.87 798.19 1082.87 820.63C1082.87 830.15 1085.25 837.8 1090.01 843.58C1094.77 849.02 1101.4 851.74 1109.9 851.74C1115 851.74 1120.27 850.55 1125.71 848.17C1131.49 845.79 1136.76 842.39 1141.52 837.97C1146.62 833.21 1150.7 827.6 1153.76 821.14C1156.82 814.34 1158.35 806.69 1158.35 798.19V751.27ZM1274.77 637.54L1270.18 687.01C1268.82 698.91 1267.97 708.6 1267.63 716.08C1267.29 723.22 1267.12 728.32 1267.12 731.38V758.92C1267.12 766.06 1266.78 771.5 1266.1 775.24C1265.76 778.64 1264.23 780.34 1261.51 780.34C1258.79 780.34 1257.09 778.47 1256.41 774.73C1256.07 770.65 1255.9 764.53 1255.9 756.37V729.85C1255.9 727.81 1255.73 723.22 1255.39 716.08C1255.05 708.94 1254.2 699.25 1252.84 687.01L1248.25 637.54C1246.55 619.18 1245.36 605.24 1244.68 595.72C1244.34 586.2 1244.17 581.1 1244.17 580.42C1244.17 560.36 1249.95 550.33 1261.51 550.33C1266.95 550.33 1271.2 552.71 1274.26 557.47C1277.66 562.23 1279.36 569.03 1279.36 577.87C1279.36 579.57 1279.02 585.52 1278.34 595.72C1277.66 605.58 1276.47 619.52 1274.77 637.54ZM1261.51 818.59C1266.95 818.59 1271.2 820.97 1274.26 825.73C1277.66 830.15 1279.36 836.44 1279.36 844.6C1279.36 853.1 1277.66 859.56 1274.26 863.98C1270.86 868.4 1266.61 870.61 1261.51 870.61C1256.41 870.61 1252.16 868.4 1248.76 863.98C1245.36 859.22 1243.66 852.93 1243.66 845.11C1243.66 836.61 1245.36 830.15 1248.76 825.73C1252.16 820.97 1256.41 818.59 1261.51 818.59Z" fill="black"/>
</svg>
