<svg width="365" height="192" viewBox="0 0 365 192" fill="none" xmlns="http://www.w3.org/2000/svg">
<path d="M15.71 35.31C15.71 36.7767 15.9667 37.6933 16.48 38.06C17.0667 38.3533 18.2033 38.5 19.89 38.5C25.83 38.5 30.3033 37.3267 33.31 34.98C36.39 32.6333 37.93 29.26 37.93 24.86C37.93 20.24 36.6467 16.6833 34.08 14.19C31.5133 11.6233 27.7733 10.34 22.86 10.34C19.78 10.34 17.8 10.7433 16.92 11.55C16.1133 12.3567 15.71 13.7867 15.71 15.84V35.31ZM33.75 38.61C38.81 39.8567 42.6967 42.1667 45.41 45.54C48.1967 48.9133 49.59 53.02 49.59 57.86C49.59 60.7933 49.1133 63.5067 48.16 66C47.28 68.42 45.9967 70.5467 44.31 72.38C42.6967 74.14 40.68 75.5333 38.26 76.56C35.9133 77.5133 33.31 77.99 30.45 77.99C26.71 77.99 23.2633 77.6967 20.11 77.11C17.03 76.5967 14.17 76.34 11.53 76.34C9.47667 76.34 7.79 76.45 6.47 76.67C5.15 76.89 4.08667 77 3.28 77C1.88667 77 1.19 76.4133 1.19 75.24C1.19 74.14 2.07 73.59 3.83 73.59C5.51667 73.59 6.65333 73.1867 7.24 72.38C7.82667 71.5 8.12 70.3267 8.12 68.86C8.12 68.7133 8.12 68.4567 8.12 68.09C8.19333 67.7233 8.23 67.2467 8.23 66.66V16.28C8.23 14.6667 7.97333 13.5667 7.46 12.98C6.94667 12.32 6.14 11.99 5.04 11.99C4.30667 11.99 3.64667 12.1 3.06 12.32C2.54667 12.4667 1.99667 12.54 1.41 12.54C0.53 12.54 0.0900001 12.0267 0.0900001 11C0.0900001 8.72666 6.8 7.59 20.22 7.59C28.8733 7.59 35.3267 8.91 39.58 11.55C43.9067 14.19 46.07 18.5167 46.07 24.53C46.07 31.7167 41.9633 36.41 33.75 38.61ZM17.25 41.14C16.59 41.14 16.15 41.2867 15.93 41.58C15.7833 41.8 15.71 42.2767 15.71 43.01V66.22C15.71 69.2267 16.4067 71.4267 17.8 72.82C19.2667 74.14 21.87 74.8 25.61 74.8C30.45 74.8 34.2633 73.3333 37.05 70.4C39.91 67.3933 41.34 63.25 41.34 57.97C41.34 52.69 39.9467 48.5833 37.16 45.65C34.4467 42.6433 30.3767 41.14 24.95 41.14H17.25ZM68.5332 43.45C73.0799 43.45 76.4165 43.1933 78.5432 42.68C80.6699 42.0933 81.7332 40.7367 81.7332 38.61C81.7332 37.4367 81.4765 36.2633 80.9632 35.09C80.4499 33.9167 79.7165 32.8533 78.7632 31.9C77.8832 30.9467 76.8199 30.1767 75.5732 29.59C74.3265 29.0033 73.0065 28.71 71.6132 28.71C69.8532 28.71 68.1665 29.15 66.5532 30.03C64.9399 30.91 63.5099 32.01 62.2632 33.33C61.0899 34.65 60.1365 36.1167 59.4032 37.73C58.6699 39.3433 58.3032 40.92 58.3032 42.46C58.3032 42.68 58.4132 42.9 58.6332 43.12C58.8532 43.34 59.1465 43.45 59.5132 43.45H68.5332ZM85.5832 46.09H59.4032C58.4499 46.09 57.8632 46.42 57.6432 47.08C57.4232 47.6667 57.3132 48.8767 57.3132 50.71C57.3132 54.3767 57.7165 57.64 58.5232 60.5C59.4032 63.36 60.5765 65.78 62.0432 67.76C63.5832 69.74 65.3799 71.28 67.4332 72.38C69.5599 73.4067 71.8699 73.92 74.3632 73.92C76.6365 73.92 78.5432 73.5533 80.0832 72.82C81.6965 72.0867 83.0165 71.28 84.0432 70.4C85.0699 69.52 85.8765 68.7133 86.4632 67.98C87.0499 67.2467 87.4532 66.88 87.6732 66.88C88.1865 66.88 88.4432 67.1733 88.4432 67.76C88.4432 68.5667 88.0399 69.63 87.2332 70.95C86.4265 72.1967 85.2532 73.4433 83.7132 74.69C82.2465 75.8633 80.4132 76.89 78.2132 77.77C76.0865 78.65 73.7032 79.09 71.0632 79.09C68.0565 79.09 65.2699 78.4667 62.7032 77.22C60.2099 75.9733 58.0465 74.2133 56.2132 71.94C54.3799 69.6667 52.9499 66.9167 51.9232 63.69C50.9699 60.4633 50.4932 56.87 50.4932 52.91C50.4932 48.8767 51.0799 45.2467 52.2532 42.02C53.4265 38.72 55.0032 35.9333 56.9832 33.66C58.9632 31.3867 61.2732 29.6633 63.9132 28.49C66.5532 27.2433 69.3399 26.62 72.2732 26.62C74.8399 26.62 77.1499 27.0967 79.2032 28.05C81.2565 29.0033 82.9799 30.2867 84.3732 31.9C85.8399 33.44 86.9399 35.2733 87.6732 37.4C88.4799 39.4533 88.8832 41.58 88.8832 43.78C88.8832 44.5867 88.6265 45.1733 88.1132 45.54C87.6732 45.9067 86.8299 46.09 85.5832 46.09ZM101.134 29.26V34.43C101.134 35.2367 101.28 35.64 101.574 35.64C101.867 35.64 102.27 35.1267 102.784 34.1C103.297 33 104.25 31.8267 105.644 30.58C107.11 29.26 108.54 28.27 109.934 27.61C111.327 26.95 112.867 26.62 114.554 26.62C117.56 26.62 120.017 27.4633 121.924 29.15C123.83 30.7633 125.37 33.2933 126.544 36.74H126.984C129.11 33.2933 131.237 30.7633 133.364 29.15C135.49 27.4633 137.837 26.62 140.404 26.62C144.217 26.62 147.297 28.1233 149.644 31.13C151.99 34.1367 153.164 38.2067 153.164 43.34C153.164 43.7067 153.164 44.4767 153.164 45.65C153.237 46.75 153.274 48.2533 153.274 50.16V70.29C153.274 71.83 153.53 72.8933 154.044 73.48C154.63 73.9933 155.254 74.36 155.914 74.58C156.574 74.7267 157.16 74.8733 157.674 75.02C158.26 75.0933 158.554 75.4233 158.554 76.01C158.554 76.5233 158.444 76.8533 158.224 77C158.004 77.0733 157.6 77.11 157.014 77.11C156.574 77.11 155.804 77.0367 154.704 76.89C153.604 76.7433 152.137 76.67 150.304 76.67C148.69 76.67 147.297 76.7433 146.124 76.89C145.024 77.0367 144.107 77.11 143.374 77.11C142.787 77.11 142.347 77.0733 142.054 77C141.834 76.8533 141.724 76.5233 141.724 76.01C141.724 75.4233 141.98 75.0933 142.494 75.02C143.08 74.8733 143.704 74.69 144.364 74.47C145.097 74.25 145.72 73.8833 146.234 73.37C146.82 72.7833 147.114 71.7567 147.114 70.29V48.18C147.114 42.46 146.417 38.17 145.024 35.31C143.704 32.45 141.284 31.02 137.764 31.02C134.904 31.02 132.484 32.3033 130.504 34.87C128.597 37.4367 127.607 41.3967 127.534 46.75L127.314 70.29C127.314 71.7567 127.57 72.7833 128.084 73.37C128.67 73.8833 129.294 74.25 129.954 74.47C130.687 74.69 131.31 74.8733 131.824 75.02C132.41 75.0933 132.704 75.4233 132.704 76.01C132.704 76.5233 132.594 76.8533 132.374 77C132.154 77.0733 131.75 77.11 131.164 77.11C130.65 77.11 129.844 77.0367 128.744 76.89C127.644 76.7433 126.214 76.67 124.454 76.67C122.474 76.67 120.897 76.7433 119.724 76.89C118.55 77.0367 117.78 77.11 117.414 77.11C116.827 77.11 116.424 77.0733 116.204 77C115.984 76.8533 115.874 76.5233 115.874 76.01C115.874 75.4233 116.13 75.0933 116.644 75.02C117.23 74.8733 117.854 74.69 118.514 74.47C119.174 74.25 119.76 73.8833 120.274 73.37C120.86 72.7833 121.154 71.7567 121.154 70.29V48.18C121.154 42.46 120.457 38.17 119.064 35.31C117.67 32.45 115.25 31.02 111.804 31.02C108.944 31.02 106.487 32.3767 104.434 35.09C102.454 37.73 101.464 41.6167 101.464 46.75V70.29C101.464 71.83 101.757 72.8933 102.344 73.48C102.93 73.9933 103.59 74.36 104.324 74.58C105.057 74.7267 105.717 74.8733 106.304 75.02C106.89 75.0933 107.184 75.4233 107.184 76.01C107.184 76.5233 107.037 76.8533 106.744 77C106.524 77.0733 106.12 77.11 105.534 77.11C105.24 77.11 104.507 77.0367 103.334 76.89C102.16 76.7433 100.51 76.67 98.3836 76.67C96.8436 76.67 95.4503 76.7433 94.2036 76.89C93.0303 77.0367 92.0403 77.11 91.2336 77.11C90.6469 77.11 90.2069 77.0733 89.9136 77C89.6936 76.8533 89.5836 76.5233 89.5836 76.01C89.5836 75.4233 89.8769 75.0933 90.4636 75.02C91.0503 74.8733 91.7103 74.69 92.4436 74.47C93.1769 74.25 93.8369 73.8833 94.4236 73.37C95.0103 72.7833 95.3036 71.7567 95.3036 70.29V38.94C95.3036 37.62 95.0469 36.74 94.5336 36.3C94.0936 35.86 93.5803 35.6033 92.9936 35.53C92.4803 35.4567 92.0036 35.42 91.5636 35.42C91.1236 35.42 90.9036 35.1633 90.9036 34.65C90.9036 33.99 91.2703 33.55 92.0036 33.33C92.8103 33.0367 93.6169 32.5967 94.4236 32.01C96.3303 30.69 97.7236 29.48 98.6036 28.38C99.4836 27.2067 100.107 26.62 100.474 26.62C100.84 26.62 101.024 26.8767 101.024 27.39C101.097 27.83 101.134 28.4533 101.134 29.26ZM187.274 39.05L194.974 65.34C195.194 65.8533 195.414 66.11 195.634 66.11C195.854 66.11 196.074 65.78 196.294 65.12L205.204 39.6C205.571 38.5733 205.864 37.5833 206.084 36.63C206.304 35.6767 206.414 34.6867 206.414 33.66C206.414 32.7067 206.084 32.0833 205.424 31.79C204.837 31.4233 204.177 31.2033 203.444 31.13C202.784 30.9833 202.124 30.8367 201.464 30.69C200.877 30.5433 200.584 30.1767 200.584 29.59C200.584 29.15 200.657 28.8933 200.804 28.82C201.024 28.6733 201.317 28.6 201.684 28.6C201.904 28.6 202.564 28.6733 203.664 28.82C204.837 28.8933 206.597 28.93 208.944 28.93C210.924 28.93 212.391 28.8933 213.344 28.82C214.297 28.6733 214.847 28.6 214.994 28.6C215.434 28.6 215.727 28.6367 215.874 28.71C216.021 28.7833 216.094 29.0767 216.094 29.59C216.094 30.3233 215.837 30.7267 215.324 30.8C214.884 30.8 214.151 31.02 213.124 31.46C212.097 31.9 211.254 32.6333 210.594 33.66C209.934 34.6867 209.201 36.3733 208.394 38.72L194.864 75.9C194.644 76.56 194.424 77.0733 194.204 77.44C194.057 77.8067 193.801 77.99 193.434 77.99C192.994 77.99 192.701 77.8433 192.554 77.55C192.407 77.2567 192.261 76.8167 192.114 76.23L178.914 34.43C178.474 33.11 177.961 32.2667 177.374 31.9C176.787 31.46 176.201 31.1667 175.614 31.02C175.101 30.8733 174.661 30.7633 174.294 30.69C173.854 30.6167 173.634 30.25 173.634 29.59C173.634 29.15 173.671 28.8933 173.744 28.82C173.817 28.6733 174.037 28.6 174.404 28.6H174.844C175.211 28.6 176.017 28.6733 177.264 28.82C178.584 28.8933 180.271 28.93 182.324 28.93C184.671 28.93 186.467 28.8933 187.714 28.82C188.961 28.6733 189.731 28.6 190.024 28.6C190.391 28.6 190.684 28.6733 190.904 28.82C191.124 28.8933 191.234 29.15 191.234 29.59C191.234 30.1033 190.941 30.4333 190.354 30.58C189.841 30.7267 189.254 30.91 188.594 31.13C188.007 31.2767 187.421 31.4967 186.834 31.79C186.321 32.01 186.064 32.4867 186.064 33.22C186.064 34.0267 186.174 34.9067 186.394 35.86C186.614 36.74 186.907 37.8033 187.274 39.05ZM220.753 7.69999C221.779 7.69999 222.696 8.25 223.503 9.35C224.309 10.45 224.713 11.7333 224.713 13.2C224.713 14.5933 224.309 15.84 223.503 16.94C222.769 17.9667 221.853 18.48 220.753 18.48C219.726 18.48 218.809 17.9667 218.003 16.94C217.269 15.9133 216.903 14.6667 216.903 13.2C216.903 11.7333 217.269 10.45 218.003 9.35C218.809 8.25 219.726 7.69999 220.753 7.69999ZM224.163 29.26V70.29C224.163 71.83 224.456 72.8933 225.043 73.48C225.703 73.9933 226.399 74.36 227.133 74.58C227.939 74.7267 228.636 74.8733 229.223 75.02C229.883 75.0933 230.213 75.4233 230.213 76.01C230.213 76.5967 230.066 76.9267 229.773 77C229.553 77.0733 229.149 77.11 228.563 77.11C228.123 77.11 227.243 77.0367 225.923 76.89C224.676 76.7433 222.989 76.67 220.863 76.67C219.176 76.67 217.673 76.7433 216.353 76.89C215.106 77.0367 214.079 77.11 213.273 77.11C212.686 77.11 212.209 77.0733 211.843 77C211.549 76.8533 211.403 76.5233 211.403 76.01C211.403 75.4233 211.733 75.0933 212.393 75.02C213.126 74.8733 213.896 74.7267 214.703 74.58C215.509 74.36 216.243 73.9567 216.903 73.37C217.636 72.7833 218.003 71.7567 218.003 70.29V40.04C218.003 37.3267 216.866 35.97 214.593 35.97C214.006 35.97 213.529 35.9333 213.163 35.86C212.796 35.7133 212.613 35.3833 212.613 34.87C212.613 34.1367 213.016 33.6233 213.823 33.33C214.703 33.0367 215.619 32.4867 216.573 31.68C218.626 30.5067 220.166 29.4433 221.193 28.49C222.219 27.5367 222.953 27.06 223.393 27.06C223.759 27.06 223.979 27.2433 224.053 27.61C224.126 27.9033 224.163 28.4533 224.163 29.26ZM241.229 29.26V34.43C241.229 35.2367 241.376 35.64 241.669 35.64C241.962 35.64 242.402 35.1267 242.989 34.1C243.649 33 244.676 31.8267 246.069 30.58C247.536 29.26 249.002 28.27 250.469 27.61C252.009 26.95 253.659 26.62 255.419 26.62C259.526 26.62 262.826 28.1233 265.319 31.13C267.812 34.1367 269.059 38.2067 269.059 43.34V70.29C269.059 71.83 269.352 72.8933 269.939 73.48C270.526 73.9933 271.186 74.36 271.919 74.58C272.652 74.7267 273.312 74.8733 273.899 75.02C274.486 75.0933 274.779 75.4233 274.779 76.01C274.779 76.5233 274.632 76.8533 274.339 77C274.119 77.0733 273.716 77.11 273.129 77.11C272.616 77.11 271.772 77.0367 270.599 76.89C269.426 76.7433 267.886 76.67 265.979 76.67C264.439 76.67 263.082 76.7433 261.909 76.89C260.809 77.0367 259.856 77.11 259.049 77.11C258.389 77.11 257.912 77.0733 257.619 77C257.326 76.9267 257.179 76.5967 257.179 76.01C257.179 75.4233 257.472 75.0933 258.059 75.02C258.646 74.8733 259.306 74.69 260.039 74.47C260.772 74.25 261.432 73.8833 262.019 73.37C262.606 72.7833 262.899 71.7567 262.899 70.29V48.18C262.899 42.46 262.166 38.17 260.699 35.31C259.232 32.45 256.592 31.02 252.779 31.02C248.819 31.02 245.959 32.6333 244.199 35.86C242.439 39.0133 241.559 43.78 241.559 50.16V70.29C241.559 71.83 241.852 72.8933 242.439 73.48C243.026 73.9933 243.686 74.36 244.419 74.58C245.152 74.7267 245.812 74.8733 246.399 75.02C246.986 75.0933 247.279 75.4233 247.279 76.01C247.279 76.5233 247.132 76.8533 246.839 77C246.619 77.0733 246.216 77.11 245.629 77.11C245.116 77.11 244.272 77.0367 243.099 76.89C241.926 76.7433 240.386 76.67 238.479 76.67C237.086 76.67 235.802 76.7433 234.629 76.89C233.456 77.0367 232.356 77.11 231.329 77.11C230.742 77.11 230.302 77.0733 230.009 77C229.789 76.8533 229.679 76.5233 229.679 76.01C229.679 75.4233 229.972 75.0933 230.559 75.02C231.146 74.8733 231.806 74.69 232.539 74.47C233.272 74.25 233.932 73.8833 234.519 73.37C235.106 72.7833 235.399 71.7567 235.399 70.29V38.39C235.399 37.29 235.142 36.5933 234.629 36.3C234.189 35.9333 233.676 35.7133 233.089 35.64C232.576 35.5667 232.099 35.4933 231.659 35.42C231.219 35.3467 230.999 35.09 230.999 34.65C230.999 33.99 231.366 33.55 232.099 33.33C232.906 33.0367 233.712 32.5967 234.519 32.01C236.426 30.69 237.819 29.48 238.699 28.38C239.579 27.2067 240.202 26.62 240.569 26.62C240.936 26.62 241.119 26.8767 241.119 27.39C241.192 27.83 241.229 28.4533 241.229 29.26ZM314.18 3.3V66.66C314.18 68.86 314.254 70.4733 314.4 71.5C314.62 72.5267 315.17 73.04 316.05 73.04C316.344 73.04 316.674 72.93 317.04 72.71C317.407 72.4167 317.737 72.1233 318.03 71.83C318.397 71.4633 318.727 71.17 319.02 70.95C319.387 70.6567 319.717 70.51 320.01 70.51C320.23 70.51 320.34 71.0233 320.34 72.05C320.34 72.8567 320.194 73.4067 319.9 73.7C319.607 73.9933 318.984 74.3233 318.03 74.69C315.684 75.7167 313.887 76.5967 312.64 77.33C311.467 78.1367 310.66 78.54 310.22 78.54C309.487 78.54 309.01 77.5867 308.79 75.68L308.35 70.62H307.69C305.27 73.4067 302.85 75.5333 300.43 77C298.084 78.3933 295.627 79.09 293.06 79.09C290.64 79.09 288.33 78.5033 286.13 77.33C284.004 76.1567 282.134 74.47 280.52 72.27C278.98 69.9967 277.734 67.2833 276.78 64.13C275.9 60.9033 275.46 57.31 275.46 53.35C275.46 49.17 275.974 45.43 277 42.13C278.1 38.83 279.567 36.0433 281.4 33.77C283.234 31.4233 285.397 29.6633 287.89 28.49C290.457 27.2433 293.17 26.62 296.03 26.62C297.864 26.62 299.44 26.8033 300.76 27.17C302.08 27.4633 303.18 27.83 304.06 28.27C304.94 28.71 305.6 29.1133 306.04 29.48C306.554 29.7733 306.92 29.92 307.14 29.92C307.727 29.92 308.02 29.5167 308.02 28.71V11.99C308.02 8.69 306.884 7.04 304.61 7.04C304.537 7.04 304.427 7.07666 304.28 7.14999C304.134 7.14999 303.877 7.14999 303.51 7.14999C303.364 7.14999 303.18 7.07666 302.96 6.93C302.74 6.71 302.63 6.45333 302.63 6.15999C302.63 5.42666 303.07 4.98666 303.95 4.84C304.83 4.62 305.82 4.32666 306.92 3.96C308.827 3.3 310.294 2.64 311.32 1.98C312.347 1.24666 313.044 0.879997 313.41 0.879997C313.924 0.879997 314.18 1.68666 314.18 3.3ZM308.02 37.95C308.02 36.63 307.727 35.42 307.14 34.32C306.554 33.1467 305.747 32.1567 304.72 31.35C303.767 30.5433 302.63 29.92 301.31 29.48C299.99 28.9667 298.56 28.71 297.02 28.71C292.62 28.71 289.027 30.7633 286.24 34.87C283.454 38.9033 282.06 44.6967 282.06 52.25C282.06 59.5833 283.344 65.2667 285.91 69.3C288.55 73.26 291.887 75.24 295.92 75.24C297.46 75.24 298.927 74.91 300.32 74.25C301.787 73.59 303.07 72.71 304.17 71.61C305.344 70.4367 306.26 69.08 306.92 67.54C307.654 66 308.02 64.3133 308.02 62.48V37.95ZM342.142 26.62C345.589 26.62 348.669 27.2433 351.382 28.49C354.169 29.7367 356.479 31.4967 358.312 33.77C360.219 36.0433 361.649 38.7933 362.602 42.02C363.629 45.2467 364.142 48.8033 364.142 52.69C364.142 56.65 363.629 60.28 362.602 63.58C361.575 66.8067 360.072 69.5933 358.092 71.94C356.185 74.2133 353.839 75.9733 351.052 77.22C348.265 78.4667 345.112 79.09 341.592 79.09C338.439 79.09 335.579 78.43 333.012 77.11C330.445 75.8633 328.245 74.1033 326.412 71.83C324.579 69.4833 323.149 66.6967 322.122 63.47C321.095 60.2433 320.582 56.6867 320.582 52.8C320.582 48.84 321.095 45.2467 322.122 42.02C323.222 38.7933 324.725 36.0433 326.632 33.77C328.612 31.4967 330.922 29.7367 333.562 28.49C336.202 27.2433 339.062 26.62 342.142 26.62ZM342.362 28.6C337.742 28.6 334.075 30.6167 331.362 34.65C328.722 38.61 327.402 44.44 327.402 52.14C327.402 56.0267 327.769 59.51 328.502 62.59C329.235 65.5967 330.262 68.2 331.582 70.4C332.902 72.5267 334.442 74.1767 336.202 75.35C338.035 76.45 340.015 77 342.142 77C346.835 77 350.502 75.0567 353.142 71.17C355.782 67.21 357.102 61.4533 357.102 53.9C357.102 45.8333 355.745 39.6 353.032 35.2C350.392 30.8 346.835 28.6 342.362 28.6ZM29.9 151.05V178.66C29.9 183.207 30.89 185.48 32.87 185.48C33.6767 185.48 34.41 185.077 35.07 184.27C35.8033 183.463 36.39 183.06 36.83 183.06C37.3433 183.06 37.6 183.317 37.6 183.83C37.6 184.417 37.27 185.113 36.61 185.92C36.0233 186.653 35.29 187.387 34.41 188.12C33.53 188.853 32.5767 189.44 31.55 189.88C30.5967 190.393 29.7533 190.65 29.02 190.65C27.5533 190.65 26.4167 190.1 25.61 189C24.8767 187.827 24.18 185.957 23.52 183.39H23.08C20.2933 185.737 17.8 187.607 15.6 189C13.4733 190.393 11.2367 191.09 8.89 191.09C6.25 191.09 4.19667 190.32 2.73 188.78C1.26333 187.167 0.53 185.04 0.53 182.4C0.53 180.347 1.00667 178.44 1.96 176.68C2.91333 174.847 4.34333 173.087 6.25 171.4C8.23 169.64 10.65 167.843 13.51 166.01C16.37 164.177 19.67 162.197 23.41 160.07V150.39C23.41 147.017 23.0433 144.597 22.31 143.13C21.65 141.663 20.1833 140.93 17.91 140.93C16.0033 140.93 14.2067 141.59 12.52 142.91C10.8333 144.23 9.66 145.807 9 147.64C8.19333 149.913 7.38667 151.857 6.58 153.47C5.77333 155.01 4.34333 155.78 2.29 155.78C1.77667 155.78 1.33667 155.633 0.97 155.34C0.603333 154.973 0.42 154.497 0.42 153.91C0.42 152.59 0.896667 151.05 1.85 149.29C2.80333 147.53 4.16 145.843 5.92 144.23C7.68 142.617 9.77 141.26 12.19 140.16C14.61 139.06 17.25 138.51 20.11 138.51C22.3833 138.51 24.18 138.803 25.5 139.39C26.82 139.977 27.81 140.82 28.47 141.92C29.13 143.02 29.5333 144.34 29.68 145.88C29.8267 147.42 29.9 149.143 29.9 151.05ZM23.52 164.47C23.52 163.737 23.3 163.37 22.86 163.37C22.64 163.37 22.2733 163.517 21.76 163.81L18.46 165.68C10.98 170.007 7.24 174.59 7.24 179.43C7.24 181.483 7.75333 183.133 8.78 184.38C9.80667 185.553 11.2367 186.14 13.07 186.14C14.17 186.14 15.3067 185.883 16.48 185.37C17.7267 184.857 18.8633 184.123 19.89 183.17C20.99 182.143 21.87 180.933 22.53 179.54C23.19 178.073 23.52 176.423 23.52 174.59V164.47ZM57.9809 138.62C61.4276 138.62 64.5076 139.243 67.2209 140.49C70.0076 141.737 72.3176 143.497 74.1509 145.77C76.0576 148.043 77.4876 150.793 78.4409 154.02C79.4676 157.247 79.9809 160.803 79.9809 164.69C79.9809 168.65 79.4676 172.28 78.4409 175.58C77.4143 178.807 75.9109 181.593 73.9309 183.94C72.0243 186.213 69.6776 187.973 66.8909 189.22C64.1043 190.467 60.9509 191.09 57.4309 191.09C54.2776 191.09 51.4176 190.43 48.8509 189.11C46.2843 187.863 44.0843 186.103 42.2509 183.83C40.4176 181.483 38.9876 178.697 37.9609 175.47C36.9343 172.243 36.4209 168.687 36.4209 164.8C36.4209 160.84 36.9343 157.247 37.9609 154.02C39.0609 150.793 40.5643 148.043 42.4709 145.77C44.4509 143.497 46.7609 141.737 49.4009 140.49C52.0409 139.243 54.9009 138.62 57.9809 138.62ZM58.2009 140.6C53.5809 140.6 49.9143 142.617 47.2009 146.65C44.5609 150.61 43.2409 156.44 43.2409 164.14C43.2409 168.027 43.6076 171.51 44.3409 174.59C45.0743 177.597 46.1009 180.2 47.4209 182.4C48.7409 184.527 50.2809 186.177 52.0409 187.35C53.8743 188.45 55.8543 189 57.9809 189C62.6743 189 66.3409 187.057 68.9809 183.17C71.6209 179.21 72.9409 173.453 72.9409 165.9C72.9409 157.833 71.5843 151.6 68.8709 147.2C66.2309 142.8 62.6743 140.6 58.2009 140.6ZM113.906 147.64V147.86C113.906 148.593 113.943 149.363 114.016 150.17C114.09 150.903 114.346 151.6 114.786 152.26C115.226 152.92 115.923 153.47 116.876 153.91C117.83 154.277 119.186 154.46 120.946 154.46C122.56 154.46 124.063 154.093 125.456 153.36C126.923 152.627 128.17 151.6 129.196 150.28C130.296 148.887 131.14 147.273 131.726 145.44C132.386 143.533 132.716 141.48 132.716 139.28C132.716 136.86 132.386 134.623 131.726 132.57C131.066 130.517 130.15 128.757 128.976 127.29C127.876 125.823 126.556 124.687 125.016 123.88C123.55 123.073 121.973 122.67 120.286 122.67C117.426 122.67 115.63 123.11 114.896 123.99C114.236 124.87 113.906 126.263 113.906 128.17V147.64ZM113.906 157.43V178.66C113.906 180.86 114.016 182.4 114.236 183.28C114.456 184.16 115.226 184.82 116.546 185.26C117.133 185.48 117.683 185.627 118.196 185.7C118.783 185.7 119.26 185.737 119.626 185.81C120.066 185.883 120.396 186.03 120.616 186.25C120.91 186.47 121.056 186.873 121.056 187.46C121.056 188.487 120.323 189 118.856 189C118.27 189 117.243 188.927 115.776 188.78C114.383 188.56 112.513 188.45 110.166 188.45C107.82 188.45 105.913 188.56 104.446 188.78C103.053 188.927 102.063 189 101.476 189C100.083 189 99.3865 188.413 99.3865 187.24C99.3865 186.213 99.8632 185.7 100.816 185.7C102.21 185.7 103.273 185.553 104.006 185.26C104.813 184.967 105.363 184.527 105.656 183.94C106.023 183.353 106.243 182.62 106.316 181.74C106.39 180.86 106.426 179.833 106.426 178.66V128.28C106.426 126.593 106.316 125.42 106.096 124.76C105.95 124.1 105.363 123.587 104.336 123.22C103.75 123 103.2 122.89 102.686 122.89C102.173 122.89 101.696 122.853 101.256 122.78C100.89 122.707 100.56 122.597 100.266 122.45C100.046 122.23 99.9365 121.827 99.9365 121.24C99.9365 120.213 100.596 119.7 101.916 119.7C102.796 119.7 103.566 119.773 104.226 119.92C104.96 119.993 105.583 120.03 106.096 120.03H107.636C110.423 120.03 112.99 119.993 115.336 119.92C117.756 119.773 119.993 119.7 122.046 119.7C127.84 119.7 132.276 121.46 135.356 124.98C138.51 128.427 140.086 133.267 140.086 139.5C140.086 142.213 139.646 144.743 138.766 147.09C137.96 149.363 136.86 151.343 135.466 153.03C134.073 154.717 132.46 156.037 130.626 156.99C128.866 157.943 127.033 158.42 125.126 158.42C123.88 158.42 122.706 158.273 121.606 157.98C120.506 157.613 119.48 157.247 118.526 156.88C117.646 156.513 116.876 156.183 116.216 155.89C115.556 155.523 115.043 155.34 114.676 155.34C114.163 155.34 113.906 156.037 113.906 157.43ZM151.96 115.3V182.29C151.96 183.83 152.254 184.893 152.84 185.48C153.427 185.993 154.087 186.36 154.82 186.58C155.554 186.727 156.214 186.873 156.8 187.02C157.387 187.093 157.68 187.423 157.68 188.01C157.68 188.523 157.534 188.853 157.24 189C157.02 189.073 156.617 189.11 156.03 189.11C155.444 189.11 154.564 189.037 153.39 188.89C152.217 188.743 150.714 188.67 148.88 188.67C147.267 188.67 145.8 188.743 144.48 188.89C143.234 189.037 142.17 189.11 141.29 189.11C140.63 189.11 140.154 189.073 139.86 189C139.567 188.853 139.42 188.523 139.42 188.01C139.42 187.423 139.75 187.093 140.41 187.02C141.07 186.873 141.804 186.69 142.61 186.47C143.417 186.25 144.15 185.883 144.81 185.37C145.47 184.783 145.8 183.757 145.8 182.29V123.99C145.8 120.69 144.664 119.04 142.39 119.04C142.317 119.04 142.17 119.077 141.95 119.15C141.804 119.15 141.547 119.15 141.18 119.15C140.667 119.15 140.41 118.82 140.41 118.16C140.41 117.353 140.85 116.877 141.73 116.73C142.61 116.583 143.637 116.327 144.81 115.96C146.717 115.3 148.147 114.64 149.1 113.98C150.127 113.247 150.824 112.88 151.19 112.88C151.704 112.88 151.96 113.687 151.96 115.3ZM187.187 151.05V178.66C187.187 183.207 188.177 185.48 190.157 185.48C190.964 185.48 191.697 185.077 192.357 184.27C193.09 183.463 193.677 183.06 194.117 183.06C194.63 183.06 194.887 183.317 194.887 183.83C194.887 184.417 194.557 185.113 193.897 185.92C193.31 186.653 192.577 187.387 191.697 188.12C190.817 188.853 189.864 189.44 188.837 189.88C187.884 190.393 187.04 190.65 186.307 190.65C184.84 190.65 183.704 190.1 182.897 189C182.164 187.827 181.467 185.957 180.807 183.39H180.367C177.58 185.737 175.087 187.607 172.887 189C170.76 190.393 168.524 191.09 166.177 191.09C163.537 191.09 161.484 190.32 160.017 188.78C158.55 187.167 157.817 185.04 157.817 182.4C157.817 180.347 158.294 178.44 159.247 176.68C160.2 174.847 161.63 173.087 163.537 171.4C165.517 169.64 167.937 167.843 170.797 166.01C173.657 164.177 176.957 162.197 180.697 160.07V150.39C180.697 147.017 180.33 144.597 179.597 143.13C178.937 141.663 177.47 140.93 175.197 140.93C173.29 140.93 171.494 141.59 169.807 142.91C168.12 144.23 166.947 145.807 166.287 147.64C165.48 149.913 164.674 151.857 163.867 153.47C163.06 155.01 161.63 155.78 159.577 155.78C159.064 155.78 158.624 155.633 158.257 155.34C157.89 154.973 157.707 154.497 157.707 153.91C157.707 152.59 158.184 151.05 159.137 149.29C160.09 147.53 161.447 145.843 163.207 144.23C164.967 142.617 167.057 141.26 169.477 140.16C171.897 139.06 174.537 138.51 177.397 138.51C179.67 138.51 181.467 138.803 182.787 139.39C184.107 139.977 185.097 140.82 185.757 141.92C186.417 143.02 186.82 144.34 186.967 145.88C187.114 147.42 187.187 149.143 187.187 151.05ZM180.807 164.47C180.807 163.737 180.587 163.37 180.147 163.37C179.927 163.37 179.56 163.517 179.047 163.81L175.747 165.68C168.267 170.007 164.527 174.59 164.527 179.43C164.527 181.483 165.04 183.133 166.067 184.38C167.094 185.553 168.524 186.14 170.357 186.14C171.457 186.14 172.594 185.883 173.767 185.37C175.014 184.857 176.15 184.123 177.177 183.17C178.277 182.143 179.157 180.933 179.817 179.54C180.477 178.073 180.807 176.423 180.807 174.59V164.47ZM224.728 144.34L200.418 185.37C200.198 185.737 200.088 185.957 200.088 186.03C200.088 186.47 200.455 186.69 201.188 186.69H211.088C214.241 186.69 216.698 186.433 218.458 185.92C220.218 185.407 221.575 184.307 222.528 182.62C223.115 181.593 223.518 180.677 223.738 179.87C224.031 178.99 224.215 178.257 224.288 177.67C224.435 177.01 224.581 176.533 224.728 176.24C224.875 175.873 225.131 175.69 225.498 175.69C226.085 175.69 226.378 176.093 226.378 176.9C226.378 177.487 226.305 178.55 226.158 180.09C226.085 181.557 226.048 183.5 226.048 185.92C226.048 186.287 226.048 186.617 226.048 186.91C226.121 187.13 226.158 187.387 226.158 187.68C226.158 188.267 226.011 188.707 225.718 189C225.498 189.22 224.985 189.33 224.178 189.33C223.371 189.33 222.455 189.257 221.428 189.11C220.475 189.037 219.375 189 218.128 189H198.988C197.521 189 196.275 189.037 195.248 189.11C194.295 189.183 193.598 189.22 193.158 189.22C192.131 189.22 191.618 188.927 191.618 188.34C191.618 187.973 191.728 187.57 191.948 187.13C192.241 186.69 192.608 186.103 193.048 185.37L217.468 144.56C217.615 144.267 217.688 144.047 217.688 143.9C217.688 143.533 217.578 143.35 217.358 143.35C217.211 143.277 216.881 143.24 216.368 143.24L209.768 143.02H207.788C205.661 143.02 203.828 143.167 202.288 143.46C200.821 143.68 199.501 144.267 198.328 145.22C197.668 145.733 197.118 146.32 196.678 146.98C196.311 147.567 195.981 148.117 195.688 148.63C195.395 149.143 195.101 149.583 194.808 149.95C194.515 150.317 194.185 150.5 193.818 150.5C193.231 150.5 192.938 150.17 192.938 149.51C192.938 148.85 193.158 147.823 193.598 146.43C194.111 145.037 194.698 143.24 195.358 141.04C195.798 139.427 196.091 138.217 196.238 137.41C196.385 136.53 196.788 136.09 197.448 136.09C198.181 136.09 198.475 136.493 198.328 137.3C198.255 138.033 198.365 138.73 198.658 139.39C198.951 140.123 200.125 140.563 202.178 140.71C204.231 140.857 207.275 140.93 211.308 140.93C215.195 140.93 218.201 140.857 220.328 140.71C222.455 140.563 223.775 140.49 224.288 140.49C224.655 140.49 224.985 140.6 225.278 140.82C225.645 140.967 225.828 141.223 225.828 141.59C225.828 142.25 225.461 143.167 224.728 144.34ZM256.161 151.05V178.66C256.161 183.207 257.151 185.48 259.131 185.48C259.937 185.48 260.671 185.077 261.331 184.27C262.064 183.463 262.651 183.06 263.091 183.06C263.604 183.06 263.861 183.317 263.861 183.83C263.861 184.417 263.531 185.113 262.871 185.92C262.284 186.653 261.551 187.387 260.671 188.12C259.791 188.853 258.837 189.44 257.811 189.88C256.857 190.393 256.014 190.65 255.281 190.65C253.814 190.65 252.677 190.1 251.871 189C251.137 187.827 250.441 185.957 249.781 183.39H249.341C246.554 185.737 244.061 187.607 241.861 189C239.734 190.393 237.497 191.09 235.151 191.09C232.511 191.09 230.457 190.32 228.991 188.78C227.524 187.167 226.791 185.04 226.791 182.4C226.791 180.347 227.267 178.44 228.221 176.68C229.174 174.847 230.604 173.087 232.511 171.4C234.491 169.64 236.911 167.843 239.771 166.01C242.631 164.177 245.931 162.197 249.671 160.07V150.39C249.671 147.017 249.304 144.597 248.571 143.13C247.911 141.663 246.444 140.93 244.171 140.93C242.264 140.93 240.467 141.59 238.781 142.91C237.094 144.23 235.921 145.807 235.261 147.64C234.454 149.913 233.647 151.857 232.841 153.47C232.034 155.01 230.604 155.78 228.551 155.78C228.037 155.78 227.597 155.633 227.231 155.34C226.864 154.973 226.681 154.497 226.681 153.91C226.681 152.59 227.157 151.05 228.111 149.29C229.064 147.53 230.421 145.843 232.181 144.23C233.941 142.617 236.031 141.26 238.451 140.16C240.871 139.06 243.511 138.51 246.371 138.51C248.644 138.51 250.441 138.803 251.761 139.39C253.081 139.977 254.071 140.82 254.731 141.92C255.391 143.02 255.794 144.34 255.941 145.88C256.087 147.42 256.161 149.143 256.161 151.05ZM249.781 164.47C249.781 163.737 249.561 163.37 249.121 163.37C248.901 163.37 248.534 163.517 248.021 163.81L244.721 165.68C237.241 170.007 233.501 174.59 233.501 179.43C233.501 181.483 234.014 183.133 235.041 184.38C236.067 185.553 237.497 186.14 239.331 186.14C240.431 186.14 241.567 185.883 242.741 185.37C243.987 184.857 245.124 184.123 246.151 183.17C247.251 182.143 248.131 180.933 248.791 179.54C249.451 178.073 249.781 176.423 249.781 174.59V164.47ZM274.891 139.94L273.901 150.61C273.608 153.177 273.425 155.267 273.351 156.88C273.278 158.42 273.241 159.52 273.241 160.18V166.12C273.241 167.66 273.168 168.833 273.021 169.64C272.948 170.373 272.618 170.74 272.031 170.74C271.445 170.74 271.078 170.337 270.931 169.53C270.858 168.65 270.821 167.33 270.821 165.57V159.85C270.821 159.41 270.785 158.42 270.711 156.88C270.638 155.34 270.455 153.25 270.161 150.61L269.171 139.94C268.805 135.98 268.548 132.973 268.401 130.92C268.328 128.867 268.291 127.767 268.291 127.62C268.291 123.293 269.538 121.13 272.031 121.13C273.205 121.13 274.121 121.643 274.781 122.67C275.515 123.697 275.881 125.163 275.881 127.07C275.881 127.437 275.808 128.72 275.661 130.92C275.515 133.047 275.258 136.053 274.891 139.94ZM272.031 178.99C273.205 178.99 274.121 179.503 274.781 180.53C275.515 181.483 275.881 182.84 275.881 184.6C275.881 186.433 275.515 187.827 274.781 188.78C274.048 189.733 273.131 190.21 272.031 190.21C270.931 190.21 270.015 189.733 269.281 188.78C268.548 187.753 268.181 186.397 268.181 184.71C268.181 182.877 268.548 181.483 269.281 180.53C270.015 179.503 270.931 178.99 272.031 178.99Z" fill="black"/>
</svg>
