<svg width="44" height="44" viewBox="0 0 44 44" fill="none" xmlns="http://www.w3.org/2000/svg">
<circle cx="22" cy="22" r="21" fill="#F8FC5F" stroke="#707070"/>
<path d="M13.5 13.1H16.44C16.58 13.1 16.69 13.11 16.77 13.13C16.87 13.15 16.94 13.24 16.98 13.4L21.45 27.08C21.51 27.24 21.58 27.32 21.66 27.32C21.74 27.32 21.81 27.23 21.87 27.05L26.22 13.64C26.26 13.48 26.31 13.35 26.37 13.25C26.43 13.15 26.54 13.1 26.7 13.1H29.73C30.03 13.1 30.18 13.24 30.18 13.52C30.18 13.68 30.13 13.79 30.03 13.85C29.95 13.89 29.84 13.92 29.7 13.94C29.58 13.94 29.43 13.95 29.25 13.97C29.07 13.97 28.89 14.01 28.71 14.09C28.49 14.19 28.35 14.33 28.29 14.51C28.23 14.67 28.2 14.98 28.2 15.44V16.07L28.59 29.18C28.59 29.46 28.59 29.7 28.59 29.9C28.61 30.08 28.63 30.24 28.65 30.38C28.69 30.5 28.75 30.6 28.83 30.68C28.91 30.76 29.03 30.84 29.19 30.92C29.37 31 29.55 31.05 29.73 31.07C29.91 31.07 30.06 31.08 30.18 31.1C30.32 31.12 30.43 31.16 30.51 31.22C30.59 31.28 30.63 31.4 30.63 31.58C30.63 31.86 30.43 32 30.03 32C29.81 32 29.5 31.98 29.1 31.94C28.7 31.88 28.21 31.85 27.63 31.85C27.03 31.85 26.54 31.88 26.16 31.94C25.78 31.98 25.48 32 25.26 32C24.84 32 24.63 31.84 24.63 31.52C24.63 31.36 24.68 31.26 24.78 31.22C24.88 31.16 25 31.12 25.14 31.1C25.3 31.08 25.47 31.06 25.65 31.04C25.85 31.02 26.05 30.95 26.25 30.83C26.45 30.73 26.57 30.57 26.61 30.35C26.67 30.11 26.7 29.73 26.7 29.21V28.49L26.4 16.58C26.4 16.3 26.38 16.16 26.34 16.16C26.26 16.16 26.2 16.23 26.16 16.37L21.27 31.16C21.21 31.32 21.14 31.4 21.06 31.4C20.98 31.4 20.91 31.32 20.85 31.16L15.99 16.28C15.95 16.2 15.88 16.16 15.78 16.16C15.72 16.16 15.69 16.3 15.69 16.58L15.24 26.3C15.22 26.64 15.2 26.99 15.18 27.35C15.18 27.69 15.18 28.03 15.18 28.37C15.18 29.31 15.23 30.01 15.33 30.47C15.45 30.91 15.76 31.13 16.26 31.13C16.36 31.13 16.45 31.13 16.53 31.13C16.63 31.11 16.73 31.1 16.83 31.1C17.09 31.1 17.22 31.26 17.22 31.58C17.22 31.88 16.98 32.03 16.5 32.03C16.22 32.03 15.94 32.01 15.66 31.97C15.38 31.93 15.1 31.91 14.82 31.91C14.46 31.91 14.13 31.93 13.83 31.97C13.55 32.01 13.29 32.03 13.05 32.03C12.59 32.03 12.36 31.86 12.36 31.52C12.36 31.24 12.53 31.1 12.87 31.1C12.95 31.1 13.01 31.11 13.05 31.13C13.11 31.13 13.17 31.13 13.23 31.13C13.47 31.13 13.66 31.05 13.8 30.89C13.96 30.71 14.08 30.43 14.16 30.05C14.26 29.67 14.33 29.18 14.37 28.58C14.43 27.96 14.48 27.2 14.52 26.3L15.06 15.56V15.23C15.06 14.59 14.84 14.2 14.4 14.06C14.22 14 14.04 13.97 13.86 13.97C13.7 13.95 13.56 13.94 13.44 13.94C13.32 13.92 13.22 13.89 13.14 13.85C13.08 13.79 13.05 13.68 13.05 13.52C13.05 13.24 13.2 13.1 13.5 13.1Z" fill="black"/>
</svg>
