<svg width="109" height="49" viewBox="0 0 109 49" fill="none" xmlns="http://www.w3.org/2000/svg">
<path d="M108.5 24.5C108.5 30.9459 102.664 36.9484 92.8323 41.3681C83.0479 45.7666 69.4959 48.5 54.5 48.5C39.5041 48.5 25.9521 45.7666 16.1677 41.3681C6.33619 36.9484 0.5 30.9459 0.5 24.5C0.5 18.0541 6.33619 12.0516 16.1677 7.63192C25.9521 3.23344 39.5041 0.5 54.5 0.5C69.4959 0.5 83.0479 3.23344 92.8323 7.63192C102.664 12.0516 108.5 18.0541 108.5 24.5Z" fill="#F8FC5F" stroke="#707070"/>
<path d="M36.0615 21.452V22.486C36.0615 22.6473 36.0909 22.728 36.1495 22.728C36.2082 22.728 36.2889 22.6253 36.3915 22.42C36.4942 22.2 36.6849 21.9653 36.9635 21.716C37.2569 21.452 37.5429 21.254 37.8215 21.122C38.1002 20.99 38.4082 20.924 38.7455 20.924C39.3469 20.924 39.8382 21.0927 40.2195 21.43C40.6009 21.7527 40.9089 22.2587 41.1435 22.948H41.2315C41.6569 22.2587 42.0822 21.7527 42.5075 21.43C42.9329 21.0927 43.4022 20.924 43.9155 20.924C44.6782 20.924 45.2942 21.2247 45.7635 21.826C46.2329 22.4273 46.4675 23.2413 46.4675 24.268C46.4675 24.3413 46.4675 24.4953 46.4675 24.73C46.4822 24.95 46.4895 25.2507 46.4895 25.632V29.658C46.4895 29.966 46.5409 30.1787 46.6435 30.296C46.7609 30.3987 46.8855 30.472 47.0175 30.516C47.1495 30.5453 47.2669 30.5747 47.3695 30.604C47.4869 30.6187 47.5455 30.6847 47.5455 30.802C47.5455 30.9047 47.5235 30.9707 47.4795 31C47.4355 31.0147 47.3549 31.022 47.2375 31.022C47.1495 31.022 46.9955 31.0073 46.7755 30.978C46.5555 30.9487 46.2622 30.934 45.8955 30.934C45.5729 30.934 45.2942 30.9487 45.0595 30.978C44.8395 31.0073 44.6562 31.022 44.5095 31.022C44.3922 31.022 44.3042 31.0147 44.2455 31C44.2015 30.9707 44.1795 30.9047 44.1795 30.802C44.1795 30.6847 44.2309 30.6187 44.3335 30.604C44.4509 30.5747 44.5755 30.538 44.7075 30.494C44.8542 30.45 44.9789 30.3767 45.0815 30.274C45.1989 30.1567 45.2575 29.9513 45.2575 29.658V25.236C45.2575 24.092 45.1182 23.234 44.8395 22.662C44.5755 22.09 44.0915 21.804 43.3875 21.804C42.8155 21.804 42.3315 22.0607 41.9355 22.574C41.5542 23.0873 41.3562 23.8793 41.3415 24.95L41.2975 29.658C41.2975 29.9513 41.3489 30.1567 41.4515 30.274C41.5689 30.3767 41.6935 30.45 41.8255 30.494C41.9722 30.538 42.0969 30.5747 42.1995 30.604C42.3169 30.6187 42.3755 30.6847 42.3755 30.802C42.3755 30.9047 42.3535 30.9707 42.3095 31C42.2655 31.0147 42.1849 31.022 42.0675 31.022C41.9649 31.022 41.8035 31.0073 41.5835 30.978C41.3635 30.9487 41.0775 30.934 40.7255 30.934C40.3295 30.934 40.0142 30.9487 39.7795 30.978C39.5449 31.0073 39.3909 31.022 39.3175 31.022C39.2002 31.022 39.1195 31.0147 39.0755 31C39.0315 30.9707 39.0095 30.9047 39.0095 30.802C39.0095 30.6847 39.0609 30.6187 39.1635 30.604C39.2809 30.5747 39.4055 30.538 39.5375 30.494C39.6695 30.45 39.7869 30.3767 39.8895 30.274C40.0069 30.1567 40.0655 29.9513 40.0655 29.658V25.236C40.0655 24.092 39.9262 23.234 39.6475 22.662C39.3689 22.09 38.8849 21.804 38.1955 21.804C37.6235 21.804 37.1322 22.0753 36.7215 22.618C36.3255 23.146 36.1275 23.9233 36.1275 24.95V29.658C36.1275 29.966 36.1862 30.1787 36.3035 30.296C36.4209 30.3987 36.5529 30.472 36.6995 30.516C36.8462 30.5453 36.9782 30.5747 37.0955 30.604C37.2129 30.6187 37.2715 30.6847 37.2715 30.802C37.2715 30.9047 37.2422 30.9707 37.1835 31C37.1395 31.0147 37.0589 31.022 36.9415 31.022C36.8829 31.022 36.7362 31.0073 36.5015 30.978C36.2669 30.9487 35.9369 30.934 35.5115 30.934C35.2035 30.934 34.9249 30.9487 34.6755 30.978C34.4409 31.0073 34.2429 31.022 34.0815 31.022C33.9642 31.022 33.8762 31.0147 33.8175 31C33.7735 30.9707 33.7515 30.9047 33.7515 30.802C33.7515 30.6847 33.8102 30.6187 33.9275 30.604C34.0449 30.5747 34.1769 30.538 34.3235 30.494C34.4702 30.45 34.6022 30.3767 34.7195 30.274C34.8369 30.1567 34.8955 29.9513 34.8955 29.658V23.388C34.8955 23.124 34.8442 22.948 34.7415 22.86C34.6535 22.772 34.5509 22.7207 34.4335 22.706C34.3309 22.6913 34.2355 22.684 34.1475 22.684C34.0595 22.684 34.0155 22.6327 34.0155 22.53C34.0155 22.398 34.0889 22.31 34.2355 22.266C34.3969 22.2073 34.5582 22.1193 34.7195 22.002C35.1009 21.738 35.3795 21.496 35.5555 21.276C35.7315 21.0413 35.8562 20.924 35.9295 20.924C36.0029 20.924 36.0395 20.9753 36.0395 21.078C36.0542 21.166 36.0615 21.2907 36.0615 21.452ZM52.2298 24.29C53.1391 24.29 53.8065 24.2387 54.2318 24.136C54.6571 24.0187 54.8698 23.7473 54.8698 23.322C54.8698 23.0873 54.8185 22.8527 54.7158 22.618C54.6131 22.3833 54.4665 22.1707 54.2758 21.98C54.0998 21.7893 53.8871 21.6353 53.6378 21.518C53.3885 21.4007 53.1245 21.342 52.8458 21.342C52.4938 21.342 52.1565 21.43 51.8338 21.606C51.5111 21.782 51.2251 22.002 50.9758 22.266C50.7411 22.53 50.5505 22.8233 50.4038 23.146C50.2571 23.4687 50.1838 23.784 50.1838 24.092C50.1838 24.136 50.2058 24.18 50.2498 24.224C50.2938 24.268 50.3525 24.29 50.4258 24.29H52.2298ZM55.6398 24.818H50.4038C50.2131 24.818 50.0958 24.884 50.0518 25.016C50.0078 25.1333 49.9858 25.3753 49.9858 25.742C49.9858 26.4753 50.0665 27.128 50.2278 27.7C50.4038 28.272 50.6385 28.756 50.9318 29.152C51.2398 29.548 51.5991 29.856 52.0098 30.076C52.4351 30.2813 52.8971 30.384 53.3958 30.384C53.8505 30.384 54.2318 30.3107 54.5398 30.164C54.8625 30.0173 55.1265 29.856 55.3318 29.68C55.5371 29.504 55.6985 29.3427 55.8158 29.196C55.9331 29.0493 56.0138 28.976 56.0578 28.976C56.1605 28.976 56.2118 29.0347 56.2118 29.152C56.2118 29.3133 56.1311 29.526 55.9698 29.79C55.8085 30.0393 55.5738 30.2887 55.2658 30.538C54.9725 30.7727 54.6058 30.978 54.1658 31.154C53.7405 31.33 53.2638 31.418 52.7358 31.418C52.1345 31.418 51.5771 31.2933 51.0638 31.044C50.5651 30.7947 50.1325 30.4427 49.7658 29.988C49.3991 29.5333 49.1131 28.9833 48.9078 28.338C48.7171 27.6927 48.6218 26.974 48.6218 26.182C48.6218 25.3753 48.7391 24.6493 48.9738 24.004C49.2085 23.344 49.5238 22.7867 49.9198 22.332C50.3158 21.8773 50.7778 21.5327 51.3058 21.298C51.8338 21.0487 52.3911 20.924 52.9778 20.924C53.4911 20.924 53.9531 21.0193 54.3638 21.21C54.7745 21.4007 55.1191 21.6573 55.3978 21.98C55.6911 22.288 55.9111 22.6547 56.0578 23.08C56.2191 23.4907 56.2998 23.916 56.2998 24.356C56.2998 24.5173 56.2485 24.6347 56.1458 24.708C56.0578 24.7813 55.8891 24.818 55.6398 24.818ZM59.6299 21.452V22.486C59.6299 22.6473 59.6592 22.728 59.7179 22.728C59.7765 22.728 59.8645 22.6253 59.9819 22.42C60.1139 22.2 60.3192 21.9653 60.5979 21.716C60.8912 21.452 61.1845 21.254 61.4779 21.122C61.7859 20.99 62.1159 20.924 62.4679 20.924C63.2892 20.924 63.9492 21.2247 64.4479 21.826C64.9465 22.4273 65.1959 23.2413 65.1959 24.268V29.658C65.1959 29.966 65.2545 30.1787 65.3719 30.296C65.4892 30.3987 65.6212 30.472 65.7679 30.516C65.9146 30.5453 66.0466 30.5747 66.1639 30.604C66.2812 30.6187 66.3399 30.6847 66.3399 30.802C66.3399 30.9047 66.3105 30.9707 66.2519 31C66.2079 31.0147 66.1272 31.022 66.0099 31.022C65.9072 31.022 65.7385 31.0073 65.5039 30.978C65.2692 30.9487 64.9612 30.934 64.5799 30.934C64.2719 30.934 64.0006 30.9487 63.7659 30.978C63.5459 31.0073 63.3552 31.022 63.1939 31.022C63.0619 31.022 62.9666 31.0147 62.9079 31C62.8492 30.9853 62.8199 30.9193 62.8199 30.802C62.8199 30.6847 62.8785 30.6187 62.9959 30.604C63.1132 30.5747 63.2452 30.538 63.3919 30.494C63.5385 30.45 63.6705 30.3767 63.7879 30.274C63.9052 30.1567 63.9639 29.9513 63.9639 29.658V25.236C63.9639 24.092 63.8172 23.234 63.5239 22.662C63.2305 22.09 62.7025 21.804 61.9399 21.804C61.1479 21.804 60.5759 22.1267 60.2239 22.772C59.8719 23.4027 59.6959 24.356 59.6959 25.632V29.658C59.6959 29.966 59.7545 30.1787 59.8719 30.296C59.9892 30.3987 60.1212 30.472 60.2679 30.516C60.4145 30.5453 60.5465 30.5747 60.6639 30.604C60.7812 30.6187 60.8399 30.6847 60.8399 30.802C60.8399 30.9047 60.8105 30.9707 60.7519 31C60.7079 31.0147 60.6272 31.022 60.5099 31.022C60.4072 31.022 60.2385 31.0073 60.0039 30.978C59.7692 30.9487 59.4612 30.934 59.0799 30.934C58.8012 30.934 58.5445 30.9487 58.3099 30.978C58.0752 31.0073 57.8552 31.022 57.6499 31.022C57.5325 31.022 57.4445 31.0147 57.3859 31C57.3419 30.9707 57.3199 30.9047 57.3199 30.802C57.3199 30.6847 57.3785 30.6187 57.4959 30.604C57.6132 30.5747 57.7452 30.538 57.8919 30.494C58.0385 30.45 58.1705 30.3767 58.2879 30.274C58.4052 30.1567 58.4639 29.9513 58.4639 29.658V23.278C58.4639 23.058 58.4125 22.9187 58.3099 22.86C58.2219 22.7867 58.1192 22.7427 58.0019 22.728C57.8992 22.7133 57.8039 22.6987 57.7159 22.684C57.6279 22.6693 57.5839 22.618 57.5839 22.53C57.5839 22.398 57.6572 22.31 57.8039 22.266C57.9652 22.2073 58.1265 22.1193 58.2879 22.002C58.6692 21.738 58.9479 21.496 59.1239 21.276C59.2999 21.0413 59.4245 20.924 59.4979 20.924C59.5712 20.924 59.6079 20.9753 59.6079 21.078C59.6225 21.166 59.6299 21.2907 59.6299 21.452ZM69.6002 22.024V27.084C69.6002 28.228 69.7468 29.086 70.0402 29.658C70.3335 30.23 70.8615 30.516 71.6242 30.516C72.4162 30.516 72.9882 30.2007 73.3402 29.57C73.6922 28.9247 73.8682 27.964 73.8682 26.688V22.684C73.8682 22.3907 73.8095 22.1853 73.6922 22.068C73.5748 21.9507 73.4428 21.87 73.2962 21.826C73.1495 21.782 73.0175 21.7527 72.9002 21.738C72.7828 21.7233 72.7242 21.6573 72.7242 21.54C72.7242 21.4373 72.7388 21.3787 72.7682 21.364C72.8122 21.3347 72.8708 21.32 72.9442 21.32C73.0028 21.32 73.0982 21.3273 73.2302 21.342C73.3622 21.3567 73.5382 21.364 73.7582 21.364C74.0075 21.364 74.2202 21.3567 74.3962 21.342C74.5722 21.3273 74.6968 21.32 74.7702 21.32C74.9315 21.32 75.0268 21.364 75.0562 21.452C75.0855 21.5253 75.1002 21.716 75.1002 22.024V29.262C75.1002 29.57 75.1442 29.7753 75.2322 29.878C75.3202 29.9807 75.4155 30.0393 75.5182 30.054C75.6355 30.0687 75.7382 30.076 75.8262 30.076C75.9288 30.076 75.9802 30.1273 75.9802 30.23C75.9802 30.3473 75.8995 30.4427 75.7382 30.516C75.5768 30.5747 75.3862 30.6627 75.1662 30.78C74.9022 30.9267 74.6895 31.066 74.5282 31.198C74.3668 31.3447 74.2275 31.418 74.1102 31.418C74.0222 31.418 73.9635 31.3667 73.9342 31.264C73.9195 31.176 73.9122 31.0513 73.9122 30.89V29.856C73.9122 29.68 73.8902 29.592 73.8462 29.592C73.7875 29.592 73.6995 29.702 73.5822 29.922C73.4648 30.1273 73.2595 30.3547 72.9662 30.604C72.6728 30.868 72.3722 31.066 72.0642 31.198C71.7708 31.3447 71.4408 31.418 71.0742 31.418C70.5755 31.418 70.1208 31.2933 69.7102 31.044C69.3142 30.7947 69.0135 30.45 68.8082 30.01C68.6028 29.614 68.4782 29.2033 68.4342 28.778C68.3902 28.3527 68.3682 27.9053 68.3682 27.436V22.684C68.3682 22.3907 68.3095 22.1853 68.1922 22.068C68.0748 21.9507 67.9428 21.87 67.7962 21.826C67.6495 21.782 67.5175 21.7527 67.4002 21.738C67.2828 21.7233 67.2242 21.6573 67.2242 21.54C67.2242 21.4373 67.2388 21.3787 67.2682 21.364C67.3122 21.3347 67.3708 21.32 67.4442 21.32C67.4735 21.32 67.5688 21.3273 67.7302 21.342C67.9062 21.3567 68.1482 21.364 68.4562 21.364C68.6175 21.364 68.7568 21.3567 68.8742 21.342C69.0062 21.3273 69.1308 21.32 69.2482 21.32C69.4095 21.32 69.5048 21.3567 69.5342 21.43C69.5782 21.5033 69.6002 21.7013 69.6002 22.024Z" fill="black"/>
</svg>
