<svg width="44" height="44" viewBox="0 0 44 44" fill="none" xmlns="http://www.w3.org/2000/svg">
<circle cx="22" cy="22" r="21" fill="#F8FC5F" stroke="#707070"/>
<path d="M19.83 20.72V20.78C19.83 20.98 19.84 21.19 19.86 21.41C19.88 21.61 19.95 21.8 20.07 21.98C20.19 22.16 20.38 22.31 20.64 22.43C20.9 22.53 21.27 22.58 21.75 22.58C22.19 22.58 22.6 22.48 22.98 22.28C23.38 22.08 23.72 21.8 24 21.44C24.3 21.06 24.53 20.62 24.69 20.12C24.87 19.6 24.96 19.04 24.96 18.44C24.96 17.78 24.87 17.17 24.69 16.61C24.51 16.05 24.26 15.57 23.94 15.17C23.64 14.77 23.28 14.46 22.86 14.24C22.46 14.02 22.03 13.91 21.57 13.91C20.79 13.91 20.3 14.03 20.1 14.27C19.92 14.51 19.83 14.89 19.83 15.41V20.72ZM19.83 23.39V29.18C19.83 29.78 19.86 30.2 19.92 30.44C19.98 30.68 20.19 30.86 20.55 30.98C20.71 31.04 20.86 31.08 21 31.1C21.16 31.1 21.29 31.11 21.39 31.13C21.51 31.15 21.6 31.19 21.66 31.25C21.74 31.31 21.78 31.42 21.78 31.58C21.78 31.86 21.58 32 21.18 32C21.02 32 20.74 31.98 20.34 31.94C19.96 31.88 19.45 31.85 18.81 31.85C18.17 31.85 17.65 31.88 17.25 31.94C16.87 31.98 16.6 32 16.44 32C16.06 32 15.87 31.84 15.87 31.52C15.87 31.24 16 31.1 16.26 31.1C16.64 31.1 16.93 31.06 17.13 30.98C17.35 30.9 17.5 30.78 17.58 30.62C17.68 30.46 17.74 30.26 17.76 30.02C17.78 29.78 17.79 29.5 17.79 29.18V15.44C17.79 14.98 17.76 14.66 17.7 14.48C17.66 14.3 17.5 14.16 17.22 14.06C17.06 14 16.91 13.97 16.77 13.97C16.63 13.97 16.5 13.96 16.38 13.94C16.28 13.92 16.19 13.89 16.11 13.85C16.05 13.79 16.02 13.68 16.02 13.52C16.02 13.24 16.2 13.1 16.56 13.1C16.8 13.1 17.01 13.12 17.19 13.16C17.39 13.18 17.56 13.19 17.7 13.19H18.12C18.88 13.19 19.58 13.18 20.22 13.16C20.88 13.12 21.49 13.1 22.05 13.1C23.63 13.1 24.84 13.58 25.68 14.54C26.54 15.48 26.97 16.8 26.97 18.5C26.97 19.24 26.85 19.93 26.61 20.57C26.39 21.19 26.09 21.73 25.71 22.19C25.33 22.65 24.89 23.01 24.39 23.27C23.91 23.53 23.41 23.66 22.89 23.66C22.55 23.66 22.23 23.62 21.93 23.54C21.63 23.44 21.35 23.34 21.09 23.24C20.85 23.14 20.64 23.05 20.46 22.97C20.28 22.87 20.14 22.82 20.04 22.82C19.9 22.82 19.83 23.01 19.83 23.39Z" fill="black"/>
</svg>
