<svg width="423" height="440" viewBox="0 0 423 440" fill="none" xmlns="http://www.w3.org/2000/svg">
  <path d="M225.821 184.046L225.912 185.168L226.683 184.349L345.675 58.1467L248.608 203.846L248.026 204.72L249.071 204.621L417.241 188.692L254.036 234.464L253.049 234.74L253.874 235.348L392.365 337.267L239.573 261.601L238.597 261.117L238.867 262.173L282.862 434.039L211.958 272.552L211.5 271.509L211.042 272.552L140.138 434.039L184.133 262.173L184.403 261.117L183.427 261.601L30.6347 337.267L169.126 235.348L169.951 234.74L168.964 234.464L5.75879 188.692L173.929 204.621L174.974 204.72L174.392 203.846L77.3246 58.1467L196.317 184.349L197.088 185.168L197.179 184.046L211.5 6.71164L225.821 184.046Z" fill="#F8FC5F" stroke="#707070"/>
</svg>

