<svg width="36" height="15" viewBox="0 0 36 15" fill="none" xmlns="http://www.w3.org/2000/svg">
<path d="M4.57 2.849L6.187 5.705C6.243 5.831 6.306 5.894 6.376 5.894C6.46 5.894 6.537 5.838 6.607 5.726L8.014 3.185C8.168 2.891 8.28 2.618 8.35 2.366C8.42 2.114 8.455 1.932 8.455 1.82C8.455 1.652 8.399 1.54 8.287 1.484C8.189 1.428 8.077 1.393 7.951 1.379C7.839 1.351 7.727 1.323 7.615 1.295C7.517 1.253 7.468 1.162 7.468 1.022C7.468 0.853999 7.58 0.769999 7.804 0.769999C7.86 0.769999 8.028 0.790999 8.308 0.832999C8.588 0.875 9.022 0.896 9.61 0.896C10.002 0.896 10.338 0.881999 10.618 0.853999C10.898 0.812 11.115 0.791 11.269 0.791C11.507 0.791 11.626 0.875 11.626 1.043C11.626 1.155 11.591 1.232 11.521 1.274C11.465 1.316 11.374 1.351 11.248 1.379C11.136 1.393 11.003 1.414 10.849 1.442C10.709 1.456 10.555 1.491 10.387 1.547C10.163 1.631 9.918 1.799 9.652 2.051C9.4 2.289 9.162 2.604 8.938 2.996L6.922 6.461C6.88 6.531 6.859 6.608 6.859 6.692C6.859 6.804 6.873 6.881 6.901 6.923L9.568 11.585C9.778 11.963 9.974 12.292 10.156 12.572C10.352 12.852 10.569 13.076 10.807 13.244C10.919 13.328 11.031 13.391 11.143 13.433C11.255 13.461 11.353 13.489 11.437 13.517C11.521 13.531 11.591 13.559 11.647 13.601C11.703 13.629 11.731 13.671 11.731 13.727C11.731 13.797 11.689 13.867 11.605 13.937C11.535 13.993 11.43 14.021 11.29 14.021C10.898 14.021 10.513 13.993 10.135 13.937C9.757 13.867 9.386 13.832 9.022 13.832C8.7 13.832 8.434 13.86 8.224 13.916C8.014 13.958 7.86 13.979 7.762 13.979H7.594C7.37 13.979 7.258 13.895 7.258 13.727C7.258 13.573 7.321 13.482 7.447 13.454C7.587 13.412 7.734 13.384 7.888 13.37C8.056 13.342 8.203 13.3 8.329 13.244C8.469 13.188 8.539 13.062 8.539 12.866C8.539 12.754 8.511 12.614 8.455 12.446C8.413 12.264 8.343 12.096 8.245 11.942L6.187 8.435C6.131 8.323 6.061 8.267 5.977 8.267C5.907 8.267 5.844 8.316 5.788 8.414L4.003 11.648C3.849 11.928 3.737 12.187 3.667 12.425C3.611 12.649 3.583 12.81 3.583 12.908C3.583 13.09 3.639 13.209 3.751 13.265C3.877 13.321 4.01 13.363 4.15 13.391C4.304 13.405 4.444 13.433 4.57 13.475C4.696 13.517 4.759 13.608 4.759 13.748C4.759 13.93 4.619 14.021 4.339 14.021C4.185 14.021 3.968 14 3.688 13.958C3.408 13.902 3.079 13.874 2.701 13.874C2.253 13.874 1.889 13.895 1.609 13.937C1.329 13.965 1.126 13.979 1 13.979C0.79 13.979 0.685 13.895 0.685 13.727C0.685 13.615 0.72 13.538 0.79 13.496C0.846 13.44 0.923 13.405 1.021 13.391C1.133 13.377 1.252 13.363 1.378 13.349C1.518 13.335 1.651 13.307 1.777 13.265C2.043 13.167 2.267 12.999 2.449 12.761C2.645 12.523 2.862 12.201 3.1 11.795L5.452 7.742C5.48 7.7 5.494 7.651 5.494 7.595C5.508 7.539 5.515 7.476 5.515 7.406C5.515 7.308 5.487 7.21 5.431 7.112L3.184 3.206C2.918 2.758 2.687 2.387 2.491 2.093C2.309 1.799 2.134 1.596 1.966 1.484C1.854 1.414 1.742 1.372 1.63 1.358C1.518 1.344 1.413 1.33 1.315 1.316C1.231 1.302 1.154 1.281 1.084 1.253C1.028 1.225 1 1.169 1 1.085C1 1.015 1.042 0.945 1.126 0.875C1.21 0.804999 1.315 0.769999 1.441 0.769999C1.721 0.769999 2.05 0.804999 2.428 0.875C2.82 0.930999 3.261 0.958999 3.751 0.958999C4.115 0.958999 4.409 0.937999 4.633 0.896C4.857 0.84 5.025 0.812 5.137 0.812C5.361 0.812 5.473 0.903 5.473 1.085C5.473 1.239 5.403 1.337 5.263 1.379C5.137 1.407 4.997 1.435 4.843 1.463C4.689 1.477 4.542 1.512 4.402 1.568C4.276 1.624 4.213 1.743 4.213 1.925C4.213 2.121 4.332 2.429 4.57 2.849ZM20.511 11.501V9.17C20.511 8.848 20.483 8.624 20.427 8.498C20.385 8.372 20.259 8.274 20.049 8.204C19.923 8.162 19.797 8.141 19.671 8.141C19.559 8.127 19.454 8.12 19.356 8.12C19.272 8.106 19.202 8.085 19.146 8.057C19.09 8.015 19.062 7.938 19.062 7.826C19.062 7.644 19.167 7.553 19.377 7.553C19.517 7.553 19.741 7.581 20.049 7.637C20.357 7.679 20.756 7.7 21.246 7.7C21.708 7.7 22.079 7.679 22.359 7.637C22.639 7.581 22.842 7.553 22.968 7.553C23.15 7.553 23.241 7.644 23.241 7.826C23.241 7.924 23.22 7.994 23.178 8.036C23.136 8.078 23.073 8.106 22.989 8.12C22.919 8.134 22.835 8.141 22.737 8.141C22.639 8.141 22.534 8.155 22.422 8.183C22.184 8.253 22.044 8.358 22.002 8.498C21.96 8.624 21.939 8.848 21.939 9.17V11.69C21.939 11.9 21.939 12.075 21.939 12.215C21.953 12.341 21.96 12.425 21.96 12.467C21.96 12.719 21.848 12.964 21.624 13.202C21.4 13.426 21.106 13.629 20.742 13.811C20.378 13.979 19.958 14.119 19.482 14.231C19.02 14.343 18.537 14.399 18.033 14.399C17.151 14.399 16.346 14.231 15.618 13.895C14.89 13.559 14.26 13.097 13.728 12.509C13.21 11.907 12.804 11.193 12.51 10.367C12.216 9.541 12.069 8.638 12.069 7.658C12.069 6.608 12.23 5.642 12.552 4.76C12.888 3.864 13.343 3.094 13.917 2.45C14.491 1.806 15.17 1.302 15.954 0.937999C16.738 0.574 17.592 0.392 18.516 0.392C18.88 0.392 19.223 0.42 19.545 0.475999C19.867 0.531999 20.154 0.601999 20.406 0.686C20.658 0.756 20.868 0.84 21.036 0.937999C21.218 1.022 21.337 1.099 21.393 1.169C21.477 1.281 21.526 1.526 21.54 1.904C21.568 2.282 21.582 2.807 21.582 3.479C21.582 3.675 21.505 3.773 21.351 3.773C21.197 3.773 21.092 3.661 21.036 3.437C20.994 3.199 20.896 2.912 20.742 2.576C20.518 2.058 20.196 1.659 19.776 1.379C19.356 1.099 18.859 0.958999 18.285 0.958999C17.641 0.958999 17.039 1.12 16.479 1.442C15.933 1.764 15.45 2.212 15.03 2.786C14.624 3.346 14.302 4.025 14.064 4.823C13.84 5.607 13.728 6.461 13.728 7.385C13.728 8.351 13.847 9.233 14.085 10.031C14.323 10.815 14.645 11.487 15.051 12.047C15.471 12.607 15.961 13.041 16.521 13.349C17.081 13.643 17.683 13.79 18.327 13.79C18.817 13.79 19.202 13.734 19.482 13.622C19.776 13.51 20 13.356 20.154 13.16C20.308 12.95 20.406 12.705 20.448 12.425C20.49 12.145 20.511 11.837 20.511 11.501ZM32.6721 11.501V9.17C32.6721 8.848 32.6441 8.624 32.5881 8.498C32.5461 8.372 32.4201 8.274 32.2101 8.204C32.0841 8.162 31.9581 8.141 31.8321 8.141C31.7201 8.127 31.6151 8.12 31.5171 8.12C31.4331 8.106 31.3631 8.085 31.3071 8.057C31.2511 8.015 31.2231 7.938 31.2231 7.826C31.2231 7.644 31.3281 7.553 31.5381 7.553C31.6781 7.553 31.9021 7.581 32.2101 7.637C32.5181 7.679 32.9171 7.7 33.4071 7.7C33.8691 7.7 34.2401 7.679 34.5201 7.637C34.8001 7.581 35.0031 7.553 35.1291 7.553C35.3111 7.553 35.4021 7.644 35.4021 7.826C35.4021 7.924 35.3811 7.994 35.3391 8.036C35.2971 8.078 35.2341 8.106 35.1501 8.12C35.0801 8.134 34.9961 8.141 34.8981 8.141C34.8001 8.141 34.6951 8.155 34.5831 8.183C34.3451 8.253 34.2051 8.358 34.1631 8.498C34.1211 8.624 34.1001 8.848 34.1001 9.17V11.69C34.1001 11.9 34.1001 12.075 34.1001 12.215C34.1141 12.341 34.1211 12.425 34.1211 12.467C34.1211 12.719 34.0091 12.964 33.7851 13.202C33.5611 13.426 33.2671 13.629 32.9031 13.811C32.5391 13.979 32.1191 14.119 31.6431 14.231C31.1811 14.343 30.6981 14.399 30.1941 14.399C29.3121 14.399 28.5071 14.231 27.7791 13.895C27.0511 13.559 26.4211 13.097 25.8891 12.509C25.3711 11.907 24.9651 11.193 24.6711 10.367C24.3771 9.541 24.2301 8.638 24.2301 7.658C24.2301 6.608 24.3911 5.642 24.7131 4.76C25.0491 3.864 25.5041 3.094 26.0781 2.45C26.6521 1.806 27.3311 1.302 28.1151 0.937999C28.8991 0.574 29.7531 0.392 30.6771 0.392C31.0411 0.392 31.3841 0.42 31.7061 0.475999C32.0281 0.531999 32.3151 0.601999 32.5671 0.686C32.8191 0.756 33.0291 0.84 33.1971 0.937999C33.3791 1.022 33.4981 1.099 33.5541 1.169C33.6381 1.281 33.6871 1.526 33.7011 1.904C33.7291 2.282 33.7431 2.807 33.7431 3.479C33.7431 3.675 33.6661 3.773 33.5121 3.773C33.3581 3.773 33.2531 3.661 33.1971 3.437C33.1551 3.199 33.0571 2.912 32.9031 2.576C32.6791 2.058 32.3571 1.659 31.9371 1.379C31.5171 1.099 31.0201 0.958999 30.4461 0.958999C29.8021 0.958999 29.2001 1.12 28.6401 1.442C28.0941 1.764 27.6111 2.212 27.1911 2.786C26.7851 3.346 26.4631 4.025 26.2251 4.823C26.0011 5.607 25.8891 6.461 25.8891 7.385C25.8891 8.351 26.0081 9.233 26.2461 10.031C26.4841 10.815 26.8061 11.487 27.2121 12.047C27.6321 12.607 28.1221 13.041 28.6821 13.349C29.2421 13.643 29.8441 13.79 30.4881 13.79C30.9781 13.79 31.3631 13.734 31.6431 13.622C31.9371 13.51 32.1611 13.356 32.3151 13.16C32.4691 12.95 32.5671 12.705 32.6091 12.425C32.6511 12.145 32.6721 11.837 32.6721 11.501Z" fill="black"/>
</svg>
