<svg width="97" height="93" viewBox="0 0 97 93" fill="none" xmlns="http://www.w3.org/2000/svg">
<rect x="0.5" y="0.5" width="96" height="92" fill="#F8FC5F" stroke="#707070"/>
<path d="M35.7859 43.07H38.2279C38.3306 43.07 38.4112 43.0737 38.4699 43.081C38.5286 43.081 38.5726 43.092 38.6019 43.114C38.6386 43.136 38.6606 43.1727 38.6679 43.224C38.6826 43.2753 38.6899 43.3487 38.6899 43.444V44.39C38.6899 44.5733 38.6496 44.665 38.5689 44.665C38.5249 44.665 38.4882 44.643 38.4589 44.599C38.4369 44.555 38.4149 44.4963 38.3929 44.423C38.3709 44.3497 38.3416 44.269 38.3049 44.181C38.2682 44.093 38.2169 44.005 38.1509 43.917C37.8869 43.565 37.4946 43.389 36.9739 43.389C36.7759 43.389 36.6109 43.4 36.4789 43.422C36.3542 43.444 36.2552 43.4843 36.1819 43.543C36.1086 43.6017 36.0572 43.6787 36.0279 43.774C35.9986 43.8693 35.9839 43.9903 35.9839 44.137V45.941C35.9839 46.007 35.9949 46.0473 36.0169 46.062C36.0389 46.0767 36.1012 46.084 36.2039 46.084H36.7539C37.1792 46.084 37.4579 46.0107 37.5899 45.864C37.6632 45.7907 37.7109 45.7137 37.7329 45.633C37.7622 45.5523 37.7806 45.4827 37.7879 45.424C37.8026 45.3653 37.8172 45.3177 37.8319 45.281C37.8466 45.237 37.8796 45.215 37.9309 45.215C38.0116 45.215 38.0519 45.281 38.0519 45.413C38.0519 45.4717 38.0446 45.5853 38.0299 45.754C38.0152 45.9153 38.0079 46.1317 38.0079 46.403C38.0079 46.733 38.0116 46.9823 38.0189 47.151C38.0262 47.3197 38.0299 47.4187 38.0299 47.448C38.0299 47.58 37.9932 47.646 37.9199 47.646C37.8686 47.646 37.8356 47.624 37.8209 47.58C37.8062 47.536 37.7916 47.4773 37.7769 47.404C37.7696 47.3233 37.7512 47.2317 37.7219 47.129C37.6999 47.019 37.6522 46.9017 37.5789 46.777C37.4396 46.5277 37.1609 46.403 36.7429 46.403H36.1379C36.0719 46.403 36.0279 46.4177 36.0059 46.447C35.9912 46.4763 35.9839 46.5277 35.9839 46.601V48.966C35.9839 49.23 36.0536 49.4207 36.1929 49.538C36.3396 49.6553 36.5926 49.714 36.9519 49.714C37.2966 49.714 37.5752 49.67 37.7879 49.582C38.0006 49.4867 38.1876 49.3327 38.3489 49.12C38.4222 49.0247 38.4772 48.9293 38.5139 48.834C38.5506 48.7387 38.5799 48.6543 38.6019 48.581C38.6239 48.5077 38.6459 48.449 38.6679 48.405C38.6972 48.361 38.7339 48.339 38.7779 48.339C38.7999 48.339 38.8219 48.35 38.8439 48.372C38.8732 48.394 38.8879 48.4123 38.8879 48.427C38.8879 48.427 38.8842 48.4453 38.8769 48.482C38.8769 48.5187 38.8732 48.5663 38.8659 48.625L38.7669 49.659C38.7522 49.8277 38.7266 49.934 38.6899 49.978C38.6532 50.022 38.5726 50.044 38.4479 50.044C38.3452 50.044 38.1142 50.0257 37.7549 49.989C37.3956 49.9523 36.9042 49.934 36.2809 49.934C35.7969 49.934 35.4229 49.945 35.1589 49.967C34.9022 49.989 34.7446 50 34.6859 50C34.5319 50 34.4549 49.9413 34.4549 49.824C34.4549 49.7727 34.4659 49.736 34.4879 49.714C34.5172 49.692 34.5502 49.6773 34.5869 49.67C34.6309 49.6627 34.6786 49.659 34.7299 49.659C34.7812 49.659 34.8326 49.6517 34.8839 49.637C35.0526 49.593 35.1516 49.5307 35.1809 49.45C35.2176 49.362 35.2359 49.2007 35.2359 48.966V43.928C35.2359 43.7593 35.2249 43.642 35.2029 43.576C35.1809 43.51 35.1112 43.4587 34.9939 43.422C34.9279 43.4 34.8619 43.389 34.7959 43.389C34.7372 43.389 34.6822 43.3853 34.6309 43.378C34.5869 43.3707 34.5502 43.3597 34.5209 43.345C34.4916 43.323 34.4769 43.2827 34.4769 43.224C34.4769 43.1213 34.5429 43.07 34.6749 43.07H35.7859ZM41.0686 44.962C41.2959 44.962 41.4719 44.9767 41.5966 45.006C41.7286 45.028 41.8239 45.0647 41.8826 45.116C41.9486 45.16 41.9889 45.215 42.0036 45.281C42.0182 45.3397 42.0256 45.4057 42.0256 45.479V45.93C42.0256 46.0767 41.9926 46.15 41.9266 46.15C41.8606 46.15 41.8239 46.106 41.8166 46.018C41.8092 45.9227 41.7579 45.7943 41.6626 45.633C41.5672 45.4717 41.4499 45.3507 41.3106 45.27C41.1712 45.1893 41.0246 45.149 40.8706 45.149C40.6579 45.149 40.4782 45.226 40.3316 45.38C40.1849 45.5267 40.1116 45.721 40.1116 45.963C40.1116 46.2197 40.1849 46.4213 40.3316 46.568C40.4782 46.7073 40.6982 46.8503 40.9916 46.997C41.1822 47.0923 41.3546 47.184 41.5086 47.272C41.6626 47.36 41.7946 47.459 41.9046 47.569C42.0146 47.679 42.0989 47.811 42.1576 47.965C42.2236 48.1117 42.2566 48.2987 42.2566 48.526C42.2566 49.0467 42.1136 49.4573 41.8276 49.758C41.5416 50.0587 41.1382 50.209 40.6176 50.209C40.4709 50.209 40.3242 50.1943 40.1776 50.165C40.0382 50.1357 39.9099 50.0917 39.7926 50.033C39.6826 49.9817 39.5909 49.923 39.5176 49.857C39.4442 49.7837 39.4076 49.703 39.4076 49.615C39.4076 49.5563 39.4112 49.45 39.4186 49.296C39.4259 49.1347 39.4296 48.9257 39.4296 48.669C39.4296 48.5443 39.4699 48.482 39.5506 48.482C39.6166 48.482 39.6569 48.5407 39.6716 48.658C39.6936 48.768 39.7376 48.9513 39.8036 49.208C39.8769 49.472 39.9759 49.6737 40.1006 49.813C40.2326 49.945 40.4342 50.011 40.7056 50.011C41.0136 50.011 41.2592 49.912 41.4426 49.714C41.6332 49.5087 41.7286 49.241 41.7286 48.911C41.7286 48.6177 41.6479 48.3903 41.4866 48.229C41.3252 48.0603 41.0796 47.899 40.7496 47.745C40.3462 47.5543 40.0456 47.36 39.8476 47.162C39.6569 46.964 39.5616 46.7037 39.5616 46.381C39.5616 45.963 39.6936 45.622 39.9576 45.358C40.2216 45.094 40.5919 44.962 41.0686 44.962ZM45.131 44.962C45.505 44.962 45.7983 45.0207 46.011 45.138C46.231 45.2553 46.341 45.4203 46.341 45.633C46.341 46.0877 46.286 46.315 46.176 46.315C46.1027 46.315 46.0513 46.2747 46.022 46.194C45.9927 46.106 45.9377 45.985 45.857 45.831C45.7323 45.611 45.604 45.446 45.472 45.336C45.3473 45.226 45.1897 45.171 44.999 45.171C44.8157 45.171 44.6397 45.2223 44.471 45.325C44.3097 45.4203 44.1667 45.567 44.042 45.765C43.9173 45.963 43.8183 46.2087 43.745 46.502C43.6717 46.7953 43.635 47.1327 43.635 47.514C43.635 48.262 43.778 48.8377 44.064 49.241C44.35 49.637 44.724 49.835 45.186 49.835C45.3693 49.835 45.527 49.8057 45.659 49.747C45.7983 49.6883 45.9157 49.626 46.011 49.56C46.1063 49.4867 46.1797 49.4207 46.231 49.362C46.2823 49.3033 46.319 49.274 46.341 49.274C46.3923 49.274 46.418 49.296 46.418 49.34C46.418 49.3913 46.3813 49.4683 46.308 49.571C46.242 49.6663 46.1467 49.7617 46.022 49.857C45.8973 49.9523 45.747 50.033 45.571 50.099C45.395 50.1723 45.197 50.209 44.977 50.209C44.691 50.209 44.4233 50.1467 44.174 50.022C43.932 49.8973 43.7193 49.7213 43.536 49.494C43.3527 49.2593 43.2097 48.9807 43.107 48.658C43.0043 48.3353 42.953 47.976 42.953 47.58C42.953 47.184 43.0117 46.8247 43.129 46.502C43.2537 46.1793 43.415 45.9043 43.613 45.677C43.8183 45.4497 44.053 45.2737 44.317 45.149C44.581 45.0243 44.8523 44.962 45.131 44.962ZM49.0943 44.962C49.439 44.962 49.747 45.0243 50.0183 45.149C50.297 45.2737 50.528 45.4497 50.7113 45.677C50.902 45.9043 51.045 46.1793 51.1403 46.502C51.243 46.8247 51.2943 47.1803 51.2943 47.569C51.2943 47.965 51.243 48.328 51.1403 48.658C51.0377 48.9807 50.8873 49.2593 50.6893 49.494C50.4987 49.7213 50.264 49.8973 49.9853 50.022C49.7067 50.1467 49.3913 50.209 49.0393 50.209C48.724 50.209 48.438 50.143 48.1813 50.011C47.9247 49.8863 47.7047 49.7103 47.5213 49.483C47.338 49.2483 47.195 48.9697 47.0923 48.647C46.9897 48.3243 46.9383 47.9687 46.9383 47.58C46.9383 47.184 46.9897 46.8247 47.0923 46.502C47.2023 46.1793 47.3527 45.9043 47.5433 45.677C47.7413 45.4497 47.9723 45.2737 48.2363 45.149C48.5003 45.0243 48.7863 44.962 49.0943 44.962ZM49.1163 45.16C48.6543 45.16 48.2877 45.3617 48.0163 45.765C47.7523 46.161 47.6203 46.744 47.6203 47.514C47.6203 47.9027 47.657 48.251 47.7303 48.559C47.8037 48.8597 47.9063 49.12 48.0383 49.34C48.1703 49.5527 48.3243 49.7177 48.5003 49.835C48.6837 49.945 48.8817 50 49.0943 50C49.5637 50 49.9303 49.8057 50.1943 49.417C50.4583 49.021 50.5903 48.4453 50.5903 47.69C50.5903 46.8833 50.4547 46.26 50.1833 45.82C49.9193 45.38 49.5637 45.16 49.1163 45.16ZM52.991 42.63V49.329C52.991 49.483 53.0203 49.5893 53.079 49.648C53.1377 49.6993 53.2037 49.736 53.277 49.758C53.3503 49.7727 53.4163 49.7873 53.475 49.802C53.5337 49.8093 53.563 49.8423 53.563 49.901C53.563 49.9523 53.5483 49.9853 53.519 50C53.497 50.0073 53.4567 50.011 53.398 50.011C53.3393 50.011 53.2513 50.0037 53.134 49.989C53.0167 49.9743 52.8663 49.967 52.683 49.967C52.5217 49.967 52.375 49.9743 52.243 49.989C52.1183 50.0037 52.012 50.011 51.924 50.011C51.858 50.011 51.8103 50.0073 51.781 50C51.7517 49.9853 51.737 49.9523 51.737 49.901C51.737 49.8423 51.77 49.8093 51.836 49.802C51.902 49.7873 51.9753 49.769 52.056 49.747C52.1367 49.725 52.21 49.6883 52.276 49.637C52.342 49.5783 52.375 49.4757 52.375 49.329V43.499C52.375 43.169 52.2613 43.004 52.034 43.004C52.0267 43.004 52.012 43.0077 51.99 43.015C51.9753 43.015 51.9497 43.015 51.913 43.015C51.8617 43.015 51.836 42.982 51.836 42.916C51.836 42.8353 51.88 42.7877 51.968 42.773C52.056 42.7583 52.1587 42.7327 52.276 42.696C52.4667 42.63 52.6097 42.564 52.705 42.498C52.8077 42.4247 52.8773 42.388 52.914 42.388C52.9653 42.388 52.991 42.4687 52.991 42.63ZM55.1717 42.63V45.743C55.1717 45.8237 55.1827 45.864 55.2047 45.864C55.234 45.864 55.278 45.8127 55.3367 45.71C55.4027 45.6 55.509 45.4827 55.6557 45.358C55.8097 45.226 55.9563 45.127 56.0957 45.061C56.2423 44.995 56.4147 44.962 56.6127 44.962C57.0233 44.962 57.357 45.1123 57.6137 45.413C57.8703 45.7063 57.9987 46.095 57.9987 46.579V49.329C57.9987 49.483 58.028 49.5893 58.0867 49.648C58.1453 49.6993 58.2113 49.736 58.2847 49.758C58.358 49.7727 58.424 49.7873 58.4827 49.802C58.5413 49.8093 58.5707 49.8423 58.5707 49.901C58.5707 49.9523 58.556 49.9853 58.5267 50C58.5047 50.0073 58.4643 50.011 58.4057 50.011C58.3543 50.011 58.27 50.0037 58.1527 49.989C58.0353 49.9743 57.8813 49.967 57.6907 49.967C57.5367 49.967 57.401 49.9743 57.2837 49.989C57.1737 50.0037 57.0783 50.011 56.9977 50.011C56.9317 50.011 56.884 50.0073 56.8547 50C56.8253 49.9927 56.8107 49.9597 56.8107 49.901C56.8107 49.8423 56.84 49.8093 56.8987 49.802C56.9647 49.7873 57.0307 49.769 57.0967 49.747C57.17 49.725 57.236 49.6883 57.2947 49.637C57.3607 49.5783 57.3937 49.4757 57.3937 49.329V47.118C57.3937 46.546 57.3167 46.117 57.1627 45.831C57.0087 45.545 56.7337 45.402 56.3377 45.402C55.9197 45.402 55.619 45.5633 55.4357 45.886C55.2597 46.2087 55.1717 46.6853 55.1717 47.316V49.329C55.1717 49.483 55.201 49.5893 55.2597 49.648C55.3183 49.6993 55.3843 49.736 55.4577 49.758C55.531 49.7727 55.597 49.7873 55.6557 49.802C55.7143 49.8093 55.7437 49.8423 55.7437 49.901C55.7437 49.9523 55.729 49.9853 55.6997 50C55.6777 50.0073 55.6373 50.011 55.5787 50.011C55.5273 50.011 55.443 50.0037 55.3257 49.989C55.2083 49.9743 55.0543 49.967 54.8637 49.967C54.7097 49.967 54.574 49.9743 54.4567 49.989C54.3467 50.0037 54.2513 50.011 54.1707 50.011C54.1047 50.011 54.057 50.0073 54.0277 50C53.9983 49.9927 53.9837 49.9597 53.9837 49.901C53.9837 49.8423 54.013 49.8093 54.0717 49.802C54.1303 49.7873 54.1963 49.769 54.2697 49.747C54.343 49.725 54.409 49.6883 54.4677 49.637C54.5263 49.5783 54.5557 49.4757 54.5557 49.329V43.499C54.5557 43.169 54.442 43.004 54.2147 43.004C54.2073 43.004 54.1927 43.0077 54.1707 43.015C54.156 43.015 54.1303 43.015 54.0937 43.015C54.0423 43.015 54.0167 42.982 54.0167 42.916C54.0167 42.8353 54.0607 42.7877 54.1487 42.773C54.2367 42.7583 54.3393 42.7327 54.4567 42.696C54.6473 42.63 54.7903 42.564 54.8857 42.498C54.9883 42.4247 55.058 42.388 55.0947 42.388C55.146 42.388 55.1717 42.4687 55.1717 42.63ZM61.981 46.205V48.966C61.981 49.4207 62.08 49.648 62.278 49.648C62.3587 49.648 62.432 49.6077 62.498 49.527C62.5713 49.4463 62.63 49.406 62.674 49.406C62.7253 49.406 62.751 49.4317 62.751 49.483C62.751 49.5417 62.718 49.6113 62.652 49.692C62.5933 49.7653 62.52 49.8387 62.432 49.912C62.344 49.9853 62.2487 50.044 62.146 50.088C62.0507 50.1393 61.9663 50.165 61.893 50.165C61.7463 50.165 61.6327 50.11 61.552 50C61.4787 49.8827 61.409 49.6957 61.343 49.439H61.299C61.0203 49.6737 60.771 49.8607 60.551 50C60.3383 50.1393 60.1147 50.209 59.88 50.209C59.616 50.209 59.4107 50.132 59.264 49.978C59.1173 49.8167 59.044 49.604 59.044 49.34C59.044 49.1347 59.0917 48.944 59.187 48.768C59.2823 48.5847 59.4253 48.4087 59.616 48.24C59.814 48.064 60.056 47.8843 60.342 47.701C60.628 47.5177 60.958 47.3197 61.332 47.107V46.139C61.332 45.8017 61.2953 45.5597 61.222 45.413C61.156 45.2663 61.0093 45.193 60.782 45.193C60.5913 45.193 60.4117 45.259 60.243 45.391C60.0743 45.523 59.957 45.6807 59.891 45.864C59.8103 46.0913 59.7297 46.2857 59.649 46.447C59.5683 46.601 59.4253 46.678 59.22 46.678C59.1687 46.678 59.1247 46.6633 59.088 46.634C59.0513 46.5973 59.033 46.5497 59.033 46.491C59.033 46.359 59.0807 46.205 59.176 46.029C59.2713 45.853 59.407 45.6843 59.583 45.523C59.759 45.3617 59.968 45.226 60.21 45.116C60.452 45.006 60.716 44.951 61.002 44.951C61.2293 44.951 61.409 44.9803 61.541 45.039C61.673 45.0977 61.772 45.182 61.838 45.292C61.904 45.402 61.9443 45.534 61.959 45.688C61.9737 45.842 61.981 46.0143 61.981 46.205ZM61.343 47.547C61.343 47.4737 61.321 47.437 61.277 47.437C61.255 47.437 61.2183 47.4517 61.167 47.481L60.837 47.668C60.089 48.1007 59.715 48.559 59.715 49.043C59.715 49.2483 59.7663 49.4133 59.869 49.538C59.9717 49.6553 60.1147 49.714 60.298 49.714C60.408 49.714 60.5217 49.6883 60.639 49.637C60.7637 49.5857 60.8773 49.5123 60.98 49.417C61.09 49.3143 61.178 49.1933 61.244 49.054C61.31 48.9073 61.343 48.7423 61.343 48.559V47.547Z" fill="#1E1E1E"/>
</svg>
