<svg width="147" height="52" viewBox="0 0 147 52" fill="none" xmlns="http://www.w3.org/2000/svg">
<path d="M146.5 26C146.5 29.3836 144.563 32.6762 140.903 35.7368C137.246 38.7952 131.925 41.5718 125.306 43.9134C112.071 48.595 93.7551 51.5 73.5 51.5C53.2449 51.5 34.9289 48.595 21.6944 43.9134C15.0749 41.5718 9.75358 38.7952 6.09677 35.7368C2.43724 32.6762 0.5 29.3836 0.5 26C0.5 22.6164 2.43724 19.3238 6.09677 16.2632C9.75358 13.2048 15.0749 10.4282 21.6944 8.0866C34.9289 3.40501 53.2449 0.5 73.5 0.5C93.7551 0.5 112.071 3.40501 125.306 8.0866C131.925 10.4282 137.246 13.2048 140.903 16.2632C144.563 19.3238 146.5 22.6164 146.5 26Z" fill="#F8FC5F" stroke="#707070"/>
<path d="M37.7556 12.724L43.0836 29.752C43.3716 30.664 43.6236 31.372 43.8396 31.876C44.0796 32.38 44.3676 32.728 44.7036 32.92C44.8476 32.992 45.0036 33.04 45.1716 33.064C45.3396 33.088 45.4956 33.112 45.6396 33.136C45.7836 33.16 45.9036 33.208 45.9996 33.28C46.1196 33.328 46.1796 33.424 46.1796 33.568C46.1796 33.88 45.9396 34.036 45.4596 34.036C45.2676 34.036 44.8956 34 44.3436 33.928C43.7916 33.856 43.0356 33.82 42.0756 33.82C41.5236 33.82 41.0196 33.856 40.5636 33.928C40.1076 33.976 39.6756 34 39.2676 34C39.0036 34 38.8116 33.976 38.6916 33.928C38.5716 33.88 38.5116 33.76 38.5116 33.568C38.5116 33.208 38.8956 33.004 39.6636 32.956C40.1436 32.908 40.4796 32.86 40.6716 32.812C40.8876 32.74 40.9956 32.512 40.9956 32.128C40.9956 32.056 40.9716 31.876 40.9236 31.588C40.8996 31.276 40.8276 30.916 40.7076 30.508L39.3036 26.008C39.2316 25.72 39.0756 25.576 38.8356 25.576H33.3996C33.2796 25.576 33.1716 25.624 33.0756 25.72C32.9796 25.792 32.9076 25.912 32.8596 26.08L31.7076 30.4C31.5396 31 31.4556 31.492 31.4556 31.876C31.4556 32.236 31.5396 32.488 31.7076 32.632C31.8996 32.752 32.1636 32.836 32.4996 32.884C33.0276 32.956 33.4116 33.04 33.6516 33.136C33.9156 33.232 34.0476 33.412 34.0476 33.676C34.0476 33.964 33.8316 34.108 33.3996 34.108C33.1356 34.108 32.7636 34.06 32.2836 33.964C31.8276 33.868 31.2756 33.82 30.6276 33.82C30.1476 33.82 29.7036 33.868 29.2956 33.964C28.9116 34.036 28.5636 34.072 28.2516 34.072C27.8676 34.072 27.6756 33.916 27.6756 33.604C27.6756 33.388 27.7476 33.256 27.8916 33.208C28.0116 33.16 28.1796 33.124 28.3956 33.1C28.5876 33.052 28.8036 33.004 29.0436 32.956C29.2836 32.884 29.5116 32.728 29.7276 32.488C29.9196 32.248 30.0996 31.864 30.2676 31.336C30.4596 30.784 30.6876 30.076 30.9516 29.212L36.2436 11.536C36.3396 11.272 36.4116 11.068 36.4596 10.924C36.5076 10.756 36.6276 10.672 36.8196 10.672C37.0836 10.672 37.2516 10.864 37.3236 11.248C37.4196 11.608 37.5636 12.1 37.7556 12.724ZM36.2076 16.396C36.1356 16.18 36.0636 16.072 35.9916 16.072C35.9196 16.072 35.8476 16.168 35.7756 16.36L33.5796 23.884C33.5316 24.028 33.5076 24.124 33.5076 24.172C33.5076 24.34 33.6156 24.424 33.8316 24.424H38.2596C38.5236 24.424 38.6556 24.304 38.6556 24.064C38.6556 23.944 38.6436 23.86 38.6196 23.812L36.2076 16.396ZM53.271 17.512C54.495 17.512 55.455 17.704 56.151 18.088C56.871 18.472 57.231 19.012 57.231 19.708C57.231 21.196 57.051 21.94 56.691 21.94C56.451 21.94 56.283 21.808 56.187 21.544C56.091 21.256 55.911 20.86 55.647 20.356C55.239 19.636 54.819 19.096 54.387 18.736C53.979 18.376 53.463 18.196 52.839 18.196C52.239 18.196 51.663 18.364 51.111 18.7C50.583 19.012 50.115 19.492 49.707 20.14C49.299 20.788 48.975 21.592 48.735 22.552C48.495 23.512 48.375 24.616 48.375 25.864C48.375 28.312 48.843 30.196 49.779 31.516C50.715 32.812 51.939 33.46 53.451 33.46C54.051 33.46 54.567 33.364 54.999 33.172C55.455 32.98 55.839 32.776 56.151 32.56C56.463 32.32 56.703 32.104 56.871 31.912C57.039 31.72 57.159 31.624 57.231 31.624C57.399 31.624 57.483 31.696 57.483 31.84C57.483 32.008 57.363 32.26 57.123 32.596C56.907 32.908 56.595 33.22 56.187 33.532C55.779 33.844 55.287 34.108 54.711 34.324C54.135 34.564 53.487 34.684 52.767 34.684C51.831 34.684 50.955 34.48 50.139 34.072C49.347 33.664 48.651 33.088 48.051 32.344C47.451 31.576 46.983 30.664 46.647 29.608C46.311 28.552 46.143 27.376 46.143 26.08C46.143 24.784 46.335 23.608 46.719 22.552C47.127 21.496 47.655 20.596 48.303 19.852C48.975 19.108 49.743 18.532 50.607 18.124C51.471 17.716 52.359 17.512 53.271 17.512ZM65.09 23.02C66.578 23.02 67.67 22.936 68.366 22.768C69.062 22.576 69.41 22.132 69.41 21.436C69.41 21.052 69.326 20.668 69.158 20.284C68.99 19.9 68.75 19.552 68.438 19.24C68.15 18.928 67.802 18.676 67.394 18.484C66.986 18.292 66.554 18.196 66.098 18.196C65.522 18.196 64.97 18.34 64.442 18.628C63.914 18.916 63.446 19.276 63.038 19.708C62.654 20.14 62.342 20.62 62.102 21.148C61.862 21.676 61.742 22.192 61.742 22.696C61.742 22.768 61.778 22.84 61.85 22.912C61.922 22.984 62.018 23.02 62.138 23.02H65.09ZM70.67 23.884H62.102C61.79 23.884 61.598 23.992 61.526 24.208C61.454 24.4 61.418 24.796 61.418 25.396C61.418 26.596 61.55 27.664 61.814 28.6C62.102 29.536 62.486 30.328 62.966 30.976C63.47 31.624 64.058 32.128 64.73 32.488C65.426 32.824 66.182 32.992 66.998 32.992C67.742 32.992 68.366 32.872 68.87 32.632C69.398 32.392 69.83 32.128 70.166 31.84C70.502 31.552 70.766 31.288 70.958 31.048C71.15 30.808 71.282 30.688 71.354 30.688C71.522 30.688 71.606 30.784 71.606 30.976C71.606 31.24 71.474 31.588 71.21 32.02C70.946 32.428 70.562 32.836 70.058 33.244C69.578 33.628 68.978 33.964 68.258 34.252C67.562 34.54 66.782 34.684 65.918 34.684C64.934 34.684 64.022 34.48 63.182 34.072C62.366 33.664 61.658 33.088 61.058 32.344C60.458 31.6 59.99 30.7 59.654 29.644C59.342 28.588 59.186 27.412 59.186 26.116C59.186 24.796 59.378 23.608 59.762 22.552C60.146 21.472 60.662 20.56 61.31 19.816C61.958 19.072 62.714 18.508 63.578 18.124C64.442 17.716 65.354 17.512 66.314 17.512C67.154 17.512 67.91 17.668 68.582 17.98C69.254 18.292 69.818 18.712 70.274 19.24C70.754 19.744 71.114 20.344 71.354 21.04C71.618 21.712 71.75 22.408 71.75 23.128C71.75 23.392 71.666 23.584 71.498 23.704C71.354 23.824 71.078 23.884 70.67 23.884ZM78.9992 17.512C79.7432 17.512 80.3192 17.56 80.7272 17.656C81.1592 17.728 81.4712 17.848 81.6632 18.016C81.8792 18.16 82.0112 18.34 82.0592 18.556C82.1072 18.748 82.1312 18.964 82.1312 19.204V20.68C82.1312 21.16 82.0232 21.4 81.8072 21.4C81.5912 21.4 81.4712 21.256 81.4472 20.968C81.4232 20.656 81.2552 20.236 80.9432 19.708C80.6312 19.18 80.2472 18.784 79.7912 18.52C79.3352 18.256 78.8552 18.124 78.3512 18.124C77.6552 18.124 77.0672 18.376 76.5872 18.88C76.1072 19.36 75.8672 19.996 75.8672 20.788C75.8672 21.628 76.1072 22.288 76.5872 22.768C77.0672 23.224 77.7872 23.692 78.7472 24.172C79.3712 24.484 79.9352 24.784 80.4392 25.072C80.9432 25.36 81.3752 25.684 81.7352 26.044C82.0952 26.404 82.3712 26.836 82.5632 27.34C82.7792 27.82 82.8872 28.432 82.8872 29.176C82.8872 30.88 82.4192 32.224 81.4832 33.208C80.5472 34.192 79.2272 34.684 77.5232 34.684C77.0432 34.684 76.5632 34.636 76.0832 34.54C75.6272 34.444 75.2072 34.3 74.8232 34.108C74.4632 33.94 74.1632 33.748 73.9232 33.532C73.6832 33.292 73.5632 33.028 73.5632 32.74C73.5632 32.548 73.5752 32.2 73.5992 31.696C73.6232 31.168 73.6352 30.484 73.6352 29.644C73.6352 29.236 73.7672 29.032 74.0312 29.032C74.2472 29.032 74.3792 29.224 74.4272 29.608C74.4992 29.968 74.6432 30.568 74.8592 31.408C75.0992 32.272 75.4232 32.932 75.8312 33.388C76.2632 33.82 76.9232 34.036 77.8112 34.036C78.8192 34.036 79.6232 33.712 80.2232 33.064C80.8472 32.392 81.1592 31.516 81.1592 30.436C81.1592 29.476 80.8952 28.732 80.3672 28.204C79.8392 27.652 79.0352 27.124 77.9552 26.62C76.6352 25.996 75.6512 25.36 75.0032 24.712C74.3792 24.064 74.0672 23.212 74.0672 22.156C74.0672 20.788 74.4992 19.672 75.3632 18.808C76.2272 17.944 77.4392 17.512 78.9992 17.512ZM90.5305 17.512C91.2745 17.512 91.8505 17.56 92.2585 17.656C92.6905 17.728 93.0025 17.848 93.1945 18.016C93.4105 18.16 93.5425 18.34 93.5905 18.556C93.6385 18.748 93.6625 18.964 93.6625 19.204V20.68C93.6625 21.16 93.5545 21.4 93.3385 21.4C93.1225 21.4 93.0025 21.256 92.9785 20.968C92.9545 20.656 92.7865 20.236 92.4745 19.708C92.1625 19.18 91.7785 18.784 91.3225 18.52C90.8665 18.256 90.3865 18.124 89.8825 18.124C89.1865 18.124 88.5985 18.376 88.1185 18.88C87.6385 19.36 87.3985 19.996 87.3985 20.788C87.3985 21.628 87.6385 22.288 88.1185 22.768C88.5985 23.224 89.3185 23.692 90.2785 24.172C90.9025 24.484 91.4665 24.784 91.9705 25.072C92.4745 25.36 92.9065 25.684 93.2665 26.044C93.6265 26.404 93.9025 26.836 94.0945 27.34C94.3105 27.82 94.4185 28.432 94.4185 29.176C94.4185 30.88 93.9505 32.224 93.0145 33.208C92.0785 34.192 90.7585 34.684 89.0545 34.684C88.5745 34.684 88.0945 34.636 87.6145 34.54C87.1585 34.444 86.7385 34.3 86.3545 34.108C85.9945 33.94 85.6945 33.748 85.4545 33.532C85.2145 33.292 85.0945 33.028 85.0945 32.74C85.0945 32.548 85.1065 32.2 85.1305 31.696C85.1545 31.168 85.1665 30.484 85.1665 29.644C85.1665 29.236 85.2985 29.032 85.5625 29.032C85.7785 29.032 85.9105 29.224 85.9585 29.608C86.0305 29.968 86.1745 30.568 86.3905 31.408C86.6305 32.272 86.9545 32.932 87.3625 33.388C87.7945 33.82 88.4545 34.036 89.3425 34.036C90.3505 34.036 91.1545 33.712 91.7545 33.064C92.3785 32.392 92.6905 31.516 92.6905 30.436C92.6905 29.476 92.4265 28.732 91.8985 28.204C91.3705 27.652 90.5665 27.124 89.4865 26.62C88.1665 25.996 87.1825 25.36 86.5345 24.712C85.9105 24.064 85.5985 23.212 85.5985 22.156C85.5985 20.788 86.0305 19.672 86.8945 18.808C87.7585 17.944 88.9705 17.512 90.5305 17.512ZM106.202 21.58V30.616C106.202 32.104 106.526 32.848 107.174 32.848C107.438 32.848 107.678 32.716 107.894 32.452C108.134 32.188 108.326 32.056 108.47 32.056C108.638 32.056 108.722 32.14 108.722 32.308C108.722 32.5 108.614 32.728 108.398 32.992C108.206 33.232 107.966 33.472 107.678 33.712C107.39 33.952 107.078 34.144 106.742 34.288C106.43 34.456 106.154 34.54 105.914 34.54C105.434 34.54 105.062 34.36 104.798 34C104.558 33.616 104.33 33.004 104.114 32.164H103.97C103.058 32.932 102.242 33.544 101.522 34C100.826 34.456 100.094 34.684 99.3257 34.684C98.4617 34.684 97.7897 34.432 97.3097 33.928C96.8297 33.4 96.5897 32.704 96.5897 31.84C96.5897 31.168 96.7457 30.544 97.0577 29.968C97.3697 29.368 97.8377 28.792 98.4617 28.24C99.1097 27.664 99.9017 27.076 100.838 26.476C101.774 25.876 102.854 25.228 104.078 24.532V21.364C104.078 20.26 103.958 19.468 103.718 18.988C103.502 18.508 103.022 18.268 102.278 18.268C101.654 18.268 101.066 18.484 100.514 18.916C99.9617 19.348 99.5777 19.864 99.3617 20.464C99.0977 21.208 98.8337 21.844 98.5697 22.372C98.3057 22.876 97.8377 23.128 97.1657 23.128C96.9977 23.128 96.8537 23.08 96.7337 22.984C96.6137 22.864 96.5537 22.708 96.5537 22.516C96.5537 22.084 96.7097 21.58 97.0217 21.004C97.3337 20.428 97.7777 19.876 98.3537 19.348C98.9297 18.82 99.6137 18.376 100.406 18.016C101.198 17.656 102.062 17.476 102.998 17.476C103.742 17.476 104.33 17.572 104.762 17.764C105.194 17.956 105.518 18.232 105.734 18.592C105.95 18.952 106.082 19.384 106.13 19.888C106.178 20.392 106.202 20.956 106.202 21.58ZM104.114 25.972C104.114 25.732 104.042 25.612 103.898 25.612C103.826 25.612 103.706 25.66 103.538 25.756L102.458 26.368C100.01 27.784 98.7857 29.284 98.7857 30.868C98.7857 31.54 98.9537 32.08 99.2897 32.488C99.6257 32.872 100.094 33.064 100.694 33.064C101.054 33.064 101.426 32.98 101.81 32.812C102.218 32.644 102.59 32.404 102.926 32.092C103.286 31.756 103.574 31.36 103.79 30.904C104.006 30.424 104.114 29.884 104.114 29.284V25.972ZM113.34 18.376V20.428C113.34 20.596 113.388 20.68 113.484 20.68C113.556 20.68 113.64 20.62 113.736 20.5L114.384 19.564C115.392 18.196 116.46 17.512 117.588 17.512C118.188 17.512 118.656 17.68 118.992 18.016C119.328 18.328 119.496 18.724 119.496 19.204C119.496 19.684 119.364 20.08 119.1 20.392C118.86 20.68 118.584 20.824 118.272 20.824C118.032 20.824 117.816 20.752 117.624 20.608C117.456 20.464 117.276 20.308 117.084 20.14C116.916 19.948 116.736 19.78 116.544 19.636C116.352 19.492 116.112 19.42 115.824 19.42C115.56 19.42 115.284 19.528 114.996 19.744C114.732 19.96 114.48 20.308 114.24 20.788C114 21.244 113.808 21.832 113.664 22.552C113.52 23.272 113.448 24.136 113.448 25.144V31.084C113.448 31.708 113.496 32.152 113.592 32.416C113.688 32.68 113.916 32.884 114.276 33.028C114.588 33.148 114.864 33.22 115.104 33.244C115.344 33.268 115.548 33.292 115.716 33.316C115.884 33.316 116.004 33.34 116.076 33.388C116.172 33.412 116.22 33.508 116.22 33.676C116.22 33.94 116.028 34.072 115.644 34.072C115.332 34.072 114.9 34.048 114.348 34C113.82 33.928 113.184 33.892 112.44 33.892C111.96 33.892 111.516 33.916 111.108 33.964C110.724 34.012 110.388 34.036 110.1 34.036C109.908 34.036 109.764 34.024 109.668 34C109.596 33.952 109.56 33.844 109.56 33.676C109.56 33.436 109.644 33.316 109.812 33.316C110.004 33.316 110.304 33.244 110.712 33.1C111.024 32.98 111.216 32.776 111.288 32.488C111.384 32.176 111.432 31.708 111.432 31.084V21.544C111.432 21.112 111.348 20.824 111.18 20.68C111.036 20.536 110.868 20.452 110.676 20.428C110.508 20.404 110.352 20.392 110.208 20.392C110.064 20.392 109.992 20.308 109.992 20.14C109.992 19.948 110.112 19.804 110.352 19.708C110.616 19.588 110.904 19.42 111.216 19.204C111.768 18.82 112.188 18.448 112.476 18.088C112.764 17.704 112.98 17.512 113.124 17.512C113.244 17.512 113.304 17.596 113.304 17.764C113.328 17.908 113.34 18.112 113.34 18.376Z" fill="#1E1E1E"/>
</svg>
