<svg width="115" height="93" viewBox="0 0 115 93" fill="none" xmlns="http://www.w3.org/2000/svg">
<path d="M114.5 46.5C114.5 71.8112 89.0846 92.5 57.5 92.5C25.9154 92.5 0.5 71.8112 0.5 46.5C0.5 21.1888 25.9154 0.5 57.5 0.5C89.0846 0.5 114.5 21.1888 114.5 46.5Z" fill="#F8FC5F" stroke="#707070"/>
<path d="M42.6032 47.535C42.6032 47.007 42.6802 46.5193 42.8342 46.072C42.9955 45.6247 43.2119 45.2397 43.4832 44.917C43.7619 44.587 44.0845 44.3303 44.4512 44.147C44.8179 43.9637 45.2139 43.872 45.6392 43.872C45.8225 43.872 45.9949 43.8867 46.1562 43.916C46.3249 43.9453 46.4752 43.982 46.6072 44.026C46.7465 44.0627 46.8602 44.1067 46.9482 44.158C47.0435 44.202 47.1095 44.2423 47.1462 44.279C47.1829 44.323 47.2122 44.444 47.2342 44.642C47.2562 44.84 47.2672 45.1077 47.2672 45.445C47.2672 45.5403 47.2342 45.588 47.1682 45.588C47.0949 45.588 47.0472 45.5293 47.0252 45.412C47.0032 45.2947 46.9445 45.1517 46.8492 44.983C46.5559 44.4403 46.1269 44.169 45.5622 44.169C45.2689 44.169 44.9939 44.246 44.7372 44.4C44.4879 44.554 44.2679 44.774 44.0772 45.06C43.8865 45.346 43.7362 45.698 43.6262 46.116C43.5162 46.534 43.4612 47.007 43.4612 47.535C43.4612 48.0263 43.5162 48.4773 43.6262 48.888C43.7362 49.2987 43.8865 49.6543 44.0772 49.955C44.2752 50.2483 44.5025 50.4793 44.7592 50.648C45.0159 50.8093 45.2909 50.89 45.5842 50.89C45.9362 50.89 46.2222 50.7873 46.4422 50.582C46.6622 50.3767 46.8455 50.0687 46.9922 49.658C47.0509 49.4967 47.0875 49.372 47.1022 49.284C47.1242 49.1887 47.1645 49.141 47.2232 49.141C47.2965 49.141 47.3332 49.2033 47.3332 49.328C47.3332 49.6947 47.3259 49.9807 47.3112 50.186C47.3039 50.384 47.2782 50.516 47.2342 50.582C47.1902 50.648 47.1169 50.7177 47.0142 50.791C46.9115 50.8643 46.7869 50.934 46.6402 51C46.4935 51.0587 46.3285 51.1063 46.1452 51.143C45.9619 51.187 45.7602 51.209 45.5402 51.209C45.1222 51.209 44.7335 51.1173 44.3742 50.934C44.0149 50.7507 43.7032 50.494 43.4392 50.164C43.1752 49.834 42.9699 49.4453 42.8232 48.998C42.6765 48.5507 42.6032 48.063 42.6032 47.535ZM50.2472 45.962C50.5918 45.962 50.8998 46.0243 51.1712 46.149C51.4498 46.2737 51.6808 46.4497 51.8642 46.677C52.0548 46.9043 52.1978 47.1793 52.2932 47.502C52.3958 47.8247 52.4472 48.1803 52.4472 48.569C52.4472 48.965 52.3958 49.328 52.2932 49.658C52.1905 49.9807 52.0402 50.2593 51.8422 50.494C51.6515 50.7213 51.4168 50.8973 51.1382 51.022C50.8595 51.1467 50.5442 51.209 50.1922 51.209C49.8768 51.209 49.5908 51.143 49.3342 51.011C49.0775 50.8863 48.8575 50.7103 48.6742 50.483C48.4908 50.2483 48.3478 49.9697 48.2452 49.647C48.1425 49.3243 48.0912 48.9687 48.0912 48.58C48.0912 48.184 48.1425 47.8247 48.2452 47.502C48.3552 47.1793 48.5055 46.9043 48.6962 46.677C48.8942 46.4497 49.1252 46.2737 49.3892 46.149C49.6532 46.0243 49.9392 45.962 50.2472 45.962ZM50.2692 46.16C49.8072 46.16 49.4405 46.3617 49.1692 46.765C48.9052 47.161 48.7732 47.744 48.7732 48.514C48.7732 48.9027 48.8098 49.251 48.8832 49.559C48.9565 49.8597 49.0592 50.12 49.1912 50.34C49.3232 50.5527 49.4772 50.7177 49.6532 50.835C49.8365 50.945 50.0345 51 50.2472 51C50.7165 51 51.0832 50.8057 51.3472 50.417C51.6112 50.021 51.7432 49.4453 51.7432 48.69C51.7432 47.8833 51.6075 47.26 51.3362 46.82C51.0722 46.38 50.7165 46.16 50.2692 46.16ZM54.1108 46.226V46.743C54.1108 46.8237 54.1255 46.864 54.1548 46.864C54.1842 46.864 54.2245 46.8127 54.2758 46.71C54.3272 46.6 54.4225 46.4827 54.5618 46.358C54.7085 46.226 54.8515 46.127 54.9908 46.061C55.1302 45.995 55.2842 45.962 55.4528 45.962C55.7535 45.962 55.9992 46.0463 56.1898 46.215C56.3805 46.3763 56.5345 46.6293 56.6518 46.974H56.6958C56.9085 46.6293 57.1212 46.3763 57.3338 46.215C57.5465 46.0463 57.7812 45.962 58.0378 45.962C58.4192 45.962 58.7272 46.1123 58.9618 46.413C59.1965 46.7137 59.3138 47.1207 59.3138 47.634C59.3138 47.6707 59.3138 47.7477 59.3138 47.865C59.3212 47.975 59.3248 48.1253 59.3248 48.316V50.329C59.3248 50.483 59.3505 50.5893 59.4018 50.648C59.4605 50.6993 59.5228 50.736 59.5888 50.758C59.6548 50.7727 59.7135 50.7873 59.7648 50.802C59.8235 50.8093 59.8528 50.8423 59.8528 50.901C59.8528 50.9523 59.8418 50.9853 59.8198 51C59.7978 51.0073 59.7575 51.011 59.6988 51.011C59.6548 51.011 59.5778 51.0037 59.4678 50.989C59.3578 50.9743 59.2112 50.967 59.0278 50.967C58.8665 50.967 58.7272 50.9743 58.6098 50.989C58.4998 51.0037 58.4082 51.011 58.3348 51.011C58.2762 51.011 58.2322 51.0073 58.2028 51C58.1808 50.9853 58.1698 50.9523 58.1698 50.901C58.1698 50.8423 58.1955 50.8093 58.2468 50.802C58.3055 50.7873 58.3678 50.769 58.4338 50.747C58.5072 50.725 58.5695 50.6883 58.6208 50.637C58.6795 50.5783 58.7088 50.4757 58.7088 50.329V48.118C58.7088 47.546 58.6392 47.117 58.4998 46.831C58.3678 46.545 58.1258 46.402 57.7738 46.402C57.4878 46.402 57.2458 46.5303 57.0478 46.787C56.8572 47.0437 56.7582 47.4397 56.7508 47.975L56.7288 50.329C56.7288 50.4757 56.7545 50.5783 56.8058 50.637C56.8645 50.6883 56.9268 50.725 56.9928 50.747C57.0662 50.769 57.1285 50.7873 57.1798 50.802C57.2385 50.8093 57.2678 50.8423 57.2678 50.901C57.2678 50.9523 57.2568 50.9853 57.2348 51C57.2128 51.0073 57.1725 51.011 57.1138 51.011C57.0625 51.011 56.9818 51.0037 56.8718 50.989C56.7618 50.9743 56.6188 50.967 56.4428 50.967C56.2448 50.967 56.0872 50.9743 55.9698 50.989C55.8525 51.0037 55.7755 51.011 55.7388 51.011C55.6802 51.011 55.6398 51.0073 55.6178 51C55.5958 50.9853 55.5848 50.9523 55.5848 50.901C55.5848 50.8423 55.6105 50.8093 55.6618 50.802C55.7205 50.7873 55.7828 50.769 55.8488 50.747C55.9148 50.725 55.9735 50.6883 56.0248 50.637C56.0835 50.5783 56.1128 50.4757 56.1128 50.329V48.118C56.1128 47.546 56.0432 47.117 55.9038 46.831C55.7645 46.545 55.5225 46.402 55.1778 46.402C54.8918 46.402 54.6462 46.5377 54.4408 46.809C54.2428 47.073 54.1438 47.4617 54.1438 47.975V50.329C54.1438 50.483 54.1732 50.5893 54.2318 50.648C54.2905 50.6993 54.3565 50.736 54.4298 50.758C54.5032 50.7727 54.5692 50.7873 54.6278 50.802C54.6865 50.8093 54.7158 50.8423 54.7158 50.901C54.7158 50.9523 54.7012 50.9853 54.6718 51C54.6498 51.0073 54.6095 51.011 54.5508 51.011C54.5215 51.011 54.4482 51.0037 54.3308 50.989C54.2135 50.9743 54.0485 50.967 53.8358 50.967C53.6818 50.967 53.5425 50.9743 53.4178 50.989C53.3005 51.0037 53.2015 51.011 53.1208 51.011C53.0622 51.011 53.0182 51.0073 52.9888 51C52.9668 50.9853 52.9558 50.9523 52.9558 50.901C52.9558 50.8423 52.9852 50.8093 53.0438 50.802C53.1025 50.7873 53.1685 50.769 53.2418 50.747C53.3152 50.725 53.3812 50.6883 53.4398 50.637C53.4985 50.5783 53.5278 50.4757 53.5278 50.329V47.194C53.5278 47.062 53.5022 46.974 53.4508 46.93C53.4068 46.886 53.3555 46.8603 53.2968 46.853C53.2455 46.8457 53.1978 46.842 53.1538 46.842C53.1098 46.842 53.0878 46.8163 53.0878 46.765C53.0878 46.699 53.1245 46.655 53.1978 46.633C53.2785 46.6037 53.3592 46.5597 53.4398 46.501C53.6305 46.369 53.7698 46.248 53.8578 46.138C53.9458 46.0207 54.0082 45.962 54.0448 45.962C54.0815 45.962 54.0998 45.9877 54.0998 46.039C54.1072 46.083 54.1108 46.1453 54.1108 46.226ZM61.48 46.226V46.699C61.48 46.765 61.4983 46.798 61.535 46.798C61.557 46.798 61.6046 46.754 61.678 46.666C61.7513 46.578 61.8466 46.4827 61.964 46.38C62.0886 46.27 62.2353 46.171 62.404 46.083C62.5726 45.995 62.7706 45.951 62.998 45.951C63.2473 45.951 63.4783 46.0133 63.691 46.138C63.911 46.2553 64.098 46.4277 64.252 46.655C64.4133 46.875 64.538 47.1427 64.626 47.458C64.7213 47.7733 64.769 48.1253 64.769 48.514C64.769 48.932 64.714 49.3097 64.604 49.647C64.5013 49.977 64.3583 50.2593 64.175 50.494C63.9916 50.7213 63.7753 50.8973 63.526 51.022C63.2766 51.1467 63.0053 51.209 62.712 51.209C62.4993 51.209 62.3013 51.1797 62.118 51.121C61.942 51.0697 61.7586 50.9817 61.568 50.857H61.513V52.749C61.513 52.903 61.5496 53.0057 61.623 53.057C61.6963 53.1157 61.777 53.1523 61.865 53.167C61.9603 53.1817 62.0446 53.1927 62.118 53.2C62.1913 53.2147 62.228 53.255 62.228 53.321C62.228 53.3943 62.173 53.431 62.063 53.431C61.997 53.431 61.9016 53.4237 61.777 53.409C61.6523 53.3943 61.4946 53.387 61.304 53.387C61.0986 53.387 60.9263 53.3943 60.787 53.409C60.655 53.4237 60.5523 53.431 60.479 53.431C60.3763 53.431 60.325 53.3943 60.325 53.321C60.325 53.2623 60.3543 53.2257 60.413 53.211C60.4716 53.2037 60.5376 53.189 60.611 53.167C60.6843 53.145 60.7503 53.1047 60.809 53.046C60.8676 52.9947 60.897 52.8957 60.897 52.749V47.194C60.897 47.062 60.8713 46.974 60.82 46.93C60.776 46.886 60.7246 46.8603 60.666 46.853C60.6146 46.8457 60.567 46.842 60.523 46.842C60.479 46.842 60.457 46.8163 60.457 46.765C60.457 46.699 60.4936 46.655 60.567 46.633C60.6476 46.6037 60.7283 46.5597 60.809 46.501C60.9996 46.369 61.139 46.248 61.227 46.138C61.315 46.0207 61.3773 45.962 61.414 45.962C61.4506 45.962 61.469 45.9877 61.469 46.039C61.4763 46.083 61.48 46.1453 61.48 46.226ZM61.513 50.065C61.513 50.197 61.5423 50.3217 61.601 50.439C61.6596 50.549 61.7366 50.6443 61.832 50.725C61.9346 50.8057 62.052 50.8717 62.184 50.923C62.316 50.967 62.459 50.989 62.613 50.989C63.053 50.989 63.4123 50.7873 63.691 50.384C63.9696 49.9733 64.109 49.3903 64.109 48.635C64.109 47.8943 63.977 47.3297 63.713 46.941C63.4563 46.545 63.1263 46.347 62.723 46.347C62.5763 46.347 62.4296 46.38 62.283 46.446C62.1363 46.5047 62.0043 46.5927 61.887 46.71C61.777 46.82 61.6853 46.952 61.612 47.106C61.546 47.26 61.513 47.4287 61.513 47.612V50.065ZM66.4966 46.226V46.853C66.4966 46.9043 66.5112 46.93 66.5406 46.93C66.5626 46.93 66.5882 46.9117 66.6176 46.875L66.8156 46.589C67.1236 46.171 67.4499 45.962 67.7946 45.962C67.9779 45.962 68.1209 46.0133 68.2236 46.116C68.3262 46.2113 68.3776 46.3323 68.3776 46.479C68.3776 46.6257 68.3372 46.7467 68.2566 46.842C68.1832 46.93 68.0989 46.974 68.0036 46.974C67.9302 46.974 67.8642 46.952 67.8056 46.908C67.7542 46.864 67.6992 46.8163 67.6406 46.765C67.5892 46.7063 67.5342 46.655 67.4756 46.611C67.4169 46.567 67.3436 46.545 67.2556 46.545C67.1749 46.545 67.0906 46.578 67.0026 46.644C66.9219 46.71 66.8449 46.8163 66.7716 46.963C66.6982 47.1023 66.6396 47.282 66.5956 47.502C66.5516 47.722 66.5296 47.986 66.5296 48.294V50.109C66.5296 50.2997 66.5442 50.4353 66.5736 50.516C66.6029 50.5967 66.6726 50.659 66.7826 50.703C66.8779 50.7397 66.9622 50.7617 67.0356 50.769C67.1089 50.7763 67.1712 50.7837 67.2226 50.791C67.2739 50.791 67.3106 50.7983 67.3326 50.813C67.3619 50.8203 67.3766 50.8497 67.3766 50.901C67.3766 50.9817 67.3179 51.022 67.2006 51.022C67.1052 51.022 66.9732 51.0147 66.8046 51C66.6432 50.978 66.4489 50.967 66.2216 50.967C66.0749 50.967 65.9392 50.9743 65.8146 50.989C65.6972 51.0037 65.5946 51.011 65.5066 51.011C65.4479 51.011 65.4039 51.0073 65.3746 51C65.3526 50.9853 65.3416 50.9523 65.3416 50.901C65.3416 50.8277 65.3672 50.791 65.4186 50.791C65.4772 50.791 65.5689 50.769 65.6936 50.725C65.7889 50.6883 65.8476 50.626 65.8696 50.538C65.8989 50.4427 65.9136 50.2997 65.9136 50.109V47.194C65.9136 47.062 65.8879 46.974 65.8366 46.93C65.7926 46.886 65.7412 46.8603 65.6826 46.853C65.6312 46.8457 65.5836 46.842 65.5396 46.842C65.4956 46.842 65.4736 46.8163 65.4736 46.765C65.4736 46.7063 65.5102 46.6623 65.5836 46.633C65.6642 46.5963 65.7522 46.545 65.8476 46.479C66.0162 46.3617 66.1446 46.248 66.2326 46.138C66.3206 46.0207 66.3866 45.962 66.4306 45.962C66.4672 45.962 66.4856 45.9877 66.4856 46.039C66.4929 46.083 66.4966 46.1453 66.4966 46.226ZM70.4128 47.645C70.8674 47.645 71.2011 47.6193 71.4138 47.568C71.6264 47.5093 71.7328 47.3737 71.7328 47.161C71.7328 47.0437 71.7071 46.9263 71.6558 46.809C71.6044 46.6917 71.5311 46.5853 71.4358 46.49C71.3478 46.3947 71.2414 46.3177 71.1168 46.259C70.9921 46.2003 70.8601 46.171 70.7208 46.171C70.5448 46.171 70.3761 46.215 70.2148 46.303C70.0534 46.391 69.9104 46.501 69.7858 46.633C69.6684 46.765 69.5731 46.9117 69.4998 47.073C69.4264 47.2343 69.3898 47.392 69.3898 47.546C69.3898 47.568 69.4008 47.59 69.4228 47.612C69.4448 47.634 69.4741 47.645 69.5108 47.645H70.4128ZM72.1178 47.909H69.4998C69.4044 47.909 69.3458 47.942 69.3238 48.008C69.3018 48.0667 69.2908 48.1877 69.2908 48.371C69.2908 48.7377 69.3311 49.064 69.4118 49.35C69.4998 49.636 69.6171 49.878 69.7638 50.076C69.9178 50.274 70.0974 50.428 70.3028 50.538C70.5154 50.6407 70.7464 50.692 70.9958 50.692C71.2231 50.692 71.4138 50.6553 71.5678 50.582C71.7291 50.5087 71.8611 50.428 71.9638 50.34C72.0664 50.252 72.1471 50.1713 72.2058 50.098C72.2644 50.0247 72.3048 49.988 72.3268 49.988C72.3781 49.988 72.4038 50.0173 72.4038 50.076C72.4038 50.1567 72.3634 50.263 72.2828 50.395C72.2021 50.5197 72.0848 50.6443 71.9308 50.769C71.7841 50.8863 71.6008 50.989 71.3808 51.077C71.1681 51.165 70.9298 51.209 70.6658 51.209C70.3651 51.209 70.0864 51.1467 69.8298 51.022C69.5804 50.8973 69.3641 50.7213 69.1808 50.494C68.9974 50.2667 68.8544 49.9917 68.7518 49.669C68.6564 49.3463 68.6088 48.987 68.6088 48.591C68.6088 48.1877 68.6674 47.8247 68.7848 47.502C68.9021 47.172 69.0598 46.8933 69.2578 46.666C69.4558 46.4387 69.6868 46.2663 69.9508 46.149C70.2148 46.0243 70.4934 45.962 70.7868 45.962C71.0434 45.962 71.2744 46.0097 71.4798 46.105C71.6851 46.2003 71.8574 46.3287 71.9968 46.49C72.1434 46.644 72.2534 46.8273 72.3268 47.04C72.4074 47.2453 72.4478 47.458 72.4478 47.678C72.4478 47.7587 72.4221 47.8173 72.3708 47.854C72.3268 47.8907 72.2424 47.909 72.1178 47.909Z" fill="#1E1E1E"/>
</svg>
