<svg width="201" height="100" viewBox="0 0 201 100" fill="none" xmlns="http://www.w3.org/2000/svg">
<ellipse cx="100.605" cy="50.2896" rx="99.6052" ry="49.2896" fill="#F8FC5F" stroke="#707070" stroke-width="0.837019"/>
<path d="M42.7644 48.4495C42.7644 46.7215 43.0164 45.1256 43.5204 43.6616C44.0484 42.1976 44.7564 40.9376 45.6444 39.8815C46.5564 38.8015 47.6124 37.9615 48.8124 37.3615C50.0124 36.7616 51.3084 36.4616 52.7004 36.4616C53.3004 36.4616 53.8644 36.5096 54.3924 36.6055C54.9444 36.7015 55.4364 36.8215 55.8684 36.9656C56.3244 37.0856 56.6964 37.2296 56.9844 37.3975C57.2964 37.5415 57.5124 37.6735 57.6324 37.7936C57.7524 37.9376 57.8484 38.3336 57.9204 38.9816C57.9924 39.6296 58.0284 40.5056 58.0284 41.6096C58.0284 41.9216 57.9204 42.0776 57.7044 42.0776C57.4644 42.0776 57.3084 41.8856 57.2364 41.5016C57.1644 41.1175 56.9724 40.6495 56.6604 40.0975C55.7004 38.3215 54.2964 37.4335 52.4484 37.4335C51.4884 37.4335 50.5884 37.6855 49.7484 38.1895C48.9324 38.6935 48.2124 39.4135 47.5884 40.3496C46.9644 41.2855 46.4724 42.4375 46.1124 43.8055C45.7524 45.1735 45.5724 46.7215 45.5724 48.4495C45.5724 50.0576 45.7524 51.5336 46.1124 52.8776C46.4724 54.2216 46.9644 55.3856 47.5884 56.3696C48.2364 57.3296 48.9804 58.0856 49.8204 58.6376C50.6604 59.1656 51.5604 59.4296 52.5204 59.4296C53.6724 59.4296 54.6084 59.0936 55.3284 58.4216C56.0484 57.7496 56.6484 56.7416 57.1284 55.3976C57.3204 54.8696 57.4404 54.4616 57.4884 54.1736C57.5604 53.8616 57.6924 53.7056 57.8844 53.7056C58.1244 53.7056 58.2444 53.9096 58.2444 54.3176C58.2444 55.5176 58.2204 56.4536 58.1724 57.1256C58.1484 57.7736 58.0644 58.2056 57.9204 58.4216C57.7764 58.6376 57.5364 58.8656 57.2004 59.1056C56.8644 59.3456 56.4564 59.5736 55.9764 59.7896C55.4964 59.9816 54.9564 60.1376 54.3564 60.2576C53.7564 60.4016 53.0964 60.4736 52.3764 60.4736C51.0084 60.4736 49.7364 60.1736 48.5604 59.5736C47.3844 58.9736 46.3644 58.1336 45.5004 57.0536C44.6364 55.9736 43.9644 54.7016 43.4844 53.2376C43.0044 51.7736 42.7644 50.1776 42.7644 48.4495ZM64.3971 35.6696V45.8575C64.3971 46.1216 64.4331 46.2536 64.5051 46.2536C64.6011 46.2536 64.7451 46.0856 64.9371 45.7496C65.1531 45.3895 65.5011 45.0055 65.9811 44.5976C66.4851 44.1655 66.9651 43.8415 67.4211 43.6255C67.9011 43.4095 68.4651 43.3015 69.1131 43.3015C70.4571 43.3015 71.5491 43.7935 72.3891 44.7775C73.2291 45.7376 73.6491 47.0096 73.6491 48.5936V57.5936C73.6491 58.0976 73.7451 58.4456 73.9371 58.6376C74.1291 58.8056 74.3451 58.9256 74.5851 58.9976C74.8251 59.0456 75.0411 59.0936 75.2331 59.1416C75.4251 59.1656 75.5211 59.2736 75.5211 59.4656C75.5211 59.6336 75.4731 59.7416 75.3771 59.7896C75.3051 59.8136 75.1731 59.8256 74.9811 59.8256C74.8131 59.8256 74.5371 59.8016 74.1531 59.7536C73.7691 59.7056 73.2651 59.6816 72.6411 59.6816C72.1371 59.6816 71.6931 59.7056 71.3091 59.7536C70.9491 59.8016 70.6371 59.8256 70.3731 59.8256C70.1571 59.8256 70.0011 59.8136 69.9051 59.7896C69.8091 59.7656 69.7611 59.6576 69.7611 59.4656C69.7611 59.2736 69.8571 59.1656 70.0491 59.1416C70.2651 59.0936 70.4811 59.0336 70.6971 58.9616C70.9371 58.8896 71.1531 58.7696 71.3451 58.6016C71.5611 58.4096 71.6691 58.0736 71.6691 57.5936V50.3575C71.6691 48.4856 71.4171 47.0816 70.9131 46.1456C70.4091 45.2096 69.5091 44.7416 68.2131 44.7416C66.8451 44.7416 65.8611 45.2696 65.2611 46.3256C64.6851 47.3816 64.3971 48.9416 64.3971 51.0056V57.5936C64.3971 58.0976 64.4931 58.4456 64.6851 58.6376C64.8771 58.8056 65.0931 58.9256 65.3331 58.9976C65.5731 59.0456 65.7891 59.0936 65.9811 59.1416C66.1731 59.1656 66.2691 59.2736 66.2691 59.4656C66.2691 59.6336 66.2211 59.7416 66.1251 59.7896C66.0531 59.8136 65.9211 59.8256 65.7291 59.8256C65.5611 59.8256 65.2851 59.8016 64.9011 59.7536C64.5171 59.7056 64.0131 59.6816 63.3891 59.6816C62.8851 59.6816 62.4411 59.7056 62.0571 59.7536C61.6971 59.8016 61.3851 59.8256 61.1211 59.8256C60.9051 59.8256 60.7491 59.8136 60.6531 59.7896C60.5571 59.7656 60.5091 59.6576 60.5091 59.4656C60.5091 59.2736 60.6051 59.1656 60.7971 59.1416C60.9891 59.0936 61.2051 59.0336 61.4451 58.9616C61.6851 58.8896 61.9011 58.7696 62.0931 58.6016C62.2851 58.4096 62.3811 58.0736 62.3811 57.5936V38.5136C62.3811 37.4335 62.0091 36.8935 61.2651 36.8935C61.2411 36.8935 61.1931 36.9055 61.1211 36.9295C61.0731 36.9295 60.9891 36.9295 60.8691 36.9295C60.7011 36.9295 60.6171 36.8215 60.6171 36.6055C60.6171 36.3415 60.7611 36.1855 61.0491 36.1376C61.3371 36.0895 61.6731 36.0055 62.0571 35.8855C62.6811 35.6695 63.1491 35.4535 63.4611 35.2375C63.7971 34.9975 64.0251 34.8775 64.1451 34.8775C64.3131 34.8775 64.3971 35.1415 64.3971 35.6696ZM83.0822 48.8096C84.5702 48.8096 85.6622 48.7256 86.3582 48.5576C87.0542 48.3656 87.4022 47.9216 87.4022 47.2256C87.4022 46.8416 87.3182 46.4576 87.1502 46.0736C86.9822 45.6896 86.7422 45.3416 86.4302 45.0295C86.1422 44.7176 85.7942 44.4656 85.3862 44.2735C84.9782 44.0816 84.5462 43.9856 84.0902 43.9856C83.5142 43.9856 82.9622 44.1296 82.4342 44.4176C81.9062 44.7056 81.4382 45.0656 81.0302 45.4976C80.6462 45.9296 80.3342 46.4096 80.0942 46.9375C79.8542 47.4656 79.7342 47.9816 79.7342 48.4856C79.7342 48.5576 79.7702 48.6295 79.8422 48.7015C79.9142 48.7736 80.0102 48.8096 80.1302 48.8096H83.0822ZM88.6622 49.6736H80.0942C79.7822 49.6736 79.5902 49.7816 79.5182 49.9976C79.4462 50.1896 79.4102 50.5856 79.4102 51.1856C79.4102 52.3856 79.5422 53.4536 79.8062 54.3896C80.0942 55.3256 80.4782 56.1176 80.9582 56.7656C81.4622 57.4136 82.0502 57.9176 82.7222 58.2776C83.4182 58.6136 84.1742 58.7816 84.9902 58.7816C85.7342 58.7816 86.3582 58.6616 86.8622 58.4216C87.3902 58.1816 87.8222 57.9176 88.1582 57.6296C88.4942 57.3416 88.7582 57.0776 88.9502 56.8376C89.1422 56.5976 89.2742 56.4776 89.3462 56.4776C89.5142 56.4776 89.5982 56.5736 89.5982 56.7656C89.5982 57.0296 89.4662 57.3776 89.2022 57.8096C88.9382 58.2176 88.5542 58.6256 88.0502 59.0336C87.5702 59.4176 86.9702 59.7536 86.2502 60.0416C85.5542 60.3296 84.7742 60.4736 83.9102 60.4736C82.9262 60.4736 82.0142 60.2696 81.1742 59.8616C80.3582 59.4536 79.6502 58.8776 79.0502 58.1336C78.4502 57.3896 77.9822 56.4896 77.6462 55.4336C77.3342 54.3776 77.1782 53.2016 77.1782 51.9056C77.1782 50.5856 77.3702 49.3976 77.7542 48.3416C78.1382 47.2616 78.6542 46.3496 79.3022 45.6055C79.9502 44.8616 80.7062 44.2976 81.5702 43.9136C82.4342 43.5055 83.3462 43.3015 84.3062 43.3015C85.1462 43.3015 85.9022 43.4575 86.5742 43.7695C87.2462 44.0816 87.8102 44.5016 88.2662 45.0295C88.7462 45.5335 89.1062 46.1335 89.3462 46.8296C89.6102 47.5016 89.7422 48.1976 89.7422 48.9176C89.7422 49.1816 89.6582 49.3736 89.4902 49.4936C89.3462 49.6136 89.0702 49.6736 88.6622 49.6736ZM98.7554 43.3015C99.9794 43.3015 100.939 43.4935 101.635 43.8775C102.355 44.2615 102.715 44.8015 102.715 45.4976C102.715 46.9856 102.535 47.7296 102.175 47.7296C101.935 47.7296 101.767 47.5976 101.671 47.3336C101.575 47.0456 101.395 46.6496 101.131 46.1456C100.723 45.4256 100.303 44.8856 99.8714 44.5255C99.4634 44.1656 98.9474 43.9856 98.3234 43.9856C97.7234 43.9856 97.1474 44.1536 96.5954 44.4896C96.0674 44.8015 95.5994 45.2815 95.1914 45.9296C94.7834 46.5776 94.4594 47.3816 94.2194 48.3416C93.9794 49.3015 93.8594 50.4056 93.8594 51.6536C93.8594 54.1016 94.3274 55.9856 95.2634 57.3056C96.1994 58.6016 97.4234 59.2496 98.9354 59.2496C99.5354 59.2496 100.051 59.1536 100.483 58.9616C100.939 58.7696 101.323 58.5656 101.635 58.3496C101.947 58.1096 102.187 57.8936 102.355 57.7016C102.523 57.5096 102.643 57.4136 102.715 57.4136C102.883 57.4136 102.967 57.4856 102.967 57.6296C102.967 57.7976 102.847 58.0496 102.607 58.3856C102.391 58.6976 102.079 59.0096 101.671 59.3216C101.263 59.6336 100.771 59.8976 100.195 60.1136C99.6194 60.3536 98.9714 60.4736 98.2514 60.4736C97.3154 60.4736 96.4394 60.2696 95.6234 59.8616C94.8314 59.4536 94.1354 58.8776 93.5354 58.1336C92.9354 57.3656 92.4674 56.4536 92.1314 55.3976C91.7954 54.3416 91.6274 53.1656 91.6274 51.8696C91.6274 50.5736 91.8194 49.3976 92.2034 48.3416C92.6114 47.2856 93.1394 46.3856 93.7874 45.6416C94.4594 44.8976 95.2274 44.3216 96.0914 43.9136C96.9554 43.5055 97.8434 43.3015 98.7554 43.3015ZM108.342 35.6696V50.9336C108.342 51.2216 108.378 51.3656 108.45 51.3656C108.522 51.3656 108.654 51.2696 108.846 51.0776L113.238 46.4336C113.718 45.9056 113.958 45.4976 113.958 45.2095C113.958 45.0415 113.874 44.9335 113.706 44.8855C113.538 44.8135 113.358 44.7656 113.166 44.7416C112.974 44.7175 112.794 44.6815 112.626 44.6335C112.458 44.5856 112.374 44.4656 112.374 44.2735C112.374 44.1296 112.398 44.0456 112.446 44.0215C112.518 43.9735 112.614 43.9495 112.734 43.9495C112.926 43.9495 113.226 43.9735 113.634 44.0215C114.042 44.0696 114.594 44.0936 115.29 44.0936C116.106 44.0936 116.73 44.0696 117.162 44.0215C117.594 43.9735 117.858 43.9495 117.954 43.9495C118.074 43.9495 118.17 43.9735 118.242 44.0215C118.314 44.0456 118.35 44.1296 118.35 44.2735C118.35 44.4415 118.266 44.5495 118.098 44.5976C117.954 44.6456 117.738 44.6936 117.45 44.7416C117.186 44.7896 116.874 44.8856 116.514 45.0295C116.178 45.1736 115.818 45.4376 115.434 45.8216L111.762 49.4576C111.666 49.5536 111.618 49.6736 111.618 49.8176C111.618 49.8656 111.642 49.9376 111.69 50.0335L116.01 56.9456C116.466 57.6896 116.862 58.2176 117.198 58.5296C117.534 58.8176 117.798 59.0096 117.99 59.1056C118.182 59.2016 118.326 59.2616 118.422 59.2856C118.518 59.3096 118.566 59.4056 118.566 59.5736C118.566 59.8136 118.422 59.9336 118.134 59.9336C117.894 59.9336 117.57 59.8976 117.162 59.8256C116.778 59.7776 116.298 59.7536 115.722 59.7536C115.026 59.7536 114.462 59.7776 114.03 59.8256C113.598 59.8976 113.286 59.9336 113.094 59.9336C112.782 59.9336 112.626 59.8136 112.626 59.5736C112.626 59.4296 112.698 59.3216 112.842 59.2496C113.01 59.1776 113.19 59.1176 113.382 59.0696C113.574 58.9976 113.742 58.9136 113.886 58.8176C114.054 58.7216 114.138 58.5776 114.138 58.3856C114.138 58.0976 113.886 57.5336 113.382 56.6936L110.142 51.5816C110.046 51.4856 109.974 51.4376 109.926 51.4376C109.83 51.4376 109.746 51.4736 109.674 51.5456L108.594 52.6256C108.426 52.7936 108.342 53.0216 108.342 53.3096V57.5936C108.342 58.0976 108.438 58.4456 108.63 58.6376C108.846 58.8056 109.074 58.9256 109.314 58.9976C109.578 59.0456 109.818 59.0936 110.034 59.1416C110.25 59.1656 110.358 59.2736 110.358 59.4656C110.358 59.6576 110.31 59.7656 110.214 59.7896C110.118 59.8136 109.974 59.8256 109.782 59.8256C109.59 59.8256 109.29 59.8016 108.882 59.7536C108.474 59.7056 107.958 59.6816 107.334 59.6816C106.854 59.6816 106.422 59.7056 106.038 59.7536C105.678 59.8016 105.366 59.8256 105.102 59.8256C104.91 59.8256 104.778 59.8136 104.706 59.7896C104.658 59.7416 104.634 59.6336 104.634 59.4656C104.634 59.2736 104.718 59.1656 104.886 59.1416C105.078 59.0936 105.27 59.0336 105.462 58.9616C105.678 58.8896 105.87 58.7696 106.038 58.6016C106.23 58.4096 106.326 58.0736 106.326 57.5936V38.5136C106.326 37.4335 105.954 36.8935 105.21 36.8935C105.186 36.8935 105.138 36.9055 105.066 36.9295C105.018 36.9295 104.934 36.9295 104.814 36.9295C104.646 36.9295 104.562 36.8215 104.562 36.6055C104.562 36.3415 104.706 36.1855 104.994 36.1376C105.282 36.0895 105.618 36.0055 106.002 35.8855C106.626 35.6695 107.094 35.4535 107.406 35.2375C107.742 34.9975 107.97 34.8775 108.09 34.8775C108.258 34.8775 108.342 35.1415 108.342 35.6696ZM126 43.3015C127.128 43.3015 128.136 43.5055 129.024 43.9136C129.936 44.3216 130.692 44.8976 131.292 45.6416C131.916 46.3856 132.384 47.2856 132.696 48.3416C133.032 49.3976 133.2 50.5616 133.2 51.8336C133.2 53.1296 133.032 54.3176 132.696 55.3976C132.36 56.4536 131.868 57.3656 131.22 58.1336C130.596 58.8776 129.828 59.4536 128.916 59.8616C128.004 60.2696 126.972 60.4736 125.82 60.4736C124.788 60.4736 123.852 60.2576 123.012 59.8256C122.172 59.4176 121.452 58.8416 120.852 58.0976C120.252 57.3296 119.784 56.4176 119.448 55.3616C119.112 54.3056 118.944 53.1416 118.944 51.8696C118.944 50.5736 119.112 49.3976 119.448 48.3416C119.808 47.2856 120.3 46.3856 120.924 45.6416C121.572 44.8976 122.328 44.3216 123.192 43.9136C124.056 43.5055 124.992 43.3015 126 43.3015ZM126.072 43.9495C124.56 43.9495 123.36 44.6095 122.472 45.9296C121.608 47.2255 121.176 49.1335 121.176 51.6536C121.176 52.9256 121.296 54.0656 121.536 55.0736C121.776 56.0576 122.112 56.9096 122.544 57.6296C122.976 58.3256 123.48 58.8656 124.056 59.2496C124.656 59.6096 125.304 59.7896 126 59.7896C127.536 59.7896 128.736 59.1536 129.6 57.8816C130.464 56.5856 130.896 54.7016 130.896 52.2296C130.896 49.5896 130.452 47.5495 129.564 46.1095C128.7 44.6695 127.536 43.9495 126.072 43.9495ZM138.753 45.1015V53.3816C138.753 55.2536 138.993 56.6576 139.473 57.5936C139.953 58.5296 140.817 58.9976 142.065 58.9976C143.361 58.9976 144.297 58.4816 144.873 57.4496C145.449 56.3936 145.737 54.8216 145.737 52.7336V46.1816C145.737 45.7015 145.641 45.3655 145.449 45.1736C145.257 44.9815 145.041 44.8495 144.801 44.7775C144.561 44.7056 144.345 44.6575 144.153 44.6335C143.961 44.6095 143.865 44.5016 143.865 44.3096C143.865 44.1416 143.889 44.0456 143.937 44.0215C144.009 43.9735 144.105 43.9495 144.225 43.9495C144.321 43.9495 144.477 43.9615 144.693 43.9856C144.909 44.0096 145.197 44.0215 145.557 44.0215C145.965 44.0215 146.313 44.0096 146.601 43.9856C146.889 43.9615 147.093 43.9495 147.213 43.9495C147.477 43.9495 147.633 44.0215 147.681 44.1656C147.729 44.2856 147.753 44.5976 147.753 45.1015V56.9456C147.753 57.4496 147.825 57.7856 147.969 57.9536C148.113 58.1216 148.269 58.2176 148.437 58.2416C148.629 58.2656 148.797 58.2776 148.941 58.2776C149.109 58.2776 149.193 58.3616 149.193 58.5296C149.193 58.7216 149.061 58.8776 148.797 58.9976C148.533 59.0936 148.221 59.2376 147.861 59.4296C147.429 59.6696 147.081 59.8976 146.817 60.1136C146.553 60.3536 146.325 60.4736 146.133 60.4736C145.989 60.4736 145.893 60.3896 145.845 60.2216C145.821 60.0776 145.809 59.8736 145.809 59.6096V57.9176C145.809 57.6296 145.773 57.4856 145.701 57.4856C145.605 57.4856 145.461 57.6656 145.269 58.0256C145.077 58.3616 144.741 58.7336 144.261 59.1416C143.781 59.5736 143.289 59.8976 142.785 60.1136C142.305 60.3536 141.765 60.4736 141.165 60.4736C140.349 60.4736 139.605 60.2696 138.933 59.8616C138.285 59.4536 137.793 58.8896 137.457 58.1696C137.121 57.5216 136.917 56.8496 136.845 56.1536C136.773 55.4576 136.737 54.7256 136.737 53.9576V46.1816C136.737 45.7015 136.641 45.3655 136.449 45.1736C136.257 44.9815 136.041 44.8495 135.801 44.7775C135.561 44.7056 135.345 44.6575 135.153 44.6335C134.961 44.6095 134.865 44.5016 134.865 44.3096C134.865 44.1416 134.889 44.0456 134.937 44.0215C135.009 43.9735 135.105 43.9495 135.225 43.9495C135.273 43.9495 135.429 43.9615 135.693 43.9856C135.981 44.0096 136.377 44.0215 136.881 44.0215C137.145 44.0215 137.373 44.0096 137.565 43.9856C137.781 43.9615 137.985 43.9495 138.177 43.9495C138.441 43.9495 138.597 44.0095 138.645 44.1295C138.717 44.2496 138.753 44.5736 138.753 45.1015ZM154.888 41.5016V43.3376C154.888 43.5775 154.912 43.7455 154.96 43.8416C155.032 43.9135 155.176 43.9495 155.392 43.9495H158.056C158.272 43.9495 158.404 43.9856 158.452 44.0576C158.5 44.1055 158.524 44.2255 158.524 44.4176V44.5616C158.524 44.7775 158.488 44.9335 158.416 45.0295C158.368 45.1256 158.248 45.1736 158.056 45.1736H155.356C155.14 45.1736 154.996 45.2216 154.924 45.3176C154.876 45.3896 154.852 45.5455 154.852 45.7855V56.2976C154.852 58.1216 155.428 59.0336 156.58 59.0336C156.892 59.0336 157.18 58.9616 157.444 58.8176C157.708 58.6736 157.936 58.5296 158.128 58.3856C158.344 58.2176 158.524 58.0616 158.668 57.9176C158.812 57.7736 158.92 57.7016 158.992 57.7016C159.088 57.7016 159.136 57.7976 159.136 57.9896C159.136 58.1096 159.04 58.3136 158.848 58.6016C158.68 58.8656 158.428 59.1416 158.092 59.4296C157.78 59.6936 157.408 59.9336 156.976 60.1496C156.568 60.3656 156.136 60.4736 155.68 60.4736C154.744 60.4736 154.012 60.1016 153.484 59.3576C152.98 58.6136 152.728 57.5216 152.728 56.0816V54.3896L152.836 45.7855C152.836 45.5455 152.8 45.3896 152.728 45.3176C152.68 45.2216 152.548 45.1736 152.332 45.1736H151.792C151.432 45.1736 151.252 45.0656 151.252 44.8496C151.252 44.6576 151.432 44.4296 151.792 44.1656C152.176 43.8776 152.632 43.4216 153.16 42.7975C153.688 42.1735 154.036 41.6335 154.204 41.1776C154.396 40.7216 154.576 40.4936 154.744 40.4936C154.84 40.4936 154.888 40.6375 154.888 40.9255V41.5016Z" fill="black"/>
</svg>
