<svg width="201" height="100" viewBox="0 0 201 100" fill="none" xmlns="http://www.w3.org/2000/svg">
<ellipse cx="100.605" cy="50.2896" rx="99.6052" ry="49.2896" fill="#F8FC5F" stroke="#707070" stroke-width="0.837019"/>
<path d="M39.8719 48.4496C39.8719 46.7216 40.1239 45.1256 40.6279 43.6616C41.1559 42.1976 41.8639 40.9376 42.7519 39.8816C43.6639 38.8016 44.7199 37.9616 45.9199 37.3616C47.1199 36.7616 48.4159 36.4616 49.8079 36.4616C50.4079 36.4616 50.9719 36.5096 51.4999 36.6056C52.0519 36.7016 52.5439 36.8216 52.9759 36.9656C53.4319 37.0856 53.8039 37.2296 54.0919 37.3976C54.4039 37.5416 54.6199 37.6736 54.7399 37.7936C54.8599 37.9376 54.9559 38.3336 55.0279 38.9816C55.0999 39.6296 55.1359 40.5056 55.1359 41.6096C55.1359 41.9216 55.0279 42.0776 54.8119 42.0776C54.5719 42.0776 54.4159 41.8856 54.3439 41.5016C54.2719 41.1176 54.0799 40.6496 53.7679 40.0976C52.8079 38.3216 51.4039 37.4336 49.5559 37.4336C48.5959 37.4336 47.6959 37.6856 46.8559 38.1896C46.0399 38.6936 45.3199 39.4136 44.6959 40.3496C44.0719 41.2856 43.5799 42.4376 43.2199 43.8056C42.8599 45.1736 42.6799 46.7216 42.6799 48.4496C42.6799 50.0576 42.8599 51.5336 43.2199 52.8776C43.5799 54.2216 44.0719 55.3856 44.6959 56.3696C45.3439 57.3296 46.0879 58.0856 46.9279 58.6376C47.7679 59.1656 48.6679 59.4296 49.6279 59.4296C50.7799 59.4296 51.7159 59.0936 52.4359 58.4216C53.1559 57.7496 53.7559 56.7416 54.2359 55.3976C54.4279 54.8696 54.5479 54.4616 54.5959 54.1736C54.6679 53.8616 54.7999 53.7056 54.9919 53.7056C55.2319 53.7056 55.3519 53.9096 55.3519 54.3176C55.3519 55.5176 55.3279 56.4536 55.2799 57.1256C55.2559 57.7736 55.1719 58.2056 55.0279 58.4216C54.8839 58.6376 54.6439 58.8656 54.3079 59.1056C53.9719 59.3456 53.5639 59.5736 53.0839 59.7896C52.6039 59.9816 52.0639 60.1376 51.4639 60.2576C50.8639 60.4016 50.2039 60.4736 49.4839 60.4736C48.1159 60.4736 46.8439 60.1736 45.6679 59.5736C44.4919 58.9736 43.4719 58.1336 42.6079 57.0536C41.7439 55.9736 41.0719 54.7016 40.5919 53.2376C40.1119 51.7736 39.8719 50.1776 39.8719 48.4496ZM64.8885 43.3016C66.0165 43.3016 67.0245 43.5056 67.9125 43.9136C68.8245 44.3216 69.5805 44.8976 70.1805 45.6416C70.8045 46.3856 71.2725 47.2856 71.5845 48.3416C71.9205 49.3976 72.0885 50.5616 72.0885 51.8336C72.0885 53.1296 71.9205 54.3176 71.5845 55.3976C71.2485 56.4536 70.7565 57.3656 70.1085 58.1336C69.4845 58.8776 68.7165 59.4536 67.8045 59.8616C66.8925 60.2696 65.8605 60.4736 64.7085 60.4736C63.6765 60.4736 62.7405 60.2576 61.9005 59.8256C61.0605 59.4176 60.3405 58.8416 59.7405 58.0976C59.1405 57.3296 58.6725 56.4176 58.3365 55.3616C58.0005 54.3056 57.8325 53.1416 57.8325 51.8696C57.8325 50.5736 58.0005 49.3976 58.3365 48.3416C58.6965 47.2856 59.1885 46.3856 59.8125 45.6416C60.4605 44.8976 61.2165 44.3216 62.0805 43.9136C62.9445 43.5056 63.8805 43.3016 64.8885 43.3016ZM64.9605 43.9496C63.4485 43.9496 62.2485 44.6096 61.3605 45.9296C60.4965 47.2256 60.0645 49.1336 60.0645 51.6536C60.0645 52.9256 60.1845 54.0656 60.4245 55.0736C60.6645 56.0576 61.0005 56.9096 61.4325 57.6296C61.8645 58.3256 62.3685 58.8656 62.9445 59.2496C63.5445 59.6096 64.1925 59.7896 64.8885 59.7896C66.4245 59.7896 67.6245 59.1536 68.4885 57.8816C69.3525 56.5856 69.7845 54.7016 69.7845 52.2296C69.7845 49.5896 69.3405 47.5496 68.4525 46.1096C67.5885 44.6696 66.4245 43.9496 64.9605 43.9496ZM77.5332 44.1656V45.8576C77.5332 46.1216 77.5812 46.2536 77.6772 46.2536C77.7732 46.2536 77.9172 46.0856 78.1092 45.7496C78.3252 45.3896 78.6612 45.0056 79.1172 44.5976C79.5972 44.1656 80.0772 43.8416 80.5572 43.6256C81.0612 43.4096 81.6012 43.3016 82.1772 43.3016C83.5212 43.3016 84.6012 43.7936 85.4172 44.7776C86.2332 45.7616 86.6412 47.0936 86.6412 48.7736V57.5936C86.6412 58.0976 86.7372 58.4456 86.9292 58.6376C87.1212 58.8056 87.3372 58.9256 87.5772 58.9976C87.8172 59.0456 88.0332 59.0936 88.2252 59.1416C88.4172 59.1656 88.5132 59.2736 88.5132 59.4656C88.5132 59.6336 88.4652 59.7416 88.3692 59.7896C88.2972 59.8136 88.1652 59.8256 87.9732 59.8256C87.8052 59.8256 87.5292 59.8016 87.1452 59.7536C86.7612 59.7056 86.2572 59.6816 85.6332 59.6816C85.1292 59.6816 84.6852 59.7056 84.3012 59.7536C83.9412 59.8016 83.6292 59.8256 83.3652 59.8256C83.1492 59.8256 82.9932 59.8136 82.8972 59.7896C82.8012 59.7656 82.7532 59.6576 82.7532 59.4656C82.7532 59.2736 82.8492 59.1656 83.0412 59.1416C83.2332 59.0936 83.4492 59.0336 83.6892 58.9616C83.9292 58.8896 84.1452 58.7696 84.3372 58.6016C84.5292 58.4096 84.6252 58.0736 84.6252 57.5936V50.3576C84.6252 48.4856 84.3852 47.0816 83.9052 46.1456C83.4252 45.2096 82.5612 44.7416 81.3132 44.7416C80.0172 44.7416 79.0812 45.2696 78.5052 46.3256C77.9292 47.3576 77.6412 48.9176 77.6412 51.0056V57.5936C77.6412 58.0976 77.7372 58.4456 77.9292 58.6376C78.1212 58.8056 78.3372 58.9256 78.5772 58.9976C78.8172 59.0456 79.0332 59.0936 79.2252 59.1416C79.4172 59.1656 79.5132 59.2736 79.5132 59.4656C79.5132 59.6336 79.4652 59.7416 79.3692 59.7896C79.2972 59.8136 79.1652 59.8256 78.9732 59.8256C78.8052 59.8256 78.5292 59.8016 78.1452 59.7536C77.7612 59.7056 77.2572 59.6816 76.6332 59.6816C76.1772 59.6816 75.7572 59.7056 75.3732 59.7536C74.9892 59.8016 74.6292 59.8256 74.2932 59.8256C74.1012 59.8256 73.9572 59.8136 73.8612 59.7896C73.7892 59.7416 73.7532 59.6336 73.7532 59.4656C73.7532 59.2736 73.8492 59.1656 74.0412 59.1416C74.2332 59.0936 74.4492 59.0336 74.6892 58.9616C74.9292 58.8896 75.1452 58.7696 75.3372 58.6016C75.5292 58.4096 75.6252 58.0736 75.6252 57.5936V47.1536C75.6252 46.7936 75.5412 46.5656 75.3732 46.4696C75.2292 46.3496 75.0612 46.2776 74.8692 46.2536C74.7012 46.2296 74.5452 46.2056 74.4012 46.1816C74.2572 46.1576 74.1852 46.0736 74.1852 45.9296C74.1852 45.7136 74.3052 45.5696 74.5452 45.4976C74.8092 45.4016 75.0732 45.2576 75.3372 45.0656C75.9612 44.6336 76.4172 44.2376 76.7052 43.8776C76.9932 43.4936 77.1972 43.3016 77.3172 43.3016C77.4372 43.3016 77.4972 43.3856 77.4972 43.5536C77.5212 43.6976 77.5332 43.9016 77.5332 44.1656ZM93.8482 41.6456V43.3376C93.8482 43.5776 93.8722 43.7456 93.9202 43.8416C93.9682 43.9136 94.1002 43.9496 94.3162 43.9496H97.1242C97.3642 43.9496 97.4962 43.9976 97.5202 44.0936C97.5682 44.1656 97.5922 44.3216 97.5922 44.5616C97.5922 44.7776 97.5562 44.9336 97.4842 45.0296C97.4362 45.1256 97.3162 45.1736 97.1242 45.1736H94.3162C94.1002 45.1736 93.9682 45.2216 93.9202 45.3176C93.8722 45.3896 93.8482 45.5456 93.8482 45.7856V57.5936C93.8482 58.0976 93.9802 58.4456 94.2442 58.6376C94.5082 58.8296 94.7842 58.9496 95.0722 58.9976C95.3842 59.0456 95.6722 59.0816 95.9362 59.1056C96.2002 59.1296 96.3322 59.2496 96.3322 59.4656C96.3322 59.7056 96.1402 59.8256 95.7562 59.8256C95.4442 59.8256 95.0362 59.8016 94.5322 59.7536C94.0522 59.7056 93.4882 59.6816 92.8402 59.6816C92.3122 59.6816 91.8322 59.7056 91.4002 59.7536C90.9922 59.8016 90.6442 59.8256 90.3562 59.8256C90.1402 59.8256 89.9842 59.8136 89.8882 59.7896C89.7922 59.7416 89.7442 59.6336 89.7442 59.4656C89.7442 59.2736 89.8522 59.1656 90.0682 59.1416C90.2842 59.0936 90.5242 59.0336 90.7882 58.9616C91.0522 58.8896 91.2922 58.7696 91.5082 58.6016C91.7242 58.4096 91.8322 58.0736 91.8322 57.5936V45.7856C91.8322 45.5456 91.8082 45.3896 91.7602 45.3176C91.7122 45.2216 91.5802 45.1736 91.3642 45.1736H90.6802C90.4162 45.1736 90.2842 45.0536 90.2842 44.8136C90.2842 44.6936 90.3082 44.6096 90.3562 44.5616C90.4282 44.5136 90.5242 44.4536 90.6442 44.3816L91.4002 43.9136C91.5442 43.8176 91.6522 43.7336 91.7242 43.6616C91.7962 43.5656 91.8442 43.4096 91.8682 43.1936L91.9762 41.4296C92.0242 40.5896 92.1082 39.7976 92.2282 39.0536C92.3482 38.2856 92.7082 37.5296 93.3082 36.7856C94.3882 35.4656 95.5762 34.8056 96.8722 34.8056C97.6882 34.8056 98.3242 34.9376 98.7802 35.2016C99.2602 35.4416 99.5002 35.7656 99.5002 36.1736C99.5002 36.6776 99.4042 37.1456 99.2122 37.5776C99.0442 37.9856 98.8642 38.1896 98.6722 38.1896C98.4802 38.1896 98.2762 38.0816 98.0602 37.8656C97.8682 37.6256 97.6642 37.3736 97.4482 37.1096C97.2322 36.8456 97.0042 36.6056 96.7642 36.3896C96.5242 36.1496 96.2482 36.0296 95.9362 36.0296C94.5442 36.0296 93.8482 37.9016 93.8482 41.6456ZM100.997 37.1096C101.333 37.1096 101.633 37.2896 101.897 37.6496C102.161 38.0096 102.293 38.4296 102.293 38.9096C102.293 39.3656 102.161 39.7736 101.897 40.1336C101.657 40.4696 101.357 40.6376 100.997 40.6376C100.661 40.6376 100.361 40.4696 100.097 40.1336C99.8573 39.7976 99.7373 39.3896 99.7373 38.9096C99.7373 38.4296 99.8573 38.0096 100.097 37.6496C100.361 37.2896 100.661 37.1096 100.997 37.1096ZM102.113 44.1656V57.5936C102.113 58.0976 102.209 58.4456 102.401 58.6376C102.617 58.8056 102.845 58.9256 103.085 58.9976C103.349 59.0456 103.577 59.0936 103.769 59.1416C103.985 59.1656 104.093 59.2736 104.093 59.4656C104.093 59.6576 104.045 59.7656 103.949 59.7896C103.877 59.8136 103.745 59.8256 103.553 59.8256C103.409 59.8256 103.121 59.8016 102.689 59.7536C102.281 59.7056 101.729 59.6816 101.033 59.6816C100.481 59.6816 99.9893 59.7056 99.5573 59.7536C99.1493 59.8016 98.8133 59.8256 98.5493 59.8256C98.3573 59.8256 98.2013 59.8136 98.0813 59.7896C97.9853 59.7416 97.9373 59.6336 97.9373 59.4656C97.9373 59.2736 98.0453 59.1656 98.2613 59.1416C98.5013 59.0936 98.7533 59.0456 99.0173 58.9976C99.2813 58.9256 99.5213 58.7936 99.7373 58.6016C99.9773 58.4096 100.097 58.0736 100.097 57.5936V47.6936C100.097 46.8056 99.7253 46.3616 98.9813 46.3616C98.7893 46.3616 98.6333 46.3496 98.5133 46.3256C98.3933 46.2776 98.3333 46.1696 98.3333 46.0016C98.3333 45.7616 98.4653 45.5936 98.7293 45.4976C99.0173 45.4016 99.3173 45.2216 99.6293 44.9576C100.301 44.5736 100.805 44.2256 101.141 43.9136C101.477 43.6016 101.717 43.4456 101.861 43.4456C101.981 43.4456 102.053 43.5056 102.077 43.6256C102.101 43.7216 102.113 43.9016 102.113 44.1656ZM109.139 44.1656V46.2176C109.139 46.3856 109.187 46.4696 109.283 46.4696C109.355 46.4696 109.439 46.4096 109.535 46.2896L110.183 45.3536C111.191 43.9856 112.259 43.3016 113.387 43.3016C113.987 43.3016 114.455 43.4696 114.791 43.8056C115.127 44.1176 115.295 44.5136 115.295 44.9936C115.295 45.4736 115.163 45.8696 114.899 46.1816C114.659 46.4696 114.383 46.6136 114.071 46.6136C113.831 46.6136 113.615 46.5416 113.423 46.3976C113.255 46.2536 113.075 46.0976 112.883 45.9296C112.715 45.7376 112.535 45.5696 112.343 45.4256C112.151 45.2816 111.911 45.2096 111.623 45.2096C111.359 45.2096 111.083 45.3176 110.795 45.5336C110.531 45.7496 110.279 46.0976 110.039 46.5776C109.799 47.0336 109.607 47.6216 109.463 48.3416C109.319 49.0616 109.247 49.9256 109.247 50.9336V56.8736C109.247 57.4976 109.295 57.9416 109.391 58.2056C109.487 58.4696 109.715 58.6736 110.075 58.8176C110.387 58.9376 110.663 59.0096 110.903 59.0336C111.143 59.0576 111.347 59.0816 111.515 59.1056C111.683 59.1056 111.803 59.1296 111.875 59.1776C111.971 59.2016 112.019 59.2976 112.019 59.4656C112.019 59.7296 111.827 59.8616 111.443 59.8616C111.131 59.8616 110.699 59.8376 110.147 59.7896C109.619 59.7176 108.983 59.6816 108.239 59.6816C107.759 59.6816 107.315 59.7056 106.907 59.7536C106.523 59.8016 106.187 59.8256 105.899 59.8256C105.707 59.8256 105.563 59.8136 105.467 59.7896C105.395 59.7416 105.359 59.6336 105.359 59.4656C105.359 59.2256 105.443 59.1056 105.611 59.1056C105.803 59.1056 106.103 59.0336 106.511 58.8896C106.823 58.7696 107.015 58.5656 107.087 58.2776C107.183 57.9656 107.231 57.4976 107.231 56.8736V47.3336C107.231 46.9016 107.147 46.6136 106.979 46.4696C106.835 46.3256 106.667 46.2416 106.475 46.2176C106.307 46.1936 106.151 46.1816 106.007 46.1816C105.863 46.1816 105.791 46.0976 105.791 45.9296C105.791 45.7376 105.911 45.5936 106.151 45.4976C106.415 45.3776 106.703 45.2096 107.015 44.9936C107.567 44.6096 107.987 44.2376 108.275 43.8776C108.563 43.4936 108.779 43.3016 108.923 43.3016C109.043 43.3016 109.103 43.3856 109.103 43.5536C109.127 43.6976 109.139 43.9016 109.139 44.1656ZM120.283 44.1656V45.8576C120.283 46.1216 120.331 46.2536 120.427 46.2536C120.523 46.2536 120.655 46.0856 120.823 45.7496C120.991 45.3896 121.303 45.0056 121.759 44.5976C122.239 44.1656 122.707 43.8416 123.163 43.6256C123.619 43.4096 124.123 43.3016 124.675 43.3016C125.659 43.3016 126.463 43.5776 127.087 44.1296C127.711 44.6576 128.215 45.4856 128.599 46.6136H128.743C129.439 45.4856 130.135 44.6576 130.831 44.1296C131.527 43.5776 132.295 43.3016 133.135 43.3016C134.383 43.3016 135.391 43.7936 136.159 44.7776C136.927 45.7616 137.311 47.0936 137.311 48.7736C137.311 48.8936 137.311 49.1456 137.311 49.5296C137.335 49.8896 137.347 50.3816 137.347 51.0056V57.5936C137.347 58.0976 137.431 58.4456 137.599 58.6376C137.791 58.8056 137.995 58.9256 138.211 58.9976C138.427 59.0456 138.619 59.0936 138.787 59.1416C138.979 59.1656 139.075 59.2736 139.075 59.4656C139.075 59.6336 139.039 59.7416 138.967 59.7896C138.895 59.8136 138.763 59.8256 138.571 59.8256C138.427 59.8256 138.175 59.8016 137.815 59.7536C137.455 59.7056 136.975 59.6816 136.375 59.6816C135.847 59.6816 135.391 59.7056 135.007 59.7536C134.647 59.8016 134.347 59.8256 134.107 59.8256C133.915 59.8256 133.771 59.8136 133.675 59.7896C133.603 59.7416 133.567 59.6336 133.567 59.4656C133.567 59.2736 133.651 59.1656 133.819 59.1416C134.011 59.0936 134.215 59.0336 134.431 58.9616C134.671 58.8896 134.875 58.7696 135.043 58.6016C135.235 58.4096 135.331 58.0736 135.331 57.5936V50.3576C135.331 48.4856 135.103 47.0816 134.647 46.1456C134.215 45.2096 133.423 44.7416 132.271 44.7416C131.335 44.7416 130.543 45.1616 129.895 46.0016C129.271 46.8416 128.947 48.1376 128.923 49.8896L128.851 57.5936C128.851 58.0736 128.935 58.4096 129.103 58.6016C129.295 58.7696 129.499 58.8896 129.715 58.9616C129.955 59.0336 130.159 59.0936 130.327 59.1416C130.519 59.1656 130.615 59.2736 130.615 59.4656C130.615 59.6336 130.579 59.7416 130.507 59.7896C130.435 59.8136 130.303 59.8256 130.111 59.8256C129.943 59.8256 129.679 59.8016 129.319 59.7536C128.959 59.7056 128.491 59.6816 127.915 59.6816C127.267 59.6816 126.751 59.7056 126.367 59.7536C125.983 59.8016 125.731 59.8256 125.611 59.8256C125.419 59.8256 125.287 59.8136 125.215 59.7896C125.143 59.7416 125.107 59.6336 125.107 59.4656C125.107 59.2736 125.191 59.1656 125.359 59.1416C125.551 59.0936 125.755 59.0336 125.971 58.9616C126.187 58.8896 126.379 58.7696 126.547 58.6016C126.739 58.4096 126.835 58.0736 126.835 57.5936V50.3576C126.835 48.4856 126.607 47.0816 126.151 46.1456C125.695 45.2096 124.903 44.7416 123.775 44.7416C122.839 44.7416 122.035 45.1856 121.363 46.0736C120.715 46.9376 120.391 48.2096 120.391 49.8896V57.5936C120.391 58.0976 120.487 58.4456 120.679 58.6376C120.871 58.8056 121.087 58.9256 121.327 58.9976C121.567 59.0456 121.783 59.0936 121.975 59.1416C122.167 59.1656 122.263 59.2736 122.263 59.4656C122.263 59.6336 122.215 59.7416 122.119 59.7896C122.047 59.8136 121.915 59.8256 121.723 59.8256C121.627 59.8256 121.387 59.8016 121.003 59.7536C120.619 59.7056 120.079 59.6816 119.383 59.6816C118.879 59.6816 118.423 59.7056 118.015 59.7536C117.631 59.8016 117.307 59.8256 117.043 59.8256C116.851 59.8256 116.707 59.8136 116.611 59.7896C116.539 59.7416 116.503 59.6336 116.503 59.4656C116.503 59.2736 116.599 59.1656 116.791 59.1416C116.983 59.0936 117.199 59.0336 117.439 58.9616C117.679 58.8896 117.895 58.7696 118.087 58.6016C118.279 58.4096 118.375 58.0736 118.375 57.5936V47.3336C118.375 46.9016 118.291 46.6136 118.123 46.4696C117.979 46.3256 117.811 46.2416 117.619 46.2176C117.451 46.1936 117.295 46.1816 117.151 46.1816C117.007 46.1816 116.935 46.0976 116.935 45.9296C116.935 45.7136 117.055 45.5696 117.295 45.4976C117.559 45.4016 117.823 45.2576 118.087 45.0656C118.711 44.6336 119.167 44.2376 119.455 43.8776C119.743 43.4936 119.947 43.3016 120.067 43.3016C120.187 43.3016 120.247 43.3856 120.247 43.5536C120.271 43.6976 120.283 43.9016 120.283 44.1656ZM150.34 47.3696V56.4056C150.34 57.8936 150.664 58.6376 151.312 58.6376C151.576 58.6376 151.816 58.5056 152.032 58.2416C152.272 57.9776 152.464 57.8456 152.608 57.8456C152.776 57.8456 152.86 57.9296 152.86 58.0976C152.86 58.2896 152.752 58.5176 152.536 58.7816C152.344 59.0216 152.104 59.2616 151.816 59.5016C151.528 59.7416 151.216 59.9336 150.88 60.0776C150.568 60.2456 150.292 60.3296 150.052 60.3296C149.572 60.3296 149.2 60.1496 148.936 59.7896C148.696 59.4056 148.468 58.7936 148.252 57.9536H148.108C147.196 58.7216 146.38 59.3336 145.66 59.7896C144.964 60.2456 144.232 60.4736 143.464 60.4736C142.6 60.4736 141.928 60.2216 141.448 59.7176C140.968 59.1896 140.728 58.4936 140.728 57.6296C140.728 56.9576 140.884 56.3336 141.196 55.7576C141.508 55.1576 141.976 54.5816 142.6 54.0296C143.248 53.4536 144.04 52.8656 144.976 52.2656C145.912 51.6656 146.992 51.0176 148.216 50.3216V47.1536C148.216 46.0496 148.096 45.2576 147.856 44.7776C147.64 44.2976 147.16 44.0576 146.416 44.0576C145.792 44.0576 145.204 44.2736 144.652 44.7056C144.1 45.1376 143.716 45.6536 143.5 46.2536C143.236 46.9976 142.972 47.6336 142.708 48.1616C142.444 48.6656 141.976 48.9176 141.304 48.9176C141.136 48.9176 140.992 48.8696 140.872 48.7736C140.752 48.6536 140.692 48.4976 140.692 48.3056C140.692 47.8736 140.848 47.3696 141.16 46.7936C141.472 46.2176 141.916 45.6656 142.492 45.1376C143.068 44.6096 143.752 44.1656 144.544 43.8056C145.336 43.4456 146.2 43.2656 147.136 43.2656C147.88 43.2656 148.468 43.3616 148.9 43.5536C149.332 43.7456 149.656 44.0216 149.872 44.3816C150.088 44.7416 150.22 45.1736 150.268 45.6776C150.316 46.1816 150.34 46.7456 150.34 47.3696ZM148.252 51.7616C148.252 51.5216 148.18 51.4016 148.036 51.4016C147.964 51.4016 147.844 51.4496 147.676 51.5456L146.596 52.1576C144.148 53.5736 142.924 55.0736 142.924 56.6576C142.924 57.3296 143.092 57.8696 143.428 58.2776C143.764 58.6616 144.232 58.8536 144.832 58.8536C145.192 58.8536 145.564 58.7696 145.948 58.6016C146.356 58.4336 146.728 58.1936 147.064 57.8816C147.424 57.5456 147.712 57.1496 147.928 56.6936C148.144 56.2136 148.252 55.6736 148.252 55.0736V51.7616ZM157.479 44.1656V46.2176C157.479 46.3856 157.527 46.4696 157.623 46.4696C157.695 46.4696 157.779 46.4096 157.875 46.2896L158.523 45.3536C159.531 43.9856 160.599 43.3016 161.727 43.3016C162.327 43.3016 162.795 43.4696 163.131 43.8056C163.467 44.1176 163.635 44.5136 163.635 44.9936C163.635 45.4736 163.503 45.8696 163.239 46.1816C162.999 46.4696 162.723 46.6136 162.411 46.6136C162.171 46.6136 161.955 46.5416 161.763 46.3976C161.595 46.2536 161.415 46.0976 161.223 45.9296C161.055 45.7376 160.875 45.5696 160.683 45.4256C160.491 45.2816 160.251 45.2096 159.963 45.2096C159.699 45.2096 159.423 45.3176 159.135 45.5336C158.871 45.7496 158.619 46.0976 158.379 46.5776C158.139 47.0336 157.947 47.6216 157.803 48.3416C157.659 49.0616 157.587 49.9256 157.587 50.9336V56.8736C157.587 57.4976 157.635 57.9416 157.731 58.2056C157.827 58.4696 158.055 58.6736 158.415 58.8176C158.727 58.9376 159.003 59.0096 159.243 59.0336C159.483 59.0576 159.687 59.0816 159.855 59.1056C160.023 59.1056 160.143 59.1296 160.215 59.1776C160.311 59.2016 160.359 59.2976 160.359 59.4656C160.359 59.7296 160.167 59.8616 159.783 59.8616C159.471 59.8616 159.039 59.8376 158.487 59.7896C157.959 59.7176 157.323 59.6816 156.579 59.6816C156.099 59.6816 155.655 59.7056 155.247 59.7536C154.863 59.8016 154.527 59.8256 154.239 59.8256C154.047 59.8256 153.903 59.8136 153.807 59.7896C153.735 59.7416 153.699 59.6336 153.699 59.4656C153.699 59.2256 153.783 59.1056 153.951 59.1056C154.143 59.1056 154.443 59.0336 154.851 58.8896C155.163 58.7696 155.355 58.5656 155.427 58.2776C155.523 57.9656 155.571 57.4976 155.571 56.8736V47.3336C155.571 46.9016 155.487 46.6136 155.319 46.4696C155.175 46.3256 155.007 46.2416 154.815 46.2176C154.647 46.1936 154.491 46.1816 154.347 46.1816C154.203 46.1816 154.131 46.0976 154.131 45.9296C154.131 45.7376 154.251 45.5936 154.491 45.4976C154.755 45.3776 155.043 45.2096 155.355 44.9936C155.907 44.6096 156.327 44.2376 156.615 43.8776C156.903 43.4936 157.119 43.3016 157.263 43.3016C157.383 43.3016 157.443 43.3856 157.443 43.5536C157.467 43.6976 157.479 43.9016 157.479 44.1656Z" fill="black"/>
</svg>
