<svg width="17" height="21" viewBox="0 0 17 21" fill="none" xmlns="http://www.w3.org/2000/svg">
<path d="M12.99 16.43V13.1C12.99 12.64 12.95 12.32 12.87 12.14C12.81 11.96 12.63 11.82 12.33 11.72C12.15 11.66 11.97 11.63 11.79 11.63C11.63 11.61 11.48 11.6 11.34 11.6C11.22 11.58 11.12 11.55 11.04 11.51C10.96 11.45 10.92 11.34 10.92 11.18C10.92 10.92 11.07 10.79 11.37 10.79C11.57 10.79 11.89 10.83 12.33 10.91C12.77 10.97 13.34 11 14.04 11C14.7 11 15.23 10.97 15.63 10.91C16.03 10.83 16.32 10.79 16.5 10.79C16.76 10.79 16.89 10.92 16.89 11.18C16.89 11.32 16.86 11.42 16.8 11.48C16.74 11.54 16.65 11.58 16.53 11.6C16.43 11.62 16.31 11.63 16.17 11.63C16.03 11.63 15.88 11.65 15.72 11.69C15.38 11.79 15.18 11.94 15.12 12.14C15.06 12.32 15.03 12.64 15.03 13.1V16.7C15.03 17 15.03 17.25 15.03 17.45C15.05 17.63 15.06 17.75 15.06 17.81C15.06 18.17 14.9 18.52 14.58 18.86C14.26 19.18 13.84 19.47 13.32 19.73C12.8 19.97 12.2 20.17 11.52 20.33C10.86 20.49 10.17 20.57 9.45 20.57C8.19 20.57 7.04 20.33 6 19.85C4.96 19.37 4.06 18.71 3.3 17.87C2.56 17.01 1.98 15.99 1.56 14.81C1.14 13.63 0.93 12.34 0.93 10.94C0.93 9.44 1.16 8.06 1.62 6.8C2.1 5.52 2.75 4.42 3.57 3.5C4.39 2.58 5.36 1.86 6.48 1.34C7.6 0.82 8.82 0.56 10.14 0.56C10.66 0.56 11.15 0.599999 11.61 0.679998C12.07 0.759999 12.48 0.859999 12.84 0.98C13.2 1.08 13.5 1.2 13.74 1.34C14 1.46 14.17 1.57 14.25 1.67C14.37 1.83 14.44 2.18 14.46 2.72C14.5 3.26 14.52 4.01 14.52 4.97C14.52 5.25 14.41 5.39 14.19 5.39C13.97 5.39 13.82 5.23 13.74 4.91C13.68 4.57 13.54 4.16 13.32 3.68C13 2.94 12.54 2.37 11.94 1.97C11.34 1.57 10.63 1.37 9.81 1.37C8.89 1.37 8.03 1.6 7.23 2.06C6.45 2.52 5.76 3.16 5.16 3.98C4.58 4.78 4.12 5.75 3.78 6.89C3.46 8.01 3.3 9.23 3.3 10.55C3.3 11.93 3.47 13.19 3.81 14.33C4.15 15.45 4.61 16.41 5.19 17.21C5.79 18.01 6.49 18.63 7.29 19.07C8.09 19.49 8.95 19.7 9.87 19.7C10.57 19.7 11.12 19.62 11.52 19.46C11.94 19.3 12.26 19.08 12.48 18.8C12.7 18.5 12.84 18.15 12.9 17.75C12.96 17.35 12.99 16.91 12.99 16.43Z" fill="black"/>
</svg>
