<svg width="44" height="44" viewBox="0 0 44 44" fill="none" xmlns="http://www.w3.org/2000/svg">
<circle cx="22" cy="22" r="21" fill="#F8FC5F" stroke="#707070"/>
<path d="M16.99 28.43V25.1C16.99 24.64 16.95 24.32 16.87 24.14C16.81 23.96 16.63 23.82 16.33 23.72C16.15 23.66 15.97 23.63 15.79 23.63C15.63 23.61 15.48 23.6 15.34 23.6C15.22 23.58 15.12 23.55 15.04 23.51C14.96 23.45 14.92 23.34 14.92 23.18C14.92 22.92 15.07 22.79 15.37 22.79C15.57 22.79 15.89 22.83 16.33 22.91C16.77 22.97 17.34 23 18.04 23C18.7 23 19.23 22.97 19.63 22.91C20.03 22.83 20.32 22.79 20.5 22.79C20.76 22.79 20.89 22.92 20.89 23.18C20.89 23.32 20.86 23.42 20.8 23.48C20.74 23.54 20.65 23.58 20.53 23.6C20.43 23.62 20.31 23.63 20.17 23.63C20.03 23.63 19.88 23.65 19.72 23.69C19.38 23.79 19.18 23.94 19.12 24.14C19.06 24.32 19.03 24.64 19.03 25.1V28.7C19.03 29 19.03 29.25 19.03 29.45C19.05 29.63 19.06 29.75 19.06 29.81C19.06 30.17 18.9 30.52 18.58 30.86C18.26 31.18 17.84 31.47 17.32 31.73C16.8 31.97 16.2 32.17 15.52 32.33C14.86 32.49 14.17 32.57 13.45 32.57C12.19 32.57 11.04 32.33 10 31.85C8.96 31.37 8.06 30.71 7.3 29.87C6.56 29.01 5.98 27.99 5.56 26.81C5.14 25.63 4.93 24.34 4.93 22.94C4.93 21.44 5.16 20.06 5.62 18.8C6.1 17.52 6.75 16.42 7.57 15.5C8.39 14.58 9.36 13.86 10.48 13.34C11.6 12.82 12.82 12.56 14.14 12.56C14.66 12.56 15.15 12.6 15.61 12.68C16.07 12.76 16.48 12.86 16.84 12.98C17.2 13.08 17.5 13.2 17.74 13.34C18 13.46 18.17 13.57 18.25 13.67C18.37 13.83 18.44 14.18 18.46 14.72C18.5 15.26 18.52 16.01 18.52 16.97C18.52 17.25 18.41 17.39 18.19 17.39C17.97 17.39 17.82 17.23 17.74 16.91C17.68 16.57 17.54 16.16 17.32 15.68C17 14.94 16.54 14.37 15.94 13.97C15.34 13.57 14.63 13.37 13.81 13.37C12.89 13.37 12.03 13.6 11.23 14.06C10.45 14.52 9.76 15.16 9.16 15.98C8.58 16.78 8.12 17.75 7.78 18.89C7.46 20.01 7.3 21.23 7.3 22.55C7.3 23.93 7.47 25.19 7.81 26.33C8.15 27.45 8.61 28.41 9.19 29.21C9.79 30.01 10.49 30.63 11.29 31.07C12.09 31.49 12.95 31.7 13.87 31.7C14.57 31.7 15.12 31.62 15.52 31.46C15.94 31.3 16.26 31.08 16.48 30.8C16.7 30.5 16.84 30.15 16.9 29.75C16.96 29.35 16.99 28.91 16.99 28.43ZM34.363 28.43V25.1C34.363 24.64 34.323 24.32 34.243 24.14C34.183 23.96 34.003 23.82 33.703 23.72C33.523 23.66 33.343 23.63 33.163 23.63C33.003 23.61 32.853 23.6 32.713 23.6C32.593 23.58 32.493 23.55 32.413 23.51C32.333 23.45 32.293 23.34 32.293 23.18C32.293 22.92 32.443 22.79 32.743 22.79C32.943 22.79 33.263 22.83 33.703 22.91C34.143 22.97 34.713 23 35.413 23C36.073 23 36.603 22.97 37.003 22.91C37.403 22.83 37.693 22.79 37.873 22.79C38.133 22.79 38.263 22.92 38.263 23.18C38.263 23.32 38.233 23.42 38.173 23.48C38.113 23.54 38.023 23.58 37.903 23.6C37.803 23.62 37.683 23.63 37.543 23.63C37.403 23.63 37.253 23.65 37.093 23.69C36.753 23.79 36.553 23.94 36.493 24.14C36.433 24.32 36.403 24.64 36.403 25.1V28.7C36.403 29 36.403 29.25 36.403 29.45C36.423 29.63 36.433 29.75 36.433 29.81C36.433 30.17 36.273 30.52 35.953 30.86C35.633 31.18 35.213 31.47 34.693 31.73C34.173 31.97 33.573 32.17 32.893 32.33C32.233 32.49 31.543 32.57 30.823 32.57C29.563 32.57 28.413 32.33 27.373 31.85C26.333 31.37 25.433 30.71 24.673 29.87C23.933 29.01 23.353 27.99 22.933 26.81C22.513 25.63 22.303 24.34 22.303 22.94C22.303 21.44 22.533 20.06 22.993 18.8C23.473 17.52 24.123 16.42 24.943 15.5C25.763 14.58 26.733 13.86 27.853 13.34C28.973 12.82 30.193 12.56 31.513 12.56C32.033 12.56 32.523 12.6 32.983 12.68C33.443 12.76 33.853 12.86 34.213 12.98C34.573 13.08 34.873 13.2 35.113 13.34C35.373 13.46 35.543 13.57 35.623 13.67C35.743 13.83 35.813 14.18 35.833 14.72C35.873 15.26 35.893 16.01 35.893 16.97C35.893 17.25 35.783 17.39 35.563 17.39C35.343 17.39 35.193 17.23 35.113 16.91C35.053 16.57 34.913 16.16 34.693 15.68C34.373 14.94 33.913 14.37 33.313 13.97C32.713 13.57 32.003 13.37 31.183 13.37C30.263 13.37 29.403 13.6 28.603 14.06C27.823 14.52 27.133 15.16 26.533 15.98C25.953 16.78 25.493 17.75 25.153 18.89C24.833 20.01 24.673 21.23 24.673 22.55C24.673 23.93 24.843 25.19 25.183 26.33C25.523 27.45 25.983 28.41 26.563 29.21C27.163 30.01 27.863 30.63 28.663 31.07C29.463 31.49 30.323 31.7 31.243 31.7C31.943 31.7 32.493 31.62 32.893 31.46C33.313 31.3 33.633 31.08 33.853 30.8C34.073 30.5 34.213 30.15 34.273 29.75C34.333 29.35 34.363 28.91 34.363 28.43Z" fill="black"/>
</svg>
