<svg width="35" height="21" viewBox="0 0 35 21" fill="none" xmlns="http://www.w3.org/2000/svg">
<path d="M12.99 16.43V13.1C12.99 12.64 12.95 12.32 12.87 12.14C12.81 11.96 12.63 11.82 12.33 11.72C12.15 11.66 11.97 11.63 11.79 11.63C11.63 11.61 11.48 11.6 11.34 11.6C11.22 11.58 11.12 11.55 11.04 11.51C10.96 11.45 10.92 11.34 10.92 11.18C10.92 10.92 11.07 10.79 11.37 10.79C11.57 10.79 11.89 10.83 12.33 10.91C12.77 10.97 13.34 11 14.04 11C14.7 11 15.23 10.97 15.63 10.91C16.03 10.83 16.32 10.79 16.5 10.79C16.76 10.79 16.89 10.92 16.89 11.18C16.89 11.32 16.86 11.42 16.8 11.48C16.74 11.54 16.65 11.58 16.53 11.6C16.43 11.62 16.31 11.63 16.17 11.63C16.03 11.63 15.88 11.65 15.72 11.69C15.38 11.79 15.18 11.94 15.12 12.14C15.06 12.32 15.03 12.64 15.03 13.1V16.7C15.03 17 15.03 17.25 15.03 17.45C15.05 17.63 15.06 17.75 15.06 17.81C15.06 18.17 14.9 18.52 14.58 18.86C14.26 19.18 13.84 19.47 13.32 19.73C12.8 19.97 12.2 20.17 11.52 20.33C10.86 20.49 10.17 20.57 9.45 20.57C8.19 20.57 7.04 20.33 6 19.85C4.96 19.37 4.06 18.71 3.3 17.87C2.56 17.01 1.98 15.99 1.56 14.81C1.14 13.63 0.93 12.34 0.93 10.94C0.93 9.44 1.16 8.06 1.62 6.8C2.1 5.52 2.75 4.42 3.57 3.5C4.39 2.58 5.36 1.86 6.48 1.34C7.6 0.82 8.82 0.56 10.14 0.56C10.66 0.56 11.15 0.599999 11.61 0.679998C12.07 0.759999 12.48 0.859999 12.84 0.98C13.2 1.08 13.5 1.2 13.74 1.34C14 1.46 14.17 1.57 14.25 1.67C14.37 1.83 14.44 2.18 14.46 2.72C14.5 3.26 14.52 4.01 14.52 4.97C14.52 5.25 14.41 5.39 14.19 5.39C13.97 5.39 13.82 5.23 13.74 4.91C13.68 4.57 13.54 4.16 13.32 3.68C13 2.94 12.54 2.37 11.94 1.97C11.34 1.57 10.63 1.37 9.81 1.37C8.89 1.37 8.03 1.6 7.23 2.06C6.45 2.52 5.76 3.16 5.16 3.98C4.58 4.78 4.12 5.75 3.78 6.89C3.46 8.01 3.3 9.23 3.3 10.55C3.3 11.93 3.47 13.19 3.81 14.33C4.15 15.45 4.61 16.41 5.19 17.21C5.79 18.01 6.49 18.63 7.29 19.07C8.09 19.49 8.95 19.7 9.87 19.7C10.57 19.7 11.12 19.62 11.52 19.46C11.94 19.3 12.26 19.08 12.48 18.8C12.7 18.5 12.84 18.15 12.9 17.75C12.96 17.35 12.99 16.91 12.99 16.43ZM30.363 16.43V13.1C30.363 12.64 30.323 12.32 30.243 12.14C30.183 11.96 30.003 11.82 29.703 11.72C29.523 11.66 29.343 11.63 29.163 11.63C29.003 11.61 28.853 11.6 28.713 11.6C28.593 11.58 28.493 11.55 28.413 11.51C28.333 11.45 28.293 11.34 28.293 11.18C28.293 10.92 28.443 10.79 28.743 10.79C28.943 10.79 29.263 10.83 29.703 10.91C30.143 10.97 30.713 11 31.413 11C32.073 11 32.603 10.97 33.003 10.91C33.403 10.83 33.693 10.79 33.873 10.79C34.133 10.79 34.263 10.92 34.263 11.18C34.263 11.32 34.233 11.42 34.173 11.48C34.113 11.54 34.023 11.58 33.903 11.6C33.803 11.62 33.683 11.63 33.543 11.63C33.403 11.63 33.253 11.65 33.093 11.69C32.753 11.79 32.553 11.94 32.493 12.14C32.433 12.32 32.403 12.64 32.403 13.1V16.7C32.403 17 32.403 17.25 32.403 17.45C32.423 17.63 32.433 17.75 32.433 17.81C32.433 18.17 32.273 18.52 31.953 18.86C31.633 19.18 31.213 19.47 30.693 19.73C30.173 19.97 29.573 20.17 28.893 20.33C28.233 20.49 27.543 20.57 26.823 20.57C25.563 20.57 24.413 20.33 23.373 19.85C22.333 19.37 21.433 18.71 20.673 17.87C19.933 17.01 19.353 15.99 18.933 14.81C18.513 13.63 18.303 12.34 18.303 10.94C18.303 9.44 18.533 8.06 18.993 6.8C19.473 5.52 20.123 4.42 20.943 3.5C21.763 2.58 22.733 1.86 23.853 1.34C24.973 0.82 26.193 0.56 27.513 0.56C28.033 0.56 28.523 0.599999 28.983 0.679998C29.443 0.759999 29.853 0.859999 30.213 0.98C30.573 1.08 30.873 1.2 31.113 1.34C31.373 1.46 31.543 1.57 31.623 1.67C31.743 1.83 31.813 2.18 31.833 2.72C31.873 3.26 31.893 4.01 31.893 4.97C31.893 5.25 31.783 5.39 31.563 5.39C31.343 5.39 31.193 5.23 31.113 4.91C31.053 4.57 30.913 4.16 30.693 3.68C30.373 2.94 29.913 2.37 29.313 1.97C28.713 1.57 28.003 1.37 27.183 1.37C26.263 1.37 25.403 1.6 24.603 2.06C23.823 2.52 23.133 3.16 22.533 3.98C21.953 4.78 21.493 5.75 21.153 6.89C20.833 8.01 20.673 9.23 20.673 10.55C20.673 11.93 20.843 13.19 21.183 14.33C21.523 15.45 21.983 16.41 22.563 17.21C23.163 18.01 23.863 18.63 24.663 19.07C25.463 19.49 26.323 19.7 27.243 19.7C27.943 19.7 28.493 19.62 28.893 19.46C29.313 19.3 29.633 19.08 29.853 18.8C30.073 18.5 30.213 18.15 30.273 17.75C30.333 17.35 30.363 16.91 30.363 16.43Z" fill="black"/>
</svg>
