<svg width="1673" height="654" viewBox="0 0 1673 654" fill="none" xmlns="http://www.w3.org/2000/svg">
<path d="M6.2 86C6.2 76.4 7.6 67.5333 10.4 59.4C13.3333 51.2667 17.2667 44.2667 22.2 38.4C27.2667 32.4 33.1333 27.7333 39.8 24.4C46.4667 21.0667 53.6667 19.4 61.4 19.4C64.7333 19.4 67.8667 19.6667 70.8 20.2C73.8667 20.7333 76.6 21.4 79 22.2C81.5333 22.8667 83.6 23.6667 85.2 24.6C86.9333 25.4 88.1333 26.1333 88.8 26.8C89.4667 27.6 90 29.8 90.4 33.4C90.8 37 91 41.8667 91 48C91 49.7333 90.4 50.6 89.2 50.6C87.8667 50.6 87 49.5333 86.6 47.4C86.2 45.2667 85.1333 42.6667 83.4 39.6C78.0667 29.7333 70.2667 24.8 60 24.8C54.6667 24.8 49.6667 26.2 45 29C40.4667 31.8 36.4667 35.8 33 41C29.5333 46.2 26.8 52.6 24.8 60.2C22.8 67.8 21.8 76.4 21.8 86C21.8 94.9333 22.8 103.133 24.8 110.6C26.8 118.067 29.5333 124.533 33 130C36.6 135.333 40.7333 139.533 45.4 142.6C50.0667 145.533 55.0667 147 60.4 147C66.8 147 72 145.133 76 141.4C80 137.667 83.3333 132.067 86 124.6C87.0667 121.667 87.7333 119.4 88 117.8C88.4 116.067 89.1333 115.2 90.2 115.2C91.5333 115.2 92.2 116.333 92.2 118.6C92.2 125.267 92.0667 130.467 91.8 134.2C91.6667 137.8 91.2 140.2 90.4 141.4C89.6 142.6 88.2667 143.867 86.4 145.2C84.5333 146.533 82.2667 147.8 79.6 149C76.9333 150.067 73.9333 150.933 70.6 151.6C67.2667 152.4 63.6 152.8 59.6 152.8C52 152.8 44.9333 151.133 38.4 147.8C31.8667 144.467 26.2 139.8 21.4 133.8C16.6 127.8 12.8667 120.733 10.2 112.6C7.53333 104.467 6.2 95.6 6.2 86ZM125.781 62.2V73.6C125.781 74.5333 126.048 75 126.581 75C126.981 75 127.448 74.6667 127.981 74L131.581 68.8C137.181 61.2 143.115 57.4 149.381 57.4C152.715 57.4 155.315 58.3333 157.181 60.2C159.048 61.9333 159.981 64.1333 159.981 66.8C159.981 69.4667 159.248 71.6667 157.781 73.4C156.448 75 154.915 75.8 153.181 75.8C151.848 75.8 150.648 75.4 149.581 74.6C148.648 73.8 147.648 72.9333 146.581 72C145.648 70.9333 144.648 70 143.581 69.2C142.515 68.4 141.181 68 139.581 68C138.115 68 136.581 68.6 134.981 69.8C133.515 71 132.115 72.9333 130.781 75.6C129.448 78.1333 128.381 81.4 127.581 85.4C126.781 89.4 126.381 94.2 126.381 99.8V132.8C126.381 136.267 126.648 138.733 127.181 140.2C127.715 141.667 128.981 142.8 130.981 143.6C132.715 144.267 134.248 144.667 135.581 144.8C136.915 144.933 138.048 145.067 138.981 145.2C139.915 145.2 140.581 145.333 140.981 145.6C141.515 145.733 141.781 146.267 141.781 147.2C141.781 148.667 140.715 149.4 138.581 149.4C136.848 149.4 134.448 149.267 131.381 149C128.448 148.6 124.915 148.4 120.781 148.4C118.115 148.4 115.648 148.533 113.381 148.8C111.248 149.067 109.381 149.2 107.781 149.2C106.715 149.2 105.915 149.133 105.381 149C104.981 148.733 104.781 148.133 104.781 147.2C104.781 145.867 105.248 145.2 106.181 145.2C107.248 145.2 108.915 144.8 111.181 144C112.915 143.333 113.981 142.2 114.381 140.6C114.915 138.867 115.181 136.267 115.181 132.8V79.8C115.181 77.4 114.715 75.8 113.781 75C112.981 74.2 112.048 73.7333 110.981 73.6C110.048 73.4667 109.181 73.4 108.381 73.4C107.581 73.4 107.181 72.9333 107.181 72C107.181 70.9333 107.848 70.1333 109.181 69.6C110.648 68.9333 112.248 68 113.981 66.8C117.048 64.6667 119.381 62.6 120.981 60.6C122.581 58.4667 123.781 57.4 124.581 57.4C125.248 57.4 125.581 57.8667 125.581 58.8C125.715 59.6 125.781 60.7333 125.781 62.2ZM179.184 23C181.051 23 182.718 24 184.184 26C185.651 28 186.384 30.3333 186.384 33C186.384 35.5333 185.651 37.8 184.184 39.8C182.851 41.6667 181.184 42.6 179.184 42.6C177.318 42.6 175.651 41.6667 174.184 39.8C172.851 37.9333 172.184 35.6667 172.184 33C172.184 30.3333 172.851 28 174.184 26C175.651 24 177.318 23 179.184 23ZM185.384 62.2V136.8C185.384 139.6 185.918 141.533 186.984 142.6C188.184 143.533 189.451 144.2 190.784 144.6C192.251 144.867 193.518 145.133 194.584 145.4C195.784 145.533 196.384 146.133 196.384 147.2C196.384 148.267 196.118 148.867 195.584 149C195.184 149.133 194.451 149.2 193.384 149.2C192.584 149.2 190.984 149.067 188.584 148.8C186.318 148.533 183.251 148.4 179.384 148.4C176.318 148.4 173.584 148.533 171.184 148.8C168.918 149.067 167.051 149.2 165.584 149.2C164.518 149.2 163.651 149.133 162.984 149C162.451 148.733 162.184 148.133 162.184 147.2C162.184 146.133 162.784 145.533 163.984 145.4C165.318 145.133 166.718 144.867 168.184 144.6C169.651 144.2 170.984 143.467 172.184 142.4C173.518 141.333 174.184 139.467 174.184 136.8V81.8C174.184 76.8667 172.118 74.4 167.984 74.4C166.918 74.4 166.051 74.3333 165.384 74.2C164.718 73.9333 164.384 73.3333 164.384 72.4C164.384 71.0667 165.118 70.1333 166.584 69.6C168.184 69.0667 169.851 68.0667 171.584 66.6C175.318 64.4667 178.118 62.5333 179.984 60.8C181.851 59.0667 183.184 58.2 183.984 58.2C184.651 58.2 185.051 58.5333 185.184 59.2C185.318 59.7333 185.384 60.7333 185.384 62.2ZM237.414 88C245.681 88 251.747 87.5333 255.614 86.6C259.481 85.5333 261.414 83.0667 261.414 79.2C261.414 77.0667 260.947 74.9333 260.014 72.8C259.081 70.6667 257.747 68.7333 256.014 67C254.414 65.2667 252.481 63.8667 250.214 62.8C247.947 61.7333 245.547 61.2 243.014 61.2C239.814 61.2 236.747 62 233.814 63.6C230.881 65.2 228.281 67.2 226.014 69.6C223.881 72 222.147 74.6667 220.814 77.6C219.481 80.5333 218.814 83.4 218.814 86.2C218.814 86.6 219.014 87 219.414 87.4C219.814 87.8 220.347 88 221.014 88H237.414ZM268.414 92.8H220.814C219.081 92.8 218.014 93.4 217.614 94.6C217.214 95.6667 217.014 97.8667 217.014 101.2C217.014 107.867 217.747 113.8 219.214 119C220.814 124.2 222.947 128.6 225.614 132.2C228.414 135.8 231.681 138.6 235.414 140.6C239.281 142.467 243.481 143.4 248.014 143.4C252.147 143.4 255.614 142.733 258.414 141.4C261.347 140.067 263.747 138.6 265.614 137C267.481 135.4 268.947 133.933 270.014 132.6C271.081 131.267 271.814 130.6 272.214 130.6C273.147 130.6 273.614 131.133 273.614 132.2C273.614 133.667 272.881 135.6 271.414 138C269.947 140.267 267.814 142.533 265.014 144.8C262.347 146.933 259.014 148.8 255.014 150.4C251.147 152 246.814 152.8 242.014 152.8C236.547 152.8 231.481 151.667 226.814 149.4C222.281 147.133 218.347 143.933 215.014 139.8C211.681 135.667 209.081 130.667 207.214 124.8C205.481 118.933 204.614 112.4 204.614 105.2C204.614 97.8667 205.681 91.2667 207.814 85.4C209.947 79.4 212.814 74.3333 216.414 70.2C220.014 66.0667 224.214 62.9333 229.014 60.8C233.814 58.5333 238.881 57.4 244.214 57.4C248.881 57.4 253.081 58.2667 256.814 60C260.547 61.7333 263.681 64.0667 266.214 67C268.881 69.8 270.881 73.1333 272.214 77C273.681 80.7333 274.414 84.6 274.414 88.6C274.414 90.0667 273.947 91.1333 273.014 91.8C272.214 92.4667 270.681 92.8 268.414 92.8ZM345.522 67.4V113.4C345.522 123.8 346.855 131.6 349.522 136.8C352.189 142 356.989 144.6 363.922 144.6C371.122 144.6 376.322 141.733 379.522 136C382.722 130.133 384.322 121.4 384.322 109.8V73.4C384.322 70.7333 383.789 68.8667 382.722 67.8C381.655 66.7333 380.455 66 379.122 65.6C377.789 65.2 376.589 64.9333 375.522 64.8C374.455 64.6667 373.922 64.0667 373.922 63C373.922 62.0667 374.055 61.5333 374.322 61.4C374.722 61.1333 375.255 61 375.922 61C376.455 61 377.322 61.0667 378.522 61.2C379.722 61.3333 381.322 61.4 383.322 61.4C385.589 61.4 387.522 61.3333 389.122 61.2C390.722 61.0667 391.855 61 392.522 61C393.989 61 394.855 61.4 395.122 62.2C395.389 62.8667 395.522 64.6 395.522 67.4V133.2C395.522 136 395.922 137.867 396.722 138.8C397.522 139.733 398.389 140.267 399.322 140.4C400.389 140.533 401.322 140.6 402.122 140.6C403.055 140.6 403.522 141.067 403.522 142C403.522 143.067 402.789 143.933 401.322 144.6C399.855 145.133 398.122 145.933 396.122 147C393.722 148.333 391.789 149.6 390.322 150.8C388.855 152.133 387.589 152.8 386.522 152.8C385.722 152.8 385.189 152.333 384.922 151.4C384.789 150.6 384.722 149.467 384.722 148V138.6C384.722 137 384.522 136.2 384.122 136.2C383.589 136.2 382.789 137.2 381.722 139.2C380.655 141.067 378.789 143.133 376.122 145.4C373.455 147.8 370.722 149.6 367.922 150.8C365.255 152.133 362.255 152.8 358.922 152.8C354.389 152.8 350.255 151.667 346.522 149.4C342.922 147.133 340.189 144 338.322 140C336.455 136.4 335.322 132.667 334.922 128.8C334.522 124.933 334.322 120.867 334.322 116.6V73.4C334.322 70.7333 333.789 68.8667 332.722 67.8C331.655 66.7333 330.455 66 329.122 65.6C327.789 65.2 326.589 64.9333 325.522 64.8C324.455 64.6667 323.922 64.0667 323.922 63C323.922 62.0667 324.055 61.5333 324.322 61.4C324.722 61.1333 325.255 61 325.922 61C326.189 61 327.055 61.0667 328.522 61.2C330.122 61.3333 332.322 61.4 335.122 61.4C336.589 61.4 337.855 61.3333 338.922 61.2C340.122 61.0667 341.255 61 342.322 61C343.789 61 344.655 61.3333 344.922 62C345.322 62.6667 345.522 64.4667 345.522 67.4ZM434.961 62.2V71.6C434.961 73.0667 435.228 73.8 435.761 73.8C436.294 73.8 437.028 72.8667 437.961 71C438.894 69 440.628 66.8667 443.161 64.6C445.828 62.2 448.428 60.4 450.961 59.2C453.494 58 456.294 57.4 459.361 57.4C464.828 57.4 469.294 58.9333 472.761 62C476.228 64.9333 479.028 69.5333 481.161 75.8H481.961C485.828 69.5333 489.694 64.9333 493.561 62C497.428 58.9333 501.694 57.4 506.361 57.4C513.294 57.4 518.894 60.1333 523.161 65.6C527.428 71.0667 529.561 78.4667 529.561 87.8C529.561 88.4667 529.561 89.8667 529.561 92C529.694 94 529.761 96.7333 529.761 100.2V136.8C529.761 139.6 530.228 141.533 531.161 142.6C532.228 143.533 533.361 144.2 534.561 144.6C535.761 144.867 536.828 145.133 537.761 145.4C538.828 145.533 539.361 146.133 539.361 147.2C539.361 148.133 539.161 148.733 538.761 149C538.361 149.133 537.628 149.2 536.561 149.2C535.761 149.2 534.361 149.067 532.361 148.8C530.361 148.533 527.694 148.4 524.361 148.4C521.428 148.4 518.894 148.533 516.761 148.8C514.761 149.067 513.094 149.2 511.761 149.2C510.694 149.2 509.894 149.133 509.361 149C508.961 148.733 508.761 148.133 508.761 147.2C508.761 146.133 509.228 145.533 510.161 145.4C511.228 145.133 512.361 144.8 513.561 144.4C514.894 144 516.028 143.333 516.961 142.4C518.028 141.333 518.561 139.467 518.561 136.8V96.6C518.561 86.2 517.294 78.4 514.761 73.2C512.361 68 507.961 65.4 501.561 65.4C496.361 65.4 491.961 67.7333 488.361 72.4C484.894 77.0667 483.094 84.2667 482.961 94L482.561 136.8C482.561 139.467 483.028 141.333 483.961 142.4C485.028 143.333 486.161 144 487.361 144.4C488.694 144.8 489.828 145.133 490.761 145.4C491.828 145.533 492.361 146.133 492.361 147.2C492.361 148.133 492.161 148.733 491.761 149C491.361 149.133 490.628 149.2 489.561 149.2C488.628 149.2 487.161 149.067 485.161 148.8C483.161 148.533 480.561 148.4 477.361 148.4C473.761 148.4 470.894 148.533 468.761 148.8C466.628 149.067 465.228 149.2 464.561 149.2C463.494 149.2 462.761 149.133 462.361 149C461.961 148.733 461.761 148.133 461.761 147.2C461.761 146.133 462.228 145.533 463.161 145.4C464.228 145.133 465.361 144.8 466.561 144.4C467.761 144 468.828 143.333 469.761 142.4C470.828 141.333 471.361 139.467 471.361 136.8V96.6C471.361 86.2 470.094 78.4 467.561 73.2C465.028 68 460.628 65.4 454.361 65.4C449.161 65.4 444.694 67.8667 440.961 72.8C437.361 77.6 435.561 84.6667 435.561 94V136.8C435.561 139.6 436.094 141.533 437.161 142.6C438.228 143.533 439.428 144.2 440.761 144.6C442.094 144.867 443.294 145.133 444.361 145.4C445.428 145.533 445.961 146.133 445.961 147.2C445.961 148.133 445.694 148.733 445.161 149C444.761 149.133 444.028 149.2 442.961 149.2C442.428 149.2 441.094 149.067 438.961 148.8C436.828 148.533 433.828 148.4 429.961 148.4C427.161 148.4 424.628 148.533 422.361 148.8C420.228 149.067 418.428 149.2 416.961 149.2C415.894 149.2 415.094 149.133 414.561 149C414.161 148.733 413.961 148.133 413.961 147.2C413.961 146.133 414.494 145.533 415.561 145.4C416.628 145.133 417.828 144.8 419.161 144.4C420.494 144 421.694 143.333 422.761 142.4C423.828 141.333 424.361 139.467 424.361 136.8V79.8C424.361 77.4 423.894 75.8 422.961 75C422.161 74.2 421.228 73.7333 420.161 73.6C419.228 73.4667 418.361 73.4 417.561 73.4C416.761 73.4 416.361 72.9333 416.361 72C416.361 70.8 417.028 70 418.361 69.6C419.828 69.0667 421.294 68.2667 422.761 67.2C426.228 64.8 428.761 62.6 430.361 60.6C431.961 58.4667 433.094 57.4 433.761 57.4C434.428 57.4 434.761 57.8667 434.761 58.8C434.894 59.6 434.961 60.7333 434.961 62.2ZM609.18 62.2V70.8C609.18 72 609.513 72.6 610.18 72.6C610.58 72.6 611.446 71.8 612.78 70.2C614.113 68.6 615.846 66.8667 617.98 65C620.246 63 622.913 61.2 625.98 59.6C629.046 58 632.646 57.2 636.78 57.2C641.313 57.2 645.513 58.3333 649.38 60.6C653.38 62.7333 656.78 65.8667 659.58 70C662.513 74 664.78 78.8667 666.38 84.6C668.113 90.3333 668.98 96.7333 668.98 103.8C668.98 111.4 667.98 118.267 665.98 124.4C664.113 130.4 661.513 135.533 658.18 139.8C654.846 143.933 650.913 147.133 646.38 149.4C641.846 151.667 636.913 152.8 631.58 152.8C627.713 152.8 624.113 152.267 620.78 151.2C617.58 150.267 614.246 148.667 610.78 146.4H609.78V180.8C609.78 183.6 610.446 185.467 611.78 186.4C613.113 187.467 614.58 188.133 616.18 188.4C617.913 188.667 619.446 188.867 620.78 189C622.113 189.267 622.78 190 622.78 191.2C622.78 192.533 621.78 193.2 619.78 193.2C618.58 193.2 616.846 193.067 614.58 192.8C612.313 192.533 609.446 192.4 605.98 192.4C602.246 192.4 599.113 192.533 596.58 192.8C594.18 193.067 592.313 193.2 590.98 193.2C589.113 193.2 588.18 192.533 588.18 191.2C588.18 190.133 588.713 189.467 589.78 189.2C590.846 189.067 592.046 188.8 593.38 188.4C594.713 188 595.913 187.267 596.98 186.2C598.046 185.267 598.58 183.467 598.58 180.8V79.8C598.58 77.4 598.113 75.8 597.18 75C596.38 74.2 595.446 73.7333 594.38 73.6C593.446 73.4667 592.58 73.4 591.78 73.4C590.98 73.4 590.58 72.9333 590.58 72C590.58 70.8 591.246 70 592.58 69.6C594.046 69.0667 595.513 68.2667 596.98 67.2C600.446 64.8 602.98 62.6 604.58 60.6C606.18 58.4667 607.313 57.4 607.98 57.4C608.646 57.4 608.98 57.8667 608.98 58.8C609.113 59.6 609.18 60.7333 609.18 62.2ZM609.78 132C609.78 134.4 610.313 136.667 611.38 138.8C612.446 140.8 613.846 142.533 615.58 144C617.446 145.467 619.58 146.667 621.98 147.6C624.38 148.4 626.98 148.8 629.78 148.8C637.78 148.8 644.313 145.133 649.38 137.8C654.446 130.333 656.98 119.733 656.98 106C656.98 92.5333 654.58 82.2667 649.78 75.2C645.113 68 639.113 64.4 631.78 64.4C629.113 64.4 626.446 65 623.78 66.2C621.113 67.2667 618.713 68.8667 616.58 71C614.58 73 612.913 75.4 611.58 78.2C610.38 81 609.78 84.0667 609.78 87.4V132ZM700.391 62.2V73.6C700.391 74.5333 700.657 75 701.191 75C701.591 75 702.057 74.6667 702.591 74L706.191 68.8C711.791 61.2 717.724 57.4 723.991 57.4C727.324 57.4 729.924 58.3333 731.791 60.2C733.657 61.9333 734.591 64.1333 734.591 66.8C734.591 69.4667 733.857 71.6667 732.391 73.4C731.057 75 729.524 75.8 727.791 75.8C726.457 75.8 725.257 75.4 724.191 74.6C723.257 73.8 722.257 72.9333 721.191 72C720.257 70.9333 719.257 70 718.191 69.2C717.124 68.4 715.791 68 714.191 68C712.724 68 711.191 68.6 709.591 69.8C708.124 71 706.724 72.9333 705.391 75.6C704.057 78.1333 702.991 81.4 702.191 85.4C701.391 89.4 700.991 94.2 700.991 99.8V132.8C700.991 136.267 701.257 138.733 701.791 140.2C702.324 141.667 703.591 142.8 705.591 143.6C707.324 144.267 708.857 144.667 710.191 144.8C711.524 144.933 712.657 145.067 713.591 145.2C714.524 145.2 715.191 145.333 715.591 145.6C716.124 145.733 716.391 146.267 716.391 147.2C716.391 148.667 715.324 149.4 713.191 149.4C711.457 149.4 709.057 149.267 705.991 149C703.057 148.6 699.524 148.4 695.391 148.4C692.724 148.4 690.257 148.533 687.991 148.8C685.857 149.067 683.991 149.2 682.391 149.2C681.324 149.2 680.524 149.133 679.991 149C679.591 148.733 679.391 148.133 679.391 147.2C679.391 145.867 679.857 145.2 680.791 145.2C681.857 145.2 683.524 144.8 685.791 144C687.524 143.333 688.591 142.2 688.991 140.6C689.524 138.867 689.791 136.267 689.791 132.8V79.8C689.791 77.4 689.324 75.8 688.391 75C687.591 74.2 686.657 73.7333 685.591 73.6C684.657 73.4667 683.791 73.4 682.991 73.4C682.191 73.4 681.791 72.9333 681.791 72C681.791 70.9333 682.457 70.1333 683.791 69.6C685.257 68.9333 686.857 68 688.591 66.8C691.657 64.6667 693.991 62.6 695.591 60.6C697.191 58.4667 698.391 57.4 699.191 57.4C699.857 57.4 700.191 57.8667 700.191 58.8C700.324 59.6 700.391 60.7333 700.391 62.2ZM777.994 57.4C784.26 57.4 789.86 58.5333 794.794 60.8C799.86 63.0667 804.06 66.2667 807.394 70.4C810.86 74.5333 813.46 79.5333 815.194 85.4C817.06 91.2667 817.994 97.7333 817.994 104.8C817.994 112 817.06 118.6 815.194 124.6C813.327 130.467 810.594 135.533 806.994 139.8C803.527 143.933 799.26 147.133 794.194 149.4C789.127 151.667 783.394 152.8 776.994 152.8C771.26 152.8 766.06 151.6 761.394 149.2C756.727 146.933 752.727 143.733 749.394 139.6C746.06 135.333 743.46 130.267 741.594 124.4C739.727 118.533 738.794 112.067 738.794 105C738.794 97.8 739.727 91.2667 741.594 85.4C743.594 79.5333 746.327 74.5333 749.794 70.4C753.394 66.2667 757.594 63.0667 762.394 60.8C767.194 58.5333 772.394 57.4 777.994 57.4ZM778.394 61C769.994 61 763.327 64.6667 758.394 72C753.594 79.2 751.194 89.8 751.194 103.8C751.194 110.867 751.86 117.2 753.194 122.8C754.527 128.267 756.394 133 758.794 137C761.194 140.867 763.994 143.867 767.194 146C770.527 148 774.127 149 777.994 149C786.527 149 793.194 145.467 797.994 138.4C802.794 131.2 805.194 120.733 805.194 107C805.194 92.3333 802.727 81 797.794 73C792.994 65 786.527 61 778.394 61ZM898.842 15V130.2C898.842 134.2 898.976 137.133 899.242 139C899.642 140.867 900.642 141.8 902.242 141.8C902.776 141.8 903.376 141.6 904.042 141.2C904.709 140.667 905.309 140.133 905.842 139.6C906.509 138.933 907.109 138.4 907.642 138C908.309 137.467 908.909 137.2 909.442 137.2C909.842 137.2 910.042 138.133 910.042 140C910.042 141.467 909.776 142.467 909.242 143C908.709 143.533 907.576 144.133 905.842 144.8C901.576 146.667 898.309 148.267 896.042 149.6C893.909 151.067 892.442 151.8 891.642 151.8C890.309 151.8 889.442 150.067 889.042 146.6L888.242 137.4H887.042C882.642 142.467 878.242 146.333 873.842 149C869.576 151.533 865.109 152.8 860.442 152.8C856.042 152.8 851.842 151.733 847.842 149.6C843.976 147.467 840.576 144.4 837.642 140.4C834.842 136.267 832.576 131.333 830.842 125.6C829.242 119.733 828.442 113.2 828.442 106C828.442 98.4 829.376 91.6 831.242 85.6C833.242 79.6 835.909 74.5333 839.242 70.4C842.576 66.1333 846.509 62.9333 851.042 60.8C855.709 58.5333 860.642 57.4 865.842 57.4C869.176 57.4 872.042 57.7333 874.442 58.4C876.842 58.9333 878.842 59.6 880.442 60.4C882.042 61.2 883.242 61.9333 884.042 62.6C884.976 63.1333 885.642 63.4 886.042 63.4C887.109 63.4 887.642 62.6667 887.642 61.2V30.8C887.642 24.8 885.576 21.8 881.442 21.8C881.309 21.8 881.109 21.8667 880.842 22C880.576 22 880.109 22 879.442 22C879.176 22 878.842 21.8667 878.442 21.6C878.042 21.2 877.842 20.7333 877.842 20.2C877.842 18.8667 878.642 18.0667 880.242 17.8C881.842 17.4 883.642 16.8667 885.642 16.2C889.109 15 891.776 13.8 893.642 12.6C895.509 11.2667 896.776 10.6 897.442 10.6C898.376 10.6 898.842 12.0667 898.842 15ZM887.642 78C887.642 75.6 887.109 73.4 886.042 71.4C884.976 69.2667 883.509 67.4667 881.642 66C879.909 64.5333 877.842 63.4 875.442 62.6C873.042 61.6667 870.442 61.2 867.642 61.2C859.642 61.2 853.109 64.9333 848.042 72.4C842.976 79.7333 840.442 90.2667 840.442 104C840.442 117.333 842.776 127.667 847.442 135C852.242 142.2 858.309 145.8 865.642 145.8C868.442 145.8 871.109 145.2 873.642 144C876.309 142.8 878.642 141.2 880.642 139.2C882.776 137.067 884.442 134.6 885.642 131.8C886.976 129 887.642 125.933 887.642 122.6V78ZM938.881 67.4V113.4C938.881 123.8 940.215 131.6 942.881 136.8C945.548 142 950.348 144.6 957.281 144.6C964.481 144.6 969.681 141.733 972.881 136C976.081 130.133 977.681 121.4 977.681 109.8V73.4C977.681 70.7333 977.148 68.8667 976.081 67.8C975.015 66.7333 973.815 66 972.481 65.6C971.148 65.2 969.948 64.9333 968.881 64.8C967.815 64.6667 967.281 64.0667 967.281 63C967.281 62.0667 967.415 61.5333 967.681 61.4C968.081 61.1333 968.615 61 969.281 61C969.815 61 970.681 61.0667 971.881 61.2C973.081 61.3333 974.681 61.4 976.681 61.4C978.948 61.4 980.881 61.3333 982.481 61.2C984.081 61.0667 985.215 61 985.881 61C987.348 61 988.215 61.4 988.481 62.2C988.748 62.8667 988.881 64.6 988.881 67.4V133.2C988.881 136 989.281 137.867 990.081 138.8C990.881 139.733 991.748 140.267 992.681 140.4C993.748 140.533 994.681 140.6 995.481 140.6C996.415 140.6 996.881 141.067 996.881 142C996.881 143.067 996.148 143.933 994.681 144.6C993.215 145.133 991.481 145.933 989.481 147C987.081 148.333 985.148 149.6 983.681 150.8C982.215 152.133 980.948 152.8 979.881 152.8C979.081 152.8 978.548 152.333 978.281 151.4C978.148 150.6 978.081 149.467 978.081 148V138.6C978.081 137 977.881 136.2 977.481 136.2C976.948 136.2 976.148 137.2 975.081 139.2C974.015 141.067 972.148 143.133 969.481 145.4C966.815 147.8 964.081 149.6 961.281 150.8C958.615 152.133 955.615 152.8 952.281 152.8C947.748 152.8 943.615 151.667 939.881 149.4C936.281 147.133 933.548 144 931.681 140C929.815 136.4 928.681 132.667 928.281 128.8C927.881 124.933 927.681 120.867 927.681 116.6V73.4C927.681 70.7333 927.148 68.8667 926.081 67.8C925.015 66.7333 923.815 66 922.481 65.6C921.148 65.2 919.948 64.9333 918.881 64.8C917.815 64.6667 917.281 64.0667 917.281 63C917.281 62.0667 917.415 61.5333 917.681 61.4C918.081 61.1333 918.615 61 919.281 61C919.548 61 920.415 61.0667 921.881 61.2C923.481 61.3333 925.681 61.4 928.481 61.4C929.948 61.4 931.215 61.3333 932.281 61.2C933.481 61.0667 934.615 61 935.681 61C937.148 61 938.015 61.3333 938.281 62C938.681 62.6667 938.881 64.4667 938.881 67.4ZM1028.52 47.4V57.6C1028.52 58.9333 1028.65 59.8667 1028.92 60.4C1029.32 60.8 1030.12 61 1031.32 61H1046.12C1047.32 61 1048.05 61.2 1048.32 61.6C1048.59 61.8667 1048.72 62.5333 1048.72 63.6V64.4C1048.72 65.6 1048.52 66.4667 1048.12 67C1047.85 67.5333 1047.19 67.8 1046.12 67.8H1031.12C1029.92 67.8 1029.12 68.0667 1028.72 68.6C1028.45 69 1028.32 69.8667 1028.32 71.2V129.6C1028.32 139.733 1031.52 144.8 1037.92 144.8C1039.65 144.8 1041.25 144.4 1042.72 143.6C1044.19 142.8 1045.45 142 1046.52 141.2C1047.72 140.267 1048.72 139.4 1049.52 138.6C1050.32 137.8 1050.92 137.4 1051.32 137.4C1051.85 137.4 1052.12 137.933 1052.12 139C1052.12 139.667 1051.59 140.8 1050.52 142.4C1049.59 143.867 1048.19 145.4 1046.32 147C1044.59 148.467 1042.52 149.8 1040.12 151C1037.85 152.2 1035.45 152.8 1032.92 152.8C1027.72 152.8 1023.65 150.733 1020.72 146.6C1017.92 142.467 1016.52 136.4 1016.52 128.4V119L1017.12 71.2C1017.12 69.8667 1016.92 69 1016.52 68.6C1016.25 68.0667 1015.52 67.8 1014.32 67.8H1011.32C1009.32 67.8 1008.32 67.2 1008.32 66C1008.32 64.9333 1009.32 63.6667 1011.32 62.2C1013.45 60.6 1015.99 58.0667 1018.92 54.6C1021.85 51.1333 1023.79 48.1333 1024.72 45.6C1025.79 43.0667 1026.79 41.8 1027.72 41.8C1028.25 41.8 1028.52 42.6 1028.52 44.2V47.4ZM1098.89 57.4C1105.16 57.4 1110.76 58.5333 1115.69 60.8C1120.76 63.0667 1124.96 66.2667 1128.29 70.4C1131.76 74.5333 1134.36 79.5333 1136.09 85.4C1137.96 91.2667 1138.89 97.7333 1138.89 104.8C1138.89 112 1137.96 118.6 1136.09 124.6C1134.23 130.467 1131.49 135.533 1127.89 139.8C1124.43 143.933 1120.16 147.133 1115.09 149.4C1110.03 151.667 1104.29 152.8 1097.89 152.8C1092.16 152.8 1086.96 151.6 1082.29 149.2C1077.63 146.933 1073.63 143.733 1070.29 139.6C1066.96 135.333 1064.36 130.267 1062.49 124.4C1060.63 118.533 1059.69 112.067 1059.69 105C1059.69 97.8 1060.63 91.2667 1062.49 85.4C1064.49 79.5333 1067.23 74.5333 1070.69 70.4C1074.29 66.2667 1078.49 63.0667 1083.29 60.8C1088.09 58.5333 1093.29 57.4 1098.89 57.4ZM1099.29 61C1090.89 61 1084.23 64.6667 1079.29 72C1074.49 79.2 1072.09 89.8 1072.09 103.8C1072.09 110.867 1072.76 117.2 1074.09 122.8C1075.43 128.267 1077.29 133 1079.69 137C1082.09 140.867 1084.89 143.867 1088.09 146C1091.43 148 1095.03 149 1098.89 149C1107.43 149 1114.09 145.467 1118.89 138.4C1123.69 131.2 1126.09 120.733 1126.09 107C1126.09 92.3333 1123.63 81 1118.69 73C1113.89 65 1107.43 61 1099.29 61ZM1152.63 141.4C1152.63 138.467 1153.36 136.133 1154.83 134.4C1156.43 132.533 1158.23 131.6 1160.23 131.6C1163.03 131.6 1165.3 133.2 1167.03 136.4C1168.9 139.467 1169.83 144 1169.83 150C1169.83 154.4 1169.1 158.667 1167.63 162.8C1166.3 166.933 1164.7 170.6 1162.83 173.8C1160.96 177 1159.1 179.533 1157.23 181.4C1155.5 183.267 1154.23 184.2 1153.43 184.2C1152.36 184.2 1151.83 183.467 1151.83 182C1151.83 181.2 1152.43 180 1153.63 178.4C1154.96 176.8 1156.36 174.867 1157.83 172.6C1159.3 170.333 1160.63 167.733 1161.83 164.8C1163.16 162 1163.83 159 1163.83 155.8C1163.83 154.467 1163.7 153.467 1163.43 152.8C1163.16 152.267 1162.7 151.867 1162.03 151.6C1161.5 151.333 1160.83 151.067 1160.03 150.8C1159.23 150.667 1158.3 150.333 1157.23 149.8C1154.16 148.467 1152.63 145.667 1152.63 141.4ZM44.8 286.4C51.6 286.4 56.9333 287.467 60.8 289.6C64.8 291.733 66.8 294.733 66.8 298.6C66.8 306.867 65.8 311 63.8 311C62.4667 311 61.5333 310.267 61 308.8C60.4667 307.2 59.4667 305 58 302.2C55.7333 298.2 53.4 295.2 51 293.2C48.7333 291.2 45.8667 290.2 42.4 290.2C39.0667 290.2 35.8667 291.133 32.8 293C29.8667 294.733 27.2667 297.4 25 301C22.7333 304.6 20.9333 309.067 19.6 314.4C18.2667 319.733 17.6 325.867 17.6 332.8C17.6 346.4 20.2 356.867 25.4 364.2C30.6 371.4 37.4 375 45.8 375C49.1333 375 52 374.467 54.4 373.4C56.9333 372.333 59.0667 371.2 60.8 370C62.5333 368.667 63.8667 367.467 64.8 366.4C65.7333 365.333 66.4 364.8 66.8 364.8C67.7333 364.8 68.2 365.2 68.2 366C68.2 366.933 67.5333 368.333 66.2 370.2C65 371.933 63.2667 373.667 61 375.4C58.7333 377.133 56 378.6 52.8 379.8C49.6 381.133 46 381.8 42 381.8C36.8 381.8 31.9333 380.667 27.4 378.4C23 376.133 19.1333 372.933 15.8 368.8C12.4667 364.533 9.86667 359.467 8 353.6C6.13333 347.733 5.2 341.2 5.2 334C5.2 326.8 6.26667 320.267 8.4 314.4C10.6667 308.533 13.6 303.533 17.2 299.4C20.9333 295.267 25.2 292.067 30 289.8C34.8 287.533 39.7333 286.4 44.8 286.4ZM116.861 286.4C123.128 286.4 128.728 287.533 133.661 289.8C138.728 292.067 142.928 295.267 146.261 299.4C149.728 303.533 152.328 308.533 154.061 314.4C155.928 320.267 156.861 326.733 156.861 333.8C156.861 341 155.928 347.6 154.061 353.6C152.194 359.467 149.461 364.533 145.861 368.8C142.394 372.933 138.128 376.133 133.061 378.4C127.994 380.667 122.261 381.8 115.861 381.8C110.128 381.8 104.928 380.6 100.261 378.2C95.5943 375.933 91.5943 372.733 88.2609 368.6C84.9276 364.333 82.3276 359.267 80.4609 353.4C78.5943 347.533 77.6609 341.067 77.6609 334C77.6609 326.8 78.5943 320.267 80.4609 314.4C82.4609 308.533 85.1943 303.533 88.6609 299.4C92.2609 295.267 96.4609 292.067 101.261 289.8C106.061 287.533 111.261 286.4 116.861 286.4ZM117.261 290C108.861 290 102.194 293.667 97.2609 301C92.4609 308.2 90.0609 318.8 90.0609 332.8C90.0609 339.867 90.7276 346.2 92.0609 351.8C93.3943 357.267 95.2609 362 97.6609 366C100.061 369.867 102.861 372.867 106.061 375C109.394 377 112.994 378 116.861 378C125.394 378 132.061 374.467 136.861 367.4C141.661 360.2 144.061 349.733 144.061 336C144.061 321.333 141.594 310 136.661 302C131.861 294 125.394 290 117.261 290ZM187.709 244V365.8C187.709 368.6 188.243 370.533 189.309 371.6C190.376 372.533 191.576 373.2 192.909 373.6C194.243 373.867 195.443 374.133 196.509 374.4C197.576 374.533 198.109 375.133 198.109 376.2C198.109 377.133 197.843 377.733 197.309 378C196.909 378.133 196.176 378.2 195.109 378.2C194.043 378.2 192.443 378.067 190.309 377.8C188.176 377.533 185.443 377.4 182.109 377.4C179.176 377.4 176.509 377.533 174.109 377.8C171.843 378.067 169.909 378.2 168.309 378.2C167.109 378.2 166.243 378.133 165.709 378C165.176 377.733 164.909 377.133 164.909 376.2C164.909 375.133 165.509 374.533 166.709 374.4C167.909 374.133 169.243 373.8 170.709 373.4C172.176 373 173.509 372.333 174.709 371.4C175.909 370.333 176.509 368.467 176.509 365.8V259.8C176.509 253.8 174.443 250.8 170.309 250.8C170.176 250.8 169.909 250.867 169.509 251C169.243 251 168.776 251 168.109 251C167.176 251 166.709 250.4 166.709 249.2C166.709 247.733 167.509 246.867 169.109 246.6C170.709 246.333 172.576 245.867 174.709 245.2C178.176 244 180.776 242.8 182.509 241.6C184.376 240.267 185.643 239.6 186.309 239.6C187.243 239.6 187.709 241.067 187.709 244ZM246.158 286.4C252.424 286.4 258.024 287.533 262.958 289.8C268.024 292.067 272.224 295.267 275.558 299.4C279.024 303.533 281.624 308.533 283.358 314.4C285.224 320.267 286.158 326.733 286.158 333.8C286.158 341 285.224 347.6 283.358 353.6C281.491 359.467 278.758 364.533 275.158 368.8C271.691 372.933 267.424 376.133 262.358 378.4C257.291 380.667 251.558 381.8 245.158 381.8C239.424 381.8 234.224 380.6 229.558 378.2C224.891 375.933 220.891 372.733 217.558 368.6C214.224 364.333 211.624 359.267 209.758 353.4C207.891 347.533 206.958 341.067 206.958 334C206.958 326.8 207.891 320.267 209.758 314.4C211.758 308.533 214.491 303.533 217.958 299.4C221.558 295.267 225.758 292.067 230.558 289.8C235.358 287.533 240.558 286.4 246.158 286.4ZM246.558 290C238.158 290 231.491 293.667 226.558 301C221.758 308.2 219.358 318.8 219.358 332.8C219.358 339.867 220.024 346.2 221.358 351.8C222.691 357.267 224.558 362 226.958 366C229.358 369.867 232.158 372.867 235.358 375C238.691 377 242.291 378 246.158 378C254.691 378 261.358 374.467 266.158 367.4C270.958 360.2 273.358 349.733 273.358 336C273.358 321.333 270.891 310 265.958 302C261.158 294 254.691 290 246.558 290ZM355.806 307C355.806 302.2 353.94 298.2 350.206 295C346.473 291.8 341.673 290.2 335.806 290.2C327.806 290.2 321.273 293.933 316.206 301.4C311.14 308.733 308.606 319.267 308.606 333C308.606 346.333 310.94 356.6 315.606 363.8C320.406 371 326.473 374.6 333.806 374.6C336.606 374.6 339.273 374.067 341.806 373C344.473 371.8 346.806 370.2 348.806 368.2C350.94 366.067 352.606 363.6 353.806 360.8C355.14 358 355.806 354.933 355.806 351.6V307ZM367.606 308.8V408.6C367.606 411.267 368.14 413.2 369.206 414.4C370.273 415.6 371.473 416.467 372.806 417C374.14 417.533 375.34 417.933 376.406 418.2C377.473 418.6 378.006 419.267 378.006 420.2C378.006 421.133 377.74 421.667 377.206 421.8C376.673 422.067 375.873 422.2 374.806 422.2C373.74 422.2 372.14 422 370.006 421.6C368.006 421.2 365.34 421 362.006 421C358.273 421 355.14 421.2 352.606 421.6C350.073 422.133 348.14 422.4 346.806 422.4C344.406 422.4 343.206 421.667 343.206 420.2C343.206 419.4 343.34 418.867 343.606 418.6C344.006 418.333 344.54 418.133 345.206 418C345.873 418 346.673 417.933 347.606 417.8C348.673 417.667 349.94 417.333 351.406 416.8C353.406 416.133 354.74 414.8 355.406 412.8C356.073 410.933 356.406 408.2 356.406 404.6V366H355.206C346.806 376.533 337.94 381.8 328.606 381.8C324.206 381.8 320.073 380.667 316.206 378.4C312.34 376.267 308.94 373.2 306.006 369.2C303.073 365.2 300.74 360.333 299.006 354.6C297.406 348.867 296.606 342.4 296.606 335.2C296.606 327.467 297.54 320.6 299.406 314.6C301.406 308.467 304.073 303.333 307.406 299.2C310.74 294.933 314.673 291.733 319.206 289.6C323.873 287.333 328.806 286.2 334.006 286.2C337.34 286.2 340.406 286.533 343.206 287.2C346.14 287.867 348.74 288.667 351.006 289.6C353.273 290.4 355.273 291.133 357.006 291.8C358.74 292.467 360.14 292.8 361.206 292.8C362.406 292.8 363.273 292.4 363.806 291.6C364.473 290.8 365.006 289.933 365.406 289C365.806 288.067 366.206 287.2 366.606 286.4C367.006 285.6 367.606 285.2 368.406 285.2C369.34 285.2 369.806 285.867 369.806 287.2C369.806 287.733 369.406 289.667 368.606 293C367.94 296.2 367.606 301.467 367.606 308.8ZM403.53 296.4V342.4C403.53 352.8 404.863 360.6 407.53 365.8C410.196 371 414.996 373.6 421.93 373.6C429.13 373.6 434.33 370.733 437.53 365C440.73 359.133 442.33 350.4 442.33 338.8V302.4C442.33 299.733 441.796 297.867 440.73 296.8C439.663 295.733 438.463 295 437.13 294.6C435.796 294.2 434.596 293.933 433.53 293.8C432.463 293.667 431.93 293.067 431.93 292C431.93 291.067 432.063 290.533 432.33 290.4C432.73 290.133 433.263 290 433.93 290C434.463 290 435.33 290.067 436.53 290.2C437.73 290.333 439.33 290.4 441.33 290.4C443.596 290.4 445.53 290.333 447.13 290.2C448.73 290.067 449.863 290 450.53 290C451.996 290 452.863 290.4 453.13 291.2C453.396 291.867 453.53 293.6 453.53 296.4V362.2C453.53 365 453.93 366.867 454.73 367.8C455.53 368.733 456.396 369.267 457.33 369.4C458.396 369.533 459.33 369.6 460.13 369.6C461.063 369.6 461.53 370.067 461.53 371C461.53 372.067 460.796 372.933 459.33 373.6C457.863 374.133 456.13 374.933 454.13 376C451.73 377.333 449.796 378.6 448.33 379.8C446.863 381.133 445.596 381.8 444.53 381.8C443.73 381.8 443.196 381.333 442.93 380.4C442.796 379.6 442.73 378.467 442.73 377V367.6C442.73 366 442.53 365.2 442.13 365.2C441.596 365.2 440.796 366.2 439.73 368.2C438.663 370.067 436.796 372.133 434.13 374.4C431.463 376.8 428.73 378.6 425.93 379.8C423.263 381.133 420.263 381.8 416.93 381.8C412.396 381.8 408.263 380.667 404.53 378.4C400.93 376.133 398.196 373 396.33 369C394.463 365.4 393.33 361.667 392.93 357.8C392.53 353.933 392.33 349.867 392.33 345.6V302.4C392.33 299.733 391.796 297.867 390.73 296.8C389.663 295.733 388.463 295 387.13 294.6C385.796 294.2 384.596 293.933 383.53 293.8C382.463 293.667 381.93 293.067 381.93 292C381.93 291.067 382.063 290.533 382.33 290.4C382.73 290.133 383.263 290 383.93 290C384.196 290 385.063 290.067 386.53 290.2C388.13 290.333 390.33 290.4 393.13 290.4C394.596 290.4 395.863 290.333 396.93 290.2C398.13 290.067 399.263 290 400.33 290C401.796 290 402.663 290.333 402.93 291C403.33 291.667 403.53 293.467 403.53 296.4ZM505.969 317C514.235 317 520.302 316.533 524.169 315.6C528.035 314.533 529.969 312.067 529.969 308.2C529.969 306.067 529.502 303.933 528.569 301.8C527.635 299.667 526.302 297.733 524.569 296C522.969 294.267 521.035 292.867 518.769 291.8C516.502 290.733 514.102 290.2 511.569 290.2C508.369 290.2 505.302 291 502.369 292.6C499.435 294.2 496.835 296.2 494.569 298.6C492.435 301 490.702 303.667 489.369 306.6C488.035 309.533 487.369 312.4 487.369 315.2C487.369 315.6 487.569 316 487.969 316.4C488.369 316.8 488.902 317 489.569 317H505.969ZM536.969 321.8H489.369C487.635 321.8 486.569 322.4 486.169 323.6C485.769 324.667 485.569 326.867 485.569 330.2C485.569 336.867 486.302 342.8 487.769 348C489.369 353.2 491.502 357.6 494.169 361.2C496.969 364.8 500.235 367.6 503.969 369.6C507.835 371.467 512.035 372.4 516.569 372.4C520.702 372.4 524.169 371.733 526.969 370.4C529.902 369.067 532.302 367.6 534.169 366C536.035 364.4 537.502 362.933 538.569 361.6C539.635 360.267 540.369 359.6 540.769 359.6C541.702 359.6 542.169 360.133 542.169 361.2C542.169 362.667 541.435 364.6 539.969 367C538.502 369.267 536.369 371.533 533.569 373.8C530.902 375.933 527.569 377.8 523.569 379.4C519.702 381 515.369 381.8 510.569 381.8C505.102 381.8 500.035 380.667 495.369 378.4C490.835 376.133 486.902 372.933 483.569 368.8C480.235 364.667 477.635 359.667 475.769 353.8C474.035 347.933 473.169 341.4 473.169 334.2C473.169 326.867 474.235 320.267 476.369 314.4C478.502 308.4 481.369 303.333 484.969 299.2C488.569 295.067 492.769 291.933 497.569 289.8C502.369 287.533 507.435 286.4 512.769 286.4C517.435 286.4 521.635 287.267 525.369 289C529.102 290.733 532.235 293.067 534.769 296C537.435 298.8 539.435 302.133 540.769 306C542.235 309.733 542.969 313.6 542.969 317.6C542.969 319.067 542.502 320.133 541.569 320.8C540.769 321.467 539.235 321.8 536.969 321.8ZM646.477 309V359.2C646.477 367.467 648.277 371.6 651.877 371.6C653.343 371.6 654.677 370.867 655.877 369.4C657.21 367.933 658.277 367.2 659.077 367.2C660.01 367.2 660.477 367.667 660.477 368.6C660.477 369.667 659.877 370.933 658.677 372.4C657.61 373.733 656.277 375.067 654.677 376.4C653.077 377.733 651.343 378.8 649.477 379.6C647.743 380.533 646.21 381 644.877 381C642.21 381 640.143 380 638.677 378C637.343 375.867 636.077 372.467 634.877 367.8H634.077C629.01 372.067 624.477 375.467 620.477 378C616.61 380.533 612.543 381.8 608.277 381.8C603.477 381.8 599.743 380.4 597.077 377.6C594.41 374.667 593.077 370.8 593.077 366C593.077 362.267 593.943 358.8 595.677 355.6C597.41 352.267 600.01 349.067 603.477 346C607.077 342.8 611.477 339.533 616.677 336.2C621.877 332.867 627.877 329.267 634.677 325.4V307.8C634.677 301.667 634.01 297.267 632.677 294.6C631.477 291.933 628.81 290.6 624.677 290.6C621.21 290.6 617.943 291.8 614.877 294.2C611.81 296.6 609.677 299.467 608.477 302.8C607.01 306.933 605.543 310.467 604.077 313.4C602.61 316.2 600.01 317.6 596.277 317.6C595.343 317.6 594.543 317.333 593.877 316.8C593.21 316.133 592.877 315.267 592.877 314.2C592.877 311.8 593.743 309 595.477 305.8C597.21 302.6 599.677 299.533 602.877 296.6C606.077 293.667 609.877 291.2 614.277 289.2C618.677 287.2 623.477 286.2 628.677 286.2C632.81 286.2 636.077 286.733 638.477 287.8C640.877 288.867 642.677 290.4 643.877 292.4C645.077 294.4 645.81 296.8 646.077 299.6C646.343 302.4 646.477 305.533 646.477 309ZM634.877 333.4C634.877 332.067 634.477 331.4 633.677 331.4C633.277 331.4 632.61 331.667 631.677 332.2L625.677 335.6C612.077 343.467 605.277 351.8 605.277 360.6C605.277 364.333 606.21 367.333 608.077 369.6C609.943 371.733 612.543 372.8 615.877 372.8C617.877 372.8 619.943 372.333 622.077 371.4C624.343 370.467 626.41 369.133 628.277 367.4C630.277 365.533 631.877 363.333 633.077 360.8C634.277 358.133 634.877 355.133 634.877 351.8V333.4ZM724.767 309L738.767 356.8C739.167 357.733 739.567 358.2 739.967 358.2C740.367 358.2 740.767 357.6 741.167 356.4L757.367 310C758.034 308.133 758.567 306.333 758.967 304.6C759.367 302.867 759.567 301.067 759.567 299.2C759.567 297.467 758.967 296.333 757.767 295.8C756.701 295.133 755.501 294.733 754.167 294.6C752.967 294.333 751.767 294.067 750.567 293.8C749.501 293.533 748.967 292.867 748.967 291.8C748.967 291 749.101 290.533 749.367 290.4C749.767 290.133 750.301 290 750.967 290C751.367 290 752.567 290.133 754.567 290.4C756.701 290.533 759.901 290.6 764.167 290.6C767.767 290.6 770.434 290.533 772.167 290.4C773.901 290.133 774.901 290 775.167 290C775.967 290 776.501 290.067 776.767 290.2C777.034 290.333 777.167 290.867 777.167 291.8C777.167 293.133 776.701 293.867 775.767 294C774.967 294 773.634 294.4 771.767 295.2C769.901 296 768.367 297.333 767.167 299.2C765.967 301.067 764.634 304.133 763.167 308.4L738.567 376C738.167 377.2 737.767 378.133 737.367 378.8C737.101 379.467 736.634 379.8 735.967 379.8C735.167 379.8 734.634 379.533 734.367 379C734.101 378.467 733.834 377.667 733.567 376.6L709.567 300.6C708.767 298.2 707.834 296.667 706.767 296C705.701 295.2 704.634 294.667 703.567 294.4C702.634 294.133 701.834 293.933 701.167 293.8C700.367 293.667 699.967 293 699.967 291.8C699.967 291 700.034 290.533 700.167 290.4C700.301 290.133 700.701 290 701.367 290H702.167C702.834 290 704.301 290.133 706.567 290.4C708.967 290.533 712.034 290.6 715.767 290.6C720.034 290.6 723.301 290.533 725.567 290.4C727.834 290.133 729.234 290 729.767 290C730.434 290 730.967 290.133 731.367 290.4C731.767 290.533 731.967 291 731.967 291.8C731.967 292.733 731.434 293.333 730.367 293.6C729.434 293.867 728.367 294.2 727.167 294.6C726.101 294.867 725.034 295.267 723.967 295.8C723.034 296.2 722.567 297.067 722.567 298.4C722.567 299.867 722.767 301.467 723.167 303.2C723.567 304.8 724.101 306.733 724.767 309ZM811.438 317C819.704 317 825.771 316.533 829.638 315.6C833.504 314.533 835.438 312.067 835.438 308.2C835.438 306.067 834.971 303.933 834.038 301.8C833.104 299.667 831.771 297.733 830.038 296C828.438 294.267 826.504 292.867 824.238 291.8C821.971 290.733 819.571 290.2 817.038 290.2C813.838 290.2 810.771 291 807.838 292.6C804.904 294.2 802.304 296.2 800.038 298.6C797.904 301 796.171 303.667 794.838 306.6C793.504 309.533 792.838 312.4 792.838 315.2C792.838 315.6 793.038 316 793.438 316.4C793.838 316.8 794.371 317 795.038 317H811.438ZM842.438 321.8H794.838C793.104 321.8 792.038 322.4 791.638 323.6C791.238 324.667 791.038 326.867 791.038 330.2C791.038 336.867 791.771 342.8 793.238 348C794.838 353.2 796.971 357.6 799.638 361.2C802.438 364.8 805.704 367.6 809.438 369.6C813.304 371.467 817.504 372.4 822.038 372.4C826.171 372.4 829.638 371.733 832.438 370.4C835.371 369.067 837.771 367.6 839.638 366C841.504 364.4 842.971 362.933 844.038 361.6C845.104 360.267 845.838 359.6 846.238 359.6C847.171 359.6 847.638 360.133 847.638 361.2C847.638 362.667 846.904 364.6 845.438 367C843.971 369.267 841.838 371.533 839.038 373.8C836.371 375.933 833.038 377.8 829.038 379.4C825.171 381 820.838 381.8 816.038 381.8C810.571 381.8 805.504 380.667 800.838 378.4C796.304 376.133 792.371 372.933 789.038 368.8C785.704 364.667 783.104 359.667 781.238 353.8C779.504 347.933 778.638 341.4 778.638 334.2C778.638 326.867 779.704 320.267 781.838 314.4C783.971 308.4 786.838 303.333 790.438 299.2C794.038 295.067 798.238 291.933 803.038 289.8C807.838 287.533 812.904 286.4 818.238 286.4C822.904 286.4 827.104 287.267 830.838 289C834.571 290.733 837.704 293.067 840.238 296C842.904 298.8 844.904 302.133 846.238 306C847.704 309.733 848.438 313.6 848.438 317.6C848.438 319.067 847.971 320.133 847.038 320.8C846.238 321.467 844.704 321.8 842.438 321.8ZM878.711 291.2V300.6C878.711 302.067 878.978 302.8 879.511 302.8C880.044 302.8 880.844 301.867 881.911 300C883.111 298 884.978 295.867 887.511 293.6C890.178 291.2 892.844 289.4 895.511 288.2C898.311 287 901.311 286.4 904.511 286.4C911.978 286.4 917.978 289.133 922.511 294.6C927.044 300.067 929.311 307.467 929.311 316.8V365.8C929.311 368.6 929.844 370.533 930.911 371.6C931.978 372.533 933.178 373.2 934.511 373.6C935.844 373.867 937.044 374.133 938.111 374.4C939.178 374.533 939.711 375.133 939.711 376.2C939.711 377.133 939.444 377.733 938.911 378C938.511 378.133 937.778 378.2 936.711 378.2C935.778 378.2 934.244 378.067 932.111 377.8C929.978 377.533 927.178 377.4 923.711 377.4C920.911 377.4 918.444 377.533 916.311 377.8C914.311 378.067 912.578 378.2 911.111 378.2C909.911 378.2 909.044 378.133 908.511 378C907.978 377.867 907.711 377.267 907.711 376.2C907.711 375.133 908.244 374.533 909.311 374.4C910.378 374.133 911.578 373.8 912.911 373.4C914.244 373 915.444 372.333 916.511 371.4C917.578 370.333 918.111 368.467 918.111 365.8V325.6C918.111 315.2 916.778 307.4 914.111 302.2C911.444 297 906.644 294.4 899.711 294.4C892.511 294.4 887.311 297.333 884.111 303.2C880.911 308.933 879.311 317.6 879.311 329.2V365.8C879.311 368.6 879.844 370.533 880.911 371.6C881.978 372.533 883.178 373.2 884.511 373.6C885.844 373.867 887.044 374.133 888.111 374.4C889.178 374.533 889.711 375.133 889.711 376.2C889.711 377.133 889.444 377.733 888.911 378C888.511 378.133 887.778 378.2 886.711 378.2C885.778 378.2 884.244 378.067 882.111 377.8C879.978 377.533 877.178 377.4 873.711 377.4C871.178 377.4 868.844 377.533 866.711 377.8C864.578 378.067 862.578 378.2 860.711 378.2C859.644 378.2 858.844 378.133 858.311 378C857.911 377.733 857.711 377.133 857.711 376.2C857.711 375.133 858.244 374.533 859.311 374.4C860.378 374.133 861.578 373.8 862.911 373.4C864.244 373 865.444 372.333 866.511 371.4C867.578 370.333 868.111 368.467 868.111 365.8V307.8C868.111 305.8 867.644 304.533 866.711 304C865.911 303.333 864.978 302.933 863.911 302.8C862.978 302.667 862.111 302.533 861.311 302.4C860.511 302.267 860.111 301.8 860.111 301C860.111 299.8 860.778 299 862.111 298.6C863.578 298.067 865.044 297.267 866.511 296.2C869.978 293.8 872.511 291.6 874.111 289.6C875.711 287.467 876.844 286.4 877.511 286.4C878.178 286.4 878.511 286.867 878.511 287.8C878.644 288.6 878.711 289.733 878.711 291.2ZM1019.35 244V359.2C1019.35 363.2 1019.48 366.133 1019.75 368C1020.15 369.867 1021.15 370.8 1022.75 370.8C1023.28 370.8 1023.88 370.6 1024.55 370.2C1025.22 369.667 1025.82 369.133 1026.35 368.6C1027.02 367.933 1027.62 367.4 1028.15 367C1028.82 366.467 1029.42 366.2 1029.95 366.2C1030.35 366.2 1030.55 367.133 1030.55 369C1030.55 370.467 1030.28 371.467 1029.75 372C1029.22 372.533 1028.08 373.133 1026.35 373.8C1022.08 375.667 1018.82 377.267 1016.55 378.6C1014.42 380.067 1012.95 380.8 1012.15 380.8C1010.82 380.8 1009.95 379.067 1009.55 375.6L1008.75 366.4H1007.55C1003.15 371.467 998.75 375.333 994.35 378C990.083 380.533 985.617 381.8 980.95 381.8C976.55 381.8 972.35 380.733 968.35 378.6C964.483 376.467 961.083 373.4 958.15 369.4C955.35 365.267 953.083 360.333 951.35 354.6C949.75 348.733 948.95 342.2 948.95 335C948.95 327.4 949.883 320.6 951.75 314.6C953.75 308.6 956.417 303.533 959.75 299.4C963.083 295.133 967.017 291.933 971.55 289.8C976.217 287.533 981.15 286.4 986.35 286.4C989.683 286.4 992.55 286.733 994.95 287.4C997.35 287.933 999.35 288.6 1000.95 289.4C1002.55 290.2 1003.75 290.933 1004.55 291.6C1005.48 292.133 1006.15 292.4 1006.55 292.4C1007.62 292.4 1008.15 291.667 1008.15 290.2V259.8C1008.15 253.8 1006.08 250.8 1001.95 250.8C1001.82 250.8 1001.62 250.867 1001.35 251C1001.08 251 1000.62 251 999.95 251C999.683 251 999.35 250.867 998.95 250.6C998.55 250.2 998.35 249.733 998.35 249.2C998.35 247.867 999.15 247.067 1000.75 246.8C1002.35 246.4 1004.15 245.867 1006.15 245.2C1009.62 244 1012.28 242.8 1014.15 241.6C1016.02 240.267 1017.28 239.6 1017.95 239.6C1018.88 239.6 1019.35 241.067 1019.35 244ZM1008.15 307C1008.15 304.6 1007.62 302.4 1006.55 300.4C1005.48 298.267 1004.02 296.467 1002.15 295C1000.42 293.533 998.35 292.4 995.95 291.6C993.55 290.667 990.95 290.2 988.15 290.2C980.15 290.2 973.617 293.933 968.55 301.4C963.483 308.733 960.95 319.267 960.95 333C960.95 346.333 963.283 356.667 967.95 364C972.75 371.2 978.817 374.8 986.15 374.8C988.95 374.8 991.617 374.2 994.15 373C996.817 371.8 999.15 370.2 1001.15 368.2C1003.28 366.067 1004.95 363.6 1006.15 360.8C1007.48 358 1008.15 354.933 1008.15 351.6V307ZM1091.79 309V359.2C1091.79 367.467 1093.59 371.6 1097.19 371.6C1098.66 371.6 1099.99 370.867 1101.19 369.4C1102.52 367.933 1103.59 367.2 1104.39 367.2C1105.32 367.2 1105.79 367.667 1105.79 368.6C1105.79 369.667 1105.19 370.933 1103.99 372.4C1102.92 373.733 1101.59 375.067 1099.99 376.4C1098.39 377.733 1096.66 378.8 1094.79 379.6C1093.06 380.533 1091.52 381 1090.19 381C1087.52 381 1085.46 380 1083.99 378C1082.66 375.867 1081.39 372.467 1080.19 367.8H1079.39C1074.32 372.067 1069.79 375.467 1065.79 378C1061.92 380.533 1057.86 381.8 1053.59 381.8C1048.79 381.8 1045.06 380.4 1042.39 377.6C1039.72 374.667 1038.39 370.8 1038.39 366C1038.39 362.267 1039.26 358.8 1040.99 355.6C1042.72 352.267 1045.32 349.067 1048.79 346C1052.39 342.8 1056.79 339.533 1061.99 336.2C1067.19 332.867 1073.19 329.267 1079.99 325.4V307.8C1079.99 301.667 1079.32 297.267 1077.99 294.6C1076.79 291.933 1074.12 290.6 1069.99 290.6C1066.52 290.6 1063.26 291.8 1060.19 294.2C1057.12 296.6 1054.99 299.467 1053.79 302.8C1052.32 306.933 1050.86 310.467 1049.39 313.4C1047.92 316.2 1045.32 317.6 1041.59 317.6C1040.66 317.6 1039.86 317.333 1039.19 316.8C1038.52 316.133 1038.19 315.267 1038.19 314.2C1038.19 311.8 1039.06 309 1040.79 305.8C1042.52 302.6 1044.99 299.533 1048.19 296.6C1051.39 293.667 1055.19 291.2 1059.59 289.2C1063.99 287.2 1068.79 286.2 1073.99 286.2C1078.12 286.2 1081.39 286.733 1083.79 287.8C1086.19 288.867 1087.99 290.4 1089.19 292.4C1090.39 294.4 1091.12 296.8 1091.39 299.6C1091.66 302.4 1091.79 305.533 1091.79 309ZM1080.19 333.4C1080.19 332.067 1079.79 331.4 1078.99 331.4C1078.59 331.4 1077.92 331.667 1076.99 332.2L1070.99 335.6C1057.39 343.467 1050.59 351.8 1050.59 360.6C1050.59 364.333 1051.52 367.333 1053.39 369.6C1055.26 371.733 1057.86 372.8 1061.19 372.8C1063.19 372.8 1065.26 372.333 1067.39 371.4C1069.66 370.467 1071.72 369.133 1073.59 367.4C1075.59 365.533 1077.19 363.333 1078.39 360.8C1079.59 358.133 1080.19 355.133 1080.19 351.8V333.4ZM1118.65 370.4C1118.65 367.467 1119.38 365.133 1120.85 363.4C1122.45 361.533 1124.25 360.6 1126.25 360.6C1129.05 360.6 1131.31 362.2 1133.05 365.4C1134.91 368.467 1135.85 373 1135.85 379C1135.85 383.4 1135.11 387.667 1133.65 391.8C1132.31 395.933 1130.71 399.6 1128.85 402.8C1126.98 406 1125.11 408.533 1123.25 410.4C1121.51 412.267 1120.25 413.2 1119.45 413.2C1118.38 413.2 1117.85 412.467 1117.85 411C1117.85 410.2 1118.45 409 1119.65 407.4C1120.98 405.8 1122.38 403.867 1123.85 401.6C1125.31 399.333 1126.65 396.733 1127.85 393.8C1129.18 391 1129.85 388 1129.85 384.8C1129.85 383.467 1129.71 382.467 1129.45 381.8C1129.18 381.267 1128.71 380.867 1128.05 380.6C1127.51 380.333 1126.85 380.067 1126.05 379.8C1125.25 379.667 1124.31 379.333 1123.25 378.8C1120.18 377.467 1118.65 374.667 1118.65 370.4ZM25 520.2V531.6C25 532.533 25.2667 533 25.8 533C26.2 533 26.6667 532.667 27.2 532L30.8 526.8C36.4 519.2 42.3333 515.4 48.6 515.4C51.9333 515.4 54.5333 516.333 56.4 518.2C58.2667 519.933 59.2 522.133 59.2 524.8C59.2 527.467 58.4667 529.667 57 531.4C55.6667 533 54.1333 533.8 52.4 533.8C51.0667 533.8 49.8667 533.4 48.8 532.6C47.8667 531.8 46.8667 530.933 45.8 530C44.8667 528.933 43.8667 528 42.8 527.2C41.7333 526.4 40.4 526 38.8 526C37.3333 526 35.8 526.6 34.2 527.8C32.7333 529 31.3333 530.933 30 533.6C28.6667 536.133 27.6 539.4 26.8 543.4C26 547.4 25.6 552.2 25.6 557.8V590.8C25.6 594.267 25.8667 596.733 26.4 598.2C26.9333 599.667 28.2 600.8 30.2 601.6C31.9333 602.267 33.4667 602.667 34.8 602.8C36.1333 602.933 37.2667 603.067 38.2 603.2C39.1333 603.2 39.8 603.333 40.2 603.6C40.7333 603.733 41 604.267 41 605.2C41 606.667 39.9333 607.4 37.8 607.4C36.0667 607.4 33.6667 607.267 30.6 607C27.6667 606.6 24.1333 606.4 20 606.4C17.3333 606.4 14.8667 606.533 12.6 606.8C10.4667 607.067 8.6 607.2 7 607.2C5.93333 607.2 5.13333 607.133 4.6 607C4.2 606.733 4 606.133 4 605.2C4 603.867 4.46667 603.2 5.4 603.2C6.46667 603.2 8.13333 602.8 10.4 602C12.1333 601.333 13.2 600.2 13.6 598.6C14.1333 596.867 14.4 594.267 14.4 590.8V537.8C14.4 535.4 13.9333 533.8 13 533C12.2 532.2 11.2667 531.733 10.2 531.6C9.26667 531.467 8.4 531.4 7.6 531.4C6.8 531.4 6.4 530.933 6.4 530C6.4 528.933 7.06667 528.133 8.4 527.6C9.86667 526.933 11.4667 526 13.2 524.8C16.2667 522.667 18.6 520.6 20.2 518.6C21.8 516.467 23 515.4 23.8 515.4C24.4667 515.4 24.8 515.867 24.8 516.8C24.9333 517.6 25 518.733 25 520.2ZM96.2031 546C104.47 546 110.536 545.533 114.403 544.6C118.27 543.533 120.203 541.067 120.203 537.2C120.203 535.067 119.736 532.933 118.803 530.8C117.87 528.667 116.536 526.733 114.803 525C113.203 523.267 111.27 521.867 109.003 520.8C106.736 519.733 104.336 519.2 101.803 519.2C98.6031 519.2 95.5365 520 92.6031 521.6C89.6698 523.2 87.0698 525.2 84.8031 527.6C82.6698 530 80.9365 532.667 79.6031 535.6C78.2698 538.533 77.6031 541.4 77.6031 544.2C77.6031 544.6 77.8031 545 78.2031 545.4C78.6031 545.8 79.1365 546 79.8031 546H96.2031ZM127.203 550.8H79.6031C77.8698 550.8 76.8031 551.4 76.4031 552.6C76.0031 553.667 75.8031 555.867 75.8031 559.2C75.8031 565.867 76.5365 571.8 78.0031 577C79.6031 582.2 81.7365 586.6 84.4031 590.2C87.2031 593.8 90.4698 596.6 94.2031 598.6C98.0698 600.467 102.27 601.4 106.803 601.4C110.936 601.4 114.403 600.733 117.203 599.4C120.136 598.067 122.536 596.6 124.403 595C126.27 593.4 127.736 591.933 128.803 590.6C129.87 589.267 130.603 588.6 131.003 588.6C131.936 588.6 132.403 589.133 132.403 590.2C132.403 591.667 131.67 593.6 130.203 596C128.736 598.267 126.603 600.533 123.803 602.8C121.136 604.933 117.803 606.8 113.803 608.4C109.936 610 105.603 610.8 100.803 610.8C95.3365 610.8 90.2698 609.667 85.6031 607.4C81.0698 605.133 77.1365 601.933 73.8031 597.8C70.4698 593.667 67.8698 588.667 66.0031 582.8C64.2698 576.933 63.4031 570.4 63.4031 563.2C63.4031 555.867 64.4698 549.267 66.6031 543.4C68.7365 537.4 71.6031 532.333 75.2031 528.2C78.8031 524.067 83.0031 520.933 87.8031 518.8C92.6031 516.533 97.6698 515.4 103.003 515.4C107.67 515.4 111.87 516.267 115.603 518C119.336 519.733 122.47 522.067 125.003 525C127.67 527.8 129.67 531.133 131.003 535C132.47 538.733 133.203 542.6 133.203 546.6C133.203 548.067 132.736 549.133 131.803 549.8C131.003 550.467 129.47 550.8 127.203 550.8ZM183.277 515.4C190.077 515.4 195.41 516.467 199.277 518.6C203.277 520.733 205.277 523.733 205.277 527.6C205.277 535.867 204.277 540 202.277 540C200.943 540 200.01 539.267 199.477 537.8C198.943 536.2 197.943 534 196.477 531.2C194.21 527.2 191.877 524.2 189.477 522.2C187.21 520.2 184.343 519.2 180.877 519.2C177.543 519.2 174.343 520.133 171.277 522C168.343 523.733 165.743 526.4 163.477 530C161.21 533.6 159.41 538.067 158.077 543.4C156.743 548.733 156.077 554.867 156.077 561.8C156.077 575.4 158.677 585.867 163.877 593.2C169.077 600.4 175.877 604 184.277 604C187.61 604 190.477 603.467 192.877 602.4C195.41 601.333 197.543 600.2 199.277 599C201.01 597.667 202.343 596.467 203.277 595.4C204.21 594.333 204.877 593.8 205.277 593.8C206.21 593.8 206.677 594.2 206.677 595C206.677 595.933 206.01 597.333 204.677 599.2C203.477 600.933 201.743 602.667 199.477 604.4C197.21 606.133 194.477 607.6 191.277 608.8C188.077 610.133 184.477 610.8 180.477 610.8C175.277 610.8 170.41 609.667 165.877 607.4C161.477 605.133 157.61 601.933 154.277 597.8C150.943 593.533 148.343 588.467 146.477 582.6C144.61 576.733 143.677 570.2 143.677 563C143.677 555.8 144.743 549.267 146.877 543.4C149.143 537.533 152.077 532.533 155.677 528.4C159.41 524.267 163.677 521.067 168.477 518.8C173.277 516.533 178.21 515.4 183.277 515.4ZM248.938 546C257.204 546 263.271 545.533 267.138 544.6C271.004 543.533 272.938 541.067 272.938 537.2C272.938 535.067 272.471 532.933 271.538 530.8C270.604 528.667 269.271 526.733 267.538 525C265.938 523.267 264.004 521.867 261.738 520.8C259.471 519.733 257.071 519.2 254.538 519.2C251.338 519.2 248.271 520 245.338 521.6C242.404 523.2 239.804 525.2 237.538 527.6C235.404 530 233.671 532.667 232.338 535.6C231.004 538.533 230.338 541.4 230.338 544.2C230.338 544.6 230.538 545 230.938 545.4C231.338 545.8 231.871 546 232.538 546H248.938ZM279.938 550.8H232.338C230.604 550.8 229.538 551.4 229.138 552.6C228.738 553.667 228.538 555.867 228.538 559.2C228.538 565.867 229.271 571.8 230.738 577C232.338 582.2 234.471 586.6 237.138 590.2C239.938 593.8 243.204 596.6 246.938 598.6C250.804 600.467 255.004 601.4 259.538 601.4C263.671 601.4 267.138 600.733 269.938 599.4C272.871 598.067 275.271 596.6 277.138 595C279.004 593.4 280.471 591.933 281.538 590.6C282.604 589.267 283.338 588.6 283.738 588.6C284.671 588.6 285.138 589.133 285.138 590.2C285.138 591.667 284.404 593.6 282.938 596C281.471 598.267 279.338 600.533 276.538 602.8C273.871 604.933 270.538 606.8 266.538 608.4C262.671 610 258.338 610.8 253.538 610.8C248.071 610.8 243.004 609.667 238.338 607.4C233.804 605.133 229.871 601.933 226.538 597.8C223.204 593.667 220.604 588.667 218.738 582.8C217.004 576.933 216.138 570.4 216.138 563.2C216.138 555.867 217.204 549.267 219.338 543.4C221.471 537.4 224.338 532.333 227.938 528.2C231.538 524.067 235.738 520.933 240.538 518.8C245.338 516.533 250.404 515.4 255.738 515.4C260.404 515.4 264.604 516.267 268.338 518C272.071 519.733 275.204 522.067 277.738 525C280.404 527.8 282.404 531.133 283.738 535C285.204 538.733 285.938 542.6 285.938 546.6C285.938 548.067 285.471 549.133 284.538 549.8C283.738 550.467 282.204 550.8 279.938 550.8ZM312.811 473V528.8C312.811 530.267 313.078 531 313.611 531C314.144 531 314.944 530.133 316.011 528.4C317.211 526.533 319.078 524.467 321.611 522.2C324.411 519.8 327.144 518.067 329.811 517C332.478 515.8 335.678 515.2 339.411 515.2C344.211 515.2 348.611 516.333 352.611 518.6C356.744 520.733 360.278 523.867 363.211 528C366.144 532 368.411 536.867 370.011 542.6C371.744 548.333 372.611 554.733 372.611 561.8C372.611 569.533 371.611 576.467 369.611 582.6C367.744 588.6 365.144 593.733 361.811 598C358.478 602.133 354.478 605.267 349.811 607.4C345.278 609.667 340.411 610.8 335.211 610.8C331.344 610.8 327.811 610.467 324.611 609.8C321.544 609.133 318.878 608.333 316.611 607.4C314.344 606.6 312.478 605.867 311.011 605.2C309.678 604.533 308.744 604.2 308.211 604.2C307.544 604.2 306.944 604.6 306.411 605.4C305.878 606.2 305.344 607.067 304.811 608C304.278 608.933 303.744 609.8 303.211 610.6C302.678 611.4 302.011 611.8 301.211 611.8C300.011 611.8 299.411 611 299.411 609.4C299.411 608.733 299.744 606.933 300.411 604C301.211 600.933 301.611 597.067 301.611 592.4V488.8C301.611 482.8 299.611 479.8 295.611 479.8C295.478 479.8 295.211 479.867 294.811 480C294.544 480 294.078 480 293.411 480C292.478 480 292.011 479.4 292.011 478.2C292.011 476.733 292.744 475.867 294.211 475.6C295.678 475.333 297.544 474.867 299.811 474.2C303.144 473.133 305.744 471.933 307.611 470.6C309.611 469.267 310.944 468.6 311.611 468.6C312.411 468.6 312.811 470.067 312.811 473ZM312.811 590C312.811 592.4 313.344 594.667 314.411 596.8C315.478 598.8 316.944 600.533 318.811 602C320.678 603.467 322.811 604.667 325.211 605.6C327.611 606.4 330.211 606.8 333.011 606.8C341.011 606.8 347.478 603.133 352.411 595.8C357.478 588.333 360.011 577.733 360.011 564C360.011 550.533 357.678 540.267 353.011 533.2C348.344 526 342.344 522.4 335.011 522.4C332.344 522.4 329.678 523 327.011 524.2C324.344 525.267 321.944 526.867 319.811 529C317.678 531 315.944 533.4 314.611 536.2C313.411 539 312.811 542.067 312.811 545.4V590ZM435.734 538V588.2C435.734 596.467 437.534 600.6 441.134 600.6C442.601 600.6 443.934 599.867 445.134 598.4C446.468 596.933 447.534 596.2 448.334 596.2C449.268 596.2 449.734 596.667 449.734 597.6C449.734 598.667 449.134 599.933 447.934 601.4C446.868 602.733 445.534 604.067 443.934 605.4C442.334 606.733 440.601 607.8 438.734 608.6C437.001 609.533 435.468 610 434.134 610C431.468 610 429.401 609 427.934 607C426.601 604.867 425.334 601.467 424.134 596.8H423.334C418.268 601.067 413.734 604.467 409.734 607C405.868 609.533 401.801 610.8 397.534 610.8C392.734 610.8 389.001 609.4 386.334 606.6C383.668 603.667 382.334 599.8 382.334 595C382.334 591.267 383.201 587.8 384.934 584.6C386.668 581.267 389.268 578.067 392.734 575C396.334 571.8 400.734 568.533 405.934 565.2C411.134 561.867 417.134 558.267 423.934 554.4V536.8C423.934 530.667 423.268 526.267 421.934 523.6C420.734 520.933 418.068 519.6 413.934 519.6C410.468 519.6 407.201 520.8 404.134 523.2C401.068 525.6 398.934 528.467 397.734 531.8C396.268 535.933 394.801 539.467 393.334 542.4C391.868 545.2 389.268 546.6 385.534 546.6C384.601 546.6 383.801 546.333 383.134 545.8C382.468 545.133 382.134 544.267 382.134 543.2C382.134 540.8 383.001 538 384.734 534.8C386.468 531.6 388.934 528.533 392.134 525.6C395.334 522.667 399.134 520.2 403.534 518.2C407.934 516.2 412.734 515.2 417.934 515.2C422.068 515.2 425.334 515.733 427.734 516.8C430.134 517.867 431.934 519.4 433.134 521.4C434.334 523.4 435.068 525.8 435.334 528.6C435.601 531.4 435.734 534.533 435.734 538ZM424.134 562.4C424.134 561.067 423.734 560.4 422.934 560.4C422.534 560.4 421.868 560.667 420.934 561.2L414.934 564.6C401.334 572.467 394.534 580.8 394.534 589.6C394.534 593.333 395.468 596.333 397.334 598.6C399.201 600.733 401.801 601.8 405.134 601.8C407.134 601.8 409.201 601.333 411.334 600.4C413.601 599.467 415.668 598.133 417.534 596.4C419.534 594.533 421.134 592.333 422.334 589.8C423.534 587.133 424.134 584.133 424.134 580.8V562.4ZM525.625 515.4C529.758 515.4 532.958 515.667 535.225 516.2C537.625 516.6 539.358 517.267 540.425 518.2C541.625 519 542.358 520 542.625 521.2C542.892 522.267 543.025 523.467 543.025 524.8V533C543.025 535.667 542.425 537 541.225 537C540.025 537 539.358 536.2 539.225 534.6C539.092 532.867 538.158 530.533 536.425 527.6C534.692 524.667 532.558 522.467 530.025 521C527.492 519.533 524.825 518.8 522.025 518.8C518.158 518.8 514.892 520.2 512.225 523C509.558 525.667 508.225 529.2 508.225 533.6C508.225 538.267 509.558 541.933 512.225 544.6C514.892 547.133 518.892 549.733 524.225 552.4C527.692 554.133 530.825 555.8 533.625 557.4C536.425 559 538.825 560.8 540.825 562.8C542.825 564.8 544.358 567.2 545.425 570C546.625 572.667 547.225 576.067 547.225 580.2C547.225 589.667 544.625 597.133 539.425 602.6C534.225 608.067 526.892 610.8 517.425 610.8C514.758 610.8 512.092 610.533 509.425 610C506.892 609.467 504.558 608.667 502.425 607.6C500.425 606.667 498.758 605.6 497.425 604.4C496.092 603.067 495.425 601.6 495.425 600C495.425 598.933 495.492 597 495.625 594.2C495.758 591.267 495.825 587.467 495.825 582.8C495.825 580.533 496.558 579.4 498.025 579.4C499.225 579.4 499.958 580.467 500.225 582.6C500.625 584.6 501.425 587.933 502.625 592.6C503.958 597.4 505.758 601.067 508.025 603.6C510.425 606 514.092 607.2 519.025 607.2C524.625 607.2 529.092 605.4 532.425 601.8C535.892 598.067 537.625 593.2 537.625 587.2C537.625 581.867 536.158 577.733 533.225 574.8C530.292 571.733 525.825 568.8 519.825 566C512.492 562.533 507.025 559 503.425 555.4C499.958 551.8 498.225 547.067 498.225 541.2C498.225 533.6 500.625 527.4 505.425 522.6C510.225 517.8 516.958 515.4 525.625 515.4ZM592.688 546C600.954 546 607.021 545.533 610.888 544.6C614.754 543.533 616.688 541.067 616.688 537.2C616.688 535.067 616.221 532.933 615.288 530.8C614.354 528.667 613.021 526.733 611.288 525C609.688 523.267 607.754 521.867 605.488 520.8C603.221 519.733 600.821 519.2 598.288 519.2C595.088 519.2 592.021 520 589.088 521.6C586.154 523.2 583.554 525.2 581.288 527.6C579.154 530 577.421 532.667 576.088 535.6C574.754 538.533 574.088 541.4 574.088 544.2C574.088 544.6 574.288 545 574.688 545.4C575.088 545.8 575.621 546 576.288 546H592.688ZM623.688 550.8H576.088C574.354 550.8 573.288 551.4 572.888 552.6C572.488 553.667 572.288 555.867 572.288 559.2C572.288 565.867 573.021 571.8 574.488 577C576.088 582.2 578.221 586.6 580.888 590.2C583.688 593.8 586.954 596.6 590.688 598.6C594.554 600.467 598.754 601.4 603.288 601.4C607.421 601.4 610.888 600.733 613.688 599.4C616.621 598.067 619.021 596.6 620.888 595C622.754 593.4 624.221 591.933 625.288 590.6C626.354 589.267 627.088 588.6 627.488 588.6C628.421 588.6 628.888 589.133 628.888 590.2C628.888 591.667 628.154 593.6 626.688 596C625.221 598.267 623.088 600.533 620.288 602.8C617.621 604.933 614.288 606.8 610.288 608.4C606.421 610 602.088 610.8 597.288 610.8C591.821 610.8 586.754 609.667 582.088 607.4C577.554 605.133 573.621 601.933 570.288 597.8C566.954 593.667 564.354 588.667 562.488 582.8C560.754 576.933 559.888 570.4 559.888 563.2C559.888 555.867 560.954 549.267 563.088 543.4C565.221 537.4 568.088 532.333 571.688 528.2C575.288 524.067 579.488 520.933 584.288 518.8C589.088 516.533 594.154 515.4 599.488 515.4C604.154 515.4 608.354 516.267 612.088 518C615.821 519.733 618.954 522.067 621.488 525C624.154 527.8 626.154 531.133 627.488 535C628.954 538.733 629.688 542.6 629.688 546.6C629.688 548.067 629.221 549.133 628.288 549.8C627.488 550.467 625.954 550.8 623.688 550.8ZM659.961 520.2V529.6C659.961 531.067 660.228 531.8 660.761 531.8C661.294 531.8 662.028 530.867 662.961 529C663.894 527 665.628 524.867 668.161 522.6C670.828 520.2 673.428 518.4 675.961 517.2C678.494 516 681.294 515.4 684.361 515.4C689.828 515.4 694.294 516.933 697.761 520C701.228 522.933 704.028 527.533 706.161 533.8H706.961C710.828 527.533 714.694 522.933 718.561 520C722.428 516.933 726.694 515.4 731.361 515.4C738.294 515.4 743.894 518.133 748.161 523.6C752.428 529.067 754.561 536.467 754.561 545.8C754.561 546.467 754.561 547.867 754.561 550C754.694 552 754.761 554.733 754.761 558.2V594.8C754.761 597.6 755.228 599.533 756.161 600.6C757.228 601.533 758.361 602.2 759.561 602.6C760.761 602.867 761.828 603.133 762.761 603.4C763.828 603.533 764.361 604.133 764.361 605.2C764.361 606.133 764.161 606.733 763.761 607C763.361 607.133 762.628 607.2 761.561 607.2C760.761 607.2 759.361 607.067 757.361 606.8C755.361 606.533 752.694 606.4 749.361 606.4C746.428 606.4 743.894 606.533 741.761 606.8C739.761 607.067 738.094 607.2 736.761 607.2C735.694 607.2 734.894 607.133 734.361 607C733.961 606.733 733.761 606.133 733.761 605.2C733.761 604.133 734.228 603.533 735.161 603.4C736.228 603.133 737.361 602.8 738.561 602.4C739.894 602 741.028 601.333 741.961 600.4C743.028 599.333 743.561 597.467 743.561 594.8V554.6C743.561 544.2 742.294 536.4 739.761 531.2C737.361 526 732.961 523.4 726.561 523.4C721.361 523.4 716.961 525.733 713.361 530.4C709.894 535.067 708.094 542.267 707.961 552L707.561 594.8C707.561 597.467 708.028 599.333 708.961 600.4C710.028 601.333 711.161 602 712.361 602.4C713.694 602.8 714.828 603.133 715.761 603.4C716.828 603.533 717.361 604.133 717.361 605.2C717.361 606.133 717.161 606.733 716.761 607C716.361 607.133 715.628 607.2 714.561 607.2C713.628 607.2 712.161 607.067 710.161 606.8C708.161 606.533 705.561 606.4 702.361 606.4C698.761 606.4 695.894 606.533 693.761 606.8C691.628 607.067 690.228 607.2 689.561 607.2C688.494 607.2 687.761 607.133 687.361 607C686.961 606.733 686.761 606.133 686.761 605.2C686.761 604.133 687.228 603.533 688.161 603.4C689.228 603.133 690.361 602.8 691.561 602.4C692.761 602 693.828 601.333 694.761 600.4C695.828 599.333 696.361 597.467 696.361 594.8V554.6C696.361 544.2 695.094 536.4 692.561 531.2C690.028 526 685.628 523.4 679.361 523.4C674.161 523.4 669.694 525.867 665.961 530.8C662.361 535.6 660.561 542.667 660.561 552V594.8C660.561 597.6 661.094 599.533 662.161 600.6C663.228 601.533 664.428 602.2 665.761 602.6C667.094 602.867 668.294 603.133 669.361 603.4C670.428 603.533 670.961 604.133 670.961 605.2C670.961 606.133 670.694 606.733 670.161 607C669.761 607.133 669.028 607.2 667.961 607.2C667.428 607.2 666.094 607.067 663.961 606.8C661.828 606.533 658.828 606.4 654.961 606.4C652.161 606.4 649.628 606.533 647.361 606.8C645.228 607.067 643.428 607.2 641.961 607.2C640.894 607.2 640.094 607.133 639.561 607C639.161 606.733 638.961 606.133 638.961 605.2C638.961 604.133 639.494 603.533 640.561 603.4C641.628 603.133 642.828 602.8 644.161 602.4C645.494 602 646.694 601.333 647.761 600.4C648.828 599.333 649.361 597.467 649.361 594.8V537.8C649.361 535.4 648.894 533.8 647.961 533C647.161 532.2 646.228 531.733 645.161 531.6C644.228 531.467 643.361 531.4 642.561 531.4C641.761 531.4 641.361 530.933 641.361 530C641.361 528.8 642.028 528 643.361 527.6C644.828 527.067 646.294 526.267 647.761 525.2C651.228 522.8 653.761 520.6 655.361 518.6C656.961 516.467 658.094 515.4 658.761 515.4C659.428 515.4 659.761 515.867 659.761 516.8C659.894 517.6 659.961 518.733 659.961 520.2ZM826.945 538V588.2C826.945 596.467 828.745 600.6 832.345 600.6C833.812 600.6 835.145 599.867 836.345 598.4C837.679 596.933 838.745 596.2 839.545 596.2C840.479 596.2 840.945 596.667 840.945 597.6C840.945 598.667 840.345 599.933 839.145 601.4C838.079 602.733 836.745 604.067 835.145 605.4C833.545 606.733 831.812 607.8 829.945 608.6C828.212 609.533 826.679 610 825.345 610C822.679 610 820.612 609 819.145 607C817.812 604.867 816.545 601.467 815.345 596.8H814.545C809.479 601.067 804.945 604.467 800.945 607C797.079 609.533 793.012 610.8 788.745 610.8C783.945 610.8 780.212 609.4 777.545 606.6C774.879 603.667 773.545 599.8 773.545 595C773.545 591.267 774.412 587.8 776.145 584.6C777.879 581.267 780.479 578.067 783.945 575C787.545 571.8 791.945 568.533 797.145 565.2C802.345 561.867 808.345 558.267 815.145 554.4V536.8C815.145 530.667 814.479 526.267 813.145 523.6C811.945 520.933 809.279 519.6 805.145 519.6C801.679 519.6 798.412 520.8 795.345 523.2C792.279 525.6 790.145 528.467 788.945 531.8C787.479 535.933 786.012 539.467 784.545 542.4C783.079 545.2 780.479 546.6 776.745 546.6C775.812 546.6 775.012 546.333 774.345 545.8C773.679 545.133 773.345 544.267 773.345 543.2C773.345 540.8 774.212 538 775.945 534.8C777.679 531.6 780.145 528.533 783.345 525.6C786.545 522.667 790.345 520.2 794.745 518.2C799.145 516.2 803.945 515.2 809.145 515.2C813.279 515.2 816.545 515.733 818.945 516.8C821.345 517.867 823.145 519.4 824.345 521.4C825.545 523.4 826.279 525.8 826.545 528.6C826.812 531.4 826.945 534.533 826.945 538ZM815.345 562.4C815.345 561.067 814.945 560.4 814.145 560.4C813.745 560.4 813.079 560.667 812.145 561.2L806.145 564.6C792.545 572.467 785.745 580.8 785.745 589.6C785.745 593.333 786.679 596.333 788.545 598.6C790.412 600.733 793.012 601.8 796.345 601.8C798.345 601.8 800.412 601.333 802.545 600.4C804.812 599.467 806.879 598.133 808.745 596.4C810.745 594.533 812.345 592.333 813.545 589.8C814.745 587.133 815.345 584.133 815.345 580.8V562.4ZM866.602 520.2V529.6C866.602 531.067 866.868 531.8 867.402 531.8C867.935 531.8 868.735 530.867 869.802 529C871.002 527 872.868 524.867 875.402 522.6C878.068 520.2 880.735 518.4 883.402 517.2C886.202 516 889.202 515.4 892.402 515.4C899.868 515.4 905.868 518.133 910.402 523.6C914.935 529.067 917.202 536.467 917.202 545.8V594.8C917.202 597.6 917.735 599.533 918.802 600.6C919.868 601.533 921.068 602.2 922.402 602.6C923.735 602.867 924.935 603.133 926.002 603.4C927.068 603.533 927.602 604.133 927.602 605.2C927.602 606.133 927.335 606.733 926.802 607C926.402 607.133 925.668 607.2 924.602 607.2C923.668 607.2 922.135 607.067 920.002 606.8C917.868 606.533 915.068 606.4 911.602 606.4C908.802 606.4 906.335 606.533 904.202 606.8C902.202 607.067 900.468 607.2 899.002 607.2C897.802 607.2 896.935 607.133 896.402 607C895.868 606.867 895.602 606.267 895.602 605.2C895.602 604.133 896.135 603.533 897.202 603.4C898.268 603.133 899.468 602.8 900.802 602.4C902.135 602 903.335 601.333 904.402 600.4C905.468 599.333 906.002 597.467 906.002 594.8V554.6C906.002 544.2 904.668 536.4 902.002 531.2C899.335 526 894.535 523.4 887.602 523.4C880.402 523.4 875.202 526.333 872.002 532.2C868.802 537.933 867.202 546.6 867.202 558.2V594.8C867.202 597.6 867.735 599.533 868.802 600.6C869.868 601.533 871.068 602.2 872.402 602.6C873.735 602.867 874.935 603.133 876.002 603.4C877.068 603.533 877.602 604.133 877.602 605.2C877.602 606.133 877.335 606.733 876.802 607C876.402 607.133 875.668 607.2 874.602 607.2C873.668 607.2 872.135 607.067 870.002 606.8C867.868 606.533 865.068 606.4 861.602 606.4C859.068 606.4 856.735 606.533 854.602 606.8C852.468 607.067 850.468 607.2 848.602 607.2C847.535 607.2 846.735 607.133 846.202 607C845.802 606.733 845.602 606.133 845.602 605.2C845.602 604.133 846.135 603.533 847.202 603.4C848.268 603.133 849.468 602.8 850.802 602.4C852.135 602 853.335 601.333 854.402 600.4C855.468 599.333 856.002 597.467 856.002 594.8V536.8C856.002 534.8 855.535 533.533 854.602 533C853.802 532.333 852.868 531.933 851.802 531.8C850.868 531.667 850.002 531.533 849.202 531.4C848.402 531.267 848.002 530.8 848.002 530C848.002 528.8 848.668 528 850.002 527.6C851.468 527.067 852.935 526.267 854.402 525.2C857.868 522.8 860.402 520.6 862.002 518.6C863.602 516.467 864.735 515.4 865.402 515.4C866.068 515.4 866.402 515.867 866.402 516.8C866.535 517.6 866.602 518.733 866.602 520.2ZM989.641 538V588.2C989.641 596.467 991.441 600.6 995.041 600.6C996.507 600.6 997.841 599.867 999.041 598.4C1000.37 596.933 1001.44 596.2 1002.24 596.2C1003.17 596.2 1003.64 596.667 1003.64 597.6C1003.64 598.667 1003.04 599.933 1001.84 601.4C1000.77 602.733 999.441 604.067 997.841 605.4C996.241 606.733 994.507 607.8 992.641 608.6C990.907 609.533 989.374 610 988.041 610C985.374 610 983.307 609 981.841 607C980.507 604.867 979.241 601.467 978.041 596.8H977.241C972.174 601.067 967.641 604.467 963.641 607C959.774 609.533 955.707 610.8 951.441 610.8C946.641 610.8 942.907 609.4 940.241 606.6C937.574 603.667 936.241 599.8 936.241 595C936.241 591.267 937.107 587.8 938.841 584.6C940.574 581.267 943.174 578.067 946.641 575C950.241 571.8 954.641 568.533 959.841 565.2C965.041 561.867 971.041 558.267 977.841 554.4V536.8C977.841 530.667 977.174 526.267 975.841 523.6C974.641 520.933 971.974 519.6 967.841 519.6C964.374 519.6 961.107 520.8 958.041 523.2C954.974 525.6 952.841 528.467 951.641 531.8C950.174 535.933 948.707 539.467 947.241 542.4C945.774 545.2 943.174 546.6 939.441 546.6C938.507 546.6 937.707 546.333 937.041 545.8C936.374 545.133 936.041 544.267 936.041 543.2C936.041 540.8 936.907 538 938.641 534.8C940.374 531.6 942.841 528.533 946.041 525.6C949.241 522.667 953.041 520.2 957.441 518.2C961.841 516.2 966.641 515.2 971.841 515.2C975.974 515.2 979.241 515.733 981.641 516.8C984.041 517.867 985.841 519.4 987.041 521.4C988.241 523.4 988.974 525.8 989.241 528.6C989.507 531.4 989.641 534.533 989.641 538ZM978.041 562.4C978.041 561.067 977.641 560.4 976.841 560.4C976.441 560.4 975.774 560.667 974.841 561.2L968.841 564.6C955.241 572.467 948.441 580.8 948.441 589.6C948.441 593.333 949.374 596.333 951.241 598.6C953.107 600.733 955.707 601.8 959.041 601.8C961.041 601.8 963.107 601.333 965.241 600.4C967.507 599.467 969.574 598.133 971.441 596.4C973.441 594.533 975.041 592.333 976.241 589.8C977.441 587.133 978.041 584.133 978.041 580.8V562.4ZM1029.9 473V594.8C1029.9 597.6 1030.43 599.533 1031.5 600.6C1032.56 601.533 1033.76 602.2 1035.1 602.6C1036.43 602.867 1037.63 603.133 1038.7 603.4C1039.76 603.533 1040.3 604.133 1040.3 605.2C1040.3 606.133 1040.03 606.733 1039.5 607C1039.1 607.133 1038.36 607.2 1037.3 607.2C1036.23 607.2 1034.63 607.067 1032.5 606.8C1030.36 606.533 1027.63 606.4 1024.3 606.4C1021.36 606.4 1018.7 606.533 1016.3 606.8C1014.03 607.067 1012.1 607.2 1010.5 607.2C1009.3 607.2 1008.43 607.133 1007.9 607C1007.36 606.733 1007.1 606.133 1007.1 605.2C1007.1 604.133 1007.7 603.533 1008.9 603.4C1010.1 603.133 1011.43 602.8 1012.9 602.4C1014.36 602 1015.7 601.333 1016.9 600.4C1018.1 599.333 1018.7 597.467 1018.7 594.8V488.8C1018.7 482.8 1016.63 479.8 1012.5 479.8C1012.36 479.8 1012.1 479.867 1011.7 480C1011.43 480 1010.96 480 1010.3 480C1009.36 480 1008.9 479.4 1008.9 478.2C1008.9 476.733 1009.7 475.867 1011.3 475.6C1012.9 475.333 1014.76 474.867 1016.9 474.2C1020.36 473 1022.96 471.8 1024.7 470.6C1026.56 469.267 1027.83 468.6 1028.5 468.6C1029.43 468.6 1029.9 470.067 1029.9 473ZM1068.95 520.2V529.6C1068.95 531.067 1069.21 531.8 1069.75 531.8C1070.28 531.8 1071.01 530.867 1071.95 529C1072.88 527 1074.61 524.867 1077.15 522.6C1079.81 520.2 1082.41 518.4 1084.95 517.2C1087.48 516 1090.28 515.4 1093.35 515.4C1098.81 515.4 1103.28 516.933 1106.75 520C1110.21 522.933 1113.01 527.533 1115.15 533.8H1115.95C1119.81 527.533 1123.68 522.933 1127.55 520C1131.41 516.933 1135.68 515.4 1140.35 515.4C1147.28 515.4 1152.88 518.133 1157.15 523.6C1161.41 529.067 1163.55 536.467 1163.55 545.8C1163.55 546.467 1163.55 547.867 1163.55 550C1163.68 552 1163.75 554.733 1163.75 558.2V594.8C1163.75 597.6 1164.21 599.533 1165.15 600.6C1166.21 601.533 1167.35 602.2 1168.55 602.6C1169.75 602.867 1170.81 603.133 1171.75 603.4C1172.81 603.533 1173.35 604.133 1173.35 605.2C1173.35 606.133 1173.15 606.733 1172.75 607C1172.35 607.133 1171.61 607.2 1170.55 607.2C1169.75 607.2 1168.35 607.067 1166.35 606.8C1164.35 606.533 1161.68 606.4 1158.35 606.4C1155.41 606.4 1152.88 606.533 1150.75 606.8C1148.75 607.067 1147.08 607.2 1145.75 607.2C1144.68 607.2 1143.88 607.133 1143.35 607C1142.95 606.733 1142.75 606.133 1142.75 605.2C1142.75 604.133 1143.21 603.533 1144.15 603.4C1145.21 603.133 1146.35 602.8 1147.55 602.4C1148.88 602 1150.01 601.333 1150.95 600.4C1152.01 599.333 1152.55 597.467 1152.55 594.8V554.6C1152.55 544.2 1151.28 536.4 1148.75 531.2C1146.35 526 1141.95 523.4 1135.55 523.4C1130.35 523.4 1125.95 525.733 1122.35 530.4C1118.88 535.067 1117.08 542.267 1116.95 552L1116.55 594.8C1116.55 597.467 1117.01 599.333 1117.95 600.4C1119.01 601.333 1120.15 602 1121.35 602.4C1122.68 602.8 1123.81 603.133 1124.75 603.4C1125.81 603.533 1126.35 604.133 1126.35 605.2C1126.35 606.133 1126.15 606.733 1125.75 607C1125.35 607.133 1124.61 607.2 1123.55 607.2C1122.61 607.2 1121.15 607.067 1119.15 606.8C1117.15 606.533 1114.55 606.4 1111.35 606.4C1107.75 606.4 1104.88 606.533 1102.75 606.8C1100.61 607.067 1099.21 607.2 1098.55 607.2C1097.48 607.2 1096.75 607.133 1096.35 607C1095.95 606.733 1095.75 606.133 1095.75 605.2C1095.75 604.133 1096.21 603.533 1097.15 603.4C1098.21 603.133 1099.35 602.8 1100.55 602.4C1101.75 602 1102.81 601.333 1103.75 600.4C1104.81 599.333 1105.35 597.467 1105.35 594.8V554.6C1105.35 544.2 1104.08 536.4 1101.55 531.2C1099.01 526 1094.61 523.4 1088.35 523.4C1083.15 523.4 1078.68 525.867 1074.95 530.8C1071.35 535.6 1069.55 542.667 1069.55 552V594.8C1069.55 597.6 1070.08 599.533 1071.15 600.6C1072.21 601.533 1073.41 602.2 1074.75 602.6C1076.08 602.867 1077.28 603.133 1078.35 603.4C1079.41 603.533 1079.95 604.133 1079.95 605.2C1079.95 606.133 1079.68 606.733 1079.15 607C1078.75 607.133 1078.01 607.2 1076.95 607.2C1076.41 607.2 1075.08 607.067 1072.95 606.8C1070.81 606.533 1067.81 606.4 1063.95 606.4C1061.15 606.4 1058.61 606.533 1056.35 606.8C1054.21 607.067 1052.41 607.2 1050.95 607.2C1049.88 607.2 1049.08 607.133 1048.55 607C1048.15 606.733 1047.95 606.133 1047.95 605.2C1047.95 604.133 1048.48 603.533 1049.55 603.4C1050.61 603.133 1051.81 602.8 1053.15 602.4C1054.48 602 1055.68 601.333 1056.75 600.4C1057.81 599.333 1058.35 597.467 1058.35 594.8V537.8C1058.35 535.4 1057.88 533.8 1056.95 533C1056.15 532.2 1055.21 531.733 1054.15 531.6C1053.21 531.467 1052.35 531.4 1051.55 531.4C1050.75 531.4 1050.35 530.933 1050.35 530C1050.35 528.8 1051.01 528 1052.35 527.6C1053.81 527.067 1055.28 526.267 1056.75 525.2C1060.21 522.8 1062.75 520.6 1064.35 518.6C1065.95 516.467 1067.08 515.4 1067.75 515.4C1068.41 515.4 1068.75 515.867 1068.75 516.8C1068.88 517.6 1068.95 518.733 1068.95 520.2ZM1215.93 546C1224.2 546 1230.26 545.533 1234.13 544.6C1238 543.533 1239.93 541.067 1239.93 537.2C1239.93 535.067 1239.46 532.933 1238.53 530.8C1237.6 528.667 1236.26 526.733 1234.53 525C1232.93 523.267 1231 521.867 1228.73 520.8C1226.46 519.733 1224.06 519.2 1221.53 519.2C1218.33 519.2 1215.26 520 1212.33 521.6C1209.4 523.2 1206.8 525.2 1204.53 527.6C1202.4 530 1200.66 532.667 1199.33 535.6C1198 538.533 1197.33 541.4 1197.33 544.2C1197.33 544.6 1197.53 545 1197.93 545.4C1198.33 545.8 1198.86 546 1199.53 546H1215.93ZM1246.93 550.8H1199.33C1197.6 550.8 1196.53 551.4 1196.13 552.6C1195.73 553.667 1195.53 555.867 1195.53 559.2C1195.53 565.867 1196.26 571.8 1197.73 577C1199.33 582.2 1201.46 586.6 1204.13 590.2C1206.93 593.8 1210.2 596.6 1213.93 598.6C1217.8 600.467 1222 601.4 1226.53 601.4C1230.66 601.4 1234.13 600.733 1236.93 599.4C1239.86 598.067 1242.26 596.6 1244.13 595C1246 593.4 1247.46 591.933 1248.53 590.6C1249.6 589.267 1250.33 588.6 1250.73 588.6C1251.66 588.6 1252.13 589.133 1252.13 590.2C1252.13 591.667 1251.4 593.6 1249.93 596C1248.46 598.267 1246.33 600.533 1243.53 602.8C1240.86 604.933 1237.53 606.8 1233.53 608.4C1229.66 610 1225.33 610.8 1220.53 610.8C1215.06 610.8 1210 609.667 1205.33 607.4C1200.8 605.133 1196.86 601.933 1193.53 597.8C1190.2 593.667 1187.6 588.667 1185.73 582.8C1184 576.933 1183.13 570.4 1183.13 563.2C1183.13 555.867 1184.2 549.267 1186.33 543.4C1188.46 537.4 1191.33 532.333 1194.93 528.2C1198.53 524.067 1202.73 520.933 1207.53 518.8C1212.33 516.533 1217.4 515.4 1222.73 515.4C1227.4 515.4 1231.6 516.267 1235.33 518C1239.06 519.733 1242.2 522.067 1244.73 525C1247.4 527.8 1249.4 531.133 1250.73 535C1252.2 538.733 1252.93 542.6 1252.93 546.6C1252.93 548.067 1252.46 549.133 1251.53 549.8C1250.73 550.467 1249.2 550.8 1246.93 550.8ZM1283.2 520.2V529.6C1283.2 531.067 1283.47 531.8 1284 531.8C1284.54 531.8 1285.34 530.867 1286.4 529C1287.6 527 1289.47 524.867 1292 522.6C1294.67 520.2 1297.34 518.4 1300 517.2C1302.8 516 1305.8 515.4 1309 515.4C1316.47 515.4 1322.47 518.133 1327 523.6C1331.54 529.067 1333.8 536.467 1333.8 545.8V594.8C1333.8 597.6 1334.34 599.533 1335.4 600.6C1336.47 601.533 1337.67 602.2 1339 602.6C1340.34 602.867 1341.54 603.133 1342.6 603.4C1343.67 603.533 1344.2 604.133 1344.2 605.2C1344.2 606.133 1343.94 606.733 1343.4 607C1343 607.133 1342.27 607.2 1341.2 607.2C1340.27 607.2 1338.74 607.067 1336.6 606.8C1334.47 606.533 1331.67 606.4 1328.2 606.4C1325.4 606.4 1322.94 606.533 1320.8 606.8C1318.8 607.067 1317.07 607.2 1315.6 607.2C1314.4 607.2 1313.54 607.133 1313 607C1312.47 606.867 1312.2 606.267 1312.2 605.2C1312.2 604.133 1312.74 603.533 1313.8 603.4C1314.87 603.133 1316.07 602.8 1317.4 602.4C1318.74 602 1319.94 601.333 1321 600.4C1322.07 599.333 1322.6 597.467 1322.6 594.8V554.6C1322.6 544.2 1321.27 536.4 1318.6 531.2C1315.94 526 1311.14 523.4 1304.2 523.4C1297 523.4 1291.8 526.333 1288.6 532.2C1285.4 537.933 1283.8 546.6 1283.8 558.2V594.8C1283.8 597.6 1284.34 599.533 1285.4 600.6C1286.47 601.533 1287.67 602.2 1289 602.6C1290.34 602.867 1291.54 603.133 1292.6 603.4C1293.67 603.533 1294.2 604.133 1294.2 605.2C1294.2 606.133 1293.94 606.733 1293.4 607C1293 607.133 1292.27 607.2 1291.2 607.2C1290.27 607.2 1288.74 607.067 1286.6 606.8C1284.47 606.533 1281.67 606.4 1278.2 606.4C1275.67 606.4 1273.34 606.533 1271.2 606.8C1269.07 607.067 1267.07 607.2 1265.2 607.2C1264.14 607.2 1263.34 607.133 1262.8 607C1262.4 606.733 1262.2 606.133 1262.2 605.2C1262.2 604.133 1262.74 603.533 1263.8 603.4C1264.87 603.133 1266.07 602.8 1267.4 602.4C1268.74 602 1269.94 601.333 1271 600.4C1272.07 599.333 1272.6 597.467 1272.6 594.8V536.8C1272.6 534.8 1272.14 533.533 1271.2 533C1270.4 532.333 1269.47 531.933 1268.4 531.8C1267.47 531.667 1266.6 531.533 1265.8 531.4C1265 531.267 1264.6 530.8 1264.6 530C1264.6 528.8 1265.27 528 1266.6 527.6C1268.07 527.067 1269.54 526.267 1271 525.2C1274.47 522.8 1277 520.6 1278.6 518.6C1280.2 516.467 1281.34 515.4 1282 515.4C1282.67 515.4 1283 515.867 1283 516.8C1283.14 517.6 1283.2 518.733 1283.2 520.2ZM1373.44 505.4V515.6C1373.44 516.933 1373.58 517.867 1373.84 518.4C1374.24 518.8 1375.04 519 1376.24 519H1391.04C1392.24 519 1392.98 519.2 1393.24 519.6C1393.51 519.867 1393.64 520.533 1393.64 521.6V522.4C1393.64 523.6 1393.44 524.467 1393.04 525C1392.78 525.533 1392.11 525.8 1391.04 525.8H1376.04C1374.84 525.8 1374.04 526.067 1373.64 526.6C1373.38 527 1373.24 527.867 1373.24 529.2V587.6C1373.24 597.733 1376.44 602.8 1382.84 602.8C1384.58 602.8 1386.18 602.4 1387.64 601.6C1389.11 600.8 1390.38 600 1391.44 599.2C1392.64 598.267 1393.64 597.4 1394.44 596.6C1395.24 595.8 1395.84 595.4 1396.24 595.4C1396.78 595.4 1397.04 595.933 1397.04 597C1397.04 597.667 1396.51 598.8 1395.44 600.4C1394.51 601.867 1393.11 603.4 1391.24 605C1389.51 606.467 1387.44 607.8 1385.04 609C1382.78 610.2 1380.38 610.8 1377.84 610.8C1372.64 610.8 1368.58 608.733 1365.64 604.6C1362.84 600.467 1361.44 594.4 1361.44 586.4V577L1362.04 529.2C1362.04 527.867 1361.84 527 1361.44 526.6C1361.18 526.067 1360.44 525.8 1359.24 525.8H1356.24C1354.24 525.8 1353.24 525.2 1353.24 524C1353.24 522.933 1354.24 521.667 1356.24 520.2C1358.38 518.6 1360.91 516.067 1363.84 512.6C1366.78 509.133 1368.71 506.133 1369.64 503.6C1370.71 501.067 1371.71 499.8 1372.64 499.8C1373.18 499.8 1373.44 500.6 1373.44 502.2V505.4ZM1437.41 546C1445.68 546 1451.75 545.533 1455.61 544.6C1459.48 543.533 1461.41 541.067 1461.41 537.2C1461.41 535.067 1460.95 532.933 1460.01 530.8C1459.08 528.667 1457.75 526.733 1456.01 525C1454.41 523.267 1452.48 521.867 1450.21 520.8C1447.95 519.733 1445.55 519.2 1443.01 519.2C1439.81 519.2 1436.75 520 1433.81 521.6C1430.88 523.2 1428.28 525.2 1426.01 527.6C1423.88 530 1422.15 532.667 1420.81 535.6C1419.48 538.533 1418.81 541.4 1418.81 544.2C1418.81 544.6 1419.01 545 1419.41 545.4C1419.81 545.8 1420.35 546 1421.01 546H1437.41ZM1468.41 550.8H1420.81C1419.08 550.8 1418.01 551.4 1417.61 552.6C1417.21 553.667 1417.01 555.867 1417.01 559.2C1417.01 565.867 1417.75 571.8 1419.21 577C1420.81 582.2 1422.95 586.6 1425.61 590.2C1428.41 593.8 1431.68 596.6 1435.41 598.6C1439.28 600.467 1443.48 601.4 1448.01 601.4C1452.15 601.4 1455.61 600.733 1458.41 599.4C1461.35 598.067 1463.75 596.6 1465.61 595C1467.48 593.4 1468.95 591.933 1470.01 590.6C1471.08 589.267 1471.81 588.6 1472.21 588.6C1473.15 588.6 1473.61 589.133 1473.61 590.2C1473.61 591.667 1472.88 593.6 1471.41 596C1469.95 598.267 1467.81 600.533 1465.01 602.8C1462.35 604.933 1459.01 606.8 1455.01 608.4C1451.15 610 1446.81 610.8 1442.01 610.8C1436.55 610.8 1431.48 609.667 1426.81 607.4C1422.28 605.133 1418.35 601.933 1415.01 597.8C1411.68 593.667 1409.08 588.667 1407.21 582.8C1405.48 576.933 1404.61 570.4 1404.61 563.2C1404.61 555.867 1405.68 549.267 1407.81 543.4C1409.95 537.4 1412.81 532.333 1416.41 528.2C1420.01 524.067 1424.21 520.933 1429.01 518.8C1433.81 516.533 1438.88 515.4 1444.21 515.4C1448.88 515.4 1453.08 516.267 1456.81 518C1460.55 519.733 1463.68 522.067 1466.21 525C1468.88 527.8 1470.88 531.133 1472.21 535C1473.68 538.733 1474.41 542.6 1474.41 546.6C1474.41 548.067 1473.95 549.133 1473.01 549.8C1472.21 550.467 1470.68 550.8 1468.41 550.8ZM1499.69 588.8C1501.82 588.8 1503.49 589.733 1504.69 591.6C1506.02 593.467 1506.69 595.933 1506.69 599C1506.69 602.333 1506.02 604.867 1504.69 606.6C1503.35 608.333 1501.69 609.2 1499.69 609.2C1497.69 609.2 1496.02 608.333 1494.69 606.6C1493.35 604.867 1492.69 602.333 1492.69 599C1492.69 595.933 1493.35 593.467 1494.69 591.6C1496.02 589.733 1497.69 588.8 1499.69 588.8Z" fill="black"/>
<path d="M0 175.6H1180.63V184.8H0V175.6ZM0 404.6H1146.65V413.8H0V404.6ZM0 633.6H1519.89V642.8H0V633.6Z" fill="black"/>
<path d="M1467.24 188.813L1467.33 189.934L1468.1 189.115L1590.53 59.1694L1490.66 209.19L1490.08 210.064L1491.12 209.965L1664.15 193.563L1496.23 240.692L1495.24 240.968L1496.07 241.576L1638.56 346.516L1481.35 268.607L1480.38 268.123L1480.65 269.179L1525.91 446.143L1452.96 279.865L1452.5 278.822L1452.04 279.865L1379.09 446.143L1424.35 269.179L1424.62 268.123L1423.65 268.607L1266.44 346.516L1408.93 241.576L1409.76 240.968L1408.77 240.692L1240.85 193.563L1413.88 209.965L1414.92 210.064L1414.34 209.19L1314.47 59.1693L1436.9 189.115L1437.67 189.934L1437.76 188.813L1452.5 6.21597L1467.24 188.813Z" fill="#F8FC5F" stroke="#707070"/>
</svg>
