<svg width="303" height="24" viewBox="0 0 303 24" fill="none" xmlns="http://www.w3.org/2000/svg">
<path d="M0.806 9.81C0.806 8.562 0.988 7.40933 1.352 6.352C1.73333 5.29467 2.24467 4.38467 2.886 3.622C3.54467 2.842 4.30733 2.23533 5.174 1.802C6.04067 1.36867 6.97667 1.152 7.982 1.152C8.41533 1.152 8.82267 1.18667 9.204 1.256C9.60267 1.32533 9.958 1.412 10.27 1.516C10.5993 1.60267 10.868 1.70667 11.076 1.828C11.3013 1.932 11.4573 2.02733 11.544 2.114C11.6307 2.218 11.7 2.504 11.752 2.972C11.804 3.44 11.83 4.07267 11.83 4.87C11.83 5.09533 11.752 5.208 11.596 5.208C11.4227 5.208 11.31 5.06933 11.258 4.792C11.206 4.51467 11.0673 4.17667 10.842 3.778C10.1487 2.49533 9.13467 1.854 7.8 1.854C7.10667 1.854 6.45667 2.036 5.85 2.4C5.26067 2.764 4.74067 3.284 4.29 3.96C3.83933 4.636 3.484 5.468 3.224 6.456C2.964 7.444 2.834 8.562 2.834 9.81C2.834 10.9713 2.964 12.0373 3.224 13.008C3.484 13.9787 3.83933 14.8193 4.29 15.53C4.758 16.2233 5.29533 16.7693 5.902 17.168C6.50867 17.5493 7.15867 17.74 7.852 17.74C8.684 17.74 9.36 17.4973 9.88 17.012C10.4 16.5267 10.8333 15.7987 11.18 14.828C11.3187 14.4467 11.4053 14.152 11.44 13.944C11.492 13.7187 11.5873 13.606 11.726 13.606C11.8993 13.606 11.986 13.7533 11.986 14.048C11.986 14.9147 11.9687 15.5907 11.934 16.076C11.9167 16.544 11.856 16.856 11.752 17.012C11.648 17.168 11.4747 17.3327 11.232 17.506C10.9893 17.6793 10.6947 17.844 10.348 18C10.0013 18.1387 9.61133 18.2513 9.178 18.338C8.74467 18.442 8.268 18.494 7.748 18.494C6.76 18.494 5.84133 18.2773 4.992 17.844C4.14267 17.4107 3.406 16.804 2.782 16.024C2.158 15.244 1.67267 14.3253 1.326 13.268C0.979333 12.2107 0.806 11.058 0.806 9.81ZM18.8736 6.092C19.6882 6.092 20.4162 6.23933 21.0576 6.534C21.7162 6.82867 22.2622 7.24467 22.6956 7.782C23.1462 8.31933 23.4842 8.96933 23.7096 9.732C23.9522 10.4947 24.0736 11.3353 24.0736 12.254C24.0736 13.19 23.9522 14.048 23.7096 14.828C23.4669 15.5907 23.1116 16.2493 22.6436 16.804C22.1929 17.3413 21.6382 17.7573 20.9796 18.052C20.3209 18.3467 19.5756 18.494 18.7436 18.494C17.9982 18.494 17.3222 18.338 16.7156 18.026C16.1089 17.7313 15.5889 17.3153 15.1556 16.778C14.7222 16.2233 14.3842 15.5647 14.1416 14.802C13.8989 14.0393 13.7776 13.1987 13.7776 12.28C13.7776 11.344 13.8989 10.4947 14.1416 9.732C14.4016 8.96933 14.7569 8.31933 15.2076 7.782C15.6756 7.24467 16.2216 6.82867 16.8456 6.534C17.4696 6.23933 18.1456 6.092 18.8736 6.092ZM18.9256 6.56C17.8336 6.56 16.9669 7.03667 16.3256 7.99C15.7016 8.926 15.3896 10.304 15.3896 12.124C15.3896 13.0427 15.4762 13.866 15.6496 14.594C15.8229 15.3047 16.0656 15.92 16.3776 16.44C16.6896 16.9427 17.0536 17.3327 17.4696 17.61C17.9029 17.87 18.3709 18 18.8736 18C19.9829 18 20.8496 17.5407 21.4736 16.622C22.0976 15.686 22.4096 14.3253 22.4096 12.54C22.4096 10.6333 22.0889 9.16 21.4476 8.12C20.8236 7.08 19.9829 6.56 18.9256 6.56ZM28.0059 6.716V7.938C28.0059 8.12867 28.0405 8.224 28.1099 8.224C28.1792 8.224 28.2745 8.10267 28.3959 7.86C28.5172 7.6 28.7425 7.32267 29.0719 7.028C29.4185 6.716 29.7565 6.482 30.0859 6.326C30.4152 6.17 30.7792 6.092 31.1779 6.092C31.8885 6.092 32.4692 6.29133 32.9199 6.69C33.3705 7.07133 33.7345 7.66933 34.0119 8.484H34.1159C34.6185 7.66933 35.1212 7.07133 35.6239 6.69C36.1265 6.29133 36.6812 6.092 37.2879 6.092C38.1892 6.092 38.9172 6.44733 39.4719 7.158C40.0265 7.86867 40.3039 8.83067 40.3039 10.044C40.3039 10.1307 40.3039 10.3127 40.3039 10.59C40.3212 10.85 40.3299 11.2053 40.3299 11.656V16.414C40.3299 16.778 40.3905 17.0293 40.5119 17.168C40.6505 17.2893 40.7979 17.376 40.9539 17.428C41.1099 17.4627 41.2485 17.4973 41.3699 17.532C41.5085 17.5493 41.5779 17.6273 41.5779 17.766C41.5779 17.8873 41.5519 17.9653 41.4999 18C41.4479 18.0173 41.3525 18.026 41.2139 18.026C41.1099 18.026 40.9279 18.0087 40.6679 17.974C40.4079 17.9393 40.0612 17.922 39.6279 17.922C39.2465 17.922 38.9172 17.9393 38.6399 17.974C38.3799 18.0087 38.1632 18.026 37.9899 18.026C37.8512 18.026 37.7472 18.0173 37.6779 18C37.6259 17.9653 37.5999 17.8873 37.5999 17.766C37.5999 17.6273 37.6605 17.5493 37.7819 17.532C37.9205 17.4973 38.0679 17.454 38.2239 17.402C38.3972 17.35 38.5445 17.2633 38.6659 17.142C38.8045 17.0033 38.8739 16.7607 38.8739 16.414V11.188C38.8739 9.836 38.7092 8.822 38.3799 8.146C38.0679 7.47 37.4959 7.132 36.6639 7.132C35.9879 7.132 35.4159 7.43533 34.9479 8.042C34.4972 8.64867 34.2632 9.58467 34.2459 10.85L34.1939 16.414C34.1939 16.7607 34.2545 17.0033 34.3759 17.142C34.5145 17.2633 34.6619 17.35 34.8179 17.402C34.9912 17.454 35.1385 17.4973 35.2599 17.532C35.3985 17.5493 35.4679 17.6273 35.4679 17.766C35.4679 17.8873 35.4419 17.9653 35.3899 18C35.3379 18.0173 35.2425 18.026 35.1039 18.026C34.9825 18.026 34.7919 18.0087 34.5319 17.974C34.2719 17.9393 33.9339 17.922 33.5179 17.922C33.0499 17.922 32.6772 17.9393 32.3999 17.974C32.1225 18.0087 31.9405 18.026 31.8539 18.026C31.7152 18.026 31.6199 18.0173 31.5679 18C31.5159 17.9653 31.4899 17.8873 31.4899 17.766C31.4899 17.6273 31.5505 17.5493 31.6719 17.532C31.8105 17.4973 31.9579 17.454 32.1139 17.402C32.2699 17.35 32.4085 17.2633 32.5299 17.142C32.6685 17.0033 32.7379 16.7607 32.7379 16.414V11.188C32.7379 9.836 32.5732 8.822 32.2439 8.146C31.9145 7.47 31.3425 7.132 30.5279 7.132C29.8519 7.132 29.2712 7.45267 28.7859 8.094C28.3179 8.718 28.0839 9.63667 28.0839 10.85V16.414C28.0839 16.778 28.1532 17.0293 28.2919 17.168C28.4305 17.2893 28.5865 17.376 28.7599 17.428C28.9332 17.4627 29.0892 17.4973 29.2279 17.532C29.3665 17.5493 29.4359 17.6273 29.4359 17.766C29.4359 17.8873 29.4012 17.9653 29.3319 18C29.2799 18.0173 29.1845 18.026 29.0459 18.026C28.9765 18.026 28.8032 18.0087 28.5259 17.974C28.2485 17.9393 27.8585 17.922 27.3559 17.922C26.9919 17.922 26.6625 17.9393 26.3679 17.974C26.0905 18.0087 25.8565 18.026 25.6659 18.026C25.5272 18.026 25.4232 18.0173 25.3539 18C25.3019 17.9653 25.2759 17.8873 25.2759 17.766C25.2759 17.6273 25.3452 17.5493 25.4839 17.532C25.6225 17.4973 25.7785 17.454 25.9519 17.402C26.1252 17.35 26.2812 17.2633 26.4199 17.142C26.5585 17.0033 26.6279 16.7607 26.6279 16.414V9.004C26.6279 8.692 26.5672 8.484 26.4459 8.38C26.3419 8.276 26.2205 8.21533 26.0819 8.198C25.9605 8.18067 25.8479 8.172 25.7439 8.172C25.6399 8.172 25.5879 8.11133 25.5879 7.99C25.5879 7.834 25.6745 7.73 25.8479 7.678C26.0385 7.60867 26.2292 7.50467 26.4199 7.366C26.8705 7.054 27.1999 6.768 27.4079 6.508C27.6159 6.23067 27.7632 6.092 27.8499 6.092C27.9365 6.092 27.9799 6.15267 27.9799 6.274C27.9972 6.378 28.0059 6.52533 28.0059 6.716ZM45.4238 6.716V7.834C45.4238 7.99 45.4672 8.068 45.5538 8.068C45.6058 8.068 45.7185 7.964 45.8918 7.756C46.0652 7.548 46.2905 7.32267 46.5678 7.08C46.8625 6.82 47.2092 6.586 47.6078 6.378C48.0065 6.17 48.4745 6.066 49.0118 6.066C49.6012 6.066 50.1472 6.21333 50.6498 6.508C51.1698 6.78533 51.6118 7.19267 51.9758 7.73C52.3572 8.25 52.6518 8.88267 52.8598 9.628C53.0852 10.3733 53.1978 11.2053 53.1978 12.124C53.1978 13.112 53.0678 14.0047 52.8078 14.802C52.5652 15.582 52.2272 16.2493 51.7938 16.804C51.3605 17.3413 50.8492 17.7573 50.2598 18.052C49.6705 18.3467 49.0292 18.494 48.3358 18.494C47.8332 18.494 47.3652 18.4247 46.9318 18.286C46.5158 18.1647 46.0825 17.9567 45.6318 17.662H45.5018V22.134C45.5018 22.498 45.5885 22.7407 45.7618 22.862C45.9352 23.0007 46.1258 23.0873 46.3338 23.122C46.5592 23.1567 46.7585 23.1827 46.9318 23.2C47.1052 23.2347 47.1918 23.33 47.1918 23.486C47.1918 23.6593 47.0618 23.746 46.8018 23.746C46.6458 23.746 46.4205 23.7287 46.1258 23.694C45.8312 23.6593 45.4585 23.642 45.0078 23.642C44.5225 23.642 44.1152 23.6593 43.7858 23.694C43.4738 23.7287 43.2312 23.746 43.0578 23.746C42.8152 23.746 42.6938 23.6593 42.6938 23.486C42.6938 23.3473 42.7632 23.2607 42.9018 23.226C43.0405 23.2087 43.1965 23.174 43.3698 23.122C43.5432 23.07 43.6992 22.9747 43.8378 22.836C43.9765 22.7147 44.0458 22.4807 44.0458 22.134V9.004C44.0458 8.692 43.9852 8.484 43.8638 8.38C43.7598 8.276 43.6385 8.21533 43.4998 8.198C43.3785 8.18067 43.2658 8.172 43.1618 8.172C43.0578 8.172 43.0058 8.11133 43.0058 7.99C43.0058 7.834 43.0925 7.73 43.2658 7.678C43.4565 7.60867 43.6472 7.50467 43.8378 7.366C44.2885 7.054 44.6178 6.768 44.8258 6.508C45.0338 6.23067 45.1812 6.092 45.2678 6.092C45.3545 6.092 45.3978 6.15267 45.3978 6.274C45.4152 6.378 45.4238 6.52533 45.4238 6.716ZM45.5018 15.79C45.5018 16.102 45.5712 16.3967 45.7098 16.674C45.8485 16.934 46.0305 17.1593 46.2558 17.35C46.4985 17.5407 46.7758 17.6967 47.0878 17.818C47.3998 17.922 47.7378 17.974 48.1018 17.974C49.1418 17.974 49.9912 17.4973 50.6498 16.544C51.3085 15.5733 51.6378 14.1953 51.6378 12.41C51.6378 10.6593 51.3258 9.32467 50.7018 8.406C50.0952 7.47 49.3152 7.002 48.3618 7.002C48.0152 7.002 47.6685 7.08 47.3218 7.236C46.9752 7.37467 46.6632 7.58267 46.3858 7.86C46.1258 8.12 45.9092 8.432 45.7358 8.796C45.5798 9.16 45.5018 9.55867 45.5018 9.992V15.79ZM57.2812 6.716V8.198C57.2812 8.31933 57.3159 8.38 57.3853 8.38C57.4373 8.38 57.4979 8.33667 57.5673 8.25L58.0353 7.574C58.7633 6.586 59.5346 6.092 60.3493 6.092C60.7826 6.092 61.1206 6.21333 61.3633 6.456C61.6059 6.68133 61.7273 6.96733 61.7273 7.314C61.7273 7.66067 61.6319 7.94667 61.4413 8.172C61.2679 8.38 61.0686 8.484 60.8433 8.484C60.6699 8.484 60.5139 8.432 60.3753 8.328C60.2539 8.224 60.1239 8.11133 59.9853 7.99C59.8639 7.85133 59.7339 7.73 59.5953 7.626C59.4566 7.522 59.2833 7.47 59.0753 7.47C58.8846 7.47 58.6853 7.548 58.4773 7.704C58.2866 7.86 58.1046 8.11133 57.9313 8.458C57.7579 8.78733 57.6193 9.212 57.5153 9.732C57.4113 10.252 57.3593 10.876 57.3593 11.604V15.894C57.3593 16.3447 57.3939 16.6653 57.4632 16.856C57.5326 17.0467 57.6973 17.194 57.9573 17.298C58.1826 17.3847 58.3819 17.4367 58.5553 17.454C58.7286 17.4713 58.8759 17.4887 58.9973 17.506C59.1186 17.506 59.2053 17.5233 59.2573 17.558C59.3266 17.5753 59.3613 17.6447 59.3613 17.766C59.3613 17.9567 59.2226 18.052 58.9453 18.052C58.7199 18.052 58.4079 18.0347 58.0093 18C57.6279 17.948 57.1686 17.922 56.6313 17.922C56.2846 17.922 55.9639 17.9393 55.6693 17.974C55.3919 18.0087 55.1493 18.026 54.9413 18.026C54.8026 18.026 54.6986 18.0173 54.6293 18C54.5773 17.9653 54.5513 17.8873 54.5513 17.766C54.5513 17.5927 54.6119 17.506 54.7333 17.506C54.8719 17.506 55.0886 17.454 55.3833 17.35C55.6086 17.2633 55.7473 17.116 55.7993 16.908C55.8686 16.6827 55.9033 16.3447 55.9033 15.894V9.004C55.9033 8.692 55.8426 8.484 55.7213 8.38C55.6173 8.276 55.4959 8.21533 55.3573 8.198C55.2359 8.18067 55.1233 8.172 55.0193 8.172C54.9153 8.172 54.8633 8.11133 54.8633 7.99C54.8633 7.85133 54.9499 7.74733 55.1233 7.678C55.3139 7.59133 55.5219 7.47 55.7472 7.314C56.1459 7.03667 56.4493 6.768 56.6573 6.508C56.8653 6.23067 57.0213 6.092 57.1253 6.092C57.2119 6.092 57.2553 6.15267 57.2553 6.274C57.2726 6.378 57.2812 6.52533 57.2812 6.716ZM66.5377 10.07C67.6123 10.07 68.401 10.0093 68.9037 9.888C69.4063 9.74933 69.6577 9.42867 69.6577 8.926C69.6577 8.64867 69.597 8.37133 69.4757 8.094C69.3543 7.81667 69.181 7.56533 68.9557 7.34C68.7477 7.11467 68.4963 6.93267 68.2017 6.794C67.907 6.65533 67.595 6.586 67.2657 6.586C66.8497 6.586 66.451 6.69 66.0697 6.898C65.6883 7.106 65.3503 7.366 65.0557 7.678C64.7783 7.99 64.553 8.33667 64.3797 8.718C64.2063 9.09933 64.1197 9.472 64.1197 9.836C64.1197 9.888 64.1457 9.94 64.1977 9.992C64.2497 10.044 64.319 10.07 64.4057 10.07H66.5377ZM70.5677 10.694H64.3797C64.1543 10.694 64.0157 10.772 63.9637 10.928C63.9117 11.0667 63.8857 11.3527 63.8857 11.786C63.8857 12.6527 63.981 13.424 64.1717 14.1C64.3797 14.776 64.657 15.348 65.0037 15.816C65.3677 16.284 65.7923 16.648 66.2777 16.908C66.7803 17.1507 67.3263 17.272 67.9157 17.272C68.453 17.272 68.9037 17.1853 69.2677 17.012C69.649 16.8387 69.961 16.648 70.2037 16.44C70.4463 16.232 70.637 16.0413 70.7757 15.868C70.9143 15.6947 71.0097 15.608 71.0617 15.608C71.183 15.608 71.2437 15.6773 71.2437 15.816C71.2437 16.0067 71.1483 16.258 70.9577 16.57C70.767 16.8647 70.4897 17.1593 70.1257 17.454C69.779 17.7313 69.3457 17.974 68.8257 18.182C68.323 18.39 67.7597 18.494 67.1357 18.494C66.425 18.494 65.7663 18.3467 65.1597 18.052C64.5703 17.7573 64.059 17.3413 63.6257 16.804C63.1923 16.2667 62.8543 15.6167 62.6117 14.854C62.3863 14.0913 62.2737 13.242 62.2737 12.306C62.2737 11.3527 62.4123 10.4947 62.6897 9.732C62.967 8.952 63.3397 8.29333 63.8077 7.756C64.2757 7.21867 64.8217 6.81133 65.4457 6.534C66.0697 6.23933 66.7283 6.092 67.4217 6.092C68.0283 6.092 68.5743 6.20467 69.0597 6.43C69.545 6.65533 69.9523 6.95867 70.2817 7.34C70.6283 7.704 70.8883 8.13733 71.0617 8.64C71.2523 9.12533 71.3477 9.628 71.3477 10.148C71.3477 10.3387 71.287 10.4773 71.1657 10.564C71.0617 10.6507 70.8623 10.694 70.5677 10.694ZM87.0917 0.58V15.556C87.0917 16.076 87.109 16.4573 87.1437 16.7C87.1957 16.9427 87.3257 17.064 87.5337 17.064C87.603 17.064 87.681 17.038 87.7677 16.986C87.8543 16.9167 87.9323 16.8473 88.0017 16.778C88.0883 16.6913 88.1663 16.622 88.2357 16.57C88.3223 16.5007 88.4003 16.466 88.4697 16.466C88.5217 16.466 88.5477 16.5873 88.5477 16.83C88.5477 17.0207 88.513 17.1507 88.4437 17.22C88.3743 17.2893 88.227 17.3673 88.0017 17.454C87.447 17.6967 87.0223 17.9047 86.7277 18.078C86.4503 18.2687 86.2597 18.364 86.1557 18.364C85.9823 18.364 85.8697 18.1387 85.8177 17.688L85.7137 16.492H85.5577C84.9857 17.1507 84.4137 17.6533 83.8417 18C83.287 18.3293 82.7063 18.494 82.0997 18.494C81.5277 18.494 80.9817 18.3553 80.4617 18.078C79.959 17.8007 79.517 17.402 79.1357 16.882C78.7717 16.3447 78.477 15.7033 78.2517 14.958C78.0437 14.1953 77.9397 13.346 77.9397 12.41C77.9397 11.422 78.061 10.538 78.3037 9.758C78.5637 8.978 78.9103 8.31933 79.3437 7.782C79.777 7.22733 80.2883 6.81133 80.8777 6.534C81.4843 6.23933 82.1257 6.092 82.8017 6.092C83.235 6.092 83.6077 6.13533 83.9197 6.222C84.2317 6.29133 84.4917 6.378 84.6997 6.482C84.9077 6.586 85.0637 6.68133 85.1677 6.768C85.289 6.83733 85.3757 6.872 85.4277 6.872C85.5663 6.872 85.6357 6.77667 85.6357 6.586V2.634C85.6357 1.854 85.367 1.464 84.8297 1.464C84.8123 1.464 84.7863 1.47267 84.7517 1.49C84.717 1.49 84.6563 1.49 84.5697 1.49C84.535 1.49 84.4917 1.47267 84.4397 1.438C84.3877 1.386 84.3617 1.32533 84.3617 1.256C84.3617 1.08267 84.4657 0.978666 84.6737 0.944C84.8817 0.891999 85.1157 0.822666 85.3757 0.735999C85.8263 0.579999 86.173 0.423999 86.4157 0.267999C86.6583 0.0946658 86.823 0.00799918 86.9097 0.00799918C87.031 0.00799918 87.0917 0.198666 87.0917 0.58ZM85.6357 8.77C85.6357 8.458 85.5663 8.172 85.4277 7.912C85.289 7.63467 85.0983 7.40067 84.8557 7.21C84.6303 7.01933 84.3617 6.872 84.0497 6.768C83.7377 6.64667 83.3997 6.586 83.0357 6.586C81.9957 6.586 81.1463 7.07133 80.4877 8.042C79.829 8.99533 79.4997 10.3647 79.4997 12.15C79.4997 13.8833 79.803 15.2267 80.4097 16.18C81.0337 17.116 81.8223 17.584 82.7757 17.584C83.1397 17.584 83.4863 17.506 83.8157 17.35C84.1623 17.194 84.4657 16.986 84.7257 16.726C85.003 16.4487 85.2197 16.128 85.3757 15.764C85.549 15.4 85.6357 15.0013 85.6357 14.568V8.77ZM93.9088 10.07C94.9834 10.07 95.7721 10.0093 96.2748 9.888C96.7774 9.74933 97.0288 9.42867 97.0288 8.926C97.0288 8.64867 96.9681 8.37133 96.8468 8.094C96.7254 7.81667 96.5521 7.56533 96.3268 7.34C96.1188 7.11467 95.8674 6.93267 95.5728 6.794C95.2781 6.65533 94.9661 6.586 94.6368 6.586C94.2208 6.586 93.8221 6.69 93.4408 6.898C93.0594 7.106 92.7214 7.366 92.4268 7.678C92.1494 7.99 91.9241 8.33667 91.7508 8.718C91.5774 9.09933 91.4908 9.472 91.4908 9.836C91.4908 9.888 91.5168 9.94 91.5688 9.992C91.6208 10.044 91.6901 10.07 91.7768 10.07H93.9088ZM97.9388 10.694H91.7508C91.5254 10.694 91.3868 10.772 91.3348 10.928C91.2828 11.0667 91.2568 11.3527 91.2568 11.786C91.2568 12.6527 91.3521 13.424 91.5428 14.1C91.7508 14.776 92.0281 15.348 92.3748 15.816C92.7388 16.284 93.1634 16.648 93.6488 16.908C94.1514 17.1507 94.6974 17.272 95.2868 17.272C95.8241 17.272 96.2748 17.1853 96.6388 17.012C97.0201 16.8387 97.3321 16.648 97.5748 16.44C97.8174 16.232 98.0081 16.0413 98.1468 15.868C98.2854 15.6947 98.3808 15.608 98.4328 15.608C98.5541 15.608 98.6148 15.6773 98.6148 15.816C98.6148 16.0067 98.5194 16.258 98.3288 16.57C98.1381 16.8647 97.8608 17.1593 97.4968 17.454C97.1501 17.7313 96.7168 17.974 96.1968 18.182C95.6941 18.39 95.1308 18.494 94.5068 18.494C93.7961 18.494 93.1374 18.3467 92.5308 18.052C91.9414 17.7573 91.4301 17.3413 90.9968 16.804C90.5634 16.2667 90.2254 15.6167 89.9828 14.854C89.7574 14.0913 89.6448 13.242 89.6448 12.306C89.6448 11.3527 89.7834 10.4947 90.0608 9.732C90.3381 8.952 90.7108 8.29333 91.1788 7.756C91.6468 7.21867 92.1928 6.81133 92.8168 6.534C93.4408 6.23933 94.0994 6.092 94.7928 6.092C95.3994 6.092 95.9454 6.20467 96.4308 6.43C96.9161 6.65533 97.3234 6.95867 97.6528 7.34C97.9994 7.704 98.2594 8.13733 98.4328 8.64C98.6234 9.12533 98.7188 9.628 98.7188 10.148C98.7188 10.3387 98.6581 10.4773 98.5368 10.564C98.4328 10.6507 98.2334 10.694 97.9388 10.694ZM112.175 9.03V15.556C112.175 16.6307 112.409 17.168 112.877 17.168C113.067 17.168 113.241 17.0727 113.397 16.882C113.57 16.6913 113.709 16.596 113.813 16.596C113.934 16.596 113.995 16.6567 113.995 16.778C113.995 16.9167 113.917 17.0813 113.761 17.272C113.622 17.4453 113.449 17.6187 113.241 17.792C113.033 17.9653 112.807 18.104 112.565 18.208C112.339 18.3293 112.14 18.39 111.967 18.39C111.62 18.39 111.351 18.26 111.161 18C110.987 17.7227 110.823 17.2807 110.667 16.674H110.563C109.904 17.2287 109.315 17.6707 108.795 18C108.292 18.3293 107.763 18.494 107.209 18.494C106.585 18.494 106.099 18.312 105.753 17.948C105.406 17.5667 105.233 17.064 105.233 16.44C105.233 15.9547 105.345 15.504 105.571 15.088C105.796 14.6547 106.134 14.2387 106.585 13.84C107.053 13.424 107.625 12.9993 108.301 12.566C108.977 12.1327 109.757 11.6647 110.641 11.162V8.874C110.641 8.07667 110.554 7.50467 110.381 7.158C110.225 6.81133 109.878 6.638 109.341 6.638C108.89 6.638 108.465 6.794 108.067 7.106C107.668 7.418 107.391 7.79067 107.235 8.224C107.044 8.76133 106.853 9.22067 106.663 9.602C106.472 9.966 106.134 10.148 105.649 10.148C105.527 10.148 105.423 10.1133 105.337 10.044C105.25 9.95733 105.207 9.84467 105.207 9.706C105.207 9.394 105.319 9.03 105.545 8.614C105.77 8.198 106.091 7.79933 106.507 7.418C106.923 7.03667 107.417 6.716 107.989 6.456C108.561 6.196 109.185 6.066 109.861 6.066C110.398 6.066 110.823 6.13533 111.135 6.274C111.447 6.41267 111.681 6.612 111.837 6.872C111.993 7.132 112.088 7.444 112.123 7.808C112.157 8.172 112.175 8.57933 112.175 9.03ZM110.667 12.202C110.667 12.0287 110.615 11.942 110.511 11.942C110.459 11.942 110.372 11.9767 110.251 12.046L109.471 12.488C107.703 13.5107 106.819 14.594 106.819 15.738C106.819 16.2233 106.94 16.6133 107.183 16.908C107.425 17.1853 107.763 17.324 108.197 17.324C108.457 17.324 108.725 17.2633 109.003 17.142C109.297 17.0207 109.566 16.8473 109.809 16.622C110.069 16.3793 110.277 16.0933 110.433 15.764C110.589 15.4173 110.667 15.0273 110.667 14.594V12.202ZM117.33 6.716V8.198C117.33 8.31933 117.365 8.38 117.434 8.38C117.486 8.38 117.547 8.33667 117.616 8.25L118.084 7.574C118.812 6.586 119.583 6.092 120.398 6.092C120.831 6.092 121.169 6.21333 121.412 6.456C121.655 6.68133 121.776 6.96733 121.776 7.314C121.776 7.66067 121.681 7.94667 121.49 8.172C121.317 8.38 121.117 8.484 120.892 8.484C120.719 8.484 120.563 8.432 120.424 8.328C120.303 8.224 120.173 8.11133 120.034 7.99C119.913 7.85133 119.783 7.73 119.644 7.626C119.505 7.522 119.332 7.47 119.124 7.47C118.933 7.47 118.734 7.548 118.526 7.704C118.335 7.86 118.153 8.11133 117.98 8.458C117.807 8.78733 117.668 9.212 117.564 9.732C117.46 10.252 117.408 10.876 117.408 11.604V15.894C117.408 16.3447 117.443 16.6653 117.512 16.856C117.581 17.0467 117.746 17.194 118.006 17.298C118.231 17.3847 118.431 17.4367 118.604 17.454C118.777 17.4713 118.925 17.4887 119.046 17.506C119.167 17.506 119.254 17.5233 119.306 17.558C119.375 17.5753 119.41 17.6447 119.41 17.766C119.41 17.9567 119.271 18.052 118.994 18.052C118.769 18.052 118.457 18.0347 118.058 18C117.677 17.948 117.217 17.922 116.68 17.922C116.333 17.922 116.013 17.9393 115.718 17.974C115.441 18.0087 115.198 18.026 114.99 18.026C114.851 18.026 114.747 18.0173 114.678 18C114.626 17.9653 114.6 17.8873 114.6 17.766C114.6 17.5927 114.661 17.506 114.782 17.506C114.921 17.506 115.137 17.454 115.432 17.35C115.657 17.2633 115.796 17.116 115.848 16.908C115.917 16.6827 115.952 16.3447 115.952 15.894V9.004C115.952 8.692 115.891 8.484 115.77 8.38C115.666 8.276 115.545 8.21533 115.406 8.198C115.285 8.18067 115.172 8.172 115.068 8.172C114.964 8.172 114.912 8.11133 114.912 7.99C114.912 7.85133 114.999 7.74733 115.172 7.678C115.363 7.59133 115.571 7.47 115.796 7.314C116.195 7.03667 116.498 6.768 116.706 6.508C116.914 6.23067 117.07 6.092 117.174 6.092C117.261 6.092 117.304 6.15267 117.304 6.274C117.321 6.378 117.33 6.52533 117.33 6.716ZM124.922 4.792V6.118C124.922 6.29133 124.94 6.41267 124.974 6.482C125.026 6.534 125.13 6.56 125.286 6.56H127.21C127.366 6.56 127.462 6.586 127.496 6.638C127.531 6.67267 127.548 6.75933 127.548 6.898V7.002C127.548 7.158 127.522 7.27067 127.47 7.34C127.436 7.40933 127.349 7.444 127.21 7.444H125.26C125.104 7.444 125 7.47867 124.948 7.548C124.914 7.6 124.896 7.71267 124.896 7.886V15.478C124.896 16.7953 125.312 17.454 126.144 17.454C126.37 17.454 126.578 17.402 126.768 17.298C126.959 17.194 127.124 17.09 127.262 16.986C127.418 16.8647 127.548 16.752 127.652 16.648C127.756 16.544 127.834 16.492 127.886 16.492C127.956 16.492 127.99 16.5613 127.99 16.7C127.99 16.7867 127.921 16.934 127.782 17.142C127.661 17.3327 127.479 17.532 127.236 17.74C127.011 17.9307 126.742 18.104 126.43 18.26C126.136 18.416 125.824 18.494 125.494 18.494C124.818 18.494 124.29 18.2253 123.908 17.688C123.544 17.1507 123.362 16.362 123.362 15.322V14.1L123.44 7.886C123.44 7.71267 123.414 7.6 123.362 7.548C123.328 7.47867 123.232 7.444 123.076 7.444H122.686C122.426 7.444 122.296 7.366 122.296 7.21C122.296 7.07133 122.426 6.90667 122.686 6.716C122.964 6.508 123.293 6.17867 123.674 5.728C124.056 5.27733 124.307 4.88733 124.428 4.558C124.567 4.22867 124.697 4.064 124.818 4.064C124.888 4.064 124.922 4.168 124.922 4.376V4.792ZM130.925 1.62C131.167 1.62 131.384 1.75 131.575 2.01C131.765 2.27 131.861 2.57333 131.861 2.92C131.861 3.24933 131.765 3.544 131.575 3.804C131.401 4.04667 131.185 4.168 130.925 4.168C130.682 4.168 130.465 4.04667 130.275 3.804C130.101 3.56133 130.015 3.26667 130.015 2.92C130.015 2.57333 130.101 2.27 130.275 2.01C130.465 1.75 130.682 1.62 130.925 1.62ZM131.731 6.716V16.414C131.731 16.778 131.8 17.0293 131.939 17.168C132.095 17.2893 132.259 17.376 132.433 17.428C132.623 17.4627 132.788 17.4973 132.927 17.532C133.083 17.5493 133.161 17.6273 133.161 17.766C133.161 17.9047 133.126 17.9827 133.057 18C133.005 18.0173 132.909 18.026 132.771 18.026C132.667 18.026 132.459 18.0087 132.147 17.974C131.852 17.9393 131.453 17.922 130.951 17.922C130.552 17.922 130.197 17.9393 129.885 17.974C129.59 18.0087 129.347 18.026 129.157 18.026C129.018 18.026 128.905 18.0173 128.819 18C128.749 17.9653 128.715 17.8873 128.715 17.766C128.715 17.6273 128.793 17.5493 128.949 17.532C129.122 17.4973 129.304 17.4627 129.495 17.428C129.685 17.376 129.859 17.2807 130.015 17.142C130.188 17.0033 130.275 16.7607 130.275 16.414V9.264C130.275 8.62267 130.006 8.302 129.469 8.302C129.33 8.302 129.217 8.29333 129.131 8.276C129.044 8.24133 129.001 8.16333 129.001 8.042C129.001 7.86867 129.096 7.74733 129.287 7.678C129.495 7.60867 129.711 7.47867 129.937 7.288C130.422 7.01067 130.786 6.75933 131.029 6.534C131.271 6.30867 131.445 6.196 131.549 6.196C131.635 6.196 131.687 6.23933 131.705 6.326C131.722 6.39533 131.731 6.52533 131.731 6.716ZM138.105 6.092C138.642 6.092 139.058 6.12667 139.353 6.196C139.665 6.248 139.89 6.33467 140.029 6.456C140.185 6.56 140.28 6.69 140.315 6.846C140.349 6.98467 140.367 7.14067 140.367 7.314V8.38C140.367 8.72667 140.289 8.9 140.133 8.9C139.977 8.9 139.89 8.796 139.873 8.588C139.855 8.36267 139.734 8.05933 139.509 7.678C139.283 7.29667 139.006 7.01067 138.677 6.82C138.347 6.62933 138.001 6.534 137.637 6.534C137.134 6.534 136.709 6.716 136.363 7.08C136.016 7.42667 135.843 7.886 135.843 8.458C135.843 9.06467 136.016 9.54133 136.363 9.888C136.709 10.2173 137.229 10.5553 137.923 10.902C138.373 11.1273 138.781 11.344 139.145 11.552C139.509 11.76 139.821 11.994 140.081 12.254C140.341 12.514 140.54 12.826 140.679 13.19C140.835 13.5367 140.913 13.9787 140.913 14.516C140.913 15.7467 140.575 16.7173 139.899 17.428C139.223 18.1387 138.269 18.494 137.039 18.494C136.692 18.494 136.345 18.4593 135.999 18.39C135.669 18.3207 135.366 18.2167 135.089 18.078C134.829 17.9567 134.612 17.818 134.439 17.662C134.265 17.4887 134.179 17.298 134.179 17.09C134.179 16.9513 134.187 16.7 134.205 16.336C134.222 15.9547 134.231 15.4607 134.231 14.854C134.231 14.5593 134.326 14.412 134.517 14.412C134.673 14.412 134.768 14.5507 134.803 14.828C134.855 15.088 134.959 15.5213 135.115 16.128C135.288 16.752 135.522 17.2287 135.817 17.558C136.129 17.87 136.605 18.026 137.247 18.026C137.975 18.026 138.555 17.792 138.989 17.324C139.439 16.8387 139.665 16.206 139.665 15.426C139.665 14.7327 139.474 14.1953 139.093 13.814C138.711 13.4153 138.131 13.034 137.351 12.67C136.397 12.2193 135.687 11.76 135.219 11.292C134.768 10.824 134.543 10.2087 134.543 9.446C134.543 8.458 134.855 7.652 135.479 7.028C136.103 6.404 136.978 6.092 138.105 6.092ZM145.159 4.792V6.118C145.159 6.29133 145.176 6.41267 145.211 6.482C145.263 6.534 145.367 6.56 145.523 6.56H147.447C147.603 6.56 147.698 6.586 147.733 6.638C147.767 6.67267 147.785 6.75933 147.785 6.898V7.002C147.785 7.158 147.759 7.27067 147.707 7.34C147.672 7.40933 147.585 7.444 147.447 7.444H145.497C145.341 7.444 145.237 7.47867 145.185 7.548C145.15 7.6 145.133 7.71267 145.133 7.886V15.478C145.133 16.7953 145.549 17.454 146.381 17.454C146.606 17.454 146.814 17.402 147.005 17.298C147.195 17.194 147.36 17.09 147.499 16.986C147.655 16.8647 147.785 16.752 147.889 16.648C147.993 16.544 148.071 16.492 148.123 16.492C148.192 16.492 148.227 16.5613 148.227 16.7C148.227 16.7867 148.157 16.934 148.019 17.142C147.897 17.3327 147.715 17.532 147.473 17.74C147.247 17.9307 146.979 18.104 146.667 18.26C146.372 18.416 146.06 18.494 145.731 18.494C145.055 18.494 144.526 18.2253 144.145 17.688C143.781 17.1507 143.599 16.362 143.599 15.322V14.1L143.677 7.886C143.677 7.71267 143.651 7.6 143.599 7.548C143.564 7.47867 143.469 7.444 143.313 7.444H142.923C142.663 7.444 142.533 7.366 142.533 7.21C142.533 7.07133 142.663 6.90667 142.923 6.716C143.2 6.508 143.529 6.17867 143.911 5.728C144.292 5.27733 144.543 4.88733 144.665 4.558C144.803 4.22867 144.933 4.064 145.055 4.064C145.124 4.064 145.159 4.168 145.159 4.376V4.792ZM156.075 9.03V15.556C156.075 16.6307 156.309 17.168 156.777 17.168C156.968 17.168 157.141 17.0727 157.297 16.882C157.47 16.6913 157.609 16.596 157.713 16.596C157.834 16.596 157.895 16.6567 157.895 16.778C157.895 16.9167 157.817 17.0813 157.661 17.272C157.522 17.4453 157.349 17.6187 157.141 17.792C156.933 17.9653 156.708 18.104 156.465 18.208C156.24 18.3293 156.04 18.39 155.867 18.39C155.52 18.39 155.252 18.26 155.061 18C154.888 17.7227 154.723 17.2807 154.567 16.674H154.463C153.804 17.2287 153.215 17.6707 152.695 18C152.192 18.3293 151.664 18.494 151.109 18.494C150.485 18.494 150 18.312 149.653 17.948C149.306 17.5667 149.133 17.064 149.133 16.44C149.133 15.9547 149.246 15.504 149.471 15.088C149.696 14.6547 150.034 14.2387 150.485 13.84C150.953 13.424 151.525 12.9993 152.201 12.566C152.877 12.1327 153.657 11.6647 154.541 11.162V8.874C154.541 8.07667 154.454 7.50467 154.281 7.158C154.125 6.81133 153.778 6.638 153.241 6.638C152.79 6.638 152.366 6.794 151.967 7.106C151.568 7.418 151.291 7.79067 151.135 8.224C150.944 8.76133 150.754 9.22067 150.563 9.602C150.372 9.966 150.034 10.148 149.549 10.148C149.428 10.148 149.324 10.1133 149.237 10.044C149.15 9.95733 149.107 9.84467 149.107 9.706C149.107 9.394 149.22 9.03 149.445 8.614C149.67 8.198 149.991 7.79933 150.407 7.418C150.823 7.03667 151.317 6.716 151.889 6.456C152.461 6.196 153.085 6.066 153.761 6.066C154.298 6.066 154.723 6.13533 155.035 6.274C155.347 6.41267 155.581 6.612 155.737 6.872C155.893 7.132 155.988 7.444 156.023 7.808C156.058 8.172 156.075 8.57933 156.075 9.03ZM154.567 12.202C154.567 12.0287 154.515 11.942 154.411 11.942C154.359 11.942 154.272 11.9767 154.151 12.046L153.371 12.488C151.603 13.5107 150.719 14.594 150.719 15.738C150.719 16.2233 150.84 16.6133 151.083 16.908C151.326 17.1853 151.664 17.324 152.097 17.324C152.357 17.324 152.626 17.2633 152.903 17.142C153.198 17.0207 153.466 16.8473 153.709 16.622C153.969 16.3793 154.177 16.0933 154.333 15.764C154.489 15.4173 154.567 15.0273 154.567 14.594V12.202ZM162.53 6.092C163.068 6.092 163.484 6.12667 163.778 6.196C164.09 6.248 164.316 6.33467 164.454 6.456C164.61 6.56 164.706 6.69 164.74 6.846C164.775 6.98467 164.792 7.14067 164.792 7.314V8.38C164.792 8.72667 164.714 8.9 164.558 8.9C164.402 8.9 164.316 8.796 164.298 8.588C164.281 8.36267 164.16 8.05933 163.934 7.678C163.709 7.29667 163.432 7.01067 163.102 6.82C162.773 6.62933 162.426 6.534 162.062 6.534C161.56 6.534 161.135 6.716 160.788 7.08C160.442 7.42667 160.268 7.886 160.268 8.458C160.268 9.06467 160.442 9.54133 160.788 9.888C161.135 10.2173 161.655 10.5553 162.348 10.902C162.799 11.1273 163.206 11.344 163.57 11.552C163.934 11.76 164.246 11.994 164.506 12.254C164.766 12.514 164.966 12.826 165.104 13.19C165.26 13.5367 165.338 13.9787 165.338 14.516C165.338 15.7467 165 16.7173 164.324 17.428C163.648 18.1387 162.695 18.494 161.464 18.494C161.118 18.494 160.771 18.4593 160.424 18.39C160.095 18.3207 159.792 18.2167 159.514 18.078C159.254 17.9567 159.038 17.818 158.864 17.662C158.691 17.4887 158.604 17.298 158.604 17.09C158.604 16.9513 158.613 16.7 158.63 16.336C158.648 15.9547 158.656 15.4607 158.656 14.854C158.656 14.5593 158.752 14.412 158.942 14.412C159.098 14.412 159.194 14.5507 159.228 14.828C159.28 15.088 159.384 15.5213 159.54 16.128C159.714 16.752 159.948 17.2287 160.242 17.558C160.554 17.87 161.031 18.026 161.672 18.026C162.4 18.026 162.981 17.792 163.414 17.324C163.865 16.8387 164.09 16.206 164.09 15.426C164.09 14.7327 163.9 14.1953 163.518 13.814C163.137 13.4153 162.556 13.034 161.776 12.67C160.823 12.2193 160.112 11.76 159.644 11.292C159.194 10.824 158.968 10.2087 158.968 9.446C158.968 8.458 159.28 7.652 159.904 7.028C160.528 6.404 161.404 6.092 162.53 6.092ZM174.165 1.62C174.408 1.62 174.624 1.75 174.815 2.01C175.006 2.27 175.101 2.57333 175.101 2.92C175.101 3.24933 175.006 3.544 174.815 3.804C174.642 4.04667 174.425 4.168 174.165 4.168C173.922 4.168 173.706 4.04667 173.515 3.804C173.342 3.56133 173.255 3.26667 173.255 2.92C173.255 2.57333 173.342 2.27 173.515 2.01C173.706 1.75 173.922 1.62 174.165 1.62ZM174.971 6.716V16.414C174.971 16.778 175.04 17.0293 175.179 17.168C175.335 17.2893 175.5 17.376 175.673 17.428C175.864 17.4627 176.028 17.4973 176.167 17.532C176.323 17.5493 176.401 17.6273 176.401 17.766C176.401 17.9047 176.366 17.9827 176.297 18C176.245 18.0173 176.15 18.026 176.011 18.026C175.907 18.026 175.699 18.0087 175.387 17.974C175.092 17.9393 174.694 17.922 174.191 17.922C173.792 17.922 173.437 17.9393 173.125 17.974C172.83 18.0087 172.588 18.026 172.397 18.026C172.258 18.026 172.146 18.0173 172.059 18C171.99 17.9653 171.955 17.8873 171.955 17.766C171.955 17.6273 172.033 17.5493 172.189 17.532C172.362 17.4973 172.544 17.4627 172.735 17.428C172.926 17.376 173.099 17.2807 173.255 17.142C173.428 17.0033 173.515 16.7607 173.515 16.414V9.264C173.515 8.62267 173.246 8.302 172.709 8.302C172.57 8.302 172.458 8.29333 172.371 8.276C172.284 8.24133 172.241 8.16333 172.241 8.042C172.241 7.86867 172.336 7.74733 172.527 7.678C172.735 7.60867 172.952 7.47867 173.177 7.288C173.662 7.01067 174.026 6.75933 174.269 6.534C174.512 6.30867 174.685 6.196 174.789 6.196C174.876 6.196 174.928 6.23933 174.945 6.326C174.962 6.39533 174.971 6.52533 174.971 6.716ZM180.045 6.716V7.938C180.045 8.12867 180.08 8.224 180.149 8.224C180.218 8.224 180.322 8.10267 180.461 7.86C180.617 7.6 180.86 7.32267 181.189 7.028C181.536 6.716 181.882 6.482 182.229 6.326C182.593 6.17 182.983 6.092 183.399 6.092C184.37 6.092 185.15 6.44733 185.739 7.158C186.328 7.86867 186.623 8.83067 186.623 10.044V16.414C186.623 16.778 186.692 17.0293 186.831 17.168C186.97 17.2893 187.126 17.376 187.299 17.428C187.472 17.4627 187.628 17.4973 187.767 17.532C187.906 17.5493 187.975 17.6273 187.975 17.766C187.975 17.8873 187.94 17.9653 187.871 18C187.819 18.0173 187.724 18.026 187.585 18.026C187.464 18.026 187.264 18.0087 186.987 17.974C186.71 17.9393 186.346 17.922 185.895 17.922C185.531 17.922 185.21 17.9393 184.933 17.974C184.673 18.0087 184.448 18.026 184.257 18.026C184.101 18.026 183.988 18.0173 183.919 18C183.85 17.9827 183.815 17.9047 183.815 17.766C183.815 17.6273 183.884 17.5493 184.023 17.532C184.162 17.4973 184.318 17.454 184.491 17.402C184.664 17.35 184.82 17.2633 184.959 17.142C185.098 17.0033 185.167 16.7607 185.167 16.414V11.188C185.167 9.836 184.994 8.822 184.647 8.146C184.3 7.47 183.676 7.132 182.775 7.132C181.839 7.132 181.163 7.51333 180.747 8.276C180.331 9.02133 180.123 10.148 180.123 11.656V16.414C180.123 16.778 180.192 17.0293 180.331 17.168C180.47 17.2893 180.626 17.376 180.799 17.428C180.972 17.4627 181.128 17.4973 181.267 17.532C181.406 17.5493 181.475 17.6273 181.475 17.766C181.475 17.8873 181.44 17.9653 181.371 18C181.319 18.0173 181.224 18.026 181.085 18.026C180.964 18.026 180.764 18.0087 180.487 17.974C180.21 17.9393 179.846 17.922 179.395 17.922C179.066 17.922 178.762 17.9393 178.485 17.974C178.208 18.0087 177.948 18.026 177.705 18.026C177.566 18.026 177.462 18.0173 177.393 18C177.341 17.9653 177.315 17.8873 177.315 17.766C177.315 17.6273 177.384 17.5493 177.523 17.532C177.662 17.4973 177.818 17.454 177.991 17.402C178.164 17.35 178.32 17.2633 178.459 17.142C178.598 17.0033 178.667 16.7607 178.667 16.414V8.874C178.667 8.614 178.606 8.44933 178.485 8.38C178.381 8.29333 178.26 8.24133 178.121 8.224C178 8.20667 177.887 8.18933 177.783 8.172C177.679 8.15467 177.627 8.094 177.627 7.99C177.627 7.834 177.714 7.73 177.887 7.678C178.078 7.60867 178.268 7.50467 178.459 7.366C178.91 7.054 179.239 6.768 179.447 6.508C179.655 6.23067 179.802 6.092 179.889 6.092C179.976 6.092 180.019 6.15267 180.019 6.274C180.036 6.378 180.045 6.52533 180.045 6.716ZM198.328 0.58V15.556C198.328 16.076 198.345 16.4573 198.38 16.7C198.432 16.9427 198.562 17.064 198.77 17.064C198.839 17.064 198.917 17.038 199.004 16.986C199.091 16.9167 199.169 16.8473 199.238 16.778C199.325 16.6913 199.403 16.622 199.472 16.57C199.559 16.5007 199.637 16.466 199.706 16.466C199.758 16.466 199.784 16.5873 199.784 16.83C199.784 17.0207 199.749 17.1507 199.68 17.22C199.611 17.2893 199.463 17.3673 199.238 17.454C198.683 17.6967 198.259 17.9047 197.964 18.078C197.687 18.2687 197.496 18.364 197.392 18.364C197.219 18.364 197.106 18.1387 197.054 17.688L196.95 16.492H196.794C196.222 17.1507 195.65 17.6533 195.078 18C194.523 18.3293 193.943 18.494 193.336 18.494C192.764 18.494 192.218 18.3553 191.698 18.078C191.195 17.8007 190.753 17.402 190.372 16.882C190.008 16.3447 189.713 15.7033 189.488 14.958C189.28 14.1953 189.176 13.346 189.176 12.41C189.176 11.422 189.297 10.538 189.54 9.758C189.8 8.978 190.147 8.31933 190.58 7.782C191.013 7.22733 191.525 6.81133 192.114 6.534C192.721 6.23933 193.362 6.092 194.038 6.092C194.471 6.092 194.844 6.13533 195.156 6.222C195.468 6.29133 195.728 6.378 195.936 6.482C196.144 6.586 196.3 6.68133 196.404 6.768C196.525 6.83733 196.612 6.872 196.664 6.872C196.803 6.872 196.872 6.77667 196.872 6.586V2.634C196.872 1.854 196.603 1.464 196.066 1.464C196.049 1.464 196.023 1.47267 195.988 1.49C195.953 1.49 195.893 1.49 195.806 1.49C195.771 1.49 195.728 1.47267 195.676 1.438C195.624 1.386 195.598 1.32533 195.598 1.256C195.598 1.08267 195.702 0.978666 195.91 0.944C196.118 0.891999 196.352 0.822666 196.612 0.735999C197.063 0.579999 197.409 0.423999 197.652 0.267999C197.895 0.0946658 198.059 0.00799918 198.146 0.00799918C198.267 0.00799918 198.328 0.198666 198.328 0.58ZM196.872 8.77C196.872 8.458 196.803 8.172 196.664 7.912C196.525 7.63467 196.335 7.40067 196.092 7.21C195.867 7.01933 195.598 6.872 195.286 6.768C194.974 6.64667 194.636 6.586 194.272 6.586C193.232 6.586 192.383 7.07133 191.724 8.042C191.065 8.99533 190.736 10.3647 190.736 12.15C190.736 13.8833 191.039 15.2267 191.646 16.18C192.27 17.116 193.059 17.584 194.012 17.584C194.376 17.584 194.723 17.506 195.052 17.35C195.399 17.194 195.702 16.986 195.962 16.726C196.239 16.4487 196.456 16.128 196.612 15.764C196.785 15.4 196.872 15.0013 196.872 14.568V8.77ZM205.145 10.07C206.22 10.07 207.008 10.0093 207.511 9.888C208.014 9.74933 208.265 9.42867 208.265 8.926C208.265 8.64867 208.204 8.37133 208.083 8.094C207.962 7.81667 207.788 7.56533 207.563 7.34C207.355 7.11467 207.104 6.93267 206.809 6.794C206.514 6.65533 206.202 6.586 205.873 6.586C205.457 6.586 205.058 6.69 204.677 6.898C204.296 7.106 203.958 7.366 203.663 7.678C203.386 7.99 203.16 8.33667 202.987 8.718C202.814 9.09933 202.727 9.472 202.727 9.836C202.727 9.888 202.753 9.94 202.805 9.992C202.857 10.044 202.926 10.07 203.013 10.07H205.145ZM209.175 10.694H202.987C202.762 10.694 202.623 10.772 202.571 10.928C202.519 11.0667 202.493 11.3527 202.493 11.786C202.493 12.6527 202.588 13.424 202.779 14.1C202.987 14.776 203.264 15.348 203.611 15.816C203.975 16.284 204.4 16.648 204.885 16.908C205.388 17.1507 205.934 17.272 206.523 17.272C207.06 17.272 207.511 17.1853 207.875 17.012C208.256 16.8387 208.568 16.648 208.811 16.44C209.054 16.232 209.244 16.0413 209.383 15.868C209.522 15.6947 209.617 15.608 209.669 15.608C209.79 15.608 209.851 15.6773 209.851 15.816C209.851 16.0067 209.756 16.258 209.565 16.57C209.374 16.8647 209.097 17.1593 208.733 17.454C208.386 17.7313 207.953 17.974 207.433 18.182C206.93 18.39 206.367 18.494 205.743 18.494C205.032 18.494 204.374 18.3467 203.767 18.052C203.178 17.7573 202.666 17.3413 202.233 16.804C201.8 16.2667 201.462 15.6167 201.219 14.854C200.994 14.0913 200.881 13.242 200.881 12.306C200.881 11.3527 201.02 10.4947 201.297 9.732C201.574 8.952 201.947 8.29333 202.415 7.756C202.883 7.21867 203.429 6.81133 204.053 6.534C204.677 6.23933 205.336 6.092 206.029 6.092C206.636 6.092 207.182 6.20467 207.667 6.43C208.152 6.65533 208.56 6.95867 208.889 7.34C209.236 7.704 209.496 8.13733 209.669 8.64C209.86 9.12533 209.955 9.628 209.955 10.148C209.955 10.3387 209.894 10.4773 209.773 10.564C209.669 10.6507 209.47 10.694 209.175 10.694ZM213.891 6.716V7.834C213.891 7.99 213.934 8.068 214.021 8.068C214.073 8.068 214.185 7.964 214.359 7.756C214.532 7.548 214.757 7.32267 215.035 7.08C215.329 6.82 215.676 6.586 216.075 6.378C216.473 6.17 216.941 6.066 217.479 6.066C218.068 6.066 218.614 6.21333 219.117 6.508C219.637 6.78533 220.079 7.19267 220.443 7.73C220.824 8.25 221.119 8.88267 221.327 9.628C221.552 10.3733 221.665 11.2053 221.665 12.124C221.665 13.112 221.535 14.0047 221.275 14.802C221.032 15.582 220.694 16.2493 220.261 16.804C219.827 17.3413 219.316 17.7573 218.727 18.052C218.137 18.3467 217.496 18.494 216.803 18.494C216.3 18.494 215.832 18.4247 215.399 18.286C214.983 18.1647 214.549 17.9567 214.099 17.662H213.969V22.134C213.969 22.498 214.055 22.7407 214.229 22.862C214.402 23.0007 214.593 23.0873 214.801 23.122C215.026 23.1567 215.225 23.1827 215.399 23.2C215.572 23.2347 215.659 23.33 215.659 23.486C215.659 23.6593 215.529 23.746 215.269 23.746C215.113 23.746 214.887 23.7287 214.593 23.694C214.298 23.6593 213.925 23.642 213.475 23.642C212.989 23.642 212.582 23.6593 212.253 23.694C211.941 23.7287 211.698 23.746 211.525 23.746C211.282 23.746 211.161 23.6593 211.161 23.486C211.161 23.3473 211.23 23.2607 211.369 23.226C211.507 23.2087 211.663 23.174 211.837 23.122C212.01 23.07 212.166 22.9747 212.305 22.836C212.443 22.7147 212.513 22.4807 212.513 22.134V9.004C212.513 8.692 212.452 8.484 212.331 8.38C212.227 8.276 212.105 8.21533 211.967 8.198C211.845 8.18067 211.733 8.172 211.629 8.172C211.525 8.172 211.473 8.11133 211.473 7.99C211.473 7.834 211.559 7.73 211.733 7.678C211.923 7.60867 212.114 7.50467 212.305 7.366C212.755 7.054 213.085 6.768 213.293 6.508C213.501 6.23067 213.648 6.092 213.735 6.092C213.821 6.092 213.865 6.15267 213.865 6.274C213.882 6.378 213.891 6.52533 213.891 6.716ZM213.969 15.79C213.969 16.102 214.038 16.3967 214.177 16.674C214.315 16.934 214.497 17.1593 214.723 17.35C214.965 17.5407 215.243 17.6967 215.555 17.818C215.867 17.922 216.205 17.974 216.569 17.974C217.609 17.974 218.458 17.4973 219.117 16.544C219.775 15.5733 220.105 14.1953 220.105 12.41C220.105 10.6593 219.793 9.32467 219.169 8.406C218.562 7.47 217.782 7.002 216.829 7.002C216.482 7.002 216.135 7.08 215.789 7.236C215.442 7.37467 215.13 7.58267 214.853 7.86C214.593 8.12 214.376 8.432 214.203 8.796C214.047 9.16 213.969 9.55867 213.969 9.992V15.79ZM227.438 10.07C228.513 10.07 229.301 10.0093 229.804 9.888C230.307 9.74933 230.558 9.42867 230.558 8.926C230.558 8.64867 230.497 8.37133 230.376 8.094C230.255 7.81667 230.081 7.56533 229.856 7.34C229.648 7.11467 229.397 6.93267 229.102 6.794C228.807 6.65533 228.495 6.586 228.166 6.586C227.75 6.586 227.351 6.69 226.97 6.898C226.589 7.106 226.251 7.366 225.956 7.678C225.679 7.99 225.453 8.33667 225.28 8.718C225.107 9.09933 225.02 9.472 225.02 9.836C225.02 9.888 225.046 9.94 225.098 9.992C225.15 10.044 225.219 10.07 225.306 10.07H227.438ZM231.468 10.694H225.28C225.055 10.694 224.916 10.772 224.864 10.928C224.812 11.0667 224.786 11.3527 224.786 11.786C224.786 12.6527 224.881 13.424 225.072 14.1C225.28 14.776 225.557 15.348 225.904 15.816C226.268 16.284 226.693 16.648 227.178 16.908C227.681 17.1507 228.227 17.272 228.816 17.272C229.353 17.272 229.804 17.1853 230.168 17.012C230.549 16.8387 230.861 16.648 231.104 16.44C231.347 16.232 231.537 16.0413 231.676 15.868C231.815 15.6947 231.91 15.608 231.962 15.608C232.083 15.608 232.144 15.6773 232.144 15.816C232.144 16.0067 232.049 16.258 231.858 16.57C231.667 16.8647 231.39 17.1593 231.026 17.454C230.679 17.7313 230.246 17.974 229.726 18.182C229.223 18.39 228.66 18.494 228.036 18.494C227.325 18.494 226.667 18.3467 226.06 18.052C225.471 17.7573 224.959 17.3413 224.526 16.804C224.093 16.2667 223.755 15.6167 223.512 14.854C223.287 14.0913 223.174 13.242 223.174 12.306C223.174 11.3527 223.313 10.4947 223.59 9.732C223.867 8.952 224.24 8.29333 224.708 7.756C225.176 7.21867 225.722 6.81133 226.346 6.534C226.97 6.23933 227.629 6.092 228.322 6.092C228.929 6.092 229.475 6.20467 229.96 6.43C230.445 6.65533 230.853 6.95867 231.182 7.34C231.529 7.704 231.789 8.13733 231.962 8.64C232.153 9.12533 232.248 9.628 232.248 10.148C232.248 10.3387 232.187 10.4773 232.066 10.564C231.962 10.6507 231.763 10.694 231.468 10.694ZM236.184 6.716V7.938C236.184 8.12867 236.218 8.224 236.288 8.224C236.357 8.224 236.461 8.10267 236.6 7.86C236.756 7.6 236.998 7.32267 237.328 7.028C237.674 6.716 238.021 6.482 238.368 6.326C238.732 6.17 239.122 6.092 239.538 6.092C240.508 6.092 241.288 6.44733 241.878 7.158C242.467 7.86867 242.762 8.83067 242.762 10.044V16.414C242.762 16.778 242.831 17.0293 242.97 17.168C243.108 17.2893 243.264 17.376 243.438 17.428C243.611 17.4627 243.767 17.4973 243.906 17.532C244.044 17.5493 244.114 17.6273 244.114 17.766C244.114 17.8873 244.079 17.9653 244.01 18C243.958 18.0173 243.862 18.026 243.724 18.026C243.602 18.026 243.403 18.0087 243.126 17.974C242.848 17.9393 242.484 17.922 242.034 17.922C241.67 17.922 241.349 17.9393 241.072 17.974C240.812 18.0087 240.586 18.026 240.396 18.026C240.24 18.026 240.127 18.0173 240.058 18C239.988 17.9827 239.954 17.9047 239.954 17.766C239.954 17.6273 240.023 17.5493 240.162 17.532C240.3 17.4973 240.456 17.454 240.63 17.402C240.803 17.35 240.959 17.2633 241.098 17.142C241.236 17.0033 241.306 16.7607 241.306 16.414V11.188C241.306 9.836 241.132 8.822 240.786 8.146C240.439 7.47 239.815 7.132 238.914 7.132C237.978 7.132 237.302 7.51333 236.886 8.276C236.47 9.02133 236.262 10.148 236.262 11.656V16.414C236.262 16.778 236.331 17.0293 236.47 17.168C236.608 17.2893 236.764 17.376 236.938 17.428C237.111 17.4627 237.267 17.4973 237.406 17.532C237.544 17.5493 237.614 17.6273 237.614 17.766C237.614 17.8873 237.579 17.9653 237.51 18C237.458 18.0173 237.362 18.026 237.224 18.026C237.102 18.026 236.903 18.0087 236.626 17.974C236.348 17.9393 235.984 17.922 235.534 17.922C235.204 17.922 234.901 17.9393 234.624 17.974C234.346 18.0087 234.086 18.026 233.844 18.026C233.705 18.026 233.601 18.0173 233.532 18C233.48 17.9653 233.454 17.8873 233.454 17.766C233.454 17.6273 233.523 17.5493 233.662 17.532C233.8 17.4973 233.956 17.454 234.13 17.402C234.303 17.35 234.459 17.2633 234.598 17.142C234.736 17.0033 234.806 16.7607 234.806 16.414V8.874C234.806 8.614 234.745 8.44933 234.624 8.38C234.52 8.29333 234.398 8.24133 234.26 8.224C234.138 8.20667 234.026 8.18933 233.922 8.172C233.818 8.15467 233.766 8.094 233.766 7.99C233.766 7.834 233.852 7.73 234.026 7.678C234.216 7.60867 234.407 7.50467 234.598 7.366C235.048 7.054 235.378 6.768 235.586 6.508C235.794 6.23067 235.941 6.092 236.028 6.092C236.114 6.092 236.158 6.15267 236.158 6.274C236.175 6.378 236.184 6.52533 236.184 6.716ZM254.467 0.58V15.556C254.467 16.076 254.484 16.4573 254.519 16.7C254.571 16.9427 254.701 17.064 254.909 17.064C254.978 17.064 255.056 17.038 255.143 16.986C255.229 16.9167 255.307 16.8473 255.377 16.778C255.463 16.6913 255.541 16.622 255.611 16.57C255.697 16.5007 255.775 16.466 255.845 16.466C255.897 16.466 255.923 16.5873 255.923 16.83C255.923 17.0207 255.888 17.1507 255.819 17.22C255.749 17.2893 255.602 17.3673 255.377 17.454C254.822 17.6967 254.397 17.9047 254.103 18.078C253.825 18.2687 253.635 18.364 253.531 18.364C253.357 18.364 253.245 18.1387 253.193 17.688L253.089 16.492H252.933C252.361 17.1507 251.789 17.6533 251.217 18C250.662 18.3293 250.081 18.494 249.475 18.494C248.903 18.494 248.357 18.3553 247.837 18.078C247.334 17.8007 246.892 17.402 246.511 16.882C246.147 16.3447 245.852 15.7033 245.627 14.958C245.419 14.1953 245.315 13.346 245.315 12.41C245.315 11.422 245.436 10.538 245.679 9.758C245.939 8.978 246.285 8.31933 246.719 7.782C247.152 7.22733 247.663 6.81133 248.253 6.534C248.859 6.23933 249.501 6.092 250.177 6.092C250.61 6.092 250.983 6.13533 251.295 6.222C251.607 6.29133 251.867 6.378 252.075 6.482C252.283 6.586 252.439 6.68133 252.543 6.768C252.664 6.83733 252.751 6.872 252.803 6.872C252.941 6.872 253.011 6.77667 253.011 6.586V2.634C253.011 1.854 252.742 1.464 252.205 1.464C252.187 1.464 252.161 1.47267 252.127 1.49C252.092 1.49 252.031 1.49 251.945 1.49C251.91 1.49 251.867 1.47267 251.815 1.438C251.763 1.386 251.737 1.32533 251.737 1.256C251.737 1.08267 251.841 0.978666 252.049 0.944C252.257 0.891999 252.491 0.822666 252.751 0.735999C253.201 0.579999 253.548 0.423999 253.791 0.267999C254.033 0.0946658 254.198 0.00799918 254.285 0.00799918C254.406 0.00799918 254.467 0.198666 254.467 0.58ZM253.011 8.77C253.011 8.458 252.941 8.172 252.803 7.912C252.664 7.63467 252.473 7.40067 252.231 7.21C252.005 7.01933 251.737 6.872 251.425 6.768C251.113 6.64667 250.775 6.586 250.411 6.586C249.371 6.586 248.521 7.07133 247.863 8.042C247.204 8.99533 246.875 10.3647 246.875 12.15C246.875 13.8833 247.178 15.2267 247.785 16.18C248.409 17.116 249.197 17.584 250.151 17.584C250.515 17.584 250.861 17.506 251.191 17.35C251.537 17.194 251.841 16.986 252.101 16.726C252.378 16.4487 252.595 16.128 252.751 15.764C252.924 15.4 253.011 15.0013 253.011 14.568V8.77ZM261.284 10.07C262.358 10.07 263.147 10.0093 263.65 9.888C264.152 9.74933 264.404 9.42867 264.404 8.926C264.404 8.64867 264.343 8.37133 264.222 8.094C264.1 7.81667 263.927 7.56533 263.702 7.34C263.494 7.11467 263.242 6.93267 262.948 6.794C262.653 6.65533 262.341 6.586 262.012 6.586C261.596 6.586 261.197 6.69 260.816 6.898C260.434 7.106 260.096 7.366 259.802 7.678C259.524 7.99 259.299 8.33667 259.126 8.718C258.952 9.09933 258.866 9.472 258.866 9.836C258.866 9.888 258.892 9.94 258.944 9.992C258.996 10.044 259.065 10.07 259.152 10.07H261.284ZM265.314 10.694H259.126C258.9 10.694 258.762 10.772 258.71 10.928C258.658 11.0667 258.632 11.3527 258.632 11.786C258.632 12.6527 258.727 13.424 258.918 14.1C259.126 14.776 259.403 15.348 259.75 15.816C260.114 16.284 260.538 16.648 261.024 16.908C261.526 17.1507 262.072 17.272 262.662 17.272C263.199 17.272 263.65 17.1853 264.014 17.012C264.395 16.8387 264.707 16.648 264.95 16.44C265.192 16.232 265.383 16.0413 265.522 15.868C265.66 15.6947 265.756 15.608 265.808 15.608C265.929 15.608 265.99 15.6773 265.99 15.816C265.99 16.0067 265.894 16.258 265.704 16.57C265.513 16.8647 265.236 17.1593 264.872 17.454C264.525 17.7313 264.092 17.974 263.572 18.182C263.069 18.39 262.506 18.494 261.882 18.494C261.171 18.494 260.512 18.3467 259.906 18.052C259.316 17.7573 258.805 17.3413 258.372 16.804C257.938 16.2667 257.6 15.6167 257.358 14.854C257.132 14.0913 257.02 13.242 257.02 12.306C257.02 11.3527 257.158 10.4947 257.436 9.732C257.713 8.952 258.086 8.29333 258.554 7.756C259.022 7.21867 259.568 6.81133 260.192 6.534C260.816 6.23933 261.474 6.092 262.168 6.092C262.774 6.092 263.32 6.20467 263.806 6.43C264.291 6.65533 264.698 6.95867 265.028 7.34C265.374 7.704 265.634 8.13733 265.808 8.64C265.998 9.12533 266.094 9.628 266.094 10.148C266.094 10.3387 266.033 10.4773 265.912 10.564C265.808 10.6507 265.608 10.694 265.314 10.694ZM270.029 6.716V7.938C270.029 8.12867 270.064 8.224 270.133 8.224C270.203 8.224 270.307 8.10267 270.445 7.86C270.601 7.6 270.844 7.32267 271.173 7.028C271.52 6.716 271.867 6.482 272.213 6.326C272.577 6.17 272.967 6.092 273.383 6.092C274.354 6.092 275.134 6.44733 275.723 7.158C276.313 7.86867 276.607 8.83067 276.607 10.044V16.414C276.607 16.778 276.677 17.0293 276.815 17.168C276.954 17.2893 277.11 17.376 277.283 17.428C277.457 17.4627 277.613 17.4973 277.751 17.532C277.89 17.5493 277.959 17.6273 277.959 17.766C277.959 17.8873 277.925 17.9653 277.855 18C277.803 18.0173 277.708 18.026 277.569 18.026C277.448 18.026 277.249 18.0087 276.971 17.974C276.694 17.9393 276.33 17.922 275.879 17.922C275.515 17.922 275.195 17.9393 274.917 17.974C274.657 18.0087 274.432 18.026 274.241 18.026C274.085 18.026 273.973 18.0173 273.903 18C273.834 17.9827 273.799 17.9047 273.799 17.766C273.799 17.6273 273.869 17.5493 274.007 17.532C274.146 17.4973 274.302 17.454 274.475 17.402C274.649 17.35 274.805 17.2633 274.943 17.142C275.082 17.0033 275.151 16.7607 275.151 16.414V11.188C275.151 9.836 274.978 8.822 274.631 8.146C274.285 7.47 273.661 7.132 272.759 7.132C271.823 7.132 271.147 7.51333 270.731 8.276C270.315 9.02133 270.107 10.148 270.107 11.656V16.414C270.107 16.778 270.177 17.0293 270.315 17.168C270.454 17.2893 270.61 17.376 270.783 17.428C270.957 17.4627 271.113 17.4973 271.251 17.532C271.39 17.5493 271.459 17.6273 271.459 17.766C271.459 17.8873 271.425 17.9653 271.355 18C271.303 18.0173 271.208 18.026 271.069 18.026C270.948 18.026 270.749 18.0087 270.471 17.974C270.194 17.9393 269.83 17.922 269.379 17.922C269.05 17.922 268.747 17.9393 268.469 17.974C268.192 18.0087 267.932 18.026 267.689 18.026C267.551 18.026 267.447 18.0173 267.377 18C267.325 17.9653 267.299 17.8873 267.299 17.766C267.299 17.6273 267.369 17.5493 267.507 17.532C267.646 17.4973 267.802 17.454 267.975 17.402C268.149 17.35 268.305 17.2633 268.443 17.142C268.582 17.0033 268.651 16.7607 268.651 16.414V8.874C268.651 8.614 268.591 8.44933 268.469 8.38C268.365 8.29333 268.244 8.24133 268.105 8.224C267.984 8.20667 267.871 8.18933 267.767 8.172C267.663 8.15467 267.611 8.094 267.611 7.99C267.611 7.834 267.698 7.73 267.871 7.678C268.062 7.60867 268.253 7.50467 268.443 7.366C268.894 7.054 269.223 6.768 269.431 6.508C269.639 6.23067 269.787 6.092 269.873 6.092C269.96 6.092 270.003 6.15267 270.003 6.274C270.021 6.378 270.029 6.52533 270.029 6.716ZM281.76 4.792V6.118C281.76 6.29133 281.778 6.41267 281.812 6.482C281.864 6.534 281.968 6.56 282.124 6.56H284.048C284.204 6.56 284.3 6.586 284.334 6.638C284.369 6.67267 284.386 6.75933 284.386 6.898V7.002C284.386 7.158 284.36 7.27067 284.308 7.34C284.274 7.40933 284.187 7.444 284.048 7.444H282.098C281.942 7.444 281.838 7.47867 281.786 7.548C281.752 7.6 281.734 7.71267 281.734 7.886V15.478C281.734 16.7953 282.15 17.454 282.982 17.454C283.208 17.454 283.416 17.402 283.606 17.298C283.797 17.194 283.962 17.09 284.1 16.986C284.256 16.8647 284.386 16.752 284.49 16.648C284.594 16.544 284.672 16.492 284.724 16.492C284.794 16.492 284.828 16.5613 284.828 16.7C284.828 16.7867 284.759 16.934 284.62 17.142C284.499 17.3327 284.317 17.532 284.074 17.74C283.849 17.9307 283.58 18.104 283.268 18.26C282.974 18.416 282.662 18.494 282.332 18.494C281.656 18.494 281.128 18.2253 280.746 17.688C280.382 17.1507 280.2 16.362 280.2 15.322V14.1L280.278 7.886C280.278 7.71267 280.252 7.6 280.2 7.548C280.166 7.47867 280.07 7.444 279.914 7.444H279.524C279.264 7.444 279.134 7.366 279.134 7.21C279.134 7.07133 279.264 6.90667 279.524 6.716C279.802 6.508 280.131 6.17867 280.512 5.728C280.894 5.27733 281.145 4.88733 281.266 4.558C281.405 4.22867 281.535 4.064 281.656 4.064C281.726 4.064 281.76 4.168 281.76 4.376V4.792ZM290.077 10.07C291.151 10.07 291.94 10.0093 292.443 9.888C292.945 9.74933 293.197 9.42867 293.197 8.926C293.197 8.64867 293.136 8.37133 293.015 8.094C292.893 7.81667 292.72 7.56533 292.495 7.34C292.287 7.11467 292.035 6.93267 291.741 6.794C291.446 6.65533 291.134 6.586 290.805 6.586C290.389 6.586 289.99 6.69 289.609 6.898C289.227 7.106 288.889 7.366 288.595 7.678C288.317 7.99 288.092 8.33667 287.919 8.718C287.745 9.09933 287.659 9.472 287.659 9.836C287.659 9.888 287.685 9.94 287.737 9.992C287.789 10.044 287.858 10.07 287.945 10.07H290.077ZM294.107 10.694H287.919C287.693 10.694 287.555 10.772 287.503 10.928C287.451 11.0667 287.425 11.3527 287.425 11.786C287.425 12.6527 287.52 13.424 287.711 14.1C287.919 14.776 288.196 15.348 288.543 15.816C288.907 16.284 289.331 16.648 289.817 16.908C290.319 17.1507 290.865 17.272 291.455 17.272C291.992 17.272 292.443 17.1853 292.807 17.012C293.188 16.8387 293.5 16.648 293.743 16.44C293.985 16.232 294.176 16.0413 294.315 15.868C294.453 15.6947 294.549 15.608 294.601 15.608C294.722 15.608 294.783 15.6773 294.783 15.816C294.783 16.0067 294.687 16.258 294.497 16.57C294.306 16.8647 294.029 17.1593 293.665 17.454C293.318 17.7313 292.885 17.974 292.365 18.182C291.862 18.39 291.299 18.494 290.675 18.494C289.964 18.494 289.305 18.3467 288.699 18.052C288.109 17.7573 287.598 17.3413 287.165 16.804C286.731 16.2667 286.393 15.6167 286.151 14.854C285.925 14.0913 285.813 13.242 285.813 12.306C285.813 11.3527 285.951 10.4947 286.229 9.732C286.506 8.952 286.879 8.29333 287.347 7.756C287.815 7.21867 288.361 6.81133 288.985 6.534C289.609 6.23933 290.267 6.092 290.961 6.092C291.567 6.092 292.113 6.20467 292.599 6.43C293.084 6.65533 293.491 6.95867 293.821 7.34C294.167 7.704 294.427 8.13733 294.601 8.64C294.791 9.12533 294.887 9.628 294.887 10.148C294.887 10.3387 294.826 10.4773 294.705 10.564C294.601 10.6507 294.401 10.694 294.107 10.694ZM300.122 6.092C300.66 6.092 301.076 6.12667 301.37 6.196C301.682 6.248 301.908 6.33467 302.046 6.456C302.202 6.56 302.298 6.69 302.332 6.846C302.367 6.98467 302.384 7.14067 302.384 7.314V8.38C302.384 8.72667 302.306 8.9 302.15 8.9C301.994 8.9 301.908 8.796 301.89 8.588C301.873 8.36267 301.752 8.05933 301.526 7.678C301.301 7.29667 301.024 7.01067 300.694 6.82C300.365 6.62933 300.018 6.534 299.654 6.534C299.152 6.534 298.727 6.716 298.38 7.08C298.034 7.42667 297.86 7.886 297.86 8.458C297.86 9.06467 298.034 9.54133 298.38 9.888C298.727 10.2173 299.247 10.5553 299.94 10.902C300.391 11.1273 300.798 11.344 301.162 11.552C301.526 11.76 301.838 11.994 302.098 12.254C302.358 12.514 302.558 12.826 302.696 13.19C302.852 13.5367 302.93 13.9787 302.93 14.516C302.93 15.7467 302.592 16.7173 301.916 17.428C301.24 18.1387 300.287 18.494 299.056 18.494C298.71 18.494 298.363 18.4593 298.016 18.39C297.687 18.3207 297.384 18.2167 297.106 18.078C296.846 17.9567 296.63 17.818 296.456 17.662C296.283 17.4887 296.196 17.298 296.196 17.09C296.196 16.9513 296.205 16.7 296.222 16.336C296.24 15.9547 296.248 15.4607 296.248 14.854C296.248 14.5593 296.344 14.412 296.534 14.412C296.69 14.412 296.786 14.5507 296.82 14.828C296.872 15.088 296.976 15.5213 297.132 16.128C297.306 16.752 297.54 17.2287 297.834 17.558C298.146 17.87 298.623 18.026 299.264 18.026C299.992 18.026 300.573 17.792 301.006 17.324C301.457 16.8387 301.682 16.206 301.682 15.426C301.682 14.7327 301.492 14.1953 301.11 13.814C300.729 13.4153 300.148 13.034 299.368 12.67C298.415 12.2193 297.704 11.76 297.236 11.292C296.786 10.824 296.56 10.2087 296.56 9.446C296.56 8.458 296.872 7.652 297.496 7.028C298.12 6.404 298.996 6.092 300.122 6.092Z" fill="black"/>
</svg>
