<svg width="19" height="20" viewBox="0 0 19 20" fill="none" xmlns="http://www.w3.org/2000/svg">
<path d="M1.5 0.0999984H4.44C4.58 0.0999984 4.69 0.109999 4.77 0.13C4.87 0.149999 4.94 0.24 4.98 0.4L9.45 14.08C9.51 14.24 9.58 14.32 9.66 14.32C9.74 14.32 9.81 14.23 9.87 14.05L14.22 0.639999C14.26 0.479999 14.31 0.35 14.37 0.25C14.43 0.149999 14.54 0.0999984 14.7 0.0999984H17.73C18.03 0.0999984 18.18 0.239998 18.18 0.519998C18.18 0.679999 18.13 0.789999 18.03 0.849999C17.95 0.889999 17.84 0.919999 17.7 0.939998C17.58 0.939998 17.43 0.949999 17.25 0.97C17.07 0.97 16.89 1.01 16.71 1.09C16.49 1.19 16.35 1.33 16.29 1.51C16.23 1.67 16.2 1.98 16.2 2.44V3.07L16.59 16.18C16.59 16.46 16.59 16.7 16.59 16.9C16.61 17.08 16.63 17.24 16.65 17.38C16.69 17.5 16.75 17.6 16.83 17.68C16.91 17.76 17.03 17.84 17.19 17.92C17.37 18 17.55 18.05 17.73 18.07C17.91 18.07 18.06 18.08 18.18 18.1C18.32 18.12 18.43 18.16 18.51 18.22C18.59 18.28 18.63 18.4 18.63 18.58C18.63 18.86 18.43 19 18.03 19C17.81 19 17.5 18.98 17.1 18.94C16.7 18.88 16.21 18.85 15.63 18.85C15.03 18.85 14.54 18.88 14.16 18.94C13.78 18.98 13.48 19 13.26 19C12.84 19 12.63 18.84 12.63 18.52C12.63 18.36 12.68 18.26 12.78 18.22C12.88 18.16 13 18.12 13.14 18.1C13.3 18.08 13.47 18.06 13.65 18.04C13.85 18.02 14.05 17.95 14.25 17.83C14.45 17.73 14.57 17.57 14.61 17.35C14.67 17.11 14.7 16.73 14.7 16.21V15.49L14.4 3.58C14.4 3.3 14.38 3.16 14.34 3.16C14.26 3.16 14.2 3.23 14.16 3.37L9.27 18.16C9.21 18.32 9.14 18.4 9.06 18.4C8.98 18.4 8.91 18.32 8.85 18.16L3.99 3.28C3.95 3.2 3.88 3.16 3.78 3.16C3.72 3.16 3.69 3.3 3.69 3.58L3.24 13.3C3.22 13.64 3.2 13.99 3.18 14.35C3.18 14.69 3.18 15.03 3.18 15.37C3.18 16.31 3.23 17.01 3.33 17.47C3.45 17.91 3.76 18.13 4.26 18.13C4.36 18.13 4.45 18.13 4.53 18.13C4.63 18.11 4.73 18.1 4.83 18.1C5.09 18.1 5.22 18.26 5.22 18.58C5.22 18.88 4.98 19.03 4.5 19.03C4.22 19.03 3.94 19.01 3.66 18.97C3.38 18.93 3.1 18.91 2.82 18.91C2.46 18.91 2.13 18.93 1.83 18.97C1.55 19.01 1.29 19.03 1.05 19.03C0.59 19.03 0.36 18.86 0.36 18.52C0.36 18.24 0.53 18.1 0.87 18.1C0.95 18.1 1.01 18.11 1.05 18.13C1.11 18.13 1.17 18.13 1.23 18.13C1.47 18.13 1.66 18.05 1.8 17.89C1.96 17.71 2.08 17.43 2.16 17.05C2.26 16.67 2.33 16.18 2.37 15.58C2.43 14.96 2.48 14.2 2.52 13.3L3.06 2.56V2.23C3.06 1.59 2.84 1.2 2.4 1.06C2.22 0.999999 2.04 0.97 1.86 0.97C1.7 0.949999 1.56 0.939998 1.44 0.939998C1.32 0.919999 1.22 0.889999 1.14 0.849999C1.08 0.789999 1.05 0.679999 1.05 0.519998C1.05 0.239998 1.2 0.0999984 1.5 0.0999984Z" fill="black"/>
</svg>
