<svg width="12" height="19" viewBox="0 0 12 19" fill="none" xmlns="http://www.w3.org/2000/svg">
<path d="M4.83 7.72V7.78C4.83 7.98 4.84 8.19 4.86 8.41C4.88 8.61 4.95 8.8 5.07 8.98C5.19 9.16 5.38 9.31 5.64 9.43C5.9 9.53 6.27 9.58 6.75 9.58C7.19 9.58 7.6 9.48 7.98 9.28C8.38 9.08 8.72 8.8 9 8.44C9.3 8.06 9.53 7.62 9.69 7.12C9.87 6.6 9.96 6.04 9.96 5.44C9.96 4.78 9.87 4.17 9.69 3.61C9.51 3.05 9.26 2.57 8.94 2.17C8.64 1.77 8.28 1.46 7.86 1.24C7.46 1.02 7.03 0.909999 6.57 0.909999C5.79 0.909999 5.3 1.03 5.1 1.27C4.92 1.51 4.83 1.89 4.83 2.41V7.72ZM4.83 10.39V16.18C4.83 16.78 4.86 17.2 4.92 17.44C4.98 17.68 5.19 17.86 5.55 17.98C5.71 18.04 5.86 18.08 6 18.1C6.16 18.1 6.29 18.11 6.39 18.13C6.51 18.15 6.6 18.19 6.66 18.25C6.74 18.31 6.78 18.42 6.78 18.58C6.78 18.86 6.58 19 6.18 19C6.02 19 5.74 18.98 5.34 18.94C4.96 18.88 4.45 18.85 3.81 18.85C3.17 18.85 2.65 18.88 2.25 18.94C1.87 18.98 1.6 19 1.44 19C1.06 19 0.87 18.84 0.87 18.52C0.87 18.24 1 18.1 1.26 18.1C1.64 18.1 1.93 18.06 2.13 17.98C2.35 17.9 2.5 17.78 2.58 17.62C2.68 17.46 2.74 17.26 2.76 17.02C2.78 16.78 2.79 16.5 2.79 16.18V2.44C2.79 1.98 2.76 1.66 2.7 1.48C2.66 1.3 2.5 1.16 2.22 1.06C2.06 0.999999 1.91 0.97 1.77 0.97C1.63 0.97 1.5 0.959999 1.38 0.939998C1.28 0.919999 1.19 0.889999 1.11 0.849999C1.05 0.789999 1.02 0.679999 1.02 0.519998C1.02 0.239998 1.2 0.0999984 1.56 0.0999984C1.8 0.0999984 2.01 0.119999 2.19 0.159999C2.39 0.179999 2.56 0.189999 2.7 0.189999H3.12C3.88 0.189999 4.58 0.179999 5.22 0.159999C5.88 0.119999 6.49 0.0999984 7.05 0.0999984C8.63 0.0999984 9.84 0.579999 10.68 1.54C11.54 2.48 11.97 3.8 11.97 5.5C11.97 6.24 11.85 6.93 11.61 7.57C11.39 8.19 11.09 8.73 10.71 9.19C10.33 9.65 9.89 10.01 9.39 10.27C8.91 10.53 8.41 10.66 7.89 10.66C7.55 10.66 7.23 10.62 6.93 10.54C6.63 10.44 6.35 10.34 6.09 10.24C5.85 10.14 5.64 10.05 5.46 9.97C5.28 9.87 5.14 9.82 5.04 9.82C4.9 9.82 4.83 10.01 4.83 10.39Z" fill="black"/>
</svg>
