<svg width="44" height="44" viewBox="0 0 44 44" fill="none" xmlns="http://www.w3.org/2000/svg">
<circle cx="22" cy="22" r="21" fill="#F8FC5F" stroke="#707070"/>
<path d="M8.57 17.849L10.187 20.705C10.243 20.831 10.306 20.894 10.376 20.894C10.46 20.894 10.537 20.838 10.607 20.726L12.014 18.185C12.168 17.891 12.28 17.618 12.35 17.366C12.42 17.114 12.455 16.932 12.455 16.82C12.455 16.652 12.399 16.54 12.287 16.484C12.189 16.428 12.077 16.393 11.951 16.379C11.839 16.351 11.727 16.323 11.615 16.295C11.517 16.253 11.468 16.162 11.468 16.022C11.468 15.854 11.58 15.77 11.804 15.77C11.86 15.77 12.028 15.791 12.308 15.833C12.588 15.875 13.022 15.896 13.61 15.896C14.002 15.896 14.338 15.882 14.618 15.854C14.898 15.812 15.115 15.791 15.269 15.791C15.507 15.791 15.626 15.875 15.626 16.043C15.626 16.155 15.591 16.232 15.521 16.274C15.465 16.316 15.374 16.351 15.248 16.379C15.136 16.393 15.003 16.414 14.849 16.442C14.709 16.456 14.555 16.491 14.387 16.547C14.163 16.631 13.918 16.799 13.652 17.051C13.4 17.289 13.162 17.604 12.938 17.996L10.922 21.461C10.88 21.531 10.859 21.608 10.859 21.692C10.859 21.804 10.873 21.881 10.901 21.923L13.568 26.585C13.778 26.963 13.974 27.292 14.156 27.572C14.352 27.852 14.569 28.076 14.807 28.244C14.919 28.328 15.031 28.391 15.143 28.433C15.255 28.461 15.353 28.489 15.437 28.517C15.521 28.531 15.591 28.559 15.647 28.601C15.703 28.629 15.731 28.671 15.731 28.727C15.731 28.797 15.689 28.867 15.605 28.937C15.535 28.993 15.43 29.021 15.29 29.021C14.898 29.021 14.513 28.993 14.135 28.937C13.757 28.867 13.386 28.832 13.022 28.832C12.7 28.832 12.434 28.86 12.224 28.916C12.014 28.958 11.86 28.979 11.762 28.979H11.594C11.37 28.979 11.258 28.895 11.258 28.727C11.258 28.573 11.321 28.482 11.447 28.454C11.587 28.412 11.734 28.384 11.888 28.37C12.056 28.342 12.203 28.3 12.329 28.244C12.469 28.188 12.539 28.062 12.539 27.866C12.539 27.754 12.511 27.614 12.455 27.446C12.413 27.264 12.343 27.096 12.245 26.942L10.187 23.435C10.131 23.323 10.061 23.267 9.977 23.267C9.907 23.267 9.844 23.316 9.788 23.414L8.003 26.648C7.849 26.928 7.737 27.187 7.667 27.425C7.611 27.649 7.583 27.81 7.583 27.908C7.583 28.09 7.639 28.209 7.751 28.265C7.877 28.321 8.01 28.363 8.15 28.391C8.304 28.405 8.444 28.433 8.57 28.475C8.696 28.517 8.759 28.608 8.759 28.748C8.759 28.93 8.619 29.021 8.339 29.021C8.185 29.021 7.968 29 7.688 28.958C7.408 28.902 7.079 28.874 6.701 28.874C6.253 28.874 5.889 28.895 5.609 28.937C5.329 28.965 5.126 28.979 5 28.979C4.79 28.979 4.685 28.895 4.685 28.727C4.685 28.615 4.72 28.538 4.79 28.496C4.846 28.44 4.923 28.405 5.021 28.391C5.133 28.377 5.252 28.363 5.378 28.349C5.518 28.335 5.651 28.307 5.777 28.265C6.043 28.167 6.267 27.999 6.449 27.761C6.645 27.523 6.862 27.201 7.1 26.795L9.452 22.742C9.48 22.7 9.494 22.651 9.494 22.595C9.508 22.539 9.515 22.476 9.515 22.406C9.515 22.308 9.487 22.21 9.431 22.112L7.184 18.206C6.918 17.758 6.687 17.387 6.491 17.093C6.309 16.799 6.134 16.596 5.966 16.484C5.854 16.414 5.742 16.372 5.63 16.358C5.518 16.344 5.413 16.33 5.315 16.316C5.231 16.302 5.154 16.281 5.084 16.253C5.028 16.225 5 16.169 5 16.085C5 16.015 5.042 15.945 5.126 15.875C5.21 15.805 5.315 15.77 5.441 15.77C5.721 15.77 6.05 15.805 6.428 15.875C6.82 15.931 7.261 15.959 7.751 15.959C8.115 15.959 8.409 15.938 8.633 15.896C8.857 15.84 9.025 15.812 9.137 15.812C9.361 15.812 9.473 15.903 9.473 16.085C9.473 16.239 9.403 16.337 9.263 16.379C9.137 16.407 8.997 16.435 8.843 16.463C8.689 16.477 8.542 16.512 8.402 16.568C8.276 16.624 8.213 16.743 8.213 16.925C8.213 17.121 8.332 17.429 8.57 17.849ZM24.511 26.501V24.17C24.511 23.848 24.483 23.624 24.427 23.498C24.385 23.372 24.259 23.274 24.049 23.204C23.923 23.162 23.797 23.141 23.671 23.141C23.559 23.127 23.454 23.12 23.356 23.12C23.272 23.106 23.202 23.085 23.146 23.057C23.09 23.015 23.062 22.938 23.062 22.826C23.062 22.644 23.167 22.553 23.377 22.553C23.517 22.553 23.741 22.581 24.049 22.637C24.357 22.679 24.756 22.7 25.246 22.7C25.708 22.7 26.079 22.679 26.359 22.637C26.639 22.581 26.842 22.553 26.968 22.553C27.15 22.553 27.241 22.644 27.241 22.826C27.241 22.924 27.22 22.994 27.178 23.036C27.136 23.078 27.073 23.106 26.989 23.12C26.919 23.134 26.835 23.141 26.737 23.141C26.639 23.141 26.534 23.155 26.422 23.183C26.184 23.253 26.044 23.358 26.002 23.498C25.96 23.624 25.939 23.848 25.939 24.17V26.69C25.939 26.9 25.939 27.075 25.939 27.215C25.953 27.341 25.96 27.425 25.96 27.467C25.96 27.719 25.848 27.964 25.624 28.202C25.4 28.426 25.106 28.629 24.742 28.811C24.378 28.979 23.958 29.119 23.482 29.231C23.02 29.343 22.537 29.399 22.033 29.399C21.151 29.399 20.346 29.231 19.618 28.895C18.89 28.559 18.26 28.097 17.728 27.509C17.21 26.907 16.804 26.193 16.51 25.367C16.216 24.541 16.069 23.638 16.069 22.658C16.069 21.608 16.23 20.642 16.552 19.76C16.888 18.864 17.343 18.094 17.917 17.45C18.491 16.806 19.17 16.302 19.954 15.938C20.738 15.574 21.592 15.392 22.516 15.392C22.88 15.392 23.223 15.42 23.545 15.476C23.867 15.532 24.154 15.602 24.406 15.686C24.658 15.756 24.868 15.84 25.036 15.938C25.218 16.022 25.337 16.099 25.393 16.169C25.477 16.281 25.526 16.526 25.54 16.904C25.568 17.282 25.582 17.807 25.582 18.479C25.582 18.675 25.505 18.773 25.351 18.773C25.197 18.773 25.092 18.661 25.036 18.437C24.994 18.199 24.896 17.912 24.742 17.576C24.518 17.058 24.196 16.659 23.776 16.379C23.356 16.099 22.859 15.959 22.285 15.959C21.641 15.959 21.039 16.12 20.479 16.442C19.933 16.764 19.45 17.212 19.03 17.786C18.624 18.346 18.302 19.025 18.064 19.823C17.84 20.607 17.728 21.461 17.728 22.385C17.728 23.351 17.847 24.233 18.085 25.031C18.323 25.815 18.645 26.487 19.051 27.047C19.471 27.607 19.961 28.041 20.521 28.349C21.081 28.643 21.683 28.79 22.327 28.79C22.817 28.79 23.202 28.734 23.482 28.622C23.776 28.51 24 28.356 24.154 28.16C24.308 27.95 24.406 27.705 24.448 27.425C24.49 27.145 24.511 26.837 24.511 26.501ZM36.6721 26.501V24.17C36.6721 23.848 36.6441 23.624 36.5881 23.498C36.5461 23.372 36.4201 23.274 36.2101 23.204C36.0841 23.162 35.9581 23.141 35.8321 23.141C35.7201 23.127 35.6151 23.12 35.5171 23.12C35.4331 23.106 35.3631 23.085 35.3071 23.057C35.2511 23.015 35.2231 22.938 35.2231 22.826C35.2231 22.644 35.3281 22.553 35.5381 22.553C35.6781 22.553 35.9021 22.581 36.2101 22.637C36.5181 22.679 36.9171 22.7 37.4071 22.7C37.8691 22.7 38.2401 22.679 38.5201 22.637C38.8001 22.581 39.0031 22.553 39.1291 22.553C39.3111 22.553 39.4021 22.644 39.4021 22.826C39.4021 22.924 39.3811 22.994 39.3391 23.036C39.2971 23.078 39.2341 23.106 39.1501 23.12C39.0801 23.134 38.9961 23.141 38.8981 23.141C38.8001 23.141 38.6951 23.155 38.5831 23.183C38.3451 23.253 38.2051 23.358 38.1631 23.498C38.1211 23.624 38.1001 23.848 38.1001 24.17V26.69C38.1001 26.9 38.1001 27.075 38.1001 27.215C38.1141 27.341 38.1211 27.425 38.1211 27.467C38.1211 27.719 38.0091 27.964 37.7851 28.202C37.5611 28.426 37.2671 28.629 36.9031 28.811C36.5391 28.979 36.1191 29.119 35.6431 29.231C35.1811 29.343 34.6981 29.399 34.1941 29.399C33.3121 29.399 32.5071 29.231 31.7791 28.895C31.0511 28.559 30.4211 28.097 29.8891 27.509C29.3711 26.907 28.9651 26.193 28.6711 25.367C28.3771 24.541 28.2301 23.638 28.2301 22.658C28.2301 21.608 28.3911 20.642 28.7131 19.76C29.0491 18.864 29.5041 18.094 30.0781 17.45C30.6521 16.806 31.3311 16.302 32.1151 15.938C32.8991 15.574 33.7531 15.392 34.6771 15.392C35.0411 15.392 35.3841 15.42 35.7061 15.476C36.0281 15.532 36.3151 15.602 36.5671 15.686C36.8191 15.756 37.0291 15.84 37.1971 15.938C37.3791 16.022 37.4981 16.099 37.5541 16.169C37.6381 16.281 37.6871 16.526 37.7011 16.904C37.7291 17.282 37.7431 17.807 37.7431 18.479C37.7431 18.675 37.6661 18.773 37.5121 18.773C37.3581 18.773 37.2531 18.661 37.1971 18.437C37.1551 18.199 37.0571 17.912 36.9031 17.576C36.6791 17.058 36.3571 16.659 35.9371 16.379C35.5171 16.099 35.0201 15.959 34.4461 15.959C33.8021 15.959 33.2001 16.12 32.6401 16.442C32.0941 16.764 31.6111 17.212 31.1911 17.786C30.7851 18.346 30.4631 19.025 30.2251 19.823C30.0011 20.607 29.8891 21.461 29.8891 22.385C29.8891 23.351 30.0081 24.233 30.2461 25.031C30.4841 25.815 30.8061 26.487 31.2121 27.047C31.6321 27.607 32.1221 28.041 32.6821 28.349C33.2421 28.643 33.8441 28.79 34.4881 28.79C34.9781 28.79 35.3631 28.734 35.6431 28.622C35.9371 28.51 36.1611 28.356 36.3151 28.16C36.4691 27.95 36.5671 27.705 36.6091 27.425C36.6511 27.145 36.6721 26.837 36.6721 26.501Z" fill="black"/>
</svg>
