<svg width="114" height="97" viewBox="0 0 114 97" fill="none" xmlns="http://www.w3.org/2000/svg">
<path d="M1.25 1.19092L112.72 48.5L1.25 95.809L1.25 1.19092Z" fill="#F8FC5F" stroke="#707070"/>
<path d="M34.3301 49.304C35.4301 49.304 35.9801 48.8273 35.9801 47.874C35.9801 47.3973 35.8664 47.027 35.6391 46.763C35.4191 46.4917 35.1257 46.356 34.7591 46.356C34.5684 46.356 34.4181 46.367 34.3081 46.389C34.2054 46.4037 34.1284 46.433 34.0771 46.477C34.0257 46.521 33.9927 46.5797 33.9781 46.653C33.9634 46.719 33.9561 46.807 33.9561 46.917V49.117C33.9561 49.1903 33.9634 49.2417 33.9781 49.271C34.0001 49.293 34.0441 49.304 34.1101 49.304H34.3301ZM35.2211 49.447C35.4117 49.5277 35.5547 49.6597 35.6501 49.843C35.7454 50.019 35.8481 50.239 35.9581 50.503L36.4421 51.658C36.5667 51.9587 36.6657 52.1897 36.7391 52.351C36.8124 52.5123 36.8857 52.6077 36.9591 52.637C37.0837 52.6883 37.1901 52.725 37.2781 52.747C37.3734 52.7617 37.4211 52.8093 37.4211 52.89C37.4211 52.9633 37.3807 53 37.3001 53C37.2634 53 37.2194 52.9963 37.1681 52.989C37.1241 52.9817 37.0727 52.978 37.0141 52.978C36.8967 52.978 36.7941 52.9817 36.7061 52.989C36.6181 52.9963 36.5411 53 36.4751 53C36.3504 53 36.2661 52.9743 36.2221 52.923C36.1781 52.8643 36.1267 52.769 36.0681 52.637L35.1111 50.393C35.0451 50.239 34.9901 50.1107 34.9461 50.008C34.9021 49.9053 34.8507 49.8247 34.7921 49.766C34.7334 49.7 34.6601 49.656 34.5721 49.634C34.4914 49.6047 34.3814 49.59 34.2421 49.59H34.1101C34.0441 49.59 34.0001 49.6047 33.9781 49.634C33.9634 49.656 33.9561 49.7037 33.9561 49.777V51.966C33.9561 52.186 33.9671 52.3363 33.9891 52.417C34.0111 52.4903 34.0734 52.5527 34.1761 52.604C34.2421 52.6333 34.3044 52.6517 34.3631 52.659C34.4217 52.6663 34.4731 52.6737 34.5171 52.681C34.5684 52.681 34.6051 52.692 34.6271 52.714C34.6564 52.736 34.6711 52.78 34.6711 52.846C34.6711 52.9487 34.5977 53 34.4511 53C34.3924 53 34.2897 52.9927 34.1431 52.978C34.0037 52.956 33.8167 52.945 33.5821 52.945C33.3474 52.945 33.1567 52.956 33.0101 52.978C32.8707 52.9927 32.7717 53 32.7131 53C32.5737 53 32.5041 52.9413 32.5041 52.824C32.5041 52.714 32.5921 52.659 32.7681 52.659C32.9367 52.659 33.0504 52.6187 33.1091 52.538C33.1677 52.45 33.1971 52.3327 33.1971 52.186C33.1971 52.1713 33.1971 52.1457 33.1971 52.109C33.2044 52.0723 33.2081 52.0247 33.2081 51.966V46.928C33.2081 46.7593 33.1971 46.642 33.1751 46.576C33.1604 46.51 33.1017 46.4587 32.9991 46.422C32.9404 46.4 32.8854 46.389 32.8341 46.389C32.7827 46.389 32.7351 46.3853 32.6911 46.378C32.6544 46.3707 32.6214 46.3597 32.5921 46.345C32.5701 46.323 32.5591 46.2827 32.5591 46.224C32.5591 46.1213 32.6251 46.07 32.7571 46.07C32.8304 46.07 32.9404 46.0737 33.0871 46.081C33.2411 46.0883 33.4317 46.092 33.6591 46.092C33.7837 46.092 33.9194 46.0883 34.0661 46.081C34.2127 46.0737 34.3814 46.07 34.5721 46.07C35.2761 46.07 35.8041 46.202 36.1561 46.466C36.5081 46.73 36.6841 47.159 36.6841 47.753C36.6841 48.2223 36.5594 48.6037 36.3101 48.897C36.0607 49.183 35.6977 49.3663 35.2211 49.447ZM39.3346 49.645C39.7893 49.645 40.123 49.6193 40.3356 49.568C40.5483 49.5093 40.6546 49.3737 40.6546 49.161C40.6546 49.0437 40.629 48.9263 40.5776 48.809C40.5263 48.6917 40.453 48.5853 40.3576 48.49C40.2696 48.3947 40.1633 48.3177 40.0386 48.259C39.914 48.2003 39.782 48.171 39.6426 48.171C39.4666 48.171 39.298 48.215 39.1366 48.303C38.9753 48.391 38.8323 48.501 38.7076 48.633C38.5903 48.765 38.495 48.9117 38.4216 49.073C38.3483 49.2343 38.3116 49.392 38.3116 49.546C38.3116 49.568 38.3226 49.59 38.3446 49.612C38.3666 49.634 38.396 49.645 38.4326 49.645H39.3346ZM41.0396 49.909H38.4216C38.3263 49.909 38.2676 49.942 38.2456 50.008C38.2236 50.0667 38.2126 50.1877 38.2126 50.371C38.2126 50.7377 38.253 51.064 38.3336 51.35C38.4216 51.636 38.539 51.878 38.6856 52.076C38.8396 52.274 39.0193 52.428 39.2246 52.538C39.4373 52.6407 39.6683 52.692 39.9176 52.692C40.145 52.692 40.3356 52.6553 40.4896 52.582C40.651 52.5087 40.783 52.428 40.8856 52.34C40.9883 52.252 41.069 52.1713 41.1276 52.098C41.1863 52.0247 41.2266 51.988 41.2486 51.988C41.3 51.988 41.3256 52.0173 41.3256 52.076C41.3256 52.1567 41.2853 52.263 41.2046 52.395C41.124 52.5197 41.0066 52.6443 40.8526 52.769C40.706 52.8863 40.5226 52.989 40.3026 53.077C40.09 53.165 39.8516 53.209 39.5876 53.209C39.287 53.209 39.0083 53.1467 38.7516 53.022C38.5023 52.8973 38.286 52.7213 38.1026 52.494C37.9193 52.2667 37.7763 51.9917 37.6736 51.669C37.5783 51.3463 37.5306 50.987 37.5306 50.591C37.5306 50.1877 37.5893 49.8247 37.7066 49.502C37.824 49.172 37.9816 48.8933 38.1796 48.666C38.3776 48.4387 38.6086 48.2663 38.8726 48.149C39.1366 48.0243 39.4153 47.962 39.7086 47.962C39.9653 47.962 40.1963 48.0097 40.4016 48.105C40.607 48.2003 40.7793 48.3287 40.9186 48.49C41.0653 48.644 41.1753 48.8273 41.2486 49.04C41.3293 49.2453 41.3696 49.458 41.3696 49.678C41.3696 49.7587 41.344 49.8173 41.2926 49.854C41.2486 49.8907 41.1643 49.909 41.0396 49.909ZM44.1237 47.962C44.4977 47.962 44.791 48.0207 45.0037 48.138C45.2237 48.2553 45.3337 48.4203 45.3337 48.633C45.3337 49.0877 45.2787 49.315 45.1687 49.315C45.0953 49.315 45.044 49.2747 45.0147 49.194C44.9853 49.106 44.9303 48.985 44.8497 48.831C44.725 48.611 44.5967 48.446 44.4647 48.336C44.34 48.226 44.1823 48.171 43.9917 48.171C43.8083 48.171 43.6323 48.2223 43.4637 48.325C43.3023 48.4203 43.1593 48.567 43.0347 48.765C42.91 48.963 42.811 49.2087 42.7377 49.502C42.6643 49.7953 42.6277 50.1327 42.6277 50.514C42.6277 51.262 42.7707 51.8377 43.0567 52.241C43.3427 52.637 43.7167 52.835 44.1787 52.835C44.362 52.835 44.5197 52.8057 44.6517 52.747C44.791 52.6883 44.9083 52.626 45.0037 52.56C45.099 52.4867 45.1723 52.4207 45.2237 52.362C45.275 52.3033 45.3117 52.274 45.3337 52.274C45.385 52.274 45.4107 52.296 45.4107 52.34C45.4107 52.3913 45.374 52.4683 45.3007 52.571C45.2347 52.6663 45.1393 52.7617 45.0147 52.857C44.89 52.9523 44.7397 53.033 44.5637 53.099C44.3877 53.1723 44.1897 53.209 43.9697 53.209C43.6837 53.209 43.416 53.1467 43.1667 53.022C42.9247 52.8973 42.712 52.7213 42.5287 52.494C42.3453 52.2593 42.2023 51.9807 42.0997 51.658C41.997 51.3353 41.9457 50.976 41.9457 50.58C41.9457 50.184 42.0043 49.8247 42.1217 49.502C42.2463 49.1793 42.4077 48.9043 42.6057 48.677C42.811 48.4497 43.0457 48.2737 43.3097 48.149C43.5737 48.0243 43.845 47.962 44.1237 47.962ZM47.735 49.645C48.1897 49.645 48.5234 49.6193 48.736 49.568C48.9487 49.5093 49.055 49.3737 49.055 49.161C49.055 49.0437 49.0294 48.9263 48.978 48.809C48.9267 48.6917 48.8534 48.5853 48.758 48.49C48.67 48.3947 48.5637 48.3177 48.439 48.259C48.3144 48.2003 48.1824 48.171 48.043 48.171C47.867 48.171 47.6984 48.215 47.537 48.303C47.3757 48.391 47.2327 48.501 47.108 48.633C46.9907 48.765 46.8954 48.9117 46.822 49.073C46.7487 49.2343 46.712 49.392 46.712 49.546C46.712 49.568 46.723 49.59 46.745 49.612C46.767 49.634 46.7964 49.645 46.833 49.645H47.735ZM49.44 49.909H46.822C46.7267 49.909 46.668 49.942 46.646 50.008C46.624 50.0667 46.613 50.1877 46.613 50.371C46.613 50.7377 46.6534 51.064 46.734 51.35C46.822 51.636 46.9394 51.878 47.086 52.076C47.24 52.274 47.4197 52.428 47.625 52.538C47.8377 52.6407 48.0687 52.692 48.318 52.692C48.5454 52.692 48.736 52.6553 48.89 52.582C49.0514 52.5087 49.1834 52.428 49.286 52.34C49.3887 52.252 49.4694 52.1713 49.528 52.098C49.5867 52.0247 49.627 51.988 49.649 51.988C49.7004 51.988 49.726 52.0173 49.726 52.076C49.726 52.1567 49.6857 52.263 49.605 52.395C49.5244 52.5197 49.407 52.6443 49.253 52.769C49.1064 52.8863 48.923 52.989 48.703 53.077C48.4904 53.165 48.252 53.209 47.988 53.209C47.6874 53.209 47.4087 53.1467 47.152 53.022C46.9027 52.8973 46.6864 52.7213 46.503 52.494C46.3197 52.2667 46.1767 51.9917 46.074 51.669C45.9787 51.3463 45.931 50.987 45.931 50.591C45.931 50.1877 45.9897 49.8247 46.107 49.502C46.2244 49.172 46.382 48.8933 46.58 48.666C46.778 48.4387 47.009 48.2663 47.273 48.149C47.537 48.0243 47.8157 47.962 48.109 47.962C48.3657 47.962 48.5967 48.0097 48.802 48.105C49.0074 48.2003 49.1797 48.3287 49.319 48.49C49.4657 48.644 49.5757 48.8273 49.649 49.04C49.7297 49.2453 49.77 49.458 49.77 49.678C49.77 49.7587 49.7444 49.8173 49.693 49.854C49.649 49.8907 49.5647 49.909 49.44 49.909ZM51.2481 45.63V48.699C51.2481 48.7797 51.2627 48.82 51.2921 48.82C51.3214 48.82 51.3654 48.7723 51.4241 48.677C51.4901 48.5743 51.5927 48.4607 51.7321 48.336C51.8861 48.204 52.0364 48.1087 52.1831 48.05C52.3297 47.984 52.5057 47.951 52.7111 47.951C52.9751 47.951 53.2171 48.0133 53.4371 48.138C53.6644 48.2553 53.8587 48.4277 54.0201 48.655C54.1814 48.875 54.3061 49.1427 54.3941 49.458C54.4894 49.7733 54.5371 50.1253 54.5371 50.514C54.5371 50.9393 54.4821 51.3207 54.3721 51.658C54.2694 51.988 54.1264 52.2703 53.9431 52.505C53.7597 52.7323 53.5397 52.9047 53.2831 53.022C53.0337 53.1467 52.7661 53.209 52.4801 53.209C52.2674 53.209 52.0731 53.1907 51.8971 53.154C51.7284 53.1173 51.5817 53.0733 51.4571 53.022C51.3324 52.978 51.2297 52.9377 51.1491 52.901C51.0757 52.8643 51.0244 52.846 50.9951 52.846C50.9584 52.846 50.9254 52.868 50.8961 52.912C50.8667 52.956 50.8374 53.0037 50.8081 53.055C50.7787 53.1063 50.7494 53.154 50.7201 53.198C50.6907 53.242 50.6541 53.264 50.6101 53.264C50.5441 53.264 50.5111 53.22 50.5111 53.132C50.5111 53.0953 50.5294 52.9963 50.5661 52.835C50.6101 52.6663 50.6321 52.4537 50.6321 52.197V46.499C50.6321 46.169 50.5221 46.004 50.3021 46.004C50.2947 46.004 50.2801 46.0077 50.2581 46.015C50.2434 46.015 50.2177 46.015 50.1811 46.015C50.1297 46.015 50.1041 45.982 50.1041 45.916C50.1041 45.8353 50.1444 45.7877 50.2251 45.773C50.3057 45.7583 50.4084 45.7327 50.5331 45.696C50.7164 45.6373 50.8594 45.5713 50.9621 45.498C51.0721 45.4247 51.1454 45.388 51.1821 45.388C51.2261 45.388 51.2481 45.4687 51.2481 45.63ZM51.2481 52.065C51.2481 52.197 51.2774 52.3217 51.3361 52.439C51.3947 52.549 51.4754 52.6443 51.5781 52.725C51.6807 52.8057 51.7981 52.8717 51.9301 52.923C52.0621 52.967 52.2051 52.989 52.3591 52.989C52.7991 52.989 53.1547 52.7873 53.4261 52.384C53.7047 51.9733 53.8441 51.3903 53.8441 50.635C53.8441 49.8943 53.7157 49.3297 53.4591 48.941C53.2024 48.545 52.8724 48.347 52.4691 48.347C52.3224 48.347 52.1757 48.38 52.0291 48.446C51.8824 48.5047 51.7504 48.5927 51.6331 48.71C51.5157 48.82 51.4204 48.952 51.3471 49.106C51.2811 49.26 51.2481 49.4287 51.2481 49.612V52.065ZM58.0088 49.205V51.966C58.0088 52.4207 58.1078 52.648 58.3058 52.648C58.3865 52.648 58.4598 52.6077 58.5258 52.527C58.5992 52.4463 58.6578 52.406 58.7018 52.406C58.7532 52.406 58.7788 52.4317 58.7788 52.483C58.7788 52.5417 58.7458 52.6113 58.6798 52.692C58.6212 52.7653 58.5478 52.8387 58.4598 52.912C58.3718 52.9853 58.2765 53.044 58.1738 53.088C58.0785 53.1393 57.9942 53.165 57.9208 53.165C57.7742 53.165 57.6605 53.11 57.5798 53C57.5065 52.8827 57.4368 52.6957 57.3708 52.439H57.3268C57.0482 52.6737 56.7988 52.8607 56.5788 53C56.3662 53.1393 56.1425 53.209 55.9078 53.209C55.6438 53.209 55.4385 53.132 55.2918 52.978C55.1452 52.8167 55.0718 52.604 55.0718 52.34C55.0718 52.1347 55.1195 51.944 55.2148 51.768C55.3102 51.5847 55.4532 51.4087 55.6438 51.24C55.8418 51.064 56.0838 50.8843 56.3698 50.701C56.6558 50.5177 56.9858 50.3197 57.3598 50.107V49.139C57.3598 48.8017 57.3232 48.5597 57.2498 48.413C57.1838 48.2663 57.0372 48.193 56.8098 48.193C56.6192 48.193 56.4395 48.259 56.2708 48.391C56.1022 48.523 55.9848 48.6807 55.9188 48.864C55.8382 49.0913 55.7575 49.2857 55.6768 49.447C55.5962 49.601 55.4532 49.678 55.2478 49.678C55.1965 49.678 55.1525 49.6633 55.1158 49.634C55.0792 49.5973 55.0608 49.5497 55.0608 49.491C55.0608 49.359 55.1085 49.205 55.2038 49.029C55.2992 48.853 55.4348 48.6843 55.6108 48.523C55.7868 48.3617 55.9958 48.226 56.2378 48.116C56.4798 48.006 56.7438 47.951 57.0298 47.951C57.2572 47.951 57.4368 47.9803 57.5688 48.039C57.7008 48.0977 57.7998 48.182 57.8658 48.292C57.9318 48.402 57.9722 48.534 57.9868 48.688C58.0015 48.842 58.0088 49.0143 58.0088 49.205ZM57.3708 50.547C57.3708 50.4737 57.3488 50.437 57.3048 50.437C57.2828 50.437 57.2462 50.4517 57.1948 50.481L56.8648 50.668C56.1168 51.1007 55.7428 51.559 55.7428 52.043C55.7428 52.2483 55.7942 52.4133 55.8968 52.538C55.9995 52.6553 56.1425 52.714 56.3258 52.714C56.4358 52.714 56.5495 52.6883 56.6668 52.637C56.7915 52.5857 56.9052 52.5123 57.0078 52.417C57.1178 52.3143 57.2058 52.1933 57.2718 52.054C57.3378 51.9073 57.3708 51.7423 57.3708 51.559V50.547Z" fill="#1E1E1E"/>
</svg>
